<?xml version="1.0" encoding="utf-8"?>
<!-- Generator: Adobe Illustrator 22.1.0, SVG Export Plug-In . SVG Version: 6.00 Build 0)  -->
<svg version="1.1" id="Layer_1" xmlns="http://www.w3.org/2000/svg" xmlns:xlink="http://www.w3.org/1999/xlink" x="0px" y="0px"
	 width="12px" height="12px" viewBox="0 0 12 12" style="enable-background:new 0 0 12 12;" xml:space="preserve">
<style type="text/css">
	.st0{fill:#BFC0C0;}
</style>
<path class="st0" d="M7.4,6l4.3-4.3c0.4-0.4,0.4-1,0-1.4s-1-0.4-1.4,0L6,4.6L1.7,0.3c-0.4-0.4-1-0.4-1.4,0s-0.4,1,0,1.4L4.6,6
	l-4.3,4.3c-0.4,0.4-0.4,1,0,1.4C0.5,11.9,0.7,12,1,12s0.5-0.1,0.7-0.3L6,7.4l4.3,4.3c0.2,0.2,0.5,0.3,0.7,0.3s0.5-0.1,0.7-0.3
	c0.4-0.4,0.4-1,0-1.4L7.4,6z"/>
</svg>
