<svg xmlns="http://www.w3.org/2000/svg" width="21.125" height="23.969" viewBox="0 0 21.125 23.969">
  <defs>
    <style>
      .cls-1 {
        fill: #737779;
        fill-rule: evenodd;
      }
    </style>
  </defs>
  <path class="cls-1" d="M393.026,589.98a2.659,2.659,0,0,0,2.649-2.665h-5.3A2.659,2.659,0,0,0,393.026,589.98Zm0-23.989h0Zm10.152,16.428-2.2-3.243v-5.24a7.913,7.913,0,0,0-7.769-7.944h-0.092l-0.092,0a8.288,8.288,0,0,0-7.971,8.044l-0.128,5.1-2.125,3.249c-0.8,1.23-.268,2.228,1.2,2.228h18.017C403.482,584.617,404,583.631,403.179,582.419Zm-16.918-.468,1.3-1.982,0.148-5.864a5.629,5.629,0,0,1,5.43-5.448,5.255,5.255,0,0,1,5.2,5.279V580l1.324,1.953H386.261Z" transform="translate(-382.438 -566)"/>
</svg>
