<svg xmlns="http://www.w3.org/2000/svg" width="31" height="24.969" viewBox="0 0 31 24.969">
  <defs>
    <style>
      .cls-1 {
        fill-rule: evenodd;
      }
    </style>
  </defs>
  <path class="cls-1" d="M1858.28,138.833h-4.89v-0.06a2.75,2.75,0,0,0-.8-1.961,2.667,2.667,0,0,0-1.92-.814h-8.84a2.685,2.685,0,0,0-1.95.814,2.8,2.8,0,0,0-.8,1.961v0.06h-4.86a3.3,3.3,0,0,0-2.45,1.056,3.624,3.624,0,0,0-1.03,2.5v15.024a3.563,3.563,0,0,0,3.48,3.56h24.06a3.3,3.3,0,0,0,2.45-1.056,3.624,3.624,0,0,0,1.03-2.5V142.393a3.446,3.446,0,0,0-1.03-2.5A3.3,3.3,0,0,0,1858.28,138.833Zm1.95,18.584h-0.03a1.972,1.972,0,0,1-.56,1.387,1.892,1.892,0,0,1-1.36.574h-24.06a1.892,1.892,0,0,1-1.36-.574,1.972,1.972,0,0,1-.56-1.387V142.393a1.974,1.974,0,0,1,.56-1.387,1.892,1.892,0,0,1,1.36-.573h5.69a0.808,0.808,0,0,0,.8-0.815v-0.875a1.183,1.183,0,0,1,.32-0.845,1.152,1.152,0,0,1,.83-0.332h8.81a1.152,1.152,0,0,1,.83.332,1.183,1.183,0,0,1,.32.845v0.875a0.808,0.808,0,0,0,.8.815h5.69a1.892,1.892,0,0,1,1.36.573,1.974,1.974,0,0,1,.56,1.387v15.024Zm-13.98-14.933a7.181,7.181,0,0,0-5.13,2.172,7.558,7.558,0,0,0,0,10.5,7.108,7.108,0,0,0,5.13,2.172,7.181,7.181,0,0,0,5.13-2.172,7.43,7.43,0,0,0,2.12-5.249,7.507,7.507,0,0,0-2.12-5.249A7.181,7.181,0,0,0,1846.25,142.484Zm4.01,11.554a5.6,5.6,0,0,1-8.02,0,5.844,5.844,0,0,1-1.65-4.1,5.976,5.976,0,0,1,1.65-4.1,5.577,5.577,0,0,1,4.01-1.689,5.7,5.7,0,0,1,4.01,1.689,5.844,5.844,0,0,1,1.65,4.1A5.717,5.717,0,0,1,1850.26,154.038Zm6.49-11.584a1.479,1.479,0,1,0,1.44,1.478A1.464,1.464,0,0,0,1856.75,142.454Z" transform="translate(-1830.75 -136)"/>
</svg>
