<svg xmlns="http://www.w3.org/2000/svg" width="32.969" height="32.97" viewBox="0 0 32.969 32.97">
  <defs>
    <style>
      .cls-1 {
        fill: #c6c8c8;
        fill-rule: evenodd;
      }
    </style>
  </defs>
  <path class="cls-1" d="M143.447,1257.93a16.5,16.5,0,1,0,16.491,16.5A16.513,16.513,0,0,0,143.447,1257.93Zm-8.7,28.03a64.378,64.378,0,0,0,7.261-4.15,3.054,3.054,0,0,0,.662-2.37,3.839,3.839,0,0,0-1.3-2.74c-0.773-.56-2.583-1.85-2.583-7.62a5,5,0,0,1,1.315-3.74,5.251,5.251,0,0,1,3.311-1.27h0.112a5.272,5.272,0,0,1,3.3,1.26,4.964,4.964,0,0,1,1.327,3.75c0,5.77-1.81,7.06-2.583,7.62a3.836,3.836,0,0,0-1.3,2.74,3.059,3.059,0,0,0,.663,2.37,65.219,65.219,0,0,0,7.239,4.14A14.356,14.356,0,0,1,134.743,1285.96Zm19.052-1.43c-3.329-1.73-6.982-3.73-7.431-4.13a2.4,2.4,0,0,1,.373-2.06c1.6-1.14,3.429-3.22,3.429-9.26a6.9,6.9,0,0,0-1.95-5.21,7.148,7.148,0,0,0-4.579-1.81h0c-0.015,0-.077-0.01-0.172-0.01s-0.157.01-.172,0.01h0a7.152,7.152,0,0,0-4.58,1.81,6.9,6.9,0,0,0-1.949,5.21c0,6.04,1.832,8.12,3.429,9.26a2.444,2.444,0,0,1,.393,2.04c-0.47.42-4.14,2.43-7.475,4.16A14.472,14.472,0,1,1,153.795,1284.53Z" transform="translate(-126.969 -1257.94)"/>
</svg>
