<svg xmlns="http://www.w3.org/2000/svg" width="35.031" height="31" viewBox="0 0 35.031 31">
  <defs>
    <style>
      .cls-1 {
        fill: #c6c8c8;
        fill-rule: evenodd;
      }
    </style>
  </defs>
  <path class="cls-1" d="M378.6,1233.12a51.713,51.713,0,0,0,7.427-3.03,15.327,15.327,0,0,0,3.683.46c7.588,0,13.74-5.5,13.74-12.28S397.3,1206,389.711,1206s-13.739,5.5-13.739,12.27a11.9,11.9,0,0,0,5.644,9.91A5.884,5.884,0,0,1,378.6,1233.12Zm32.387-10.29a12.1,12.1,0,0,0-7.655-11.75c7.655,16.98-9.147,21.37-14.682,21.73,4.632,3.04,11.581,1.02,11.581,1.02s3.611,2.81,7.262,3.17c-3.533-1.74-3.023-4.63-3.023-4.63S410.988,1228.89,410.988,1222.83Z" transform="translate(-375.969 -1206)"/>
</svg>
