<svg xmlns="http://www.w3.org/2000/svg" width="31" height="31.04" viewBox="0 0 31 31.04">
  <defs>
    <style>
      .cls-1 {
        fill: #c6c8c8;
        fill-rule: evenodd;
      }
    </style>
  </defs>
  <path class="cls-1" d="M392.974,1282.35v-1.97h-3.012a12.5,12.5,0,0,0-.566-2.86l2.787-1.14-0.753-1.83-2.8,1.15a12.523,12.523,0,0,0-1.647-2.46l2.146-2.14-1.4-1.4-2.148,2.15a12.17,12.17,0,0,0-2.409-1.61l1.171-2.81-1.826-.76-1.17,2.8a12.6,12.6,0,0,0-2.9-.57v-3.05h-1.979v3.05a12.7,12.7,0,0,0-2.84.56l-1.158-2.81-1.83.75,1.161,2.82a12.471,12.471,0,0,0-2.453,1.64l-2.158-2.16-1.4,1.4,2.157,2.15a12.94,12.94,0,0,0-1.616,2.4l-2.809-1.17-0.761,1.83,2.8,1.17a12.332,12.332,0,0,0-.583,2.9h-3.033v1.97h3.03a12.484,12.484,0,0,0,.549,2.86l-2.788,1.14,0.753,1.83,2.793-1.15a12.461,12.461,0,0,0,1.637,2.47l-2.131,2.13,1.4,1.4,2.128-2.13a12.232,12.232,0,0,0,2.413,1.63l-1.155,2.77,1.827,0.76,1.151-2.76a12.245,12.245,0,0,0,2.914.58v3h1.979v-3a12.319,12.319,0,0,0,2.863-.55l1.136,2.76,1.83-.76-1.139-2.77a12.178,12.178,0,0,0,2.47-1.65l2.118,2.12,1.4-1.4-2.12-2.12a12.332,12.332,0,0,0,1.619-2.42l2.769,1.16,0.762-1.83-2.767-1.15a12.538,12.538,0,0,0,.571-2.92h3.009Zm-15.017-1.79-5.827-8.26a10.447,10.447,0,0,1,5.344-1.47,10.571,10.571,0,0,1,10.518,9.73H377.957Zm-0.01,1.98h10.022a10.569,10.569,0,0,1-10.5,9.41,10.4,10.4,0,0,1-5.331-1.46Zm-7.421-9.08,5.7,8.08-5.689,7.8A10.522,10.522,0,0,1,370.526,1273.46Z" transform="translate(-361.969 -1265.84)"/>
</svg>
