<svg xmlns="http://www.w3.org/2000/svg" width="24.031" height="28.03" viewBox="0 0 24.031 28.03">
  <defs>
    <style>
      .cls-1 {
        fill: #c6c8c8;
        fill-rule: evenodd;
      }
    </style>
  </defs>
  <path class="cls-1" d="M530.607,1279.73a9.33,9.33,0,0,1-6.649-2.76l-0.375-.37a9.442,9.442,0,0,1,0-13.33l9.522-9.55a6.9,6.9,0,0,1,9.742,9.77l-9.124,9.14a3.712,3.712,0,0,1-5.25,0l-0.561-.56a3.725,3.725,0,0,1,0-5.26l6.913-6.93,1.389,1.39-6.912,6.93a1.758,1.758,0,0,0,0,2.48l0.56,0.56a1.753,1.753,0,0,0,2.472,0l9.123-9.14a4.929,4.929,0,1,0-6.962-6.98l-9.522,9.54a7.465,7.465,0,0,0,0,10.54l0.375,0.38a7.433,7.433,0,0,0,10.518,0l7.311-7.33,1.389,1.39-7.311,7.33A9.33,9.33,0,0,1,530.607,1279.73Z" transform="translate(-520.844 -1251.69)"/>
</svg>
