<svg xmlns="http://www.w3.org/2000/svg" width="31.75" height="33" viewBox="0 0 31.75 33">
  <defs>
    <style>
      .cls-1 {
        fill: #c6c8c8;
        fill-rule: evenodd;
      }
    </style>
  </defs>
  <path class="cls-1" d="M386.846,1297.91a3.189,3.189,0,0,1-.544-0.05c-2.558-.58-7.61-3.76-14.127-10.95l-0.041-.04c-6.758-7-9.6-12.26-10.007-14.86-0.164-1.05.39-2.33,1.649-3.8,1.1-1.28,3.386-3.31,4.861-3.31,2.144,0,7.048,7.18,7.146,8.25,0.065,0.72-.5,1.39-1.356,2.4a10.476,10.476,0,0,0-1.2,1.59,42.965,42.965,0,0,0,4.073,4.8l0.07,0.07a41.54,41.54,0,0,0,4.571,4.42,10.959,10.959,0,0,0,1.657-1.08c1.064-.79,1.763-1.31,2.484-1.19,1.062,0.16,7.9,5.54,7.756,7.68-0.1,1.47-2.28,3.62-3.632,4.63A6.006,6.006,0,0,1,386.846,1297.91Zm-18.259-31.02a9.637,9.637,0,0,0-3.571,2.93,3.275,3.275,0,0,0-.93,1.88c0.276,1.77,2.582,6.66,9.474,13.8,6.713,7.4,11.437,10.03,13.179,10.42a3.187,3.187,0,0,0,1.94-.8,9.638,9.638,0,0,0,3.168-3.37c-0.4-1.12-4.687-4.78-6-5.56-0.28.17-.742,0.51-1.071,0.75-1.245.92-2.321,1.72-3.3,1.45s-3.537-2.85-5.522-4.99l-0.06-.05c-2.01-2.13-4.449-4.89-4.65-5.89s0.667-2.01,1.669-3.2c0.264-.31.637-0.75,0.819-1.01C373.041,1271.88,369.68,1267.35,368.587,1266.89Z" transform="translate(-362.094 -1264.91)"/>
</svg>
