<svg xmlns="http://www.w3.org/2000/svg" width="32.125" height="31.69" viewBox="0 0 32.125 31.69">
  <defs>
    <style>
      .cls-1 {
        fill: #c6c8c8;
        fill-rule: evenodd;
      }
    </style>
  </defs>
  <path class="cls-1" d="M548.747,1267.79L545.9,1256.9a8.8,8.8,0,0,0-10.733-6.3l-11.709,3.11a8.862,8.862,0,0,0-6.257,10.81l2.849,10.89a8.778,8.778,0,0,0,4.07,5.38,8.631,8.631,0,0,0,6.663.91l11.708-3.1A8.863,8.863,0,0,0,548.747,1267.79Zm-6.764,8.88-11.708,3.1a6.7,6.7,0,0,1-5.157-.7,6.817,6.817,0,0,1-3.151-4.17l-2.849-10.89a6.864,6.864,0,0,1,4.844-8.37l11.708-3.11a6.92,6.92,0,0,1,1.744-.22,6.707,6.707,0,0,1,3.414.93,6.79,6.79,0,0,1,3.151,4.17l2.849,10.89A6.866,6.866,0,0,1,541.983,1276.67Zm-1.678-9.87a16.413,16.413,0,0,0,1.23-1.91l-1.734-.97a12,12,0,0,1-12.813,6.51l-0.428,1.95a11.866,11.866,0,0,0,2.3.19,14.674,14.674,0,0,0,5.75-1.16,4.085,4.085,0,0,0,2.454,2,2.946,2.946,0,0,0,.59.06,3.924,3.924,0,0,0,2.726-1.36,3.658,3.658,0,0,0,1.344-3.42A3.253,3.253,0,0,0,540.3,1266.8Zm-1.331,3.9a1.939,1.939,0,0,1-1.5.75,2.1,2.1,0,0,1-1.1-.97,13.686,13.686,0,0,0,2.633-2.14,1.609,1.609,0,0,1,.782.82A2.008,2.008,0,0,1,538.974,1270.7Zm-9.222-6.29a1.985,1.985,0,1,0-1.985,2A2,2,0,0,0,529.752,1264.41Zm5.458-1.5a2,2,0,1,0-1.985-2A1.989,1.989,0,0,0,535.21,1262.91Z" transform="translate(-516.906 -1250.31)"/>
</svg>
