<?xml version="1.0" encoding="utf-8"?>
<!-- Generator: Adobe Illustrator 19.0.0, SVG Export Plug-In . SVG Version: 6.00 Build 0)  -->
<svg version="1.1" id="Layer_1" xmlns="http://www.w3.org/2000/svg" xmlns:xlink="http://www.w3.org/1999/xlink" x="0px" y="0px"
	 width="20px" height="20px" viewBox="288.4 339.6 20 20" style="enable-background:new 288.4 339.6 20 20;" xml:space="preserve">
<style type="text/css">
	.st0{fill:#FFFFFF;}
	.st1{fill:#939393;}
	.st2{opacity:0.5;}
	.st3{fill:#2E2E2E;}
</style>
<g>
	<g id="XMLID_7_">
		<path id="XMLID_8_" class="st0" d="M298.4,340.1c-5.2,0-9.5,4.2-9.5,9.5c0,5.2,4.2,9.5,9.5,9.5c5.2,0,9.5-4.2,9.5-9.5
			C307.9,344.4,303.7,340.1,298.4,340.1z M298.4,354.2c-2.5,0-4.6-2.1-4.6-4.6s2.1-4.6,4.6-4.6s4.6,2.1,4.6,4.6
			S301,354.2,298.4,354.2z"/>
		<path id="XMLID_11_" class="st1" d="M298.4,359.6c-5.5,0-10-4.5-10-10s4.5-10,10-10s10,4.5,10,10S303.9,359.6,298.4,359.6z
			 M298.4,340.6c-5,0-9,4-9,9s4,9,9,9s9-4,9-9S303.4,340.6,298.4,340.6z M298.4,354.7c-2.8,0-5.1-2.3-5.1-5.1s2.3-5.1,5.1-5.1
			s5.1,2.3,5.1,5.1S301.2,354.7,298.4,354.7z M298.4,345.5c-2.3,0-4.1,1.8-4.1,4.1s1.8,4.1,4.1,4.1s4.1-1.8,4.1-4.1
			S300.7,345.5,298.4,345.5z"/>
	</g>
</g>
<g id="XMLID_5_" class="st2">
	<circle id="XMLID_1_" class="st0" cx="298.4" cy="349.6" r="4.5"/>
	<path id="XMLID_2_" class="st3" d="M298.4,354.6c-2.8,0-5-2.3-5-5s2.3-5,5-5c2.8,0,5,2.3,5,5S301.2,354.6,298.4,354.6z
		 M298.4,345.6c-2.2,0-4,1.8-4,4s1.8,4,4,4s4-1.8,4-4S300.6,345.6,298.4,345.6z"/>
</g>
</svg>
