<?xml version="1.0" encoding="utf-8"?>
<!-- Generator: Adobe Illustrator 19.0.0, SVG Export Plug-In . SVG Version: 6.00 Build 0)  -->
<svg version="1.1" id="Layer_1" xmlns="http://www.w3.org/2000/svg" xmlns:xlink="http://www.w3.org/1999/xlink" x="0px" y="0px"
	 width="15px" height="15px" viewBox="-3 747.9 15 15" style="enable-background:new -3 747.9 15 15;" xml:space="preserve">
<style type="text/css">
	.st0{fill:#FFFFFF;}
	.st1{fill:#939393;}
	.st2{opacity:0.5;}
	.st3{fill:#2E2E2E;}
</style>
<g>
	<g id="XMLID_7_">
		<path id="XMLID_8_" class="st0" d="M4.5,748.3c-3.9,0-7.1,3.2-7.1,7.1c0,3.9,3.2,7.1,7.1,7.1c3.9,0,7.1-3.2,7.1-7.1
			C11.6,751.5,8.5,748.3,4.5,748.3z M4.5,758.8c-1.9,0-3.5-1.6-3.5-3.5s1.6-3.5,3.5-3.5s3.5,1.6,3.5,3.5S6.5,758.8,4.5,758.8z"/>
		<path id="XMLID_11_" class="st1" d="M4.5,762.9c-4.1,0-7.5-3.4-7.5-7.5s3.4-7.5,7.5-7.5s7.5,3.4,7.5,7.5S8.6,762.9,4.5,762.9z
			 M4.5,748.6c-3.8,0-6.8,3-6.8,6.8s3,6.8,6.8,6.8s6.8-3,6.8-6.8S8.3,748.6,4.5,748.6z M4.5,759.2c-2.1,0-3.8-1.7-3.8-3.8
			s1.7-3.8,3.8-3.8s3.8,1.7,3.8,3.8S6.6,759.2,4.5,759.2z M4.5,752.3c-1.7,0-3.1,1.3-3.1,3.1s1.3,3.1,3.1,3.1s3.1-1.3,3.1-3.1
			S6.2,752.3,4.5,752.3z"/>
	</g>
</g>
<g id="XMLID_5_" class="st2">
	<circle id="XMLID_1_" class="st0" cx="4.5" cy="755.4" r="3.4"/>
	<path id="XMLID_2_" class="st3" d="M4.5,759.1c-2.1,0-3.8-1.7-3.8-3.8s1.7-3.8,3.8-3.8c2.1,0,3.8,1.7,3.8,3.8S6.6,759.1,4.5,759.1z
		 M4.5,752.4c-1.7,0-3,1.3-3,3s1.3,3,3,3s3-1.3,3-3S6.2,752.4,4.5,752.4z"/>
</g>
</svg>
