<?xml version="1.0" encoding="utf-8"?>
<!-- Generator: Adobe Illustrator 19.0.0, SVG Export Plug-In . SVG Version: 6.00 Build 0)  -->
<svg version="1.1" id="Layer_1" xmlns="http://www.w3.org/2000/svg" xmlns:xlink="http://www.w3.org/1999/xlink" x="0px" y="0px"
	 width="9px" height="9px" viewBox="0 0 9 9" style="enable-background:new 0 0 9 9;" xml:space="preserve">
<style type="text/css">
	.st0{fill:#9BA6B1;}
</style>
<g id="XMLID_2_">
	<g id="XMLID_164_">
		<path id="XMLID_181_" class="st0" d="M4.8,1.2c0,0.1-0.1,0.3-0.3,0.3c-0.1,0-0.3-0.1-0.3-0.3c0-0.1,0.1-0.3,0.3-0.3
			C4.6,0.9,4.8,1,4.8,1.2L4.8,1.2z M4.8,1.2"/>
		<path id="XMLID_177_" class="st0" d="M4.5,9C2,9,0,7,0,4.5C0,2,2,0,4.5,0C7,0,9,2,9,4.5C9,7,7,9,4.5,9L4.5,9z M4.5,0.5
			c-2.2,0-3.9,1.8-3.9,3.9s1.8,3.9,3.9,3.9c2.2,0,3.9-1.8,3.9-3.9C8.4,2.3,6.7,0.5,4.5,0.5L4.5,0.5z M4.5,0.5"/>
		<path id="XMLID_174_" class="st0" d="M4.8,7.8c0,0.1-0.1,0.3-0.3,0.3C4.4,8.1,4.2,8,4.2,7.8c0-0.1,0.1-0.3,0.3-0.3
			C4.6,7.5,4.8,7.7,4.8,7.8L4.8,7.8z M4.8,7.8"/>
		<path id="XMLID_171_" class="st0" d="M8.1,4.5c0,0.1-0.1,0.3-0.3,0.3c-0.1,0-0.3-0.1-0.3-0.3c0-0.1,0.1-0.3,0.3-0.3
			C8,4.2,8.1,4.3,8.1,4.5L8.1,4.5z M8.1,4.5"/>
		<path id="XMLID_168_" class="st0" d="M1.5,4.5c0,0.1-0.1,0.3-0.3,0.3C1,4.7,0.9,4.6,0.9,4.5c0-0.1,0.1-0.3,0.3-0.3
			C1.3,4.2,1.5,4.3,1.5,4.5L1.5,4.5z M1.5,4.5"/>
		<path id="XMLID_165_" class="st0" d="M4.4,5.1C4.3,5.1,4.3,5,4.2,5L3.3,4c-0.1-0.1-0.1-0.3,0-0.4c0.1-0.1,0.3-0.1,0.4,0l0.7,0.7
			l1.7-1.7c0.1-0.1,0.3-0.1,0.4,0c0.1,0.1,0.1,0.3,0,0.4L4.6,5C4.6,5,4.5,5.1,4.4,5.1L4.4,5.1z M4.4,5.1"/>
	</g>
</g>
</svg>
