<svg xmlns="http://www.w3.org/2000/svg" width="34" height="34" viewBox="0 0 34 34">
  <defs>
    <style>
      .cls-1 {
        fill: #83c55f;
        fill-rule: evenodd;
      }
    </style>
  </defs>
  <path class="cls-1" d="M1339.47,1137.87a1.509,1.509,0,0,0-.42.05l-3.14.84,0.85,3.17,3.14-.84h0a1.539,1.539,0,0,0,.99-0.77,1.562,1.562,0,0,0,.16-1.23,1.639,1.639,0,0,0-1.58-1.22m-2.06-4.55a1.523,1.523,0,0,0-.42.06l-2.35.63,0.85,3.17,2.35-.63a1.644,1.644,0,0,0,1.15-2.01,1.651,1.651,0,0,0-1.58-1.22m-3.41-1.69,1.57-.42-0.8-2.98a0.183,0.183,0,0,1,.15-0.24l1.18-.31,0.15,0.02,0.1,0.12,0.79,2.97h0a5.486,5.486,0,0,1,1.35-.19,3.7,3.7,0,0,1,3.64,3.1,3.232,3.232,0,0,0,2.06,4.54,3.763,3.763,0,0,1-2.87,5.02l-0.78.21,0.79,2.97-0.02.15-0.12.1-1.18.31a0.183,0.183,0,0,1-.24-0.14l-0.8-2.97-1.57.42,0.79,2.97-0.02.15-0.12.1-1.18.32c-0.03,0-.05.01-0.07,0.01a0.18,0.18,0,0,1-.18-0.15l-0.79-2.98-3.29.88-0.17-.04-0.08-.16-0.03-1.27a0.193,0.193,0,0,1,.14-0.2,1.459,1.459,0,0,0,1.01-1.96l-1.7-6.34a1.642,1.642,0,0,0-1.58-1.21,1.509,1.509,0,0,0-.42.05l-0.2.05a0.06,0.06,0,0,1-.04.01,0.226,0.226,0,0,1-.21-0.15l-0.31-1.19,0.02-.15,0.12-.1,3.34-.89-0.8-2.98a0.189,0.189,0,0,1,.15-0.25l1.17-.31,0.16,0.02,0.09,0.12,0.8,2.97m2.99-10.64a16.974,16.974,0,0,0-15.7,10.5,17,17,0,0,0,3.68,18.52,16.993,16.993,0,0,0,27.72-5.51,17.012,17.012,0,0,0-15.7-23.51" transform="translate(-1320 -1121)"/>
</svg>
