<svg xmlns="http://www.w3.org/2000/svg" width="34" height="34" viewBox="0 0 34 34">
  <defs>
    <style>
      .cls-1 {
        fill: #f79330;
        fill-rule: evenodd;
      }
    </style>
  </defs>
  <path class="cls-1" d="M1283.72,1000.49a17.022,17.022,0,0,0-9.21-9.2,17,17,0,1,0,5.52,27.718A17,17,0,0,0,1283.72,1000.49Zm-9.3,5.5a3.206,3.206,0,0,1-1.31,1.85,3.046,3.046,0,0,1,.82,3.12,3.752,3.752,0,0,1-4.99,2.9l-0.79-.21-0.79,2.97a0.221,0.221,0,0,1-.1.13,0.2,0.2,0,0,1-.15.02l-1.18-.32a0.2,0.2,0,0,1-.15-0.24l0.8-2.98-1.57-.42-0.8,2.97a0.176,0.176,0,0,1-.09.13,0.285,0.285,0,0,1-.16.02l-1.18-.32a0.206,0.206,0,0,1-.14-0.24l0.8-2.98-3.29-.88a0.2,0.2,0,0,1-.13-0.12,0.168,0.168,0,0,1,.01-0.18l0.61-1.11a0.184,0.184,0,0,1,.22-0.1,1.47,1.47,0,0,0,1.86-1.2l1.69-6.34a1.588,1.588,0,0,0-.15-1.24,1.609,1.609,0,0,0-.99-0.76l-0.2-.05a0.181,0.181,0,0,1-.14-0.25l0.31-1.193a0.183,0.183,0,0,1,.25-0.144l3.35,0.895,0.8-2.979a0.175,0.175,0,0,1,.24-0.138l1.18,0.316a0.182,0.182,0,0,1,.12.1,0.171,0.171,0,0,1,.02.155l-0.79,2.972,1.57,0.42,0.8-2.979a0.184,0.184,0,0,1,.25-0.138l1.17,0.316a0.2,0.2,0,0,1,.13.1,0.21,0.21,0,0,1,.02.155l-0.8,2.971h0A3.757,3.757,0,0,1,1274.42,1005.99Zm-4.78,2.12-3.14-.84-0.85,3.17,3.14,0.84h0a1.584,1.584,0,0,0,1.24-.17,1.652,1.652,0,0,0,.6-2.24A1.557,1.557,0,0,0,1269.64,1008.11Zm-1.87-5.6h0Zm2.36,0.64-2.36-.64-0.85,3.17,2.36,0.63a1.581,1.581,0,0,0,1.24-.16,1.6,1.6,0,0,0,.76-1,1.63,1.63,0,0,0-.16-1.24A1.574,1.574,0,0,0,1270.13,1003.15Z" transform="translate(-1251 -990)"/>
</svg>
