<svg xmlns="http://www.w3.org/2000/svg" width="34" height="34" viewBox="0 0 34 34">
  <defs>
    <style>
      .cls-1 {
        fill: #d22c33;
        fill-rule: evenodd;
      }
    </style>
  </defs>
  <path class="cls-1" d="M965.448,124.48A17.146,17.146,0,0,0,953.5,112.552a13.766,13.766,0,0,0-4.229-.545c-0.931-.013-1.814-0.007-1.965.014a17.2,17.2,0,0,0-15.162,14.225A13.49,13.49,0,0,0,932,129a13.585,13.585,0,0,0,.538,4.5,17.149,17.149,0,0,0,11.933,11.943A13.673,13.673,0,0,0,949,146a13.012,13.012,0,0,0,2.779-.158,17.4,17.4,0,0,0,7.56-3.276,22.957,22.957,0,0,0,3.229-3.227,17.372,17.372,0,0,0,3.276-7.557A12.917,12.917,0,0,0,966,129,13.659,13.659,0,0,0,965.448,124.48Zm-11.41,12.037a5.3,5.3,0,0,1-2.4,1.473c-0.831.272-.848,0.3-0.9,1.745-0.049,1.58.017,1.507-1.408,1.54-1.655.041-1.721-.017-1.721-1.6,0-1.153-.041-1.2-0.914-1.35a8.626,8.626,0,0,1-3.466-1.169,0.488,0.488,0,0,1-.2-0.593,18.61,18.61,0,0,1,.807-2.658c0.14-.173.42-0.124,1.153,0.222a11.1,11.1,0,0,0,2.915.823c1.482,0.214,2.841-.288,3.252-1.193a1.745,1.745,0,0,0-.526-2.067,9.322,9.322,0,0,0-2.487-1.267,9.363,9.363,0,0,1-3.739-2.264,4.769,4.769,0,0,1-.691-5.457,5.414,5.414,0,0,1,3.046-2.618,3.468,3.468,0,0,0,.906-0.46,2.327,2.327,0,0,0,.189-1.317c0.033-1.013.058-1.161,0.2-1.268a7.432,7.432,0,0,1,2.47-.032c0.272,0.1.379,0.5,0.379,1.448,0,1,.058,1.062,1.021,1.235a6.563,6.563,0,0,1,2.825,1.013,0.532,0.532,0,0,1,.107.279,19,19,0,0,1-.791,2.667c-0.156.256-.42,0.239-1.087-0.049a6.781,6.781,0,0,0-4.5-.436,1.425,1.425,0,0,0-.741,2.164,6.007,6.007,0,0,0,2.652,1.589,18.31,18.31,0,0,1,2.989,1.5A5.607,5.607,0,0,1,955.6,132.1,4.982,4.982,0,0,1,954.038,136.517Z" transform="translate(-932 -112)"/>
</svg>
