<svg xmlns="http://www.w3.org/2000/svg" width="34" height="34" viewBox="0 0 34 34">
  <defs>
    <style>
      .cls-1 {
        fill: #f60;
        fill-rule: evenodd;
      }
    </style>
  </defs>
  <path id="curr-monero" class="cls-1" d="M613,247a17,17,0,1,0,17,17A17,17,0,0,0,613,247Zm-0.031,28.531a11.517,11.517,0,0,1-9.817-5.516h4.83v-6.078l3.272,3.273h0L613,268.925l1.714-1.715,3.242-3.273v6.078h4.831A11.481,11.481,0,0,1,612.969,275.531Zm10.908-7.822h-3.428v-9.662l-7.48,7.48-7.48-7.48v9.662H602.06a11.764,11.764,0,0,1-.591-3.646,11.5,11.5,0,1,1,23,0A11.8,11.8,0,0,1,623.877,267.709Z" transform="translate(-596 -247)"/>
</svg>
