<svg xmlns="http://www.w3.org/2000/svg" width="34" height="34" viewBox="0 0 34 34">
  <defs>
    <style>
      .cls-1 {
        fill: #008ce7;
        fill-rule: evenodd;
      }
    </style>
  </defs>
  <path id="curr-dash" class="cls-1" d="M745,247a17,17,0,1,0,17,17A17,17,0,0,0,745,247Zm-10.289,17.434a2.278,2.278,0,0,1,2.5-2.115h7.911s-0.079.42-.331,1.466a2.278,2.278,0,0,1-2.5,2.116H734.38S734.459,265.476,734.711,264.434Zm20.6-.018c-0.649,3.5-2.265,6.179-4.978,7.43a10.73,10.73,0,0,1-5.1.883h-7.711l0.64-3.582,6.777,0c4.077,0,5.165-1.76,5.693-3.311a14.96,14.96,0,0,0,.672-3.433c0.033-2.069-.985-3.316-4.418-3.316l-6.973-.009,0.64-3.577h7.73C755.069,255.505,756.27,259.208,755.307,264.416Z" transform="translate(-728 -247)"/>
</svg>
