<svg xmlns="http://www.w3.org/2000/svg" width="34" height="34" viewBox="0 0 34 34">
  <defs>
    <style>
      .cls-1 {
        fill: #23292f;
        fill-rule: evenodd;
      }
    </style>
  </defs>
  <path id="curr-xrp" class="cls-1" d="M657,247a17,17,0,1,0,17,17A17,17,0,0,0,657,247Zm-7.512,8.5,4.856,4.806a3.777,3.777,0,0,0,5.308,0l4.86-4.806h3.071l-6.391,6.329a5.973,5.973,0,0,1-8.384,0l-6.4-6.329h3.076Zm15.062,17.6-4.894-4.848a3.777,3.777,0,0,0-5.308,0l-4.9,4.848h-3.075l6.433-6.367a5.973,5.973,0,0,1,8.384,0l6.433,6.367H664.55Z" transform="translate(-640 -247)"/>
</svg>
