<svg xmlns="http://www.w3.org/2000/svg" width="34" height="34" viewBox="0 0 34 34">
  <defs>
    <style>
      .cls-1 {
        fill: #438bca;
        fill-rule: evenodd;
      }
    </style>
  </defs>
  <path class="cls-1" d="M1299.67,1268.66h0.04a1.7,1.7,0,0,0,1.69-1.79,1.625,1.625,0,0,0-.24-0.7,4.435,4.435,0,0,1,2.74-6.65,4.547,4.547,0,0,1,1.04-.12,4.423,4.423,0,0,1,.47,8.82,1.848,1.848,0,0,1-.23.01c-0.14,0-.27-0.01-0.4-0.01v0.03c-0.15,0-.3-0.02-0.44-0.02a2.275,2.275,0,0,0-.26.02,1.589,1.589,0,0,0-1.01,2.4,1.876,1.876,0,0,0,1.69.93,4.417,4.417,0,0,1,.77,8.77,4.407,4.407,0,0,1-5.15-3.75,4.251,4.251,0,0,1,.7-3.04,1.72,1.72,0,0,0-1.16-2.66,1.953,1.953,0,0,0-.34-0.03,1.83,1.83,0,0,0-1.6.99,4.5,4.5,0,0,1-1.33,1.51,4.354,4.354,0,0,1-2.53.82,4.427,4.427,0,0,1-.72-8.8,3.993,3.993,0,0,1,.68-0.06,4.435,4.435,0,0,1,3.88,2.3,1.842,1.842,0,0,0,1.71,1.03m1.32-15.67a17.086,17.086,0,1,0,6.5,1.3,16.689,16.689,0,0,0-6.5-1.3" transform="translate(-1284 -1253)"/>
</svg>
