<svg xmlns="http://www.w3.org/2000/svg" width="19" height="19" viewBox="0 0 19 19">
  <defs>
    <style>
      .cls-1 {
        fill: #bfbebf;
        fill-rule: evenodd;
      }
    </style>
  </defs>
  <path class="cls-1" d="M1289.77,715.19l-3.96-3.958a0.793,0.793,0,0,0-.56-0.232h-5.94a0.792,0.792,0,0,0,0,1.583h2.77v4.75h-5.93v-5.541a0.8,0.8,0,0,0-.8-0.792h-1.97a2.381,2.381,0,0,0-2.38,2.375v14.25a2.381,2.381,0,0,0,2.38,2.375h14.25a2.379,2.379,0,0,0,2.37-2.375V715.75A0.785,0.785,0,0,0,1289.77,715.19Zm-4.92,13.227h-8.7v-4.354h8.7v4.354Zm3.57-.792a0.8,0.8,0,0,1-.79.792h-1.19v-5.146a0.8,0.8,0,0,0-.79-0.792h-10.3a0.8,0.8,0,0,0-.79.792v5.146h-1.18a0.8,0.8,0,0,1-.8-0.792v-14.25a0.8,0.8,0,0,1,.8-0.792h1.18v5.542a0.8,0.8,0,0,0,.79.792h7.53a0.8,0.8,0,0,0,.79-0.792v-5.542h1.25l3.5,3.5v11.547Z" transform="translate(-1271 -711)"/>
</svg>
