<svg xmlns="http://www.w3.org/2000/svg" width="25" height="8.91" viewBox="0 0 25 8.91">
  <defs>
    <style>
      .cls-1 {
        fill: #4a9cd5;
        fill-rule: evenodd;
      }
    </style>
  </defs>
  <path class="cls-1" d="M541.755,1259.32a4.293,4.293,0,0,0-4.141,3.56,4.188,4.188,0,0,0-8.281,0,4.291,4.291,0,0,0-4.141-3.56,4.461,4.461,0,0,0,0,8.91,4.3,4.3,0,0,0,4.141-3.57,4.186,4.186,0,0,0,8.281,0,4.3,4.3,0,0,0,4.141,3.57A4.461,4.461,0,0,0,541.755,1259.32Zm-16.563,6.4a1.953,1.953,0,1,1,1.85-1.95A1.9,1.9,0,0,1,525.192,1265.72Zm8.281,0a1.953,1.953,0,1,1,1.85-1.95A1.9,1.9,0,0,1,533.473,1265.72Zm8.282,0a1.953,1.953,0,1,1,1.849-1.95A1.9,1.9,0,0,1,541.755,1265.72Z" transform="translate(-520.969 -1259.31)"/>
</svg>
