<svg xmlns="http://www.w3.org/2000/svg" width="19" height="19" viewBox="0 0 19 19">
  <defs>
    <style>
      .cls-1 {
        fill: #529dd6;
        fill-rule: evenodd;
      }
    </style>
  </defs>
  <path class="cls-1" d="M468.933,119h-12.4a2.534,2.534,0,0,1-2.532-2.53V104.041a2.534,2.534,0,0,1,2.532-2.53h10.116V103.2H456.535a0.841,0.841,0,0,0-.84.839v12.427a0.841,0.841,0,0,0,.84.839h12.4a0.841,0.841,0,0,0,.84-0.839V105.956h1.692v10.512A2.533,2.533,0,0,1,468.933,119Zm-10.235-4.61,2.271-5.535,8.206-8.2a2.239,2.239,0,0,1,3.168,3.166l-8.361,8.356Zm3.708-4.58-0.59,1.439,1.205-.5,8.125-8.121a0.548,0.548,0,1,0-.775-0.774Z" transform="translate(-454 -100)"/>
</svg>
