<svg xmlns="http://www.w3.org/2000/svg" width="29" height="15.03" viewBox="0 0 29 15.03">
  <defs>
    <style>
      .cls-1 {
        fill: #737779;
        fill-rule: evenodd;
      }
    </style>
  </defs>
  <path class="cls-1" d="M24,1291.75v-14.8H34.01v3.01H27.47v2.8h6.183v2.86H27.47v3.08h6.919v3.05H24Zm19.726,0-2.25-3.2-2.314,3.2h-4l4.185-5.46-3.786-4.95h4.017l1.956,2.78,1.977-2.78h3.891l-3.764,4.95,4.143,5.46H43.726ZM53,1289.91a1.929,1.929,0,0,1-.62,1.46,2.184,2.184,0,0,1-2.313.43,2.165,2.165,0,0,1-.683-0.43,1.985,1.985,0,0,1-.462-0.63,1.946,1.946,0,0,1-.168-0.81,1.887,1.887,0,0,1,.168-0.79,2.11,2.11,0,0,1,.462-0.66,2.219,2.219,0,0,1,.683-0.45,2.143,2.143,0,0,1,2.313.42A1.914,1.914,0,0,1,53,1289.91Z" transform="translate(-24 -1276.94)"/>
</svg>
