<svg xmlns="http://www.w3.org/2000/svg" width="22.96" height="22.969" viewBox="0 0 22.96 22.969">
  <defs>
    <style>
      .cls-1 {
        fill: #c9c9c9;
        fill-rule: evenodd;
      }
    </style>
  </defs>
  <path class="cls-1" d="M1200.24,105.9a0.635,0.635,0,1,0,0-1.27h-4.21l4.56-4.559a0.636,0.636,0,0,0-.9-0.9l-4.56,4.559V99.517a0.631,0.631,0,0,0-.63-0.635,0.642,0.642,0,0,0-.64.635v5.748a0.64,0.64,0,0,0,.64.635h5.74Zm10.21-22.968a0.635,0.635,0,1,0,0,1.27h4.21l-4.56,4.559a0.636,0.636,0,1,0,.9.9l4.56-4.559v4.214a0.631,0.631,0,0,0,.63.635,0.642,0.642,0,0,0,.64-0.635V83.567a0.64,0.64,0,0,0-.64-0.635h-5.74Zm-16.59,6.382a0.64,0.64,0,0,0,.64.635,0.631,0.631,0,0,0,.63-0.635V85.1l4.56,4.559a0.636,0.636,0,0,0,.9-0.9l-4.56-4.559h4.21a0.64,0.64,0,0,0,.64-0.635,0.642,0.642,0,0,0-.64-0.635h-5.74a0.639,0.639,0,0,0-.64.635v5.747Zm22.97,10.2a0.639,0.639,0,0,0-.64-0.635,0.631,0.631,0,0,0-.63.635v4.215L1211,99.173a0.636,0.636,0,1,0-.9.9l4.56,4.559h-4.21a0.64,0.64,0,0,0-.64.635,0.642,0.642,0,0,0,.64.635h5.74a0.64,0.64,0,0,0,.64-0.635V99.517Z" transform="translate(-1193.88 -82.938)"/>
</svg>
