<svg xmlns="http://www.w3.org/2000/svg" width="27" height="27" viewBox="0 0 27 27">
  <defs>
    <style>
      .cls-1 {
        fill-rule: evenodd;
      }
    </style>
  </defs>
  <path class="cls-1" d="M1997.6,145.665l-1.9-.322a10.918,10.918,0,0,0-.76-1.839l1.12-1.563a1.668,1.668,0,0,0-.18-2.149l-1.68-1.681a1.667,1.667,0,0,0-2.15-.181l-1.56,1.117a10.727,10.727,0,0,0-1.91-.784l-0.32-1.872a1.654,1.654,0,0,0-1.64-1.394h-2.38a1.661,1.661,0,0,0-1.64,1.394l-0.33,1.918a10.212,10.212,0,0,0-1.83.772l-1.55-1.117a1.673,1.673,0,0,0-.97-0.31,1.641,1.641,0,0,0-1.18.491l-1.69,1.681a1.681,1.681,0,0,0-.18,2.149l1.13,1.585a10.344,10.344,0,0,0-.75,1.845l-1.87.316a1.669,1.669,0,0,0-1.4,1.647v2.375a1.669,1.669,0,0,0,1.4,1.647l1.91,0.328a10.387,10.387,0,0,0,.78,1.833l-1.11,1.545a1.658,1.658,0,0,0,.18,2.15l1.68,1.681a1.654,1.654,0,0,0,2.14.181l1.58-1.128a10.59,10.59,0,0,0,1.79.732l0.31,1.9a1.671,1.671,0,0,0,1.65,1.393h2.38a1.653,1.653,0,0,0,1.64-1.393l0.33-1.9a10.544,10.544,0,0,0,1.83-.761l1.57,1.117a1.65,1.65,0,0,0,.97.31,1.671,1.671,0,0,0,1.18-.491l1.68-1.68a1.682,1.682,0,0,0,.18-2.15l-1.12-1.568a10.515,10.515,0,0,0,.76-1.839l1.9-.316a1.669,1.669,0,0,0,1.39-1.647v-2.375A1.651,1.651,0,0,0,1997.6,145.665Zm-0.13,4.022h0a0.145,0.145,0,0,1-.13.146l-2.37.4a0.754,0.754,0,0,0-.6.559,9.271,9.271,0,0,1-.99,2.364,0.757,0.757,0,0,0,.04.829l1.39,1.963a0.155,0.155,0,0,1-.02.192l-1.68,1.681a0.144,0.144,0,0,1-.1.045,0.136,0.136,0,0,1-.09-0.028l-1.95-1.394a0.764,0.764,0,0,0-.83-0.033,9.1,9.1,0,0,1-2.37.981,0.737,0.737,0,0,0-.55.609l-0.41,2.369a0.141,0.141,0,0,1-.14.125h-2.38a0.141,0.141,0,0,1-.14-0.125l-0.4-2.369a0.754,0.754,0,0,0-.56-0.609,9.491,9.491,0,0,1-2.31-.948,0.767,0.767,0,0,0-.38-0.1,0.748,0.748,0,0,0-.44.141l-1.97,1.4a0.187,0.187,0,0,1-.09.029,0.161,0.161,0,0,1-.11-0.046l-1.68-1.681a0.152,0.152,0,0,1-.01-0.191l1.38-1.947a0.766,0.766,0,0,0,.04-0.834,8.8,8.8,0,0,1-.99-2.359,0.78,0.78,0,0,0-.61-0.558l-2.39-.407a0.145,0.145,0,0,1-.12-0.146v-2.375a0.147,0.147,0,0,1,.12-0.147l2.35-.394a0.777,0.777,0,0,0,.62-0.564,9.2,9.2,0,0,1,.96-2.37,0.749,0.749,0,0,0-.04-0.824l-1.4-1.974a0.154,0.154,0,0,1,.01-0.192l1.68-1.681a0.149,0.149,0,0,1,.11-0.045,0.158,0.158,0,0,1,.09.028l1.94,1.388a0.781,0.781,0,0,0,.84.034,8.826,8.826,0,0,1,2.35-.993,0.77,0.77,0,0,0,.56-0.609l0.41-2.387a0.141,0.141,0,0,1,.14-0.124h2.38a0.16,0.16,0,0,1,.15.124l0.39,2.353a0.761,0.761,0,0,0,.56.615,8.944,8.944,0,0,1,2.42.993,0.764,0.764,0,0,0,.83-0.034l1.95-1.4a0.154,0.154,0,0,1,.08-0.029,0.161,0.161,0,0,1,.11.046l1.68,1.681a0.154,0.154,0,0,1,.02.192l-1.4,1.957a0.776,0.776,0,0,0-.03.829,8.9,8.9,0,0,1,.98,2.364,0.749,0.749,0,0,0,.61.558l2.37,0.4a0.146,0.146,0,0,1,.12.147v2.375Zm-11.99-7.018a5.827,5.827,0,1,0,5.83,5.827A5.828,5.828,0,0,0,1985.48,142.669Zm0,10.132a4.3,4.3,0,1,1,4.31-4.3A4.307,4.307,0,0,1,1985.48,152.8Z" transform="translate(-1971.97 -135)"/>
</svg>
