<svg xmlns="http://www.w3.org/2000/svg" width="24" height="23.03" viewBox="0 0 24 23.03">
  <defs>
    <style>
      .cls-1 {
        fill: #606060;
        fill-rule: evenodd;
      }
    </style>
  </defs>
  <path class="cls-1" d="M61.818,1392.37l-0.115-.04-0.446-1.04,0.049-.11c1.352-3,1.258-3.09,1.034-3.31l-1.8-1.72a0.493,0.493,0,0,0-.314-0.12c-0.1,0-.409,0-3.07,1.18l-0.105.05-1.1-.44-0.043-.1c-1.253-3.04-1.379-3.04-1.691-3.04H51.674c-0.31,0-.452,0-1.611,3.04l-0.045.11-1.09.44-0.105-.05a17.36,17.36,0,0,0-3.124-1.12,0.5,0.5,0,0,0-.316.12l-1.8,1.73c-0.228.22-.323,0.31,1.1,3.25l0.053,0.11-0.448,1.04-0.109.04C41,1393.59,41,1393.71,41,1394.02v2.45c0,0.31,0,.44,3.177,1.56l0.113,0.03,0.446,1.04-0.047.11c-1.351,3-1.266,3.08-1.036,3.31l1.8,1.72a0.5,0.5,0,0,0,.315.12c0.1,0,.407,0,3.07-1.18l0.105-.05,1.1,0.44,0.043,0.11c1.252,3.03,1.381,3.03,1.692,3.03h2.544c0.319,0,.452,0,1.612-3.04l0.043-.11,1.093-.44,0.105,0.05a17.3,17.3,0,0,0,3.122,1.12,0.506,0.506,0,0,0,.316-0.12l1.806-1.73c0.228-.22.322-0.32-1.1-3.25l-0.052-.11,0.446-1.04,0.107-.04C65,1396.79,65,1396.68,65,1396.36v-2.44C65,1393.61,65,1393.48,61.818,1392.37ZM53,1399.16a3.963,3.963,0,1,1,4.121-3.96A4.05,4.05,0,0,1,53,1399.16Z" transform="translate(-41 -1383.69)"/>
</svg>
