<svg xmlns="http://www.w3.org/2000/svg" width="23.969" height="18" viewBox="0 0 23.969 18">
  <defs>
    <style>
      .cls-1 {
        fill: #bfc0c0;
        fill-rule: evenodd;
      }
    </style>
  </defs>
  <path class="cls-1" d="M711.916,93.992h-8.149a1.106,1.106,0,0,0-.069,2.21h5.622l-6.418,6.505-2.388-2.424a1.067,1.067,0,0,0-1.533,0l-9.661,9.833a1.127,1.127,0,0,0,0,1.564,1.066,1.066,0,0,0,1.531,0l8.894-9.051,2.388,2.422a1.074,1.074,0,0,0,1.533,0l7.163-7.257v5.591a1.085,1.085,0,1,0,2.169,0V95.137h0V95.1a1.092,1.092,0,0,0-1.078-1.106h-0.006Z" transform="translate(-689.031 -94)"/>
</svg>
