<?xml version="1.0" encoding="utf-8"?>
<!-- Svg Vector Icons : http://www.onlinewebfonts.com/icon -->
<!DOCTYPE svg PUBLIC "-//W3C//DTD SVG 1.1//EN" "http://www.w3.org/Graphics/SVG/1.1/DTD/svg11.dtd">
<svg version="1.1" xmlns="http://www.w3.org/2000/svg" xmlns:xlink="http://www.w3.org/1999/xlink" x="0px" y="0px" viewBox="0 0 1000 1000" enable-background="new 0 0 1000 1000" xml:space="preserve">
<metadata> Svg Vector Icons : http://www.onlinewebfonts.com/icon </metadata>
<g><g transform="translate(0.000000,511.000000) scale(0.100000,-0.100000)"><path fill="#fff" d="M731.2,4154.1C399.2,4047.7,171.6,3786,112,3441.3c-78.7-457.5,238.3-910.7,704.3-1010.7c80.9-17,1251.1-23.4,4191.6-23.4c4461.8,0,4198-6.4,4434.2,121.3c136.2,74.5,304.3,255.3,370.2,400c225.6,493.6-31.9,1063.9-551.1,1227.7c-119.2,36.2-317,38.3-4266.1,36.2C1037.6,4192.4,846.1,4190.2,731.2,4154.1z"/><path fill="#fff" d="M756.7,968.9c-434-117-721.3-566-640.4-1002.1c66-357.5,351.1-653.2,700-727.7c80.9-17,1253.2-23.4,4191.6-23.4c3598,0,4095.9,4.3,4206.5,31.9c353.2,93.6,606.4,368.1,674.5,731.9c40.4,221.3-34.1,493.6-191.5,700c-83,108.5-274.5,234-425.5,280.9c-134,42.6-206.4,42.6-4268.2,40.4C1437.6,1000.8,858.8,996.6,756.7,968.9z"/><path fill="#fff" d="M778-2218.4C429-2312,171.6-2595,112-2948.2c-74.5-448.9,246.8-910.7,702.1-1006.4c68.1-14.9,1474.5-21.3,4251.2-17l4149,6.4l159.6,76.6c274.5,134.1,459.6,370.2,512.8,663.8c83,444.7-231.9,908.5-685.1,1012.8C9054.8-2178,903.5-2184.4,778-2218.4z"/></g></g>
</svg>