<svg xmlns="http://www.w3.org/2000/svg" width="19.096" height="19.486" viewBox="0 0 19.096 19.486">
  <g id="Group_242" data-name="Group 242" transform="translate(-1629.834 -2738.021)">
    <g id="Group_236" data-name="Group 236">
      <g id="Group_235" data-name="Group 235">
        <g id="Group_234" data-name="Group 234">
          <g id="Group_233" data-name="Group 233">
            <g id="Group_232" data-name="Group 232">
              <path id="Path_1009" data-name="Path 1009" d="M1640.278,2747.069l-8.763-8.76a.984.984,0,0,0-1.393,1.39l8.068,8.065-8.066,8.064a.984.984,0,0,0,1.392,1.391l8.763-8.76a.991.991,0,0,0,0-1.39Z" fill="#fff"/>
            </g>
          </g>
        </g>
      </g>
    </g>
    <g id="Group_241" data-name="Group 241">
      <g id="Group_240" data-name="Group 240">
        <g id="Group_239" data-name="Group 239">
          <g id="Group_238" data-name="Group 238">
            <g id="Group_237" data-name="Group 237">
              <path id="Path_1010" data-name="Path 1010" d="M1638.486,2748.459l8.763,8.76a.984.984,0,1,0,1.393-1.39l-8.068-8.065,8.067-8.064a.984.984,0,0,0-1.393-1.391l-8.763,8.76a.993.993,0,0,0,0,1.39Z" fill="#fff"/>
            </g>
          </g>
        </g>
      </g>
    </g>
  </g>
</svg>
