<svg xmlns="http://www.w3.org/2000/svg" width="24" height="23.94" viewBox="0 0 24 23.94">
  <defs>
    <style>
      .cls-1 {
        fill: #4a9cd5;
        fill-rule: evenodd;
      }
    </style>
  </defs>
  <path class="cls-1" d="M544.777,1275.46l-6.091-6.14-2.057-.01a8.742,8.742,0,1,0-6.88,3.38,8.676,8.676,0,0,0,5.7-2.14l0.022,2.02,6.07,6.16a0.543,0.543,0,0,0,.78,0l2.456-2.48A0.563,0.563,0,0,0,544.777,1275.46Zm-15.028-5.01a6.625,6.625,0,1,1,6.549-6.62A6.593,6.593,0,0,1,529.749,1270.45Z" transform="translate(-520.969 -1254.97)"/>
</svg>
