<svg xmlns="http://www.w3.org/2000/svg" width="32" height="32" viewBox="0 0 32 32">
  <defs>
    <style>
      .cls-1 {
        fill: #bfc0c0;
        fill-rule: evenodd;
      }
    </style>
  </defs>
  <path id="moon" class="cls-1" d="M216.548,5924.92a1.181,1.181,0,0,0-1.32-.1,12.4,12.4,0,0,1-6.233,1.72A12.55,12.55,0,0,1,196.456,5914a12.245,12.245,0,0,1,1.721-6.22,1.188,1.188,0,0,0-1.352-1.74,16.594,16.594,0,0,0-8.465,5.76,16.018,16.018,0,0,0-3.361,9.87A16.35,16.35,0,0,0,201.326,5938a16.024,16.024,0,0,0,9.874-3.36,16.546,16.546,0,0,0,5.755-8.46A1.175,1.175,0,0,0,216.548,5924.92Zm-15.222,10.71a13.911,13.911,0,0,1-6.472-26.25,14.241,14.241,0,0,0-.766,4.62A14.926,14.926,0,0,0,209,5928.91a14.365,14.365,0,0,0,4.632-.77A13.975,13.975,0,0,1,201.326,5935.63Z" transform="translate(-185 -5906)"/>
</svg>
