<svg xmlns="http://www.w3.org/2000/svg" width="21.656" height="21.812" viewBox="0 0 21.656 21.812">
  <defs>
    <style>
      .cls-1 {
        fill-rule: evenodd;
      }
    </style>
  </defs>
  <path class="cls-1" d="M101.383,104.111a8.266,8.266,0,0,1,3.877.788c1.779,0.8,3.578,1.565,5.352,2.384a5.965,5.965,0,0,1,2.015,1.228,0.886,0.886,0,0,1-.192,1.192,9.863,9.863,0,0,1-2.341,1.272c-1.544.651-3.025,1.443-4.573,2.087a6.348,6.348,0,0,1-2.557.812A8.5,8.5,0,0,1,99.7,113.6c-1.84-.674-3.564-1.62-5.369-2.379a17.8,17.8,0,0,1-2.663-1.288,0.975,0.975,0,0,1-.293-1.407,5.027,5.027,0,0,1,1.773-1.1c1.956-.85,3.878-1.771,5.816-2.662A7.314,7.314,0,0,1,101.383,104.111Zm-8.089,9.246a2.177,2.177,0,0,1,1.132.314c1.255,0.64,2.567,1.148,3.84,1.748a7.431,7.431,0,0,0,2.712.812,8.323,8.323,0,0,0,3.709-.4c1.547-.639,3.066-1.348,4.568-2.088a3.278,3.278,0,0,1,1.345-.436,4.446,4.446,0,0,1,1.948,1.076,0.831,0.831,0,0,1,.011,1.2A8.345,8.345,0,0,1,110.012,117c-1.819.829-3.605,1.736-5.466,2.468a6.865,6.865,0,0,1-3.7.39,16.823,16.823,0,0,1-3.689-1.352c-1.166-.5-2.288-1.09-3.465-1.56a7.4,7.4,0,0,1-2.2-1.218,0.854,0.854,0,0,1-.069-1.229A5.092,5.092,0,0,1,93.294,113.357Zm-0.145,6.089a1.674,1.674,0,0,1,1.261.218c0.865,0.405,1.743.781,2.616,1.169,1.747,0.823,3.615,1.7,5.6,1.438,1.834-.129,3.431-1.093,5.079-1.806a26.1,26.1,0,0,1,2.827-1.2,4.329,4.329,0,0,1,1.933,1,0.9,0.9,0,0,1,.144,1.3,8.025,8.025,0,0,1-2.3,1.3c-1.329.588-2.63,1.235-3.963,1.815a11.641,11.641,0,0,1-2.992,1.115,7.725,7.725,0,0,1-4.32-.5c-2.072-.942-4.156-1.855-6.236-2.778-0.71-.333-1.819-0.866-1.5-1.838A3.533,3.533,0,0,1,93.15,119.446Z" transform="translate(-91.188 -104.094)"/>
</svg>
