<svg xmlns="http://www.w3.org/2000/svg" width="13.97" height="12.938" viewBox="0 0 13.97 12.938">
  <defs>
    <style>
      .cls-1 {
        fill: #bfc0c0;
        fill-rule: evenodd;
      }
    </style>
  </defs>
  <path class="cls-1" d="M1191.86,561.037a0.2,0.2,0,0,0-.22-0.033l-13.56,6.315a0.213,0.213,0,0,0-.12.188,0.217,0.217,0,0,0,.12.19l3.84,1.888a0.2,0.2,0,0,0,.21-0.02l3.73-2.8-2.93,3.02a0.191,0.191,0,0,0-.05.162l0.29,3.807a0.207,0.207,0,0,0,.21.194,0.191,0.191,0,0,0,.15-0.073l2.04-2.366,2.52,1.206a0.2,0.2,0,0,0,.17,0,0.207,0.207,0,0,0,.12-0.129l3.55-11.336a0.208,0.208,0,0,0-.07-0.22h0Zm0,0" transform="translate(-1177.97 -561)"/>
</svg>
