<svg xmlns="http://www.w3.org/2000/svg" width="13.031" height="8.969" viewBox="0 0 13.031 8.969">
  <metadata><?xpacket begin="﻿" id="W5M0MpCehiHzreSzNTczkc9d"?>
<x:xmpmeta xmlns:x="adobe:ns:meta/" x:xmptk="Adobe XMP Core 5.6-c142 79.160924, 2017/07/13-01:06:39        ">
   <rdf:RDF xmlns:rdf="http://www.w3.org/1999/02/22-rdf-syntax-ns#">
      <rdf:Description rdf:about=""/>
   </rdf:RDF>
</x:xmpmeta>
                                                                                                    
                                                                                                    
                                                                                                    
                                                                                                    
                                                                                                    
                                                                                                    
                                                                                                    
                                                                                                    
                                                                                                    
                                                                                                    
                                                                                                    
                                                                                                    
                                                                                                    
                                                                                                    
                                                                                                    
                                                                                                    
                                                                                                    
                                                                                                    
                                                                                                    
                                                                                                    
                           
<?xpacket end="w"?></metadata>
<defs>
    <style>
      .cls-1 {
        fill-rule: evenodd;
      }
    </style>
  </defs>
  <path id="portfolio-wallet" class="cls-1" d="M487.187,560.693a0.645,0.645,0,1,0,.636.645A0.641,0.641,0,0,0,487.187,560.693Zm3.356-1.673v-1.511a0.512,0.512,0,0,0-.508-0.516H479.457a0.512,0.512,0,0,0-.508.516v7.957a0.512,0.512,0,0,0,.508.516h10.578a0.512,0.512,0,0,0,.508-0.516v-1.81a1.54,1.54,0,0,0,1.424-1.544v-1.548A1.541,1.541,0,0,0,490.543,559.02Zm-1.017,5.93h-9.56v-6.925h9.56v0.992h-2.288a2.322,2.322,0,0,0,0,4.643h2.288v1.29Zm1.424-2.838a0.512,0.512,0,0,1-.508.516h-3.178a1.3,1.3,0,0,1-1.3-1.256,1.283,1.283,0,0,1,1.271-1.324h3.2a0.513,0.513,0,0,1,.508.516v1.548Z" transform="translate(-478.938 -557)"/>
</svg>
