<svg xmlns="http://www.w3.org/2000/svg" width="11.969" height="9.031" viewBox="0 0 11.969 9.031">
  <metadata><?xpacket begin="﻿" id="W5M0MpCehiHzreSzNTczkc9d"?>
<x:xmpmeta xmlns:x="adobe:ns:meta/" x:xmptk="Adobe XMP Core 5.6-c142 79.160924, 2017/07/13-01:06:39        ">
   <rdf:RDF xmlns:rdf="http://www.w3.org/1999/02/22-rdf-syntax-ns#">
      <rdf:Description rdf:about=""/>
   </rdf:RDF>
</x:xmpmeta>
                                                                                                    
                                                                                                    
                                                                                                    
                                                                                                    
                                                                                                    
                                                                                                    
                                                                                                    
                                                                                                    
                                                                                                    
                                                                                                    
                                                                                                    
                                                                                                    
                                                                                                    
                                                                                                    
                                                                                                    
                                                                                                    
                                                                                                    
                                                                                                    
                                                                                                    
                                                                                                    
                           
<?xpacket end="w"?></metadata>
<defs>
    <style>
      .cls-1 {
        fill-rule: evenodd;
      }
    </style>
  </defs>
  <path id="portfolio-order-history" class="cls-1" d="M519.077,561.087a1.26,1.26,0,0,0-.908.36,1.206,1.206,0,0,0,0,1.745,1.325,1.325,0,0,0,1.814,0,1.2,1.2,0,0,0,0-1.745A1.258,1.258,0,0,0,519.077,561.087Zm0-3.285a1.261,1.261,0,0,0-.907.359,1.206,1.206,0,0,0,0,1.746,1.325,1.325,0,0,0,1.814,0,1.206,1.206,0,0,0,0-1.746A1.261,1.261,0,0,0,519.077,557.8Zm0,6.571a1.257,1.257,0,0,0-.907.36,1.2,1.2,0,0,0,0,1.745,1.325,1.325,0,0,0,1.814,0,1.2,1.2,0,0,0,0-1.745A1.258,1.258,0,0,0,519.077,564.373Zm10.613-6.1a0.213,0.213,0,0,0-.15-0.061h-8.114a0.211,0.211,0,0,0-.15.061,0.193,0.193,0,0,0-.064.145v1.232a0.192,0.192,0,0,0,.064.144,0.207,0.207,0,0,0,.15.061h8.114a0.207,0.207,0,0,0,.15-0.061,0.2,0.2,0,0,0,.063-0.144v-1.232A0.2,0.2,0,0,0,529.69,558.273Zm-0.15,3.225h-8.114a0.207,0.207,0,0,0-.15.061,0.193,0.193,0,0,0-.064.145v1.232a0.192,0.192,0,0,0,.064.144,0.207,0.207,0,0,0,.15.061h8.114a0.207,0.207,0,0,0,.15-0.061,0.2,0.2,0,0,0,.063-0.144V561.7a0.2,0.2,0,0,0-.063-0.145A0.208,0.208,0,0,0,529.54,561.5Zm0,3.286h-8.114a0.207,0.207,0,0,0-.15.061,0.189,0.189,0,0,0-.064.144v1.233a0.192,0.192,0,0,0,.064.144,0.207,0.207,0,0,0,.15.061h8.114a0.207,0.207,0,0,0,.15-0.061,0.2,0.2,0,0,0,.063-0.144v-1.233a0.192,0.192,0,0,0-.063-0.144A0.208,0.208,0,0,0,529.54,564.784Z" transform="translate(-517.781 -557.813)"/>
</svg>
