<svg xmlns="http://www.w3.org/2000/svg" width="10.032" height="10.032" viewBox="0 0 10.032 10.032">
  <metadata><?xpacket begin="﻿" id="W5M0MpCehiHzreSzNTczkc9d"?>
<x:xmpmeta xmlns:x="adobe:ns:meta/" x:xmptk="Adobe XMP Core 5.6-c142 79.160924, 2017/07/13-01:06:39        ">
   <rdf:RDF xmlns:rdf="http://www.w3.org/1999/02/22-rdf-syntax-ns#">
      <rdf:Description rdf:about=""/>
   </rdf:RDF>
</x:xmpmeta>
                                                                                                    
                                                                                                    
                                                                                                    
                                                                                                    
                                                                                                    
                                                                                                    
                                                                                                    
                                                                                                    
                                                                                                    
                                                                                                    
                                                                                                    
                                                                                                    
                                                                                                    
                                                                                                    
                                                                                                    
                                                                                                    
                                                                                                    
                                                                                                    
                                                                                                    
                                                                                                    
                           
<?xpacket end="w"?></metadata>
<defs>
    <style>
      .cls-1 {
        fill-rule: evenodd;
      }
    </style>
  </defs>
  <path id="portfolio-order-open" class="cls-1" d="M547.365,557.475a1.88,1.88,0,0,0-1.38-.57H539.86a1.946,1.946,0,0,0-1.95,1.949v6.126a1.955,1.955,0,0,0,1.95,1.949h6.126a1.955,1.955,0,0,0,1.949-1.949v-6.126A1.883,1.883,0,0,0,547.365,557.475Zm-0.544,7.5a0.831,0.831,0,0,1-.836.835H539.86a0.831,0.831,0,0,1-.836-0.835v-6.126a0.831,0.831,0,0,1,.836-0.835h6.126a0.831,0.831,0,0,1,.835.835v6.126Zm-1.392-3.62H543.48v-1.949a0.268,0.268,0,0,0-.079-0.2,0.271,0.271,0,0,0-.2-0.078h-0.557a0.267,0.267,0,0,0-.278.278v1.949h-1.949a0.267,0.267,0,0,0-.279.279V562.2a0.267,0.267,0,0,0,.279.278h1.949v1.949a0.269,0.269,0,0,0,.278.279H543.2a0.272,0.272,0,0,0,.2-0.079,0.268,0.268,0,0,0,.079-0.2v-1.949h1.949a0.267,0.267,0,0,0,.278-0.278v-0.557A0.267,0.267,0,0,0,545.429,561.36Z" transform="translate(-537.906 -556.906)"/>
</svg>
