<svg xmlns="http://www.w3.org/2000/svg" width="10.938" height="9.063" viewBox="0 0 10.938 9.063">
  <metadata><?xpacket begin="﻿" id="W5M0MpCehiHzreSzNTczkc9d"?>
<x:xmpmeta xmlns:x="adobe:ns:meta/" x:xmptk="Adobe XMP Core 5.6-c142 79.160924, 2017/07/13-01:06:39        ">
   <rdf:RDF xmlns:rdf="http://www.w3.org/1999/02/22-rdf-syntax-ns#">
      <rdf:Description rdf:about=""/>
   </rdf:RDF>
</x:xmpmeta>
                                                                                                    
                                                                                                    
                                                                                                    
                                                                                                    
                                                                                                    
                                                                                                    
                                                                                                    
                                                                                                    
                                                                                                    
                                                                                                    
                                                                                                    
                                                                                                    
                                                                                                    
                                                                                                    
                                                                                                    
                                                                                                    
                                                                                                    
                                                                                                    
                                                                                                    
                                                                                                    
                           
<?xpacket end="w"?></metadata>
<defs>
    <style>
      .cls-1 {
        fill-rule: evenodd;
      }
    </style>
  </defs>
  <path id="portfolio-liquidity" class="cls-1" d="M499.751,564.407v1.728a0.2,0.2,0,0,0,.2.193h1.373a0.2,0.2,0,0,0,.2-0.193V563.1l-1,.97A1.224,1.224,0,0,1,499.751,564.407Zm2.454-1.334v3.062a0.2,0.2,0,0,0,.2.193h1.373a0.2,0.2,0,0,0,.2-0.193v-1.8a1.21,1.21,0,0,1-.826-0.342Zm2.453,1.083v1.993a0.2,0.2,0,0,0,.2.193h1.373a0.2,0.2,0,0,0,.2-0.193v-3.678L504.854,564A1.15,1.15,0,0,1,504.658,564.156Zm4.091-3.96-1.637,1.593v4.346a0.2,0.2,0,0,0,.2.193h1.373a0.2,0.2,0,0,0,.2-0.193v-5.818c-0.045-.037-0.078-0.07-0.1-0.092Zm1.123-2.821a0.387,0.387,0,0,0-.29-0.1h-0.037c-0.639.028-1.276,0.059-1.915,0.088a0.417,0.417,0,0,0-.3.1,0.344,0.344,0,0,0-.07.1,0.318,0.318,0,0,0,.1.39l0.16,0.158c0.111,0.109.223,0.219,0.336,0.326L504,562.194l-1.736-1.689a0.564,0.564,0,0,0-.781,0l-2.312,2.248a0.527,0.527,0,0,0,0,.76l0.1,0.1a0.563,0.563,0,0,0,.392.157,0.556,0.556,0,0,0,.389-0.157l1.817-1.768,1.735,1.689a0.565,0.565,0,0,0,.784,0l4.358-4.241,0.493,0.477a0.374,0.374,0,0,0,.263.136,0.341,0.341,0,0,0,.158-0.041,0.444,0.444,0,0,0,.094-0.068,0.435,0.435,0,0,0,.119-0.309c0.018-.4.039-0.806,0.059-1.212l0.029-.606A0.369,0.369,0,0,0,509.872,557.375Z" transform="translate(-499.031 -557.281)"/>
</svg>
