<svg xmlns="http://www.w3.org/2000/svg" width="22" height="22" viewBox="0 0 22 22">
  <defs>
    <style>
      .cls-1 {
        fill: #bfc0c0;
        fill-rule: evenodd;
      }
    </style>
  </defs>
  <path class="cls-1" d="M644.3,298H637v7.305h7.3V298Zm-1.718,5.586h-3.867v-3.867h3.867v3.867Zm-2.793-2.793h1.719v1.719h-1.719v-1.719Zm11.9-2.793v7.305H659V298h-7.3Zm5.585,5.586h-3.867v-3.867h3.867v3.867Zm-2.793-2.793h1.719v1.719h-1.719v-1.719ZM637,320h7.3V312.7H637V320Zm1.718-5.586h3.867v3.867h-3.867v-3.867Zm1.074,1.074h1.719v1.719h-1.719v-1.719Zm-1.074-9.023h1.719v1.719h-1.719v-1.719Zm1.719,3.437h1.675v1.719h1.719V309.9h-1.676v-1.718h-1.718V309.9Zm8.592-8.593h1.719v1.718H649.03v-1.718Zm-3.437-1.59h1.719v3.308h-1.719v-3.308ZM647.312,298h1.718v1.719h-1.718V298Zm0,5.027v1.719h-1.719v1.719h3.437v-3.438h-1.718Zm0,8.594V313.3h1.718v1.676h3.437v-1.719H649.03v-1.676h-1.718v-3.394h-1.719v3.437h1.719Zm1.718-5.156h1.719V309.9H649.03v-3.437Zm8.249,0h-3.136v1.719h-1.676V309.9h1.718v1.676H659v-3.437h-1.718v-1.676Zm0,3.394h-3.094v-1.675h3.094v1.675Zm0,3.4H659v3.437h-1.718v-3.437Zm-6.53-3.352h1.718v1.719h-1.718V309.9Zm1.718,5.071h1.718v1.718h-1.718v-1.718Zm1.718-1.719H655.9v1.719h-1.719v-1.719ZM655.9,320v-1.59h1.375v-1.719h-3.094V320H655.9Zm-10.311-6.7h1.719v3.266h-1.719V313.3Zm3.437,6.7v-1.719h1.676V320h1.718v-1.719h-1.675v-1.718h-3.437V320h1.718Zm-6.874-13.535h3.437v1.719h-3.437v-1.719ZM637,308.184h1.718v3.437H637v-3.437Z" transform="translate(-637 -298)"/>
</svg>
