<svg xmlns="http://www.w3.org/2000/svg" width="25.03" height="18" viewBox="0 0 25.03 18">
  <defs>
    <style>
      .cls-1 {
        fill-rule: evenodd;
      }
    </style>
  </defs>
  <path class="cls-1" d="M1679.17,150.217h19.88l-5.46,5.7a1.243,1.243,0,0,0,0,1.719,1.128,1.128,0,0,0,.82.356,1.111,1.111,0,0,0,.82-0.356l7.45-7.779a1.262,1.262,0,0,0,0-1.718l-7.45-7.779a1.122,1.122,0,0,0-1.64,0,1.242,1.242,0,0,0,0,1.718l5.46,5.705h-19.88A1.216,1.216,0,0,0,1679.17,150.217Z" transform="translate(-1678 -140)"/>
</svg>
