<svg xmlns="http://www.w3.org/2000/svg" width="34" height="34" viewBox="0 0 34 34">
  <defs>
    <style>
      .cls-1 {
        fill: #737779;
        fill-rule: evenodd;
      }
    </style>
  </defs>
  <path class="cls-1" d="M43.407,559.571a0.475,0.475,0,0,1-.165.33,0.319,0.319,0,0,1-.363.033l-6.932-2.344a0.406,0.406,0,0,1-.264-0.33,0.415,0.415,0,0,1,.165-0.4l1.881-1.353a6.084,6.084,0,0,0-1.617-.891,5.375,5.375,0,0,0-1.882-.33,5.6,5.6,0,0,0-2.228.445,5.7,5.7,0,0,0-3.037,3.037A5.6,5.6,0,0,0,28.521,560a5.475,5.475,0,0,0,.446,2.211A5.746,5.746,0,0,0,32,565.232a5.6,5.6,0,0,0,2.228.445,5.659,5.659,0,0,0,2.674-.66,5.508,5.508,0,0,0,2.047-1.848,0.6,0.6,0,0,1,.347-0.215,0.425,0.425,0,0,1,.379.083l2.41,1.683a0.592,0.592,0,0,1,.2.3,0.519,0.519,0,0,1-.066.363,10.067,10.067,0,0,1-3.482,3.119,9.283,9.283,0,0,1-4.506,1.139,9.385,9.385,0,0,1-3.746-.759,9.606,9.606,0,0,1-5.133-5.133,9.62,9.62,0,0,1,0-7.492,9.606,9.606,0,0,1,5.133-5.133,9.385,9.385,0,0,1,3.746-.759,9.154,9.154,0,0,1,3.714.759A10.192,10.192,0,0,1,41,553.167l0.132-.066,1.617-1.188a0.378,0.378,0,0,1,.429,0,0.4,0.4,0,0,1,.231.363v7.3ZM34,577a17,17,0,1,1,17-17A17.019,17.019,0,0,1,34,577Zm0-32a15,15,0,1,0,15,15A15.017,15.017,0,0,0,34,545Z" transform="translate(-17 -543)"/>
</svg>
