<svg xmlns="http://www.w3.org/2000/svg" width="15.03" height="14.032" viewBox="0 0 15.03 14.032">
  <defs>
    <style>
      .cls-1 {
        fill-rule: evenodd;
      }
    </style>
  </defs>
  <path class="cls-1" d="M2245.06,159.178a0.55,0.55,0,0,1-.58.586h-5.78a0.55,0.55,0,0,1-.58-0.586v-1.17a0.55,0.55,0,0,1,.58-0.585h5.78a0.55,0.55,0,0,1,.58.585v1.17Zm0-4.676a0.549,0.549,0,0,1-.58.585h-5.78a0.549,0.549,0,0,1-.58-0.585v-1.167a0.549,0.549,0,0,1,.58-0.585h5.78a0.549,0.549,0,0,1,.58.585V154.5Zm0-4.674a0.549,0.549,0,0,1-.58.585h-5.78a0.549,0.549,0,0,1-.58-0.585v-1.17a0.548,0.548,0,0,1,.58-0.581h5.78a0.548,0.548,0,0,1,.58.581v1.17Zm7.93,6.252-4.63,4.676a0.522,0.522,0,0,1-.4.174,0.587,0.587,0,0,1-.58-0.585V147.492a0.581,0.581,0,0,1,.58-0.585h1.15a0.581,0.581,0,0,1,.58.585v7.946a0.319,0.319,0,0,0,.52.234l1.16-1.17a0.608,0.608,0,0,1,.4-0.174,0.529,0.529,0,0,1,.41.174l0.81,0.819a0.611,0.611,0,0,1,.17.408A0.487,0.487,0,0,1,2252.99,156.08Z" transform="translate(-2238.13 -146.906)"/>
</svg>
