<svg xmlns="http://www.w3.org/2000/svg" width="25.594" height="18.59" viewBox="0 0 25.594 18.59">
  <defs>
    <style>
      .cls-1 {
        fill: #737779;
        fill-rule: evenodd;
      }
    </style>
  </defs>
  <path class="cls-1" d="M382.935,1775.57a2.887,2.887,0,1,0,2.988,2.88A2.937,2.937,0,0,0,382.935,1775.57Zm7.151-4.07c-0.041-.04-0.089-0.08-0.137-0.12l-0.133-.13a0.272,0.272,0,0,0-.078-0.05,10.017,10.017,0,0,0-13.486.3l-0.435.42-0.6.58a1.754,1.754,0,0,0,.007,2.55,1.925,1.925,0,0,0,2.65.01l1.037-1a6.2,6.2,0,0,1,8.521,0l0.746,0.69a1.906,1.906,0,0,0,2.627,0,1.737,1.737,0,0,0,.007-2.53Zm5.1-3.57-0.62-.6h-0.006l-0.5-.48a1.734,1.734,0,0,0-.276-0.21,16.759,16.759,0,0,0-22.019.48c-0.03.03-.06,0.05-0.09,0.08l-1.121,1.08a1.605,1.605,0,0,0,.006,2.33,1.761,1.761,0,0,0,2.417.01l1.12-1.09a0.03,0.03,0,0,0,.025-0.02,13.213,13.213,0,0,1,17.757-.09l0.88,0.85a1.768,1.768,0,0,0,2.422,0A1.618,1.618,0,0,0,395.184,1767.93Z" transform="translate(-370.094 -1762.75)"/>
</svg>
