<svg xmlns="http://www.w3.org/2000/svg" width="34" height="34" viewBox="0 0 34 34">
  <defs>
    <style>
      .cls-1 {
        fill: #bfc0c0;
        fill-rule: evenodd;
      }
    </style>
  </defs>
  <path id="sun" class="cls-1" d="M207.027,5915.97a8.574,8.574,0,0,0-6.027-2.52,8.408,8.408,0,0,0-6.027,2.52A8.54,8.54,0,0,0,201,5930.54a8.4,8.4,0,0,0,6.027-2.51,8.581,8.581,0,0,0,2.518-6.03A8.4,8.4,0,0,0,207.027,5915.97Zm-1.62,10.44a6.3,6.3,0,1,1,1.8-4.41A6.238,6.238,0,0,1,205.407,5926.41Zm11.424-5.58h-3.463a1.17,1.17,0,0,0,0,2.34h3.463A1.17,1.17,0,0,0,216.831,5920.83ZM201,5933.2a1.19,1.19,0,0,0-1.169,1.17v3.46a1.169,1.169,0,1,0,2.338,0v-3.46A1.19,1.19,0,0,0,201,5933.2Zm12.008-.81-2.474-2.48a1.145,1.145,0,1,0-1.619,1.62l2.474,2.48A1.145,1.145,0,1,0,213.008,5932.39ZM201,5905a1.19,1.19,0,0,0-1.169,1.17v3.46a1.169,1.169,0,1,0,2.338,0v-3.46A1.19,1.19,0,0,0,201,5905Zm12.053,4.99a1.14,1.14,0,0,0-1.619,0l-2.474,2.47a1.145,1.145,0,1,0,1.619,1.62l2.474-2.47A1.141,1.141,0,0,0,213.053,5909.99Zm-24.421,10.84h-3.463A1.191,1.191,0,0,0,184,5922a1.162,1.162,0,0,0,1.169,1.17h3.463A1.17,1.17,0,0,0,188.632,5920.83Zm4.408,9.08a1.139,1.139,0,0,0-1.619,0l-2.474,2.48a1.145,1.145,0,1,0,1.619,1.62l2.474-2.48A1.143,1.143,0,0,0,193.04,5929.91Zm0-17.45-2.474-2.47a1.145,1.145,0,1,0-1.619,1.62l2.474,2.47A1.145,1.145,0,1,0,193.04,5912.46Z" transform="translate(-184 -5905)"/>
</svg>
