<svg xmlns="http://www.w3.org/2000/svg" width="12" height="11.938" viewBox="0 0 12 11.938">
  <defs>
    <style>
      .cls-1 {
        fill: #4a9cd5;
        fill-rule: evenodd;
      }
    </style>
  </defs>
  <path class="cls-1" d="M7.657,6.631L6.565,7.739a0.641,0.641,0,0,0,0,.895,0.614,0.614,0,0,0,.878,0L9.6,6.447a0.641,0.641,0,0,0,0-.9L7.443,3.364a0.616,0.616,0,0,0-.88,0,0.641,0.641,0,0,0,0,.895l1.09,1.108H0.629a0.632,0.632,0,0,0,0,1.264H7.657ZM9.395,0.019H2.837a2.625,2.625,0,0,0-2.6,2.644v1.37a0.627,0.627,0,0,0,.621.631A0.628,0.628,0,0,0,1.48,4.034V2.664a1.37,1.37,0,0,1,1.356-1.38H9.395a1.37,1.37,0,0,1,1.356,1.38V9.33a1.37,1.37,0,0,1-1.356,1.38H2.837A1.37,1.37,0,0,1,1.48,9.33V7.977A0.629,0.629,0,0,0,.857,7.343a0.628,0.628,0,0,0-.621.634V9.33a2.625,2.625,0,0,0,2.6,2.645H9.395a2.625,2.625,0,0,0,2.6-2.645V2.664A2.625,2.625,0,0,0,9.395.019Z" transform="translate(0 -0.031)"/>
</svg>
