<svg xmlns="http://www.w3.org/2000/svg" width="24" height="27" viewBox="0 0 24 27">
  <defs>
    <style>
      .cls-1 {
        fill: #909fab;
        fill-rule: evenodd;
      }
    </style>
  </defs>
  <path class="cls-1" d="M2020.38,1985.17m0,0.21v-0.13m0,0.24,0.01-.42,0.01-.12v-0.09l0.04-.36v-0.02h0a8.53,8.53,0,0,1,7.66-7.42,8.731,8.731,0,0,1,5.14,1.13,1.156,1.156,0,0,0,1.49-.27,1.13,1.13,0,0,0-.04-1.5,13.614,13.614,0,0,0-9.2-4.4l-0.35-.02h-0.11c-0.11,0-.23-0.01-0.34-0.01h-0.17l-0.99.05h-0.09l-0.27.03h-0.03a13.521,13.521,0,0,0-12.1,12.42c-0.01.11-.02,0.21-0.03,0.36l0.01,0.06-0.01.07-0.01.53,0.01,0.55,0.01,0.11c0,0.11.01,0.22,0.02,0.34a13.521,13.521,0,0,0,12.12,12.4l0.58,0.05,0.07,0.01h0.06l0.19,0.01h0.16l0.39,0.01h0.08c0.12,0,.23,0,0.33-0.01h0.11c0.13-.01.25-0.01,0.41-0.02a13.6,13.6,0,0,0,9.15-4.4,1.13,1.13,0,0,0,.04-1.5,1.156,1.156,0,0,0-1.49-.27,8.55,8.55,0,0,1-12.8-6.31l-0.04-.39-0.01-.09v-0.08l-0.01-.11v-0.21m-1.34.61,0.04,0.45a9.911,9.911,0,0,0,8.89,8.61,10.164,10.164,0,0,0,4.81-.73,12.333,12.333,0,0,1-7.38,3.07c-0.1.01-.21,0.01-0.32,0.02h-0.1c-0.1,0-.2,0-0.35.01h-0.08l-0.29-.01h-0.13l-0.19-.01h-0.05l-0.06-.01-0.54-.04a12.185,12.185,0,0,1-10.89-11.19l-0.04-.91,0.04-.9a12.159,12.159,0,0,1,10.84-11.15,0.249,0.249,0,0,0,.08-0.01,1.635,1.635,0,0,0,.22-0.02,0.248,0.248,0,0,0,.09-0.01l0.95-.03h0.45l0.05,0.01,0.37,0.01a12.3,12.3,0,0,1,7.33,3.07,10.164,10.164,0,0,0-4.81-.73,9.909,9.909,0,0,0-8.88,8.58,0.037,0.037,0,0,0-.01.03l-0.04.46m-0.01,1.31" transform="translate(-2011 -1972)"/>
</svg>
