<svg xmlns="http://www.w3.org/2000/svg" width="30" height="31" viewBox="0 0 30 31">
  <defs>
    <style>
      .cls-1 {
        fill: #909fab;
        fill-rule: evenodd;
      }
    </style>
  </defs>
  <path class="cls-1" d="M1983.99,1913.49a7.1,7.1,0,0,1,7.16,7,6.89,6.89,0,0,1-2.07,4.95,7.189,7.189,0,0,1-5.08,2.08,7.1,7.1,0,0,1-7.16-7.01,6.867,6.867,0,0,1,2.07-4.94,7.183,7.183,0,0,1,5.07-2.08h0.01m0-1.38h-0.01a8.4,8.4,0,1,0,.02,16.79h0.01a8.4,8.4,0,1,0-.02-16.79h0Zm0.01-4.35,0.22,0.38h-0.45l0.23-.38m0-2.76c-0.97,1.64-1.89,3.21-2.9,4.93a10.365,10.365,0,0,1,2.87-.41,11.829,11.829,0,0,1,2.91.39c-1-1.7-1.92-3.26-2.88-4.91h0Zm-0.24,27.86h0.46l-0.23.39-0.23-.39m3.05-1.65c-0.98.1-1.88,0.27-2.78,0.27h-0.01c-0.92,0-1.85-.17-2.85-0.27,0.94,1.59,1.86,3.15,2.83,4.8,0.97-1.65,1.88-3.22,2.81-4.8h0Zm-10.43-21.01,0.4,0.17c-0.12.09-.24,0.17-0.35,0.26l-0.01-.03-0.04-.4m-1.65-2.24c0.2,1.92.4,3.71,0.61,5.66a10.091,10.091,0,0,1,4.69-3.34c-1.81-.79-3.52-1.54-5.3-2.32h0Zm16.83,22.42,0.05,0.43-0.4-.18c0.12-.08.24-0.16,0.35-0.25m1.09-3.01a10.083,10.083,0,0,1-4.68,3.36c1.82,0.8,3.52,1.54,5.29,2.31-0.2-1.89-.4-3.69-0.61-5.67h0Zm-1.04-17.17-0.05.43c-0.11-.09-0.23-0.17-0.35-0.26l0.4-.17m1.65-2.24h0Zm0,0c-1.79.79-3.49,1.53-5.31,2.33a10.193,10.193,0,0,1,4.71,3.31c0.2-1.94.4-3.72,0.6-5.64h0Zm-21.15,8.52c-0.05.14-.1,0.27-0.14,0.41l-0.29-.32,0.43-.09m2.54-1.95h0Zm0,0-5.65,1.19c1.32,1.43,2.55,2.77,3.89,4.24a9.915,9.915,0,0,1,1.76-5.43h0Zm21.24,1.95,0.43,0.09-0.3.32c-0.04-.14-0.09-0.27-0.13-0.41m-2.56-1.95a9.764,9.764,0,0,1,1.77,5.43c1.34-1.47,2.57-2.81,3.89-4.25-1.94-.4-3.73-0.77-5.66-1.18h0Zm-21.36,9.58c0.05,0.14.09,0.28,0.14,0.42l-0.44-.09,0.15-.16,0.15-.17m0.91-3.06c-1.34,1.47-2.57,2.81-3.88,4.24,1.94,0.41,3.74.78,5.66,1.19a9.907,9.907,0,0,1-1.78-5.43h0Zm23.14,3.07,0.21,0.23,0.08,0.09-0.43.09c0.05-.14.1-0.27,0.14-0.41m-0.93-3.07a9.705,9.705,0,0,1-1.76,5.43c1.93-.41,3.73-0.79,5.66-1.19-1.31-1.43-2.55-2.77-3.9-4.24h0Zm-18.66,9.33c0.11,0.09.23,0.17,0.35,0.25l-0.4.18,0.05-.43m-1.1-2.97c-0.21,1.95-.4,3.75-0.6,5.64,1.79-.79,3.49-1.53,5.31-2.33a10.266,10.266,0,0,1-4.71-3.31h0Z" transform="translate(-1969 -1905)"/>
</svg>
