<svg xmlns="http://www.w3.org/2000/svg" width="21.88" height="19.907" viewBox="0 0 21.88 19.907">
  <defs>
    <style>
      .cls-1 {
        fill: #bfc0c0;
        fill-rule: evenodd;
      }
    </style>
  </defs>
  <path id="tool-trend" class="cls-1" d="M1084.23,269.926a2.884,2.884,0,0,0,2.91-2.878,2.631,2.631,0,0,0-.49-1.366l11.6-10.554-0.03-.029a3.217,3.217,0,0,0,1.8.461,2.882,2.882,0,0,0,2.9-2.878,2.932,2.932,0,0,0-3.16-2.644,2.884,2.884,0,0,0-2.91,2.878,2.647,2.647,0,0,0,.44,1.292l-11.6,10.555,0.13,0.133a3.257,3.257,0,0,0-1.85-.492,2.882,2.882,0,0,0-2.9,2.878A2.938,2.938,0,0,0,1084.23,269.926Z" transform="translate(-1081.06 -250.031)"/>
</svg>
