<svg xmlns="http://www.w3.org/2000/svg" width="27.85" height="27.969" viewBox="0 0 27.85 27.969">
  <defs>
    <style>
      .cls-1 {
        fill: #bfc0c0;
        fill-rule: evenodd;
      }
    </style>
  </defs>
  <path id="tool-brush" class="cls-1" d="M1089.86,360.736a0.8,0.8,0,0,0,.58.243,0.844,0.844,0,0,0,.59-0.243l9.56-9.607a3.53,3.53,0,0,0,0-4.964l-1.52-1.523,5.34-4.311a4.126,4.126,0,0,0-2.58-7.339c-0.07,0-.15,0-0.22.006a4.116,4.116,0,0,0-2.98,1.533l-4.29,5.356-1.51-1.522a3.5,3.5,0,0,0-4.95,0l-9.56,9.607a0.838,0.838,0,0,0,0,1.174l2.89,2.9Zm-0.81-21.2a1.845,1.845,0,0,1,2.61,0l2.16,2.176a0.84,0.84,0,0,0,.63.242,0.822,0.822,0,0,0,.6-0.309l4.87-6.076a2.406,2.406,0,0,1,1.78-.916,2.467,2.467,0,0,1,1.67,4.381l-6.05,4.892a0.874,0.874,0,0,0-.31.6,0.836,0.836,0,0,0,.25.632l2.16,2.175a1.855,1.855,0,0,1,0,2.617l-0.13.132-10.37-10.416Zm-1.3,1.306,10.37,10.416-1.43,1.44-10.37-10.416Zm-2.6,2.614,10.37,10.416-5.08,5.1-1.72-1.731,2.1-2.114a0.825,0.825,0,1,0-1.16-1.174l-2.11,2.114-1.71-1.716,2.11-2.114a0.83,0.83,0,0,0-.59-1.417,0.813,0.813,0,0,0-.58.243l-2.11,2.114-1.7-1.716,2.1-2.114a0.838,0.838,0,0,0,0-1.174,0.826,0.826,0,0,0-1.17,0l-2.1,2.114-1.73-1.731Z" transform="translate(-1078.09 -333)"/>
</svg>
