<svg xmlns="http://www.w3.org/2000/svg" width="24.72" height="22.907" viewBox="0 0 24.72 22.907">
  <defs>
    <style>
      .cls-1 {
        fill: #bfc0c0;
        fill-rule: evenodd;
      }
    </style>
  </defs>
  <path id="tool-pitchfork" class="cls-1" d="M1083.21,300.5l3.88,3.546-3.94,3.557c-0.01.009-.02,0.022-0.03,0.032a2.7,2.7,0,0,0-1.41-.331,2.414,2.414,0,0,0-2.43,2.415,2.455,2.455,0,0,0,2.64,2.218,2.414,2.414,0,0,0,2.43-2.415,2.121,2.121,0,0,0-.41-1.146l3.97-3.579,3.51,3.207a2.172,2.172,0,0,0,.4,2.984,2.7,2.7,0,0,0,3.58-.139,2.158,2.158,0,0,0,.29-2.764l8.13-7.324a0.565,0.565,0,0,0,.18-0.406,0.534,0.534,0,0,0-.18-0.407l-11.65-10.773a0.555,0.555,0,0,0-.75,0l-8.26,7.443a2.7,2.7,0,0,0-3.21.392,2.181,2.181,0,0,0,.15,3.276A2.713,2.713,0,0,0,1083.21,300.5Zm19.41-.153-7.74,6.976a2.733,2.733,0,0,0-2.63-.033,0.361,0.361,0,0,0-.06-0.084l-3.45-3.155,9.06-8.165Zm-10.83-10.018,5.19,4.8-9.06,8.17-3.91-3.572a2.143,2.143,0,0,0-.04-2.355Z" transform="translate(-1079.28 -289.031)"/>
</svg>
