<svg xmlns="http://www.w3.org/2000/svg" width="22.94" height="20.907" viewBox="0 0 22.94 20.907">
  <defs>
    <style>
      .cls-1 {
        fill: #bfc0c0;
        fill-rule: evenodd;
      }
    </style>
  </defs>
  <path id="tool-long-pos" class="cls-1" d="M1085.36,483.027h17.04a0.584,0.584,0,0,0,.59-0.584v-16.01a0.584,0.584,0,0,0-.59-0.583h-17.05a2.672,2.672,0,0,0-2.72-1.829,2.556,2.556,0,0,0-2.57,2.553,2.727,2.727,0,0,0,5.3.443h16.45v6.838h-16.46a2.672,2.672,0,0,0-2.72-1.829,2.556,2.556,0,0,0-2.57,2.553,2.727,2.727,0,0,0,5.3.443h16.45v6.837h-16.46a2.673,2.673,0,0,0-2.72-1.828,2.556,2.556,0,0,0-2.57,2.553A2.727,2.727,0,0,0,1085.36,483.027Z" transform="translate(-1080.06 -464.031)"/>
</svg>
