<svg xmlns="http://www.w3.org/2000/svg" width="20.97" height="23.031" viewBox="0 0 20.97 23.031">
  <defs>
    <style>
      .cls-1 {
        fill: #bfc0c0;
        fill-rule: evenodd;
      }
    </style>
  </defs>
  <path id="tool-remove" class="cls-1" d="M1101.04,915.253h-4.9v-0.781a2.562,2.562,0,0,0-2.59-2.531h-4.67a2.562,2.562,0,0,0-2.59,2.531v0.781h-4.91a0.639,0.639,0,1,0,0,1.278h1.19V931.54a3.464,3.464,0,0,0,3.5,3.417h10.29a3.464,3.464,0,0,0,3.5-3.417V916.531h1.18A0.639,0.639,0,1,0,1101.04,915.253Zm-13.44-.781a1.267,1.267,0,0,1,1.28-1.254h4.67a1.273,1.273,0,0,1,1.28,1.254v0.781h-7.23v-0.781Zm10.96,17.068h-0.01a2.167,2.167,0,0,1-2.19,2.139h-10.29a2.167,2.167,0,0,1-2.19-2.139V916.531h14.68V931.54Zm-7.35-.151a0.645,0.645,0,0,0,.66-0.639V919.46a0.655,0.655,0,0,0-1.31,0v11.285A0.647,0.647,0,0,0,1091.21,931.389Zm-4.27-.705a0.645,0.645,0,0,0,.66-0.639V920.16a0.655,0.655,0,0,0-1.31,0v9.885A0.649,0.649,0,0,0,1086.94,930.684Zm8.54,0a0.645,0.645,0,0,0,.66-0.639V920.16a0.655,0.655,0,0,0-1.31,0v9.885A0.643,0.643,0,0,0,1095.48,930.684Z" transform="translate(-1080.72 -911.938)"/>
</svg>
