<svg xmlns="http://www.w3.org/2000/svg" width="22.03" height="24.969" viewBox="0 0 22.03 24.969">
  <defs>
    <style>
      .cls-1 {
        fill: #bfc0c0;
        fill-rule: evenodd;
      }
    </style>
  </defs>
  <path id="tool-magnet" class="cls-1" d="M1091.74,658.908a10.766,10.766,0,0,0-11.02,10.471v13.942a0.558,0.558,0,0,0,.55.561h4.87a0.55,0.55,0,0,0,.54-0.561V679.4a0.539,0.539,0,0,0,0-.678v-8.993a5.066,5.066,0,0,1,10.11,0v8.994a0.537,0.537,0,0,0,0,.677v3.925a0.558,0.558,0,0,0,.55.561h4.87a0.55,0.55,0,0,0,.54-0.561V669.379A10.763,10.763,0,0,0,1091.74,658.908Zm-6.15,23.851h-3.78v-3.14h3.78v3.14Zm16.07,0h-3.78v-3.14h3.78v3.14Zm0-4.263h-3.78v-8.771a6.152,6.152,0,0,0-12.29,0V678.5h-3.78v-9.117c0-5.155,4.46-9.348,9.93-9.348s9.92,4.193,9.92,9.348V678.5Z" transform="translate(-1080.72 -658.906)"/>
</svg>
