<svg xmlns="http://www.w3.org/2000/svg" width="26" height="22" viewBox="0 0 26 22">
  <defs>
    <style>
      .cls-1 {
        fill: #bfc0c0;
        fill-rule: evenodd;
      }
    </style>
  </defs>
  <path id="tool-measure" class="cls-1" d="M1083.95,549h-5v22h25.99v-4.642h-20.99V549Zm3.24,18.207v1.469h0.86v-1.469h3.36v1.469h0.86v-1.469h3.36v1.469h0.86v-1.469h3.37v1.469h0.85v-1.469h3.37v2.936h-24.27V549.852h3.28v3.5h-1.56v0.853h1.56v3.467h-1.56v0.853h1.56V562h-1.56v0.852h1.56v3.468h-1.56v0.852h1.44v1.507h0.85v-1.469h3.37Zm3.5-1.9v-3.135h1.99v-9.644h-1.99v-3.211h-0.85v3.211h-1.99v9.644h1.99V565.3h0.85Zm7.21-1.667V560.5h1.99v-5.854h-1.99v-3.211h-0.86v3.211h-1.99V560.5h1.99v3.136h0.86Z" transform="translate(-1078.94 -549)"/>
</svg>
