<svg xmlns="http://www.w3.org/2000/svg" width="16.969" height="22" viewBox="0 0 16.969 22">
  <defs>
    <style>
      .cls-1 {
        fill: #bfc0c0;
        fill-rule: evenodd;
      }
    </style>
  </defs>
  <path class="cls-1" d="M459.219,396.585a1.209,1.209,0,0,0-1.227,1.188v7.657a3.625,3.625,0,0,0,3.677,3.56H471.3a3.623,3.623,0,0,0,3.674-3.56v-7.657a1.207,1.207,0,0,0-1.225-1.188h-0.334v-2.863a6.938,6.938,0,0,0-13.868,0,0.637,0.637,0,0,0,1.269,0,5.668,5.668,0,0,1,11.33,0v2.863H459.219Zm14.489,1.231v7.614a2.371,2.371,0,0,1-2.407,2.33h-9.629a2.371,2.371,0,0,1-2.405-2.33v-7.614h14.441Zm-7.224,7.058a2.3,2.3,0,1,0-2.374-2.3h0A2.34,2.34,0,0,0,466.484,404.874Zm0-3.374a1.075,1.075,0,1,1-1.1,1.077v0a1.089,1.089,0,0,1,1.1-1.075h0Z" transform="translate(-458 -387)"/>
</svg>
