<svg xmlns="http://www.w3.org/2000/svg" width="15.03" height="18.969" viewBox="0 0 15.03 18.969">
  <defs>
    <style>
      .cls-1 {
        fill: #bfc0c0;
        fill-rule: evenodd;
      }
    </style>
  </defs>
  <path id="tool-text" class="cls-1" d="M1092.02,401.95h0.23a0.824,0.824,0,0,0,.86-0.886V384.9h5.69a0.83,0.83,0,0,0,.86-0.887V383.86a0.829,0.829,0,0,0-.86-0.887h-13.32a0.829,0.829,0,0,0-.86.887v0.155a0.83,0.83,0,0,0,.86.887h5.68v16.162A0.829,0.829,0,0,0,1092.02,401.95Zm7.2-18.09a0.385,0.385,0,0,0-.24-0.41A0.384,0.384,0,0,1,1099.22,383.86Zm-14.17,0a0.39,0.39,0,0,1,.25-0.41A0.391,0.391,0,0,0,1085.05,383.86Z" transform="translate(-1084.63 -382.969)"/>
</svg>
