<svg xmlns="http://www.w3.org/2000/svg" width="27.91" height="21.812" viewBox="0 0 27.91 21.812">
  <defs>
    <style>
      .cls-1 {
        fill: #bfc0c0;
        fill-rule: evenodd;
      }
    </style>
  </defs>
  <path id="tool-show" class="cls-1" d="M1103.35,873.176l-0.45-.216c-1.25-.581-2.5-1.14-3.76-1.7-0.95-.421-1.89-0.841-2.85-1.279a10.87,10.87,0,0,0-5.09-1.031h0a9.643,9.643,0,0,0-3.19.859c-0.71.333-1.43,0.67-2.14,1.006-1.63.77-3.32,1.565-5.03,2.315-0.13.066-.27,0.13-0.4,0.193a5.362,5.362,0,0,0-1.99,1.348,1.723,1.723,0,0,0-.38,1.392,1.976,1.976,0,0,0,.87,1.358,13.457,13.457,0,0,0,2.44,1.249c0.31,0.134.62,0.268,0.95,0.419,0.89,0.38,1.79.807,2.66,1.22,1.28,0.612,2.61,1.245,3.96,1.745a6.817,6.817,0,0,0,2.64.426c0.29,0,.58-0.008.87-0.016,0.25-.006.5-0.013,0.73-0.014a6.26,6.26,0,0,0,2.78-.772c0.21-.1.42-0.2,0.64-0.29,0.99-.417,1.97-0.888,2.92-1.344,0.88-.426,1.8-0.867,2.74-1.267,0.2-.1.41-0.193,0.62-0.288a9.14,9.14,0,0,0,2.41-1.4,1.985,1.985,0,0,0,.66-1.334,1.5,1.5,0,0,0-.36-1.107A6.434,6.434,0,0,0,1103.35,873.176Zm1.08,2.9a8.109,8.109,0,0,1-2.08,1.183c-0.22.1-.44,0.2-0.63,0.288-0.94.4-1.86,0.849-2.76,1.281-0.93.449-1.9,0.912-2.86,1.317-0.23.1-.46,0.2-0.69,0.308a5.218,5.218,0,0,1-2.13.652c-0.29,0-.57.006-0.86,0.014a7.34,7.34,0,0,1-3-.322c-1.31-.486-2.61-1.107-3.87-1.706-0.88-.419-1.79-0.852-2.68-1.234-0.32-.149-0.65-0.288-0.97-0.427a12.267,12.267,0,0,1-2.24-1.138,0.611,0.611,0,0,1-.27-0.433,0.363,0.363,0,0,1,.07-0.309,4.365,4.365,0,0,1,1.54-1c0.14-.068.29-0.135,0.4-0.191,1.69-.745,3.39-1.544,5.03-2.317,0.71-.336,1.42-0.671,2.14-1.006a8.339,8.339,0,0,1,2.75-.74,9.636,9.636,0,0,1,4.44.924c0.95,0.433,1.9.855,2.85,1.278,1.24,0.554,2.49,1.109,3.72,1.683,0.15,0.075.31,0.147,0.47,0.22a5.312,5.312,0,0,1,1.8,1.146,0.135,0.135,0,0,1,.03.124A0.639,0.639,0,0,1,1104.43,876.074Zm-0.08,4.127a8.109,8.109,0,0,1-2.08,1.183c-0.22.1-.44,0.2-0.63,0.289-0.94.4-1.87,0.849-2.77,1.281-0.93.449-1.89,0.912-2.85,1.316-0.23.1-.46,0.2-0.69,0.309a5.215,5.215,0,0,1-2.14.652c-0.28,0-.56.006-0.85,0.013a7.34,7.34,0,0,1-3-.321c-1.31-.487-2.61-1.107-3.87-1.706-0.88-.419-1.79-0.852-2.68-1.234-0.32-.149-0.65-0.288-0.97-0.428a12.4,12.4,0,0,1-2.22-1.122,0.656,0.656,0,0,0-.92.18,0.675,0.675,0,0,0,.18.939,13.516,13.516,0,0,0,2.44,1.248c0.31,0.134.62,0.267,0.95,0.42,0.89,0.38,1.79.807,2.66,1.221,1.28,0.611,2.61,1.244,3.96,1.743a6.817,6.817,0,0,0,2.64.426c0.29,0,.58-0.007.86-0.015,0.26-.007.51-0.013,0.74-0.014a6.192,6.192,0,0,0,2.77-.772c0.22-.1.43-0.2,0.65-0.291,0.99-.417,1.97-0.888,2.91-1.343,0.89-.426,1.81-0.867,2.74-1.268,0.21-.1.42-0.193,0.63-0.288a9.351,9.351,0,0,0,2.41-1.395,0.68,0.68,0,0,0,.07-0.952A0.662,0.662,0,0,0,1104.35,880.2Zm0,4.128a8.137,8.137,0,0,1-2.08,1.182c-0.22.1-.44,0.2-0.63,0.289-0.94.4-1.87,0.849-2.76,1.281-0.94.448-1.9,0.912-2.86,1.317-0.23.1-.46,0.2-0.69,0.309a5.228,5.228,0,0,1-2.14.651c-0.28,0-.56.006-0.85,0.014a7.375,7.375,0,0,1-3-.321c-1.31-.488-2.61-1.107-3.87-1.706-0.88-.42-1.79-0.854-2.68-1.235-0.32-.148-0.65-0.288-0.97-0.427a12.471,12.471,0,0,1-2.22-1.122,0.656,0.656,0,0,0-.92.179,0.674,0.674,0,0,0,.18.938,13.4,13.4,0,0,0,2.44,1.25c0.31,0.134.62,0.267,0.95,0.419,0.89,0.38,1.79.807,2.66,1.221,1.28,0.611,2.61,1.244,3.96,1.744a6.816,6.816,0,0,0,2.64.425c0.29,0,.58-0.007.87-0.014,0.25-.007.5-0.014,0.73-0.015a6.179,6.179,0,0,0,2.77-.772c0.22-.1.43-0.2,0.65-0.29,0.99-.418,1.97-0.888,2.92-1.344,0.88-.426,1.8-0.867,2.73-1.267,0.21-.1.42-0.194,0.63-0.289a9.184,9.184,0,0,0,2.41-1.394,0.681,0.681,0,0,0,.07-0.953A0.661,0.661,0,0,0,1104.35,884.329Z" transform="translate(-1078.06 -868.938)"/>
</svg>
