<svg xmlns="http://www.w3.org/2000/svg" width="26.375" height="23.281" viewBox="0 0 26.375 23.281">
  <defs>
    <style>
      .cls-1 {
        fill: #bfc0c0;
        fill-rule: evenodd;
      }
    </style>
  </defs>
  <path class="cls-1" d="M465.847,366.765a2.448,2.448,0,0,0,1.417-3.1l-0.012-.035,7.034-4.451a0.435,0.435,0,0,0,.09-0.081,2.629,2.629,0,0,0,2.831.563,2.759,2.759,0,0,0,.441-0.23,0.428,0.428,0,0,0,.07.093l5.821,5.313a0.066,0.066,0,0,1,.03.013,2.4,2.4,0,0,0-.16,2.206,2.6,2.6,0,0,0,3.362,1.325,2.457,2.457,0,0,0,1.429-3.1c-0.017-.05-0.035-0.1-0.055-0.146a2.55,2.55,0,0,0-1.766-1.444c0-.021.01-0.04,0.01-0.061l0.251-11.117a0.072,0.072,0,0,0-.01-0.064,2.5,2.5,0,0,0,1.931-3.248c-0.016-.049-0.035-0.1-0.054-0.146a2.6,2.6,0,0,0-3.362-1.324,2.457,2.457,0,0,0-1.43,3.1c0.017,0.049.035,0.1,0.055,0.145,0.01,0.018.02,0.032,0.03,0.049a0.032,0.032,0,0,0-.02.012l-5.851,4.344a1.113,1.113,0,0,0-.08.088,2.6,2.6,0,0,0-1.927-.556,0.349,0.349,0,0,0-.02-0.1l-1.748-4.9a0.065,0.065,0,0,1-.02-0.035,2.428,2.428,0,0,0,1.014-3.065A2.585,2.585,0,0,0,471.8,345.5a2.4,2.4,0,0,0-1.461,3.01,2.374,2.374,0,0,0,.8,1.156l-5.789,12.347v0.029a2.63,2.63,0,0,0-1.485.149,2.448,2.448,0,0,0-1.436,3.087c0.019,0.055.039,0.109,0.061,0.162a3.306,3.306,0,0,0,.171.322A2.613,2.613,0,0,0,465.847,366.765Zm12.734-10.348c-0.01-.018-0.02-0.031-0.03-0.048,0.01-.006.02-0.008,0.03-0.014l5.841-4.342a0.4,0.4,0,0,0,.07-0.084,2.7,2.7,0,0,0,1.044.5,0.127,0.127,0,0,0-.01.058l-0.261,11.117a0.155,0.155,0,0,0,.02.063,2.615,2.615,0,0,0-.5.145,2.235,2.235,0,0,0-.431.231c-0.03-.032-0.04-0.066-0.07-0.094l-5.831-5.312a0.039,0.039,0,0,1-.02-0.013A2.4,2.4,0,0,0,478.581,356.417Zm-6.434-6.234a2.647,2.647,0,0,0,.934.062c0.01,0.031.01,0.062,0.02,0.093l1.757,4.9c0,0.013.01,0.023,0.01,0.034a2.43,2.43,0,0,0-1.084,2.858,0.037,0.037,0,0,0-.03.01l-7.064,4.469c-0.03.016-.05,0.045-0.08,0.065a2.4,2.4,0,0,0-.231-0.182Z" transform="translate(-462.313 -345.313)"/>
</svg>
