<svg xmlns="http://www.w3.org/2000/svg" width="22" height="22" viewBox="0 0 22 22">
  <defs>
    <style>
      .cls-1 {
        fill: #bfc0c0;
        fill-rule: evenodd;
      }
    </style>
  </defs>
  <path id="tool-zoom" class="cls-1" d="M1090.22,598.962a9.287,9.287,0,1,0,5.84,16.5l5.23,5.227a0.984,0.984,0,0,0,.69.284,0.944,0.944,0,0,0,.68-0.284,0.949,0.949,0,0,0,0-1.366l-5.23-5.23A9.28,9.28,0,0,0,1090.22,598.962Zm0,16.625a7.341,7.341,0,1,1,7.34-7.339A7.346,7.346,0,0,1,1090.22,615.587Z" transform="translate(-1080.94 -598.969)"/>
</svg>
