<svg xmlns="http://www.w3.org/2000/svg" width="24.969" height="24.969" viewBox="0 0 24.969 24.969">
  <defs>
    <style>
      .cls-1 {
        fill: #9ba6b2;
        fill-rule: evenodd;
      }
    </style>
  </defs>
  <path class="cls-1" d="M19.407,12.183a0.35,0.35,0,0,1-.121.242,0.234,0.234,0,0,1-.267.024l-5.091-1.721a0.3,0.3,0,0,1-.194-0.242,0.3,0.3,0,0,1,.121-0.291L15.237,9.2a4.463,4.463,0,0,0-1.188-.654A3.945,3.945,0,0,0,12.668,8.3a4.109,4.109,0,0,0-1.636.327,4.184,4.184,0,0,0-2.23,2.23A4.109,4.109,0,0,0,8.474,12.5,4.024,4.024,0,0,0,8.8,14.122a4.218,4.218,0,0,0,2.23,2.218,4.11,4.11,0,0,0,1.636.327,4.157,4.157,0,0,0,1.964-.485,4.047,4.047,0,0,0,1.5-1.357,0.443,0.443,0,0,1,.255-0.158,0.311,0.311,0,0,1,.279.061l1.77,1.236a0.435,0.435,0,0,1,.145.218,0.381,0.381,0,0,1-.049.267,7.4,7.4,0,0,1-2.557,2.291,6.823,6.823,0,0,1-3.309.836,6.893,6.893,0,0,1-2.751-.557,7.056,7.056,0,0,1-3.769-3.769,7.067,7.067,0,0,1,0-5.5A7.055,7.055,0,0,1,9.916,5.977a6.89,6.89,0,0,1,2.751-.558,6.72,6.72,0,0,1,2.727.558,7.486,7.486,0,0,1,2.242,1.5l0.1-.048,1.188-.873a0.278,0.278,0,0,1,.315,0,0.3,0.3,0,0,1,.17.267v5.357ZM12.5,24.983A12.485,12.485,0,1,1,24.983,12.5,12.5,12.5,0,0,1,12.5,24.983Zm0-23.5A11.016,11.016,0,1,0,23.514,12.5,11.028,11.028,0,0,0,12.5,1.482Z"/>
</svg>
