<svg xmlns="http://www.w3.org/2000/svg" width="24.93" height="26.594" viewBox="0 0 24.93 26.594">
  <defs>
    <style>
      .cls-1 {
        fill: #bfc0c0;
        fill-rule: evenodd;
      }
    </style>
  </defs>
  <path id="tool-drawing" class="cls-1" d="M1098.95,719.437a4.822,4.822,0,0,0-4.84,4.795,0.539,0.539,0,0,0,.54.54,0.548,0.548,0,0,0,.55-0.54,3.745,3.745,0,0,1,7.49,0v1.887H1094a0.942,0.942,0,0,0-.95.94V732.4a2.6,2.6,0,0,0,2.61,2.594h6.57a2.613,2.613,0,0,0,2.62-2.594v-5.338a0.948,0.948,0,0,0-.95-0.94h-0.12v-1.887A4.82,4.82,0,0,0,1098.95,719.437Zm4.81,12.96a1.527,1.527,0,0,1-1.53,1.515h-6.56a1.527,1.527,0,0,1-1.53-1.515v-5.2h9.62v5.2Zm-4.81-.063a1.715,1.715,0,1,0-1.73-1.715A1.727,1.727,0,0,0,1098.95,732.334Zm0-2.354a0.637,0.637,0,1,1,0,1.274A0.637,0.637,0,1,1,1098.95,729.98Zm-7.92-20.453-10.23,10.145a0.542,0.542,0,0,0-.15.291l-0.76,5.569a0.52,0.52,0,0,0,.51.578,0.474,0.474,0,0,0,.07,0l3.38-.453a0.51,0.51,0,0,0,.44-0.574,0.505,0.505,0,0,0-.58-0.438L1081,725l0.53-3.884,4.13,4.088a0.5,0.5,0,0,0,.36.151,0.517,0.517,0,0,0,.36-0.151l10.24-10.145a3.881,3.881,0,0,0,0-5.535A3.978,3.978,0,0,0,1091.03,709.527Zm-9.14,10.508,9.34-9.261,1.72,1.7-9.34,9.261Zm4.13,4.092-1.68-1.667,9.34-9.26,1.68,1.666Zm10.06-9.99-4.11-4.077a2.936,2.936,0,0,1,3.92.185,2.83,2.83,0,0,1,.86,2.048A2.871,2.871,0,0,1,1096.08,714.137Z" transform="translate(-1079.91 -708.406)"/>
</svg>
