<?xml version="1.0" encoding="utf-8"?>
<!-- Generator: Adobe Illustrator 22.1.0, SVG Export Plug-In . SVG Version: 6.00 Build 0)  -->
<svg version="1.1" id="Слой_1" xmlns="http://www.w3.org/2000/svg" xmlns:xlink="http://www.w3.org/1999/xlink" x="0px" y="0px"
	 width="15.2px" height="20px" viewBox="0 0 15.2 20" style="enable-background:new 0 0 15.2 20;" xml:space="preserve">
<g>
	<path style="fill:#F47221;" d="M2.9,4.7C3.3,3.2,3.8,1.6,4.2,0c1.1,0,2.1,0,3.2,0c0.4,0,0.8,0.1,1.2,0.4c0.5,0.4,0.7,1.1,0.5,1.7
		C8.8,3,8.6,3.9,8.4,4.7c-0.4,1.5-0.8,3-1.3,4.6C7,9.6,6.9,9.9,6.9,10.2c-0.2,0.8-0.4,1.6-0.7,2.4c-0.1,0.4-0.1,0.8-0.1,1.2
		c0.1,0.4,0.5,0.7,0.9,0.7c0.6,0.1,1.2-0.3,1.5-0.8c0.5-0.7,0.7-1.5,0.8-2.3c0-0.4,0-0.8-0.3-1.1c0.5-0.6,1.2-1.1,1.8-1.7
		c0.4-0.4,0.8-0.7,1.2-1.1c0.6-0.5,1.2-1.1,1.8-1.7c1,1,1.3,2.5,1.2,3.9c-0.1,1.7-0.5,3.3-1.3,4.8c-0.9,1.9-2.4,3.5-4.4,4.4
		c-1.8,0.8-3.8,1.1-5.7,0.7C2.7,19.6,1.6,19,0.9,18c-0.7-1-0.8-2.3-0.6-3.5c0.1-0.9,0.4-1.8,0.6-2.6c0.2-0.6,0.3-1.1,0.5-1.7
		C1.9,8.4,2.4,6.6,2.9,4.7z"/>
	
		<linearGradient id="SVGID_1_" gradientUnits="userSpaceOnUse" x1="10201.0752" y1="3251.0815" x2="10233.5098" y2="3292.0688" gradientTransform="matrix(7.200000e-02 0 0 7.200000e-02 -724.768 -226.928)">
		<stop  offset="0" style="stop-color:#D93727"/>
		<stop  offset="1" style="stop-color:#F47221"/>
	</linearGradient>
	<path style="fill:url(#SVGID_1_);" d="M9.3,12.3c0.1-0.3,0.1-0.5,0.1-0.8c0-0.4,0-0.8-0.3-1.1c-0.2-0.2-0.5-0.3-0.8-0.3
		c-0.5,0-1,0-1.4,0C6.9,9.9,7,9.6,7.1,9.3c0.4-1.5,0.8-3,1.3-4.6c0.9,0,1.7,0,2.5,0c1.1,0,2.2,0.4,3,1.2c1,1,1.3,2.5,1.2,3.9
		c0,0.8-0.2,1.6-0.4,2.4H9.3z"/>
	<path style="fill:#D93727;" d="M0.1,8.1C0.4,7,0.7,5.8,1,4.7c0.6,0,1.3,0,1.9,0c-0.5,1.8-1,3.6-1.5,5.4C1,10.1,0.6,9.9,0.3,9.6
		C0,9.2-0.1,8.6,0.1,8.1z"/>
</g>
</svg>
