<?xml version="1.0" encoding="utf-8"?>
<!-- Generator: Adobe Illustrator 22.1.0, SVG Export Plug-In . SVG Version: 6.00 Build 0)  -->
<svg version="1.1" id="Слой_1" xmlns="http://www.w3.org/2000/svg" xmlns:xlink="http://www.w3.org/1999/xlink" x="0px" y="0px"
	 width="14.7px" height="20px" viewBox="0 0 14.7 20" style="enable-background:new 0 0 14.7 20;" xml:space="preserve">
<path style="fill:#0767B1;" d="M6.2,0c0.6,0,1.3,0,1.9,0c0,0.4,0,0.8,0,1.2c0.5,0,0.9,0,1.4,0c0-0.4,0-0.8,0-1.2c0.6,0,1.3,0,1.9,0
	c0,0.4,0,0.9,0,1.4c0,0.2,0.2,0.2,0.3,0.3c1.1,0.4,2.1,1,3,1.7c-0.3,0.4-0.8,0.7-1.1,1.2c-0.2,0.2-0.3,0.6-0.6,0.8
	C11,3.4,7.9,3.2,5.6,4.6c-1.6,0.9-2.7,2.5-3,4.3C2.4,10,2.5,11.3,3,12.4c0.6,1.6,1.9,2.9,3.5,3.5c2.1,0.9,4.8,0.5,6.5-1.1
	c0,0,0.1,0,0.1,0c0.2,0.3,0.5,0.7,0.8,1c0.3,0.3,0.6,0.6,0.9,0.9c-1,0.7-2,1.4-3.2,1.7c-0.2,0.5,0,1,0,1.5C11.3,20,11.1,20,10.9,20
	c-0.5,0-0.9,0-1.3,0c0-0.4,0-0.8,0-1.2c-0.5,0-0.9,0-1.4,0c0,0.4,0,0.8,0,1.1C7.9,20,7.6,20,7.3,20c-0.4,0-0.7,0-1.1,0
	c0-0.5,0-1,0-1.5c-2-0.6-3.8-2-4.9-3.8c-1.7-2.7-1.8-6.4-0.1-9.2c1.1-1.9,2.9-3.3,5-3.9C6.2,1,6.2,0.5,6.2,0z"/>
</svg>
