<?xml version="1.0" encoding="utf-8"?>
<!-- Generator: Adobe Illustrator 22.1.0, SVG Export Plug-In . SVG Version: 6.00 Build 0)  -->
<svg version="1.1" id="Слой_1" xmlns="http://www.w3.org/2000/svg" xmlns:xlink="http://www.w3.org/1999/xlink" x="0px" y="0px"
	 width="20px" height="20px" viewBox="0 0 20 20" style="enable-background:new 0 0 20 20;" xml:space="preserve">
<rect x="0" style="fill:none;" width="20" height="20"/>
<g>
	<path style="fill:#00CCBD;" d="M19.4,13.8L17.2,10l-0.8,1.4l1.8,3.1c0.4,0.6,0.1,1.4-0.5,1.8c-0.2,0.1-0.4,0.2-0.7,0.2
		c-0.5,0-0.9-0.2-1.1-0.7l-1-1.7l-0.8,1.4l0.6,1c0.5,0.8,1.4,1.4,2.4,1.4c0.5,0,0.9-0.1,1.4-0.4C19.7,16.8,20.1,15.1,19.4,13.8z"/>
	<polygon style="fill:none;" points="8.8,10 9.9,11.8 10.9,10 9.9,8.2 	"/>
	<path style="fill:none;" d="M4,7.4L4,7.4l0.9-1.5l-1-1.7C3.6,3.8,3.2,3.5,2.7,3.5c-0.2,0-0.5,0.1-0.7,0.2C1.5,4.1,1.2,4.9,1.6,5.5
		l1.8,3.1L4,7.4L4,7.4z"/>
	<path style="fill:#018DFD;" d="M5.1,3.5C4.6,2.6,3.7,2.1,2.7,2.1c-0.5,0-0.9,0.1-1.4,0.4c-1.3,0.8-1.8,2.4-1,3.7L2.5,10l0.8-1.4
		L1.6,5.5C1.2,4.9,1.5,4.1,2.1,3.7c0.2-0.1,0.4-0.2,0.7-0.2c0.5,0,0.9,0.2,1.1,0.7l1,1.7l0.8-1.4L5.1,3.5z"/>
	<path style="fill:#018DFD;" d="M18.4,2.5C18,2.2,17.5,2.1,17,2.1c-1,0-1.9,0.5-2.4,1.4l-0.6,1l-0.8,1.4l-1.5,2.6L11,9.8L10.9,10
		l-1,1.8l-1-1.8l-0.1,0.2L8,11.4l1.9,3.2l1.9-3.2l0.5-0.9l0.3-0.5l1.5-2.6l0.8-1.4l1-1.7c0.2-0.4,0.7-0.7,1.1-0.7
		c0.2,0,0.5,0.1,0.7,0.2c0.6,0.4,0.8,1.2,0.5,1.8l-1.8,3.1L15.6,10l-1.1,1.9l-0.5,0.8L13.2,14L11,17.9c-0.2,0.4-0.7,0.7-1.1,0.7
		c-0.5,0-0.9-0.3-1.1-0.7L6.5,14l-0.8,1.4l1.8,3.2C8,19.5,8.9,20,9.9,20s1.9-0.5,2.4-1.4l1.8-3.2l0.8-1.4l0.9-1.5l0,0l0,0l0.6-1.1
		l0.8-1.4l2.2-3.8C20.1,4.9,19.7,3.2,18.4,2.5z"/>
	<path style="fill:#00CCBD;" d="M9.9,0C8.9,0,8,0.5,7.5,1.4L5.7,4.5L4.9,5.9L4,7.4l0,0l0,0L3.4,8.6L2.5,10l-2.2,3.8
		c-0.8,1.3-0.3,3,1,3.7c0.4,0.2,0.9,0.4,1.4,0.4c1,0,1.9-0.5,2.4-1.4l0.6-1l0.8-1.4L8,11.4l0.7-1.2L8.9,10l1-1.8l1,1.8L11,9.8
		l0.7-1.2L9.9,5.4L8,8.6L7.5,9.5L7.2,10l-1.5,2.6l-0.8,1.4l-1,1.7c-0.2,0.4-0.7,0.7-1.1,0.7c-0.2,0-0.5-0.1-0.7-0.2
		c-0.6-0.4-0.8-1.2-0.5-1.8l1.8-3.1L4.2,10l1.1-1.8l0.5-0.8l0.8-1.4l2.2-3.9C9,1.7,9.4,1.4,9.9,1.4c0.5,0,0.9,0.3,1.1,0.7l2.2,3.9
		l0.8-1.4l-1.8-3.2C11.8,0.5,10.8,0,9.9,0z"/>
</g>
</svg>
