<?xml version="1.0" encoding="utf-8"?>
<!-- Generator: Adobe Illustrator 22.1.0, SVG Export Plug-In . SVG Version: 6.00 Build 0)  -->
<svg version="1.1" id="Слой_1" xmlns="http://www.w3.org/2000/svg" xmlns:xlink="http://www.w3.org/1999/xlink" x="0px" y="0px"
	 width="20.2px" height="20px" viewBox="0 0 20.2 20" style="enable-background:new 0 0 20.2 20;" xml:space="preserve">
<g>
	<path style="fill:#1010BE;" d="M10.1,20c-5.5,0-10-4.5-10-10s4.5-10,10-10c0.1,0,0.2,0,0.2,0l0.1,0c0.3,0,0.5,0.3,0.5,0.5
		c0,0.3-0.2,0.5-0.5,0.5l-0.1,0c-0.1,0-0.1,0-0.2,0c-4.9,0-9,4-9,9s4,9,9,9c0,0,0.1,0,0.1,0h0.1c0.3,0,0.5,0.2,0.5,0.5
		c0,0.3-0.2,0.5-0.5,0.5h-0.1C10.2,20,10.1,20,10.1,20z"/>
	<ellipse style="fill:#1010BE;" cx="12.1" cy="0.7" rx="0.6" ry="0.6"/>
	<ellipse style="fill:#1010BE;" cx="13.9" cy="1.4" rx="0.6" ry="0.6"/>
	<ellipse style="fill:#1010BE;" cx="15.7" cy="2.4" rx="0.6" ry="0.6"/>
	<ellipse style="fill:#1010BE;" cx="17.1" cy="3.6" rx="0.6" ry="0.6"/>
	<ellipse style="fill:#1010BE;" cx="18.4" cy="5.3" rx="0.6" ry="0.6"/>
	<ellipse style="fill:#1010BE;" cx="19.1" cy="7" rx="0.6" ry="0.6"/>
	<ellipse style="fill:#1010BE;" cx="19.5" cy="9" rx="0.6" ry="0.6"/>
	<ellipse style="fill:#1010BE;" cx="19.5" cy="11" rx="0.6" ry="0.6"/>
	<ellipse style="fill:#1010BE;" cx="19.1" cy="12.9" rx="0.6" ry="0.6"/>
	<ellipse style="fill:#1010BE;" cx="18.4" cy="14.7" rx="0.6" ry="0.6"/>
	<ellipse style="fill:#1010BE;" cx="17.1" cy="16.4" rx="0.6" ry="0.6"/>
	<ellipse style="fill:#1010BE;" cx="15.7" cy="17.6" rx="0.6" ry="0.6"/>
	<ellipse style="fill:#1010BE;" cx="13.9" cy="18.6" rx="0.6" ry="0.6"/>
	<ellipse style="fill:#1010BE;" cx="12" cy="19.3" rx="0.6" ry="0.6"/>
	<polygon style="fill:#8E8F91;" points="14.5,7.5 12.6,7.5 8.8,7.5 8.8,9.4 12.6,9.4 12.6,10.7 7.6,10.7 7.6,6.3 12.4,6.3 12.4,4.3 
		7.6,4.3 5.3,4.3 5.3,6.3 5.3,10.7 5.3,12.6 7.6,12.6 12.6,12.6 12.6,13.9 8.8,13.9 8.8,15.8 12.6,15.8 14.5,15.8 14.9,15.8 
		14.9,7.5 	"/>
</g>
</svg>
