<?xml version="1.0" encoding="UTF-8"?>
<svg width="155px" height="30px" viewBox="0 0 155 30" version="1.1" xmlns="http://www.w3.org/2000/svg" xmlns:xlink="http://www.w3.org/1999/xlink">
    <!-- Generator: Sketch 49 (51002) - http://www.bohemiancoding.com/sketch -->
    <title>logo</title>
    <desc>Created with Sketch.</desc>
    <defs></defs>
    <g id="Symbols" stroke="none" stroke-width="1" fill="none" fill-rule="evenodd">
        <g id="-navigation-beforescroll" transform="translate(-643.000000, -34.000000)" fill="#FFFFFF">
            <g id="-navigation-before-scroll">
                <g id="navigation">
                    <g id="logo" transform="translate(643.000000, 34.000000)">
                        <g id="Group">
                            <path d="M4.67386184,16.167661 C4.67386184,18.6307119 6.28606579,20.4429153 8.61820395,20.4429153 C10.2645691,20.4429153 11.4989605,19.5195254 12.08225,18.0485085 L16.2667401,19.348678 C15.2378257,22.4615593 12.1505724,24.4110508 8.58353289,24.4110508 C3.91925658,24.4110508 0.2150625,20.9559661 0.2150625,16.167661 C0.2150625,11.3788475 3.91925658,7.92427119 8.58353289,7.92427119 C12.1505724,7.92427119 15.2378257,9.90783051 16.2667401,13.0212203 L12.08225,14.2863051 C11.4989605,12.8498644 10.2645691,11.8924068 8.61820395,11.8924068 C6.28606579,11.8924068 4.67386184,13.7051186 4.67386184,16.167661" id="Fill-2044"></path>
                            <path d="M21.4591891,16.167661 C21.4591891,18.5956271 23.0713931,20.4429153 25.4035313,20.4429153 C27.7015082,20.4429153 29.3137122,18.5956271 29.3137122,16.167661 C29.3137122,13.7051186 27.7015082,11.8924068 25.4035313,11.8924068 C23.0713931,11.8924068 21.4591891,13.7051186 21.4591891,16.167661 M17.0003898,16.167661 C17.0003898,11.3788475 20.7392549,7.92427119 25.4035313,7.92427119 C30.0683174,7.92427119 33.8066727,11.3788475 33.8066727,16.167661 C33.8066727,20.9559661 30.0683174,24.4110508 25.4035313,24.4110508 C20.7392549,24.4110508 17.0003898,20.9559661 17.0003898,16.167661" id="Fill-2046"></path>
                            <path d="M38.4851234,0.0574067797 C40.0973273,0.0574067797 41.3663898,1.3570678 41.3663898,2.92977966 C41.3663898,4.53808475 40.0973273,5.76910169 38.4851234,5.76910169 C36.9075905,5.76910169 35.638528,4.53808475 35.638528,2.92977966 C35.638528,1.3570678 36.9075905,0.0574067797 38.4851234,0.0574067797 Z M40.9202549,24.0004576 L36.4614556,24.0004576 L36.4614556,12.0975763 L34.266472,12.0975763 L34.266472,8.33435593 L40.9202549,8.33435593 L40.9202549,24.0004576 Z" id="Fill-2048"></path>
                            <path d="M52.9349984,7.92432203 C56.330722,7.92432203 58.7658536,10.0792373 58.7658536,13.7392373 L58.7658536,24.0002542 L54.3065444,24.0002542 L54.3065444,14.8675424 C54.3065444,12.8839831 53.0379918,12.0633051 51.6312648,12.0633051 C50.328551,12.0633051 49.161972,12.7812712 48.3048832,13.8419492 L48.3048832,24.0002542 L43.8460839,24.0002542 L43.8460839,8.33466102 L48.2018898,8.33466102 L48.2018898,8.9509322 C48.2018898,9.49754237 48.1335674,10.1814407 48.1335674,10.1814407 C49.3337977,8.7109322 51.1168076,7.92432203 52.9349984,7.92432203" id="Fill-2050"></path>
                            <path d="M70.838875,13.1232712 C69.5698125,11.8922542 67.9917697,11.5159831 66.9633651,11.5159831 C65.7967862,11.5159831 65.3853224,12.0971695 65.3853224,12.5761525 C65.3853224,13.1232712 65.7279539,13.4995424 66.5513914,13.7731017 L69.1583487,14.5942881 C72.3822467,15.6544576 73.4794836,17.3990339 73.4794836,19.4512373 C73.4794836,21.7429322 71.524648,24.4108983 67.2376743,24.4108983 C63.7731184,24.4108983 61.6122961,23.076661 60.3090724,21.9478475 L62.6758816,18.8700508 C63.8072796,19.9302203 65.8309474,20.8195424 67.3065066,20.8195424 C68.3690724,20.8195424 69.0206842,20.2724237 69.0206842,19.656661 C69.0206842,18.8700508 68.5067368,18.5278475 67.2376743,18.1515763 L64.5618849,17.3649661 C62.0237599,16.5437797 60.926523,14.8337797 60.926523,12.7810678 C60.926523,10.2158136 63.2586612,7.92411864 67.0316875,7.92411864 C69.0895164,7.92411864 71.524648,8.53988136 73.377,10.2503898 L70.838875,13.1232712 Z" id="Fill-2052"></path>
                            <path d="M79.0362336,16.167661 C79.0362336,18.5620678 80.6820888,20.4774915 83.048898,20.4774915 C85.4157072,20.4774915 87.0620724,18.5620678 87.0620724,16.167661 C87.0620724,13.7391864 85.4157072,11.8924068 83.048898,11.8924068 C80.6820888,11.8924068 79.0362336,13.7391864 79.0362336,16.167661 Z M86.9590789,22.0166441 C86.1698026,23.3503729 84.3179605,24.4110508 82.0541447,24.4110508 C77.7325,24.4110508 74.4397697,20.9559661 74.4397697,16.167661 C74.4397697,11.3788475 77.6983388,7.92427119 82.0199836,7.92427119 C84.4209539,7.92427119 86.2386349,9.01850847 87.0274013,10.3522373 C87.0274013,10.1818983 86.9590789,9.87427119 86.9590789,9.05308475 L86.9590789,8.33461017 L91.4178783,8.33461017 L91.4178783,29.9864746 L86.9590789,29.9864746 L86.9590789,22.0166441 Z" id="Fill-2054"></path>
                            <path d="M94.2094589,18.2537288 L94.2094589,8.33440678 L98.6687681,8.33440678 L98.6687681,17.4335593 C98.6687681,19.5879661 100.109146,20.4432203 101.687189,20.4432203 C103.298883,20.4432203 104.7051,19.5879661 104.7051,17.4335593 L104.7051,8.33440678 L109.129738,8.33440678 L109.129738,18.2537288 C109.129738,21.5374576 106.522781,24.4108475 101.687189,24.4108475 C96.8852484,24.4108475 94.2094589,21.5374576 94.2094589,18.2537288" id="Fill-2056"></path>
                            <path d="M120.640171,18.3907627 L120.640171,17.2619492 C120.365862,17.5360169 119.885566,17.6041525 119.268115,17.6041525 L117.587589,17.6041525 C116.181372,17.6041525 115.357934,18.2199153 115.357934,19.3141525 C115.357934,20.374322 116.215533,21.1614407 117.587589,21.1614407 C119.199793,21.1614407 120.640171,20.3407627 120.640171,18.3907627 Z M120.640171,13.5683898 C120.640171,12.4395763 119.747901,11.7211017 118.033724,11.7211017 C116.455171,11.7211017 114.466174,12.5077119 113.300105,13.1916102 L111.551257,9.83974576 C111.551257,9.83974576 114.466174,7.92432203 118.273362,7.92432203 C121.840401,7.92432203 125.09897,9.56618644 125.09897,13.7051695 L125.09897,24.0002542 L120.640171,24.0002542 L120.640171,22.5297458 C119.816734,23.7612712 118.033724,24.4111017 116.250204,24.4111017 C112.922803,24.4111017 110.76198,22.0507627 110.76198,19.485 C110.76198,16.5099153 112.957474,14.6626271 116.455171,14.6626271 L119.542424,14.6626271 C120.29703,14.6626271 120.640171,14.3204237 120.640171,13.7392373 L120.640171,13.5683898 Z" id="Fill-2058"></path>
                            <path d="M137.576623,12.7131356 L135.69062,12.7131356 C133.426294,12.7131356 132.39789,13.7733051 132.39789,16.5099153 L132.39789,24.0002542 L127.938581,24.0002542 L127.938581,8.33466102 L132.260225,8.33466102 L132.260225,10.8317797 C132.878186,9.15584746 134.386887,8.12923729 136.342232,8.12923729 C136.753696,8.12923729 137.16516,8.16381356 137.576623,8.26652542 L137.576623,12.7131356 Z" id="Fill-2060"></path>
                            <path d="M142.772641,14.4917797 L149.803727,14.4917797 C149.563579,12.9180508 148.226194,11.6183898 146.339681,11.6183898 C144.453678,11.6183898 143.115783,12.815339 142.772641,14.4917797 Z M154.571507,17.4673729 L142.875125,17.4673729 C143.115783,19.2119492 144.487839,20.6392373 146.476836,20.6138136 C148.183875,20.5924576 149.167921,19.855678 149.852674,18.6561864 L154.182987,19.6700847 C152.77626,23.0219492 149.90672,24.4111017 146.408513,24.4111017 C141.709056,24.4111017 138.176688,20.9560169 138.176688,16.1677119 C138.176688,11.3788983 141.640734,7.92432203 146.339681,7.92432203 C150.661326,7.92432203 154.571507,10.7290678 154.571507,17.2965254 L154.571507,17.4673729 Z" id="Fill-2062"></path>
                        </g>
                    </g>
                </g>
            </g>
        </g>
    </g>
</svg>