<?xml version="1.0" encoding="utf-8"?>
<!-- Generator: Adobe Illustrator 22.1.0, SVG Export Plug-In . SVG Version: 6.00 Build 0)  -->
<svg version="1.1" id="Слой_1" xmlns="http://www.w3.org/2000/svg" xmlns:xlink="http://www.w3.org/1999/xlink" x="0px" y="0px"
	 width="20px" height="17.2px" viewBox="0 0 20 17.2" style="enable-background:new 0 0 20 17.2;" xml:space="preserve">
<g id="_2228690112832">
	
		<linearGradient id="SVGID_1_" gradientUnits="userSpaceOnUse" x1="9022.1904" y1="1860.1836" x2="9177.7422" y2="2008.5442" gradientTransform="matrix(7.200000e-02 0 0 7.200000e-02 -641.248 -130.448)">
		<stop  offset="0" style="stop-color:#68656C"/>
		<stop  offset="0.2118" style="stop-color:#969696"/>
		<stop  offset="0.3686" style="stop-color:#DBDBDB"/>
		<stop  offset="0.5608" style="stop-color:#9E9EA0"/>
		<stop  offset="0.6588" style="stop-color:#CBCBCD"/>
		<stop  offset="1" style="stop-color:#7F7C83"/>
	</linearGradient>
	<polygon style="fill:url(#SVGID_1_);" points="8.3,15.5 8.3,2 10.9,2 10.9,8 16,2 19.5,2 14.7,7.3 19.7,15.5 16.4,15.5 12.9,9.2 
		10.9,11.4 10.9,15.5 	"/>
	
		<linearGradient id="SVGID_2_" gradientUnits="userSpaceOnUse" x1="9154.6396" y1="1997.8466" x2="9047.0645" y2="1870.4487" gradientTransform="matrix(7.200000e-02 0 0 7.200000e-02 -641.248 -130.448)">
		<stop  offset="0" style="stop-color:#F5F5F5"/>
		<stop  offset="0.3098" style="stop-color:#DBDBDB"/>
		<stop  offset="0.4392" style="stop-color:#969696"/>
		<stop  offset="0.5608" style="stop-color:#FFFFFF"/>
		<stop  offset="0.6588" style="stop-color:#FFFFFF"/>
		<stop  offset="1" style="stop-color:#E6E6E6"/>
	</linearGradient>
	<path style="fill:url(#SVGID_2_);" d="M8.1,15.5V2V1.9h0.2h2.6H11V2v5.6l4.9-5.7l0-0.1H16h3.4h0.3l-0.2,0.3l-4.7,5.2l5,8.1l0.1,0.2
		h-0.3h-3.3h-0.1l0-0.1l-3.4-6.1L11,11.5v4v0.2h-0.2H8.3H8.1L8.1,15.5L8.1,15.5z M8.4,2.2v13.2h2.3v-3.9l0-0.1l2.1-2.3L13,8.9
		l0.1,0.2l3.5,6.3h3l-4.9-8l-0.1-0.1l0.1-0.1l4.6-5h-3L11,8.1L10.7,8V2.2H8.4z"/>
	
		<linearGradient id="SVGID_3_" gradientUnits="userSpaceOnUse" x1="8909.001" y1="1905.8467" x2="9037.4297" y2="1976.5513" gradientTransform="matrix(7.200000e-02 0 0 7.200000e-02 -641.248 -130.448)">
		<stop  offset="0" style="stop-color:#E89F17"/>
		<stop  offset="0.5412" style="stop-color:#FFD670"/>
		<stop  offset="1" style="stop-color:#F2A413"/>
	</linearGradient>
	<path style="fill:url(#SVGID_3_);" d="M0.2,2h1.7V0.2h1V2h1.4V0.2h1V2c0.8,0,1.4,0.1,1.9,0.1C7.6,2.2,8,2.4,8.4,2.7
		C8.8,3,9.1,3.4,9.3,3.8c0.2,0.5,0.4,1,0.4,1.6c0,0.6-0.2,1.2-0.5,1.7C8.9,7.7,8.5,8.1,8,8.3C8.7,8.6,9.3,9,9.7,9.6
		c0.4,0.6,0.6,1.3,0.6,2c0,0.6-0.1,1.2-0.4,1.8c-0.3,0.6-0.6,1-1,1.4c-0.4,0.3-1,0.6-1.6,0.6c-0.3,0-1,0.1-2,0.1v1.6h-1v-1.6H2.8
		v1.6h-1v-1.6H0.2V2z M2.6,4.3v3.1h1.6c0.9,0,1.5,0,1.8,0c0.4-0.1,0.7-0.2,1-0.5c0.2-0.3,0.4-0.6,0.4-1c0-0.4-0.1-0.8-0.3-1
		C6.8,4.5,6.5,4.4,6.1,4.3C5.8,4.3,5.1,4.3,4,4.3H2.6z M2.6,9.6v3.6h2.3c0.9,0,1.4,0,1.7-0.1c0.4-0.1,0.7-0.3,0.9-0.5
		c0.2-0.3,0.3-0.7,0.3-1.1c0-0.4-0.1-0.8-0.3-1S7.1,9.9,6.7,9.8C6.4,9.7,5.7,9.6,4.6,9.6H2.6z"/>
	
		<linearGradient id="SVGID_4_" gradientUnits="userSpaceOnUse" x1="9017.0918" y1="1992.7709" x2="8919.1699" y2="1889.947" gradientTransform="matrix(7.200000e-02 0 0 7.200000e-02 -641.248 -130.448)">
		<stop  offset="0" style="stop-color:#E89F17"/>
		<stop  offset="0.5412" style="stop-color:#FFD670"/>
		<stop  offset="1" style="stop-color:#FAE2B6"/>
	</linearGradient>
	<path style="fill:url(#SVGID_4_);" d="M0.2,1.9h1.5V0.2V0h0.2h1H3v0.2v1.7h1.1V0.2V0h0.2h1h0.2v0.2v1.7c0.4,0,0.7,0,0.9,0
		C6.7,1.9,6.9,2,7.1,2l0,0c0.3,0.1,0.5,0.1,0.7,0.2c0.2,0.1,0.4,0.2,0.6,0.4h0C8.7,2.7,8.8,2.9,9,3.1c0.2,0.2,0.3,0.4,0.4,0.7
		C9.6,4,9.7,4.3,9.7,4.5c0.1,0.3,0.1,0.6,0.1,0.9c0,0.3,0,0.6-0.1,0.9C9.6,6.7,9.5,6.9,9.4,7.2l0,0C9.2,7.5,9,7.7,8.8,7.9
		C8.7,8.1,8.5,8.2,8.3,8.3C8.6,8.4,8.8,8.5,9,8.7c0.3,0.2,0.5,0.5,0.8,0.8c0.2,0.3,0.4,0.6,0.5,1c0.1,0.4,0.2,0.7,0.2,1.1
		c0,0.3,0,0.6-0.1,0.9c-0.1,0.3-0.2,0.6-0.3,0.9c-0.1,0.3-0.3,0.6-0.5,0.8c-0.2,0.2-0.4,0.5-0.6,0.6l0,0c-0.2,0.2-0.5,0.3-0.8,0.4
		c-0.3,0.1-0.6,0.2-0.9,0.2l0,0c-0.2,0-0.4,0-0.7,0.1c-0.3,0-0.6,0-1.1,0v1.4v0.2H5.2h-1H4.1v-0.2v-1.4H3v1.4v0.2H2.8h-1H1.7v-0.2
		v-1.4H0.2H0v-0.2V2V1.9L0.2,1.9L0.2,1.9z M1.8,2.2H0.3v13.2h1.5H2v0.2v1.4h0.7v-1.4v-0.2h0.2h1.4h0.2v0.2v1.4h0.7v-1.4v-0.1l0.2,0
		c0.5,0,0.9,0,1.2,0c0.3,0,0.6,0,0.7,0l0,0c0.3,0,0.6-0.1,0.9-0.2c0.3-0.1,0.5-0.2,0.7-0.4l0,0c0.2-0.2,0.4-0.4,0.6-0.6
		c0.2-0.2,0.3-0.5,0.4-0.8C9.9,13,10,12.8,10,12.5c0.1-0.3,0.1-0.6,0.1-0.9c0-0.4,0-0.7-0.1-1.1c-0.1-0.3-0.2-0.6-0.4-0.9
		C9.4,9.4,9.1,9.1,8.9,8.9C8.6,8.7,8.3,8.6,7.9,8.5L7.6,8.4l0.3-0.2c0.2-0.1,0.5-0.3,0.7-0.5c0.2-0.2,0.4-0.4,0.5-0.7l0,0
		c0.1-0.3,0.3-0.5,0.3-0.8C9.5,6,9.5,5.7,9.5,5.4c0-0.3,0-0.5-0.1-0.8C9.4,4.4,9.3,4.1,9.2,3.9C9.1,3.7,8.9,3.5,8.8,3.3
		C8.6,3.1,8.5,3,8.3,2.8l0,0C8.1,2.7,7.9,2.6,7.7,2.5C7.5,2.4,7.3,2.4,7.1,2.3l0,0c-0.2,0-0.5-0.1-0.8-0.1c-0.3,0-0.7,0-1.1,0
		l-0.2,0V2V0.3H4.4V2v0.2H4.2H2.8H2.7V2V0.3H2V2v0.2H1.8z M2.8,4.4v2.8h1.4c0.9,0,1.5,0,1.7,0l0,0c0.2,0,0.4-0.1,0.5-0.1
		C6.6,7,6.7,6.9,6.8,6.7C6.9,6.6,7,6.5,7.1,6.3C7.1,6.2,7.2,6,7.2,5.8s0-0.4-0.1-0.5C7,5.1,7,5,6.9,4.9C6.8,4.8,6.7,4.7,6.5,4.6l0,0
		C6.4,4.5,6.2,4.5,6.1,4.5l0,0c-0.1,0-0.3,0-0.7,0c-0.3,0-0.8,0-1.4,0L2.8,4.4L2.8,4.4z M2.4,7.4V4.3V4.1h0.2H4c0.6,0,1,0,1.4,0
		c0.4,0,0.6,0,0.7,0l0,0c0.2,0,0.4,0.1,0.6,0.2l0,0C6.9,4.4,7,4.5,7.1,4.7C7.2,4.8,7.3,5,7.4,5.2c0.1,0.2,0.1,0.4,0.1,0.6
		c0,0.2,0,0.4-0.1,0.6C7.3,6.6,7.2,6.8,7.1,6.9C6.9,7.1,6.8,7.2,6.6,7.3C6.4,7.4,6.2,7.4,6,7.5l0,0c-0.2,0-0.8,0-1.8,0H2.6H2.4V7.4z
		 M2.8,9.8v3.3h2.1c0.4,0,0.8,0,1.1,0c0.3,0,0.5,0,0.6-0.1h0c0.2,0,0.3-0.1,0.4-0.2c0.1-0.1,0.2-0.2,0.4-0.3l0,0
		c0.1-0.1,0.2-0.3,0.2-0.5c0.1-0.2,0.1-0.4,0.1-0.6c0-0.2,0-0.4-0.1-0.5c0-0.2-0.1-0.3-0.2-0.4l0,0c-0.1-0.1-0.2-0.2-0.3-0.3
		C7,10.1,6.8,10,6.7,10C6.5,9.9,6.3,9.8,5.9,9.8c-0.4,0-0.8-0.1-1.4-0.1L2.8,9.8L2.8,9.8z M2.4,13.2V9.6V9.5h0.2h2
		c0.6,0,1,0,1.4,0.1c0.4,0,0.7,0.1,0.8,0.2C7,9.7,7.1,9.8,7.3,9.9c0.1,0.1,0.3,0.2,0.4,0.4l0,0c0.1,0.2,0.2,0.3,0.2,0.5
		c0,0.2,0.1,0.4,0.1,0.6c0,0.3,0,0.5-0.1,0.7c-0.1,0.2-0.2,0.4-0.3,0.5l0,0c-0.1,0.2-0.3,0.3-0.4,0.4c-0.2,0.1-0.3,0.2-0.5,0.2l0,0
		c-0.1,0-0.3,0.1-0.6,0.1c-0.3,0-0.6,0-1.1,0H2.6H2.4V13.2z"/>
</g>
</svg>
