<?xml version="1.0" encoding="utf-8"?>
<!-- Generator: Adobe Illustrator 22.1.0, SVG Export Plug-In . SVG Version: 6.00 Build 0)  -->
<svg version="1.1" id="Слой_1" xmlns="http://www.w3.org/2000/svg" xmlns:xlink="http://www.w3.org/1999/xlink" x="0px" y="0px"
	 width="20px" height="20px" viewBox="0 0 20 20" style="enable-background:new 0 0 20 20;" xml:space="preserve">
<g id="_2228686860096">
	<path style="fill:#383838;" d="M16.6,2.4c0.3,0.2,0.5,0.5,0.8,0.8C17.6,3.5,17.8,3.7,18,4c1.7,2.3,2.4,5.2,1.7,8.1
		c0,0.2-0.1,0.3-0.1,0.5c0,0.1-0.1,0.3-0.1,0.4c-0.1,0.1-0.2,0.3-0.4,0.3c0,0,0,0-0.1,0c0,0-0.1,0-0.1,0c0,0,0,0-0.1,0
		c-0.2-0.1-0.5-0.2-0.7-0.3c-0.8-0.4-1.6-0.9-2.2-1.6c-0.3-0.4-0.6-0.8-0.8-1.2c-0.4-1.1-0.3-2-0.8-3.1c-0.3-0.7-0.7-1.4-1.2-2
		c-0.3-0.3-0.6-0.6-0.8-0.9C12,3.8,11.5,3.4,11,3.1c-0.1-0.1-0.3-0.2-0.5-0.3C10.1,2.7,10,3.1,9.9,3.4C9.4,4.2,9,5.1,8.5,6
		C8.4,6.2,8.3,6.5,8.1,6.7C7.6,7.2,7,6.9,6.8,7C6.6,7.2,6.5,7.4,6.3,7.6c-0.6,0.8-1.2,1.7-1.8,2.5c-0.2,0.3-0.4,0.6-0.6,0.8
		c-0.1,0.1-0.3,0.2-0.5,0.2c-0.3,0-0.5-0.2-0.7-0.3c-0.1-0.1-0.3-0.3-0.4-0.3c-0.2,0-0.3,0.1-0.4,0.3c-0.5,0.6-1,1.2-1.5,1.8
		c0,0,0,0,0,0c-0.4-2-0.4-4.1,0.2-6c0.8-2.4,2.8-4.7,5.2-5.7C9.3-0.8,13.7-0.1,16.6,2.4z"/>
	<path style="fill:#3CAF49;" d="M10.2,3.4c0.2,0.1,0.4,0.3,0.6,0.4c0.6,0.5,1.2,1,1.8,1.6c0.5,0.6,1,1.2,1.2,1.9
		c0.2,0.4,0.3,0.9,0.3,1.3c0.1,0.6,0.2,1.1,0.4,1.6c0.3,0.7,0.7,1.4,1.2,1.9c0.6,0.6,1.4,1.1,2.2,1.5c0.3,0.1,0.6,0.2,0.8,0.5
		c0.1,0.1,0.1,0.3,0.1,0.5c-0.1,0.4-0.4,0.7-0.6,1.1c-1.1,1.7-2.9,3-4.8,3.7c-0.9,0.3-1.9,0.5-2.8,0.6c-0.1,0-0.3,0-0.4,0H9.5
		c-0.1,0-0.3,0-0.4,0c-1.3-0.1-2.6-0.5-3.7-1.1c-0.2-0.1-0.4-0.2-0.5-0.4c-0.1-0.1-0.1-0.2-0.1-0.3c0-0.2,0.1-0.3,0.2-0.5
		c0.2-0.2,0.4-0.4,0.6-0.6c0.1-0.2,0.3-0.3,0.5-0.5c0.1-0.2,0.3-0.3,0.4-0.5c0.1-0.2,0.3-0.3,0.4-0.4c0.1-0.2,0.3-0.3,0.4-0.4
		c0.2-0.2,0.3-0.3,0.5-0.5c0.2-0.2,0.4-0.4,0.6-0.6c0.6-0.6,1.1-1.4,1.4-2.2c0.1-0.2,0.1-0.4,0.1-0.7c0-0.2-0.2-0.3-0.4-0.4
		c-0.2-0.1-0.4-0.1-0.5,0c-0.3,0.1-0.4,0.4-0.5,0.6c-0.1,0.4-0.4,0.7-0.6,1c-0.5,0.6-1.2,0.9-2,1.1c-0.3,0.1-0.5,0.2-0.8,0.2
		c0.1-0.2,0.2-0.4,0.3-0.5c0.3-0.4,0.6-0.9,0.8-1.3c0.1-0.3,0.3-0.5,0.2-0.8c-0.1-0.2-0.2-0.4-0.4-0.5c0.2-0.2,0.5-0.4,0.7-0.6
		C6.9,9.7,7,9.5,7.1,9.3c0-0.2,0.1-0.4,0.1-0.6c0-0.2,0.1-0.3,0.3-0.4c0.2-0.1,0.5,0,0.7,0c0.2,0,0.5,0,0.7,0c0.3,0,0.7,0,1-0.1
		c0.2-0.1,0.5-0.2,0.6-0.4c0.2-0.3,0.1-0.7,0.1-1.1C10.5,5.6,10.3,4.5,10.2,3.4z"/>
</g>
</svg>
