<?xml version="1.0" encoding="utf-8"?>
<!-- Generator: Adobe Illustrator 22.1.0, SVG Export Plug-In . SVG Version: 6.00 Build 0)  -->
<svg version="1.1" id="Слой_1" xmlns="http://www.w3.org/2000/svg" xmlns:xlink="http://www.w3.org/1999/xlink" x="0px" y="0px"
	 width="20px" height="20px" viewBox="0 0 20 20" style="enable-background:new 0 0 20 20;" xml:space="preserve">
<g>
	<circle style="fill:#3555B5;" cx="10" cy="10" r="10"/>
	<path style="fill:#808080;" d="M10,4.3c3.1,0,5.5,2.5,5.5,5.6c0,3.1-2.5,5.6-5.5,5.6c-3.1,0-5.5-2.5-5.5-5.6c0-1.8,0.9-3.4,2.2-4.4
		v0c0,0,0,0,0,0C7.6,4.7,8.7,4.3,10,4.3L10,4.3z M15.3,10h-1.8c0,0.6-0.1,1.1-0.2,1.6c0.6,0.1,1.1,0.3,1.5,0.5
		C15.2,11.5,15.3,10.7,15.3,10z M13.3,10h-1.8c0,0.5,0,0.9-0.1,1.4c0.6,0,1.2,0.1,1.7,0.2C13.3,11.1,13.3,10.5,13.3,10z M11.4,10
		h-1.3v1.3c0.4,0,0.8,0,1.2,0C11.4,10.9,11.4,10.5,11.4,10L11.4,10z M9.9,10H8.6c0,0.5,0,0.9,0.1,1.4c0.4,0,0.8-0.1,1.2-0.1V10
		L9.9,10z M8.4,10H6.7c0,0.6,0.1,1.1,0.2,1.6c0.5-0.1,1-0.2,1.7-0.2C8.5,10.9,8.4,10.5,8.4,10z M6.5,10H4.7c0,0.8,0.2,1.5,0.5,2.2
		C5.5,12,6,11.8,6.6,11.7C6.5,11.1,6.5,10.6,6.5,10z M4.7,9.8h1.8c0-0.6,0.1-1.2,0.2-1.7C6,8,5.5,7.8,5.2,7.6C4.8,8.3,4.7,9,4.7,9.8
		z M6.7,9.8h1.8c0-0.5,0-1,0.1-1.4c-0.6,0-1.2-0.1-1.7-0.2C6.7,8.7,6.7,9.2,6.7,9.8z M8.6,9.8h1.3V8.4c-0.4,0-0.8,0-1.2,0
		C8.6,8.8,8.6,9.3,8.6,9.8L8.6,9.8z M10.1,9.8h1.3c0-0.5,0-1-0.1-1.4c-0.4,0-0.8,0-1.2,0L10.1,9.8L10.1,9.8z M11.6,9.8h1.8
		c0-0.6-0.1-1.1-0.2-1.6c-0.5,0.1-1.1,0.2-1.7,0.2C11.6,8.8,11.6,9.3,11.6,9.8z M13.5,9.8h1.8c0-0.8-0.2-1.5-0.5-2.2
		C14.5,7.8,14,8,13.4,8.1C13.5,8.6,13.5,9.2,13.5,9.8L13.5,9.8z M9.9,15.3v-1.7c-0.3,0-0.6,0-0.9,0.1c0,0.1,0,0.1,0,0.2
		C9.3,14.6,9.6,15.2,9.9,15.3z M9.9,13.4v-1.9c-0.4,0-0.8,0-1.2,0.1c0.1,0.7,0.2,1.3,0.3,1.9C9.3,13.4,9.6,13.4,9.9,13.4z M9.9,8.3
		V6.4c-0.3,0-0.6,0-0.9,0C8.9,6.9,8.8,7.5,8.7,8.2C9.1,8.2,9.5,8.3,9.9,8.3z M9.9,6.2V4.5C9.6,4.6,9.3,5.2,9.1,6c0,0,0,0.1,0,0.1
		C9.3,6.2,9.6,6.2,9.9,6.2L9.9,6.2z M10.1,4.5v1.7c0.3,0,0.6,0,0.9,0c0,0,0-0.1,0-0.1C10.7,5.2,10.4,4.6,10.1,4.5L10.1,4.5z
		 M10.1,6.4v1.9c0.4,0,0.8,0,1.2,0c-0.1-0.7-0.2-1.3-0.3-1.9C10.7,6.3,10.4,6.4,10.1,6.4z M10.1,11.5v1.9c0.3,0,0.6,0,0.9,0
		c0.1-0.6,0.2-1.2,0.3-1.9C10.9,11.5,10.5,11.5,10.1,11.5z M10.1,13.6v1.7c0.3-0.1,0.6-0.6,0.8-1.5c0-0.1,0-0.1,0.1-0.2
		C10.7,13.6,10.4,13.6,10.1,13.6z M5.2,7.4c0.2,0.1,0.5,0.2,0.9,0.3c0.2,0.1,0.4,0.1,0.6,0.1C6.9,7.2,7.1,6.6,7.4,6
		C7.1,5.9,6.9,5.8,6.7,5.7C6.5,5.8,6.4,5.9,6.2,6.1C5.8,6.5,5.5,6.9,5.2,7.4z M6.9,8c0.5,0.1,1,0.2,1.6,0.2c0.1-0.7,0.2-1.3,0.3-1.9
		C8.4,6.2,8,6.2,7.6,6.1C7.3,6.6,7,7.2,6.9,8L6.9,8z M11.5,8.2c0.6,0,1.1-0.1,1.6-0.2c-0.2-0.7-0.4-1.4-0.8-1.9
		c-0.3,0.1-0.7,0.2-1.2,0.2C11.3,6.9,11.4,7.5,11.5,8.2L11.5,8.2z M13.3,7.9c0.2,0,0.4-0.1,0.5-0.1c0.4-0.1,0.7-0.2,0.9-0.3
		c-0.3-0.5-0.6-1-1-1.4c-0.1-0.1-0.3-0.3-0.5-0.4c-0.2,0.1-0.5,0.3-0.8,0.4C12.9,6.6,13.1,7.2,13.3,7.9L13.3,7.9z M6.8,5.6
		C7,5.7,7.2,5.7,7.5,5.8c0,0,0.1,0,0.1,0c0.4-0.5,0.8-1,1.3-1.2C8.1,4.8,7.4,5.1,6.8,5.6z M7.7,5.9C8.1,6,8.4,6.1,8.8,6.1
		C9,5.4,9.3,4.8,9.5,4.5C8.9,4.7,8.2,5.2,7.7,5.9z M11.2,6.1c0.4,0,0.8-0.1,1.1-0.2c-0.5-0.7-1.1-1.2-1.8-1.4
		C10.7,4.8,11,5.4,11.2,6.1z M12.5,5.9C12.5,5.9,12.5,5.8,12.5,5.9c0.4-0.1,0.6-0.2,0.7-0.3c-0.6-0.4-1.3-0.8-2-0.9
		C11.7,4.9,12.1,5.3,12.5,5.9L12.5,5.9z M14.8,12.3c-0.2-0.1-0.5-0.2-0.8-0.3c-0.2-0.1-0.4-0.1-0.6-0.2c-0.2,0.7-0.4,1.4-0.7,1.9
		c0.3,0.1,0.6,0.2,0.8,0.4c0.1-0.1,0.3-0.2,0.4-0.4C14.2,13.3,14.5,12.8,14.8,12.3z M13.1,11.8c-0.5-0.1-1-0.2-1.6-0.2
		c-0.1,0.7-0.2,1.3-0.3,1.9c0.4,0,0.8,0.1,1.2,0.2C12.7,13.1,13,12.5,13.1,11.8L13.1,11.8z M8.5,11.6c-0.6,0.1-1.1,0.1-1.6,0.2
		c0.2,0.7,0.4,1.4,0.8,1.9c0.3-0.1,0.7-0.2,1.2-0.2C8.7,12.9,8.6,12.3,8.5,11.6L8.5,11.6z M6.7,11.8c-0.2,0-0.3,0.1-0.5,0.1
		c-0.4,0.1-0.7,0.2-1,0.4l0,0c0.3,0.5,0.6,1,1,1.3c0.2,0.1,0.3,0.3,0.5,0.4c0.2-0.1,0.4-0.3,0.8-0.4C7.1,13.2,6.9,12.6,6.7,11.8z
		 M13.2,14.2c-0.2-0.1-0.4-0.2-0.6-0.3c0,0-0.1,0-0.1,0c-0.4,0.6-0.8,1-1.3,1.3C12,15,12.7,14.7,13.2,14.2z M12.3,13.8
		c-0.3-0.1-0.7-0.1-1.1-0.2c-0.2,0.8-0.4,1.3-0.7,1.6C11.2,15.1,11.8,14.6,12.3,13.8z M8.8,13.6c-0.4,0.1-0.8,0.1-1.1,0.2
		c0.5,0.7,1.1,1.2,1.8,1.4C9.3,14.9,9,14.4,8.8,13.6L8.8,13.6z M7.5,13.9C7.2,14,7,14.1,6.8,14.3c0.6,0.4,1.2,0.7,2,0.9
		C8.3,14.9,7.9,14.5,7.5,13.9z"/>
	<path style="fill:#FFFFFF;" d="M10,19.3c-2.5,0-4.8-1-6.6-2.7c-1.8-1.8-2.7-4.1-2.7-6.6c0-5.1,4.2-9.3,9.3-9.3
		c5.1,0,9.3,4.2,9.3,9.3C19.3,15.1,15.1,19.3,10,19.3z M10,2.2c-4.3,0-7.8,3.5-7.8,7.8c0,4.3,3.5,7.8,7.8,7.8c4.3,0,7.8-3.5,7.8-7.8
		C17.8,5.7,14.3,2.2,10,2.2z"/>
	<path style="fill:#FFFFFF;" d="M5.1,16.1c0.1,0.1,0.5,0.3,1.1,0.3c1.3,0,1.4-0.8,3-0.8c1.3,0,2.4,1,3,1.5l-0.3,0.3
		c-0.2-0.3-1.3-1.6-2.4-1.6c-0.7,0-1.3,1.1-2.6,1.1C5.8,17,5.3,16.5,5.1,16.1L5.1,16.1L5.1,16.1z"/>
	<path style="fill:#FFFFFF;" d="M6.1,16.1L6.1,16.1L6.1,16.1c-0.7,0-1.9-0.4-2.3-1.4c0.3,0.3,0.7,0.7,1.8,0.7c0.7,0,1.4,0.2,1.6,0.2
		c-0.3-0.1-0.7-0.2-1-0.5c-0.3-0.3-0.6-1.1-0.8-1.4c0.4,0.2,1.2,1.1,1.5,1.4c0.5,0.4,0.8,0.4,1.3,0.6l0,0
		C7.7,15.7,6.9,16.1,6.1,16.1L6.1,16.1z"/>
	<path style="fill:#FFFFFF;" d="M6.1,15.3c-0.6-0.1-1.7-0.3-2-0.5c-0.5-0.3-1.4-0.8-1.6-2c0.2,0.5,0.7,1,1.5,1.3
		c0.7,0.3,1,0.7,1.4,0.9c-0.3-0.2-0.5-0.5-0.7-0.8c-0.3-0.5-0.2-1.7-0.5-2.1c0.5,0.4,0.8,1.3,0.9,1.6C5.4,14.3,5.7,15.1,6.1,15.3
		L6.1,15.3L6.1,15.3z"/>
	<path style="fill:#FFFFFF;" d="M4.6,14.1c-0.3-0.3-1.6-0.9-1.8-1.4c-0.3-0.4-0.8-0.9-0.7-2.2c0,0.5,0.3,1,1,1.5
		c0.4,0.4,0.7,1,1,1.4c-0.2-0.3-0.4-0.7-0.4-1c-0.1-0.6,0.3-1.6,0.2-2c0.3,0.5,0.4,1.4,0.4,1.8C4.1,13,4.3,13.8,4.6,14.1L4.6,14.1
		L4.6,14.1z"/>
	<path style="fill:#FFFFFF;" d="M3.4,12.3c-0.3-0.6-1.1-1.3-1.2-1.9C2,9.8,1.9,9.2,2.3,8.3c-0.1,0.5,0,1,0.4,1.7
		c0.4,0.7,0.3,1.2,0.5,1.5c-0.1-0.4-0.1-0.8,0-1.1c0.1-0.6,0.8-1.1,0.8-1.7C4,9.2,3.8,10,3.7,10.4C3.4,11.1,3.3,11.5,3.4,12.3
		L3.4,12.3L3.4,12.3z"/>
	<path style="fill:#FFFFFF;" d="M2.9,10.2C2.9,9.5,2.4,8.7,2.4,8c0-0.5,0-1,0.7-1.8C2.9,6.7,2.9,7,3,7.8c0.1,0.7-0.1,1.3,0,1.6
		c0-0.6,0.2-0.8,0.4-1.1c0.4-0.5,0.9-0.7,1.1-1.1c0,0.4-0.3,1.1-0.5,1.4C3.4,9.2,3,9.5,2.9,10.2L2.9,10.2L2.9,10.2z"/>
	<path style="fill:#FFFFFF;" d="M3.1,8.3C3.3,7.6,3,6.9,3.2,6.4c0.2-0.5,0.4-0.9,1.1-1.2C4.1,5.4,3.8,5.8,3.8,6.1
		C3.7,6.9,3.4,7.3,3.4,7.6c0.2-0.5,0.5-0.7,0.7-0.9c0.5-0.4,0.8-0.6,0.9-1c0,0.5-0.3,1-0.7,1.3C3.8,7.5,3.3,7.9,3.1,8.3L3.1,8.3
		L3.1,8.3z"/>
	<path style="fill:#FFFFFF;" d="M5.9,4.5C5.6,4.6,4.9,4.8,4.5,5.2C4,5.8,4,6.3,3.9,6.6C4.2,6.4,4.7,6,4.9,5.7
		C5.1,5.4,5.4,4.9,5.9,4.5L5.9,4.5z"/>
	<path style="fill:#FFFFFF;" d="M14.9,16.1c-0.1,0.1-0.5,0.3-1.1,0.3c-1.3,0-1.4-0.8-3-0.8c-1.3,0-2.4,1-3,1.5l0.3,0.3
		c0.2-0.3,1.3-1.6,2.4-1.6c0.7,0,1.3,1.1,2.6,1.1C14.2,17,14.7,16.5,14.9,16.1L14.9,16.1L14.9,16.1z"/>
	<path style="fill:#FFFFFF;" d="M14,16.1L14,16.1c-0.9,0-1.6-0.4-2.2-0.4l0,0c0.5-0.1,0.8-0.1,1.3-0.6c0.3-0.3,1.1-1.2,1.5-1.4
		c-0.2,0.3-0.5,1.1-0.8,1.4c-0.3,0.3-0.7,0.4-1,0.5c0.2,0,0.9-0.2,1.6-0.2c1.2,0,1.6-0.4,1.8-0.7C15.8,15.8,14.7,16.1,14,16.1
		L14,16.1L14,16.1z"/>
	<path style="fill:#FFFFFF;" d="M13.9,15.3c0.6-0.1,1.7-0.3,2-0.5c0.4-0.3,1.4-0.8,1.6-2c-0.2,0.5-0.7,1-1.5,1.3
		c-0.7,0.3-1,0.7-1.4,0.9c0.3-0.2,0.5-0.5,0.7-0.8c0.3-0.5,0.2-1.7,0.5-2.1c-0.5,0.4-0.8,1.3-1,1.6C14.6,14.3,14.3,15.1,13.9,15.3
		L13.9,15.3L13.9,15.3z"/>
	<path style="fill:#FFFFFF;" d="M15.4,14.1c0.3-0.3,1.6-0.9,1.8-1.4c0.3-0.4,0.8-0.9,0.7-2.2c0,0.5-0.3,1-0.9,1.5
		c-0.4,0.4-0.7,1-1,1.4c0.2-0.3,0.4-0.7,0.4-1c0.1-0.6-0.3-1.6-0.2-2c-0.3,0.5-0.4,1.4-0.4,1.8C15.9,13,15.7,13.8,15.4,14.1
		L15.4,14.1L15.4,14.1z"/>
	<path style="fill:#FFFFFF;" d="M16.6,12.3c0.3-0.6,1.1-1.3,1.2-1.9c0.1-0.5,0.3-1.1-0.1-2.1c0.1,0.5,0,1-0.4,1.7
		c-0.4,0.7-0.3,1.2-0.4,1.5c0.1-0.4,0.1-0.8,0-1.1c-0.1-0.6-0.8-1.1-0.8-1.7c-0.1,0.6,0.1,1.4,0.2,1.7
		C16.6,11.1,16.7,11.5,16.6,12.3L16.6,12.3L16.6,12.3z"/>
	<path style="fill:#FFFFFF;" d="M17.1,10.2c0.1-0.7,0.6-1.5,0.5-2.2c0-0.5-0.1-1-0.7-1.8C17.1,6.7,17.1,7,17,7.8
		c-0.1,0.7,0.1,1.3,0,1.6c0-0.6-0.1-0.8-0.4-1.1c-0.4-0.5-0.9-0.7-1.1-1.1c0,0.4,0.3,1.1,0.5,1.4C16.6,9.2,17,9.5,17.1,10.2
		L17.1,10.2L17.1,10.2z"/>
	<path style="fill:#FFFFFF;" d="M16.9,8.3c-0.1-0.7,0.1-1.4-0.1-1.9c-0.2-0.5-0.4-0.9-1.1-1.2c0.2,0.1,0.5,0.6,0.6,0.9
		c0.1,0.8,0.4,1.2,0.4,1.4c-0.2-0.5-0.5-0.7-0.7-0.9c-0.5-0.4-0.8-0.6-1-1c0,0.5,0.3,1,0.7,1.3C16.2,7.5,16.7,7.9,16.9,8.3L16.9,8.3
		L16.9,8.3z"/>
	<path style="fill:#FFFFFF;" d="M14.1,4.5c0.3,0.1,1.1,0.3,1.4,0.8C16,5.8,16,6.3,16.1,6.6c-0.3-0.2-0.9-0.6-1-0.9
		C14.9,5.4,14.6,4.9,14.1,4.5L14.1,4.5z"/>
	<path style="fill:#FFFFFF;" d="M10,8.7c0.2,0,0.3-0.1,0.3-0.3c0-0.2-0.1-0.3-0.3-0.3c-0.2,0-0.3,0.1-0.3,0.3
		C9.7,8.6,9.8,8.7,10,8.7L10,8.7z"/>
	<path style="fill:#FFFFFF;" d="M10.7,7.1c0.1-0.1,0.1-0.2,0.1-0.3c0-0.2-0.2-0.6-0.7-0.6c-0.5,0-0.7,0.3-0.7,0.5
		C9.4,6.9,9.5,7,9.6,7c0.1,0,0.2-0.1,0.2-0.2c0-0.1-0.1-0.3-0.1-0.3c0-0.1,0.1-0.1,0.2-0.1c0.1,0,0.3,0.1,0.3,0.5
		c0,0.5-0.3,0.5-0.3,1v0.1H10c0-0.1,0-0.2,0.1-0.3c0-0.1,0.1-0.1,0.2-0.2C10.5,7.3,10.7,7.2,10.7,7.1L10.7,7.1L10.7,7.1z"/>
	<polygon style="fill:#3555B5;" points="11,12.6 11,9.7 10.8,9.5 10.6,9.4 10.5,9.4 10.2,9.2 9.8,9.2 9.5,9.4 9.4,9.4 9.2,9.5 
		9,9.7 9,12.6 	"/>
	<path style="fill:#FFFFFF;" d="M10.3,12.6l0-1c0-0.2,0-0.4,0-0.5c0-0.3-0.2-0.5-0.2-0.8c0,0,0.1-0.1,0.1-0.1
		c0.1,0.1,0.2,0.2,0.3,0.3c0-0.1-0.1-0.2-0.2-0.4c-0.1-0.1-0.1-0.3-0.2-0.3c0.1,0,0.2-0.1,0.2-0.1c0.1-0.1,0.3-0.1,0.4-0.2
		c0,0,0,0,0,0l0.1,0c0,0.1,0.1,0.1,0.1,0.2c0,0,0,0.1,0,0.1c0,0.1,0,0.1,0,0.2c0,0.1,0.1,0.2,0.1,0.3c0.1,0.1,0.1,0.3,0.1,0.4
		c0,0,0,0.1,0,0.1C11,11.5,10.6,12.3,10.3,12.6z M9,10.8c0,0,0-0.1,0-0.1c0-0.2,0-0.3,0.1-0.4c0-0.1,0.1-0.2,0.1-0.3
		c0,0,0-0.1,0-0.2c0,0,0-0.1,0-0.1c0-0.1,0.1-0.1,0.1-0.2l0.1,0c0,0,0,0,0,0c0.1,0.1,0.3,0.2,0.4,0.2c0.1,0,0.2,0.1,0.2,0.1
		c-0.1,0.1-0.2,0.2-0.2,0.3c0,0.1-0.1,0.2-0.2,0.4c0.1-0.1,0.1-0.3,0.3-0.3c0,0,0.1,0.1,0.1,0.1c0,0.3-0.1,0.5-0.2,0.8
		c0,0.2,0,0.4,0,0.5l0,1C9.4,12.3,9,11.5,9,10.8z M12.3,15.9c0.2-0.1,0.5-0.3,0.7-0.4l0.3-0.2c0.1-0.1,0.2-0.2,0.4-0.3
		c0-0.1,0-0.3,0.1-0.4v-0.4c0-0.1,0-0.1,0-0.2c0-0.2,0-0.4-0.1-0.6c-0.1-0.3,0-0.6-0.1-0.8c0-0.1-0.1-0.2-0.1-0.3c0,0,0.1,0,0.1,0
		c0-0.1-0.1-0.1-0.1-0.2c0-0.1,0.1-0.1,0.1-0.2c0,0-0.1-0.1-0.1-0.1c0,0,0-0.1,0-0.1c0,0,0-0.1,0-0.1c0-0.3-0.1-0.6-0.1-0.9
		c0-0.2-0.1-0.3-0.3-0.4c-0.3,0-0.7-0.1-1-0.2c-0.2-0.1-0.5-0.1-0.6-0.3c-0.1-0.1-0.2-0.2-0.3-0.3c-0.1-0.1-0.3-0.2-0.4-0.2
		c0,0,0,0,0,0l0,0c0,0,0,0,0,0c0,0,0,0.1-0.1,0.1c-0.3-0.2-0.4-0.2-0.5-0.2H9.9c-0.1,0-0.2,0-0.5,0.2c0,0,0,0-0.1-0.1c0,0,0,0,0,0
		l0,0c0,0,0,0,0,0C9.2,9.4,9.1,9.5,9,9.6C8.9,9.7,8.7,9.8,8.7,9.9c-0.2,0.2-0.4,0.2-0.6,0.3c-0.3,0.1-0.7,0.1-1,0.2
		c-0.1,0.1-0.2,0.2-0.3,0.4c0,0.3-0.1,0.6-0.1,0.9c0,0,0,0.1,0,0.1c0,0,0,0.1,0,0.1c0,0-0.1,0-0.1,0.1c0,0.1,0.1,0.1,0.1,0.2
		c0,0.1-0.1,0.1-0.1,0.2c0,0,0.1,0,0.1,0c0,0.1-0.1,0.2-0.1,0.3c-0.1,0.3,0,0.6-0.1,0.8c0,0.2,0,0.4-0.1,0.6c0,0.1,0,0.1,0,0.2v0.4
		c0,0.1,0,0.3,0.1,0.4c0.1,0.1,0.2,0.2,0.4,0.3L7,15.4c0.2,0.1,0.5,0.3,0.7,0.4l-0.2,2.3c0.3,0.1,0.7,0.2,1,0.3
		c0.5,0.1,0.9,0.1,1.3,0.1c0.1,0,0.2,0,0.3,0c0.1,0,0.2,0,0.3,0c0.5-0.1,1.2,0,2.2-0.4L12.3,15.9L12.3,15.9L12.3,15.9z"/>
	<path style="fill:#3555B5;" d="M9.8,9.2C9.6,9.2,9.5,9.3,9.5,9.4C9.6,9.3,9.7,9.3,9.8,9.2C9.9,9.2,10,9.2,10,9.2c0,0,0.1,0,0.1,0
		c0.1,0,0.3,0.1,0.4,0.1c0-0.1-0.1-0.1-0.4-0.2H9.8L9.8,9.2L9.8,9.2z"/>
</g>
</svg>
