<?xml version="1.0" encoding="utf-8"?>
<!-- Generator: Adobe Illustrator 22.1.0, SVG Export Plug-In . SVG Version: 6.00 Build 0)  -->
<svg version="1.1" id="Слой_1" xmlns="http://www.w3.org/2000/svg" xmlns:xlink="http://www.w3.org/1999/xlink" x="0px" y="0px"
	 width="20px" height="4.8px" viewBox="0 0 20 4.8" style="enable-background:new 0 0 20 4.8;" xml:space="preserve">
<g id="DQmboL9S6ioUiyEuJr7uGFN9MSpirwhaU5B7ae31U9y5iEU.eps">
	
		<radialGradient id="SVGID_1_" cx="10" cy="539.5836" r="7.2746" gradientTransform="matrix(1 0 0 -1 0 542)" gradientUnits="userSpaceOnUse">
		<stop  offset="0" style="stop-color:#27458A"/>
		<stop  offset="1" style="stop-color:#141A3F"/>
	</radialGradient>
	<path style="fill:url(#SVGID_1_);" d="M11.9,0h0.2c0.3,0,0.7,0.1,1,0.3c0.3,0.2,0.5,0.4,0.7,0.7C13.9,1.3,14,1.6,14,2
		c0,0.8,0,1.6,0,2.4c0,0.2-0.2,0.4-0.4,0.3c-0.2,0-0.3-0.2-0.3-0.3c0-0.8,0-1.6,0-2.4c0-0.3-0.1-0.6-0.3-0.9
		c-0.2-0.3-0.5-0.4-0.9-0.5c-0.4-0.1-0.8,0-1.1,0.2c-0.3,0.2-0.5,0.5-0.5,0.8c-0.1,0.2,0,0.4,0,0.7c0,0.6,0,1.3,0,1.9
		c0,0.1,0,0.2-0.1,0.3c-0.1,0.1-0.2,0.1-0.3,0.1c-0.1,0-0.2-0.2-0.2-0.3c0-0.7,0-1.4,0-2.1c0-0.2,0-0.3,0-0.5c0-0.3,0.1-0.5,0.2-0.8
		c0.1-0.2,0.3-0.4,0.5-0.5C11,0.1,11.4,0,11.9,0z M17.5,0.1c0.4,0,0.9,0.1,1.3,0.3c0.5,0.3,0.9,0.7,1.1,1.3c0.2,0.7,0.2,1.5-0.2,2.1
		C19.5,4,19.3,4.2,19,4.4c-0.6,0.4-1.4,0.5-2.1,0.3c-0.6-0.2-1.1-0.6-1.4-1.1c-0.4-0.7-0.4-1.7,0-2.4c0.3-0.5,0.8-0.9,1.3-1.1
		C17.1,0.1,17.3,0.1,17.5,0.1z M17.5,0.7c-0.4,0-0.8,0.3-1.1,0.6C16.1,1.6,16,2,16,2.4C16,2.7,16,3,16.2,3.3
		c0.2,0.3,0.4,0.5,0.7,0.7c0.4,0.2,0.9,0.2,1.3,0.1C18.5,4,18.8,3.9,19,3.6c0.4-0.5,0.5-1.2,0.3-1.8c-0.1-0.4-0.4-0.7-0.8-0.9
		C18.1,0.7,17.8,0.7,17.5,0.7z M0.2,0.1c0.2-0.1,0.4,0.1,0.4,0.3c0,0.8,0,1.5,0,2.3c0,0.3,0.1,0.7,0.3,0.9C1.2,4,1.7,4.2,2,4.2
		c0.3,0,0.7,0,1,0c0.2,0,0.3,0.2,0.3,0.3c0,0.2-0.1,0.3-0.3,0.3c-0.3,0-0.7,0-1,0c-0.5,0-1-0.2-1.4-0.5C0.4,4.1,0.2,3.9,0.1,3.6
		C0,3.4,0,3.1,0,2.8C0,2,0,1.2,0,0.4C0,0.3,0.1,0.2,0.2,0.1z M4.4,0.5c0-0.2,0.1-0.3,0.3-0.3c0.2,0,0.3,0.2,0.3,0.3
		c0,0.8,0,1.5,0,2.3c0,0.2,0,0.5,0.1,0.7C5.3,3.7,5.5,3.9,5.8,4c0.3,0.2,0.7,0.2,1,0.2C7.1,4.1,7.4,4,7.6,3.7
		c0.2-0.2,0.3-0.6,0.3-0.9c0-0.8,0-1.6,0-2.4c0-0.2,0.1-0.3,0.3-0.3c0.2,0,0.3,0.1,0.3,0.3c0,0.8,0,1.5,0,2.3c0,0.2,0,0.4-0.1,0.7
		C8.4,3.8,8.2,4.1,8,4.3C7.6,4.6,7.2,4.8,6.8,4.8H6.2C6,4.8,5.8,4.8,5.6,4.7C5.2,4.5,4.9,4.3,4.7,3.9C4.5,3.6,4.4,3.2,4.4,2.8
		C4.4,2.1,4.4,1.3,4.4,0.5z"/>
</g>
</svg>
