<?xml version="1.0" encoding="utf-8"?>
<!-- Generator: Adobe Illustrator 22.1.0, SVG Export Plug-In . SVG Version: 6.00 Build 0)  -->
<svg version="1.1" id="Слой_1" xmlns="http://www.w3.org/2000/svg" xmlns:xlink="http://www.w3.org/1999/xlink" x="0px" y="0px"
	 width="17.9px" height="20px" viewBox="0 0 17.9 20" style="enable-background:new 0 0 17.9 20;" xml:space="preserve">
<g id="_2228601461424">
	<path style="fill:#F0B41C;" d="M8.2,0c4.7,0,8.7,3.3,9.7,7.7h-3.6C13.3,5.2,11,3.5,8.2,3.5c-3.6,0-6.5,2.9-6.5,6.5s2.9,6.5,6.5,6.5
		c2.8,0,5.1-1.7,6.1-4.2h3.6c-1.1,4.4-5,7.7-9.7,7.7c-3.2,0-6.1-1.5-7.9-3.9c0.6-0.2,1.2-0.5,1.7-0.8l0,0C0.7,13.9,0,12,0,10
		c0-2,0.7-3.9,2-5.3C1.5,4.3,0.9,4,0.3,3.8C2.1,1.5,5,0,8.2,0z"/>
	<path style="fill:#001B4C;" d="M3.1,5.6c-1,1.2-1.6,2.7-1.6,4.4c0,1.6,0.6,3.2,1.6,4.3c-0.1,0.1-0.2,0.2-0.4,0.4
		c-0.2,0.2-0.4,0.4-0.6,0.5C0.9,13.8,0.2,12,0.2,10c0-2,0.7-3.8,1.9-5.2C2.3,4.9,2.4,5,2.4,5C2.7,5.2,2.9,5.4,3.1,5.6z"/>
	<path style="fill:#001B4C;" d="M13,16.3c-1.3,1-3,1.7-4.9,1.7c-2.3,0-4.4-1-5.9-2.6c0.2-0.2,0.4-0.3,0.6-0.5
		c0.1-0.1,0.2-0.2,0.4-0.4c1.2,1.4,3,2.2,5,2.2c1.5,0,2.8-0.5,3.9-1.3c0.2,0.2,0.3,0.3,0.5,0.5C12.7,16,12.9,16.2,13,16.3z"/>
	<path style="fill:#001B4C;" d="M8.2,2C10,2,11.7,2.6,13,3.7c-0.2,0.2-0.4,0.3-0.6,0.5c-0.1,0.1-0.3,0.2-0.4,0.4
		C11,3.8,9.6,3.3,8.2,3.3c-2,0-3.7,0.8-4.9,2.2C3,5.3,2.8,5.1,2.6,4.9C2.5,4.8,2.4,4.7,2.3,4.6C3.7,3,5.8,2,8.2,2z"/>
</g>
</svg>
