<?xml version="1.0" encoding="utf-8"?>
<!-- Generator: Adobe Illustrator 22.1.0, SVG Export Plug-In . SVG Version: 6.00 Build 0)  -->
<svg version="1.1" id="Слой_1" xmlns="http://www.w3.org/2000/svg" xmlns:xlink="http://www.w3.org/1999/xlink" x="0px" y="0px"
	 width="20px" height="20px" viewBox="0 0 20 20" style="enable-background:new 0 0 20 20;" xml:space="preserve">
<g>
	<path style="fill:#FDC900;" d="M7.6,0.3c1.6-0.4,3.4-0.3,5,0c-0.1,0.1-0.3,0.1-0.4,0.2c-0.4,0.1-0.8,0.3-1.1,0.5
		c0.9,0.1,1.8,0.2,2.7,0.6c2.8,1,5,3.5,5.6,6.4c0.4,1.9,0.3,3.9-0.5,5.7c-0.8,1.7-2.1,3.2-3.8,4.2c-1.7,1-3.9,1.4-5.9,0.9
		c-3.6-0.7-6.6-3.9-7-7.6C1.9,9,2.3,6.8,3.5,5.1c0.7-1.2,1.8-2.2,2.9-3c-1.7,0.9-3,2.4-3.8,4c-1.1,2.3-1.1,5.2-0.1,7.5
		c1,2.1,2.9,3.9,5.1,4.7c0.5,0.2,0.8,0.9,1.4,1c1.8,0.3,3.7,0.2,5.4-0.4c-1.8,1-3.9,1.2-5.9,1c-4.2-0.5-7.8-4-8.5-8.2
		c-0.3-2.2,0-4.6,1.1-6.6C2.6,2.8,4.9,0.9,7.6,0.3z M10.4,4.3c-0.1,0.5-0.2,1-0.4,1.5C9.5,5.6,8.8,5.4,8.2,5.3
		C8.1,5.6,8.1,5.9,8,6.2C8.4,6.3,9.1,6.4,9,7c-0.3,1.2-0.6,2.4-0.9,3.6c0,0.2-0.2,0.4-0.3,0.6C7.5,11.1,7.2,11,7,11
		c-0.1,0.3-0.3,0.6-0.4,1c0.6,0.2,1.2,0.3,1.7,0.5c-0.1,0.5-0.2,0.9-0.3,1.4c0.3,0.1,0.6,0.1,0.9,0.2c0.1-0.5,0.3-0.9,0.3-1.4
		c0.2,0.1,0.5,0.1,0.7,0.2c-0.1,0.5-0.2,1-0.3,1.4c0.3,0.1,0.6,0.1,1,0.2c0.1-0.5,0.2-0.9,0.2-1.4c0.9,0.1,1.9,0.2,2.6-0.4
		c0.9-0.7,0.9-2.4-0.2-2.9c1-0.2,1.4-1.6,0.8-2.3c-0.4-0.5-0.9-0.8-1.5-1.1c0.1-0.5,0.2-0.9,0.3-1.4c-0.3-0.1-0.6-0.2-0.9-0.2
		c-0.1,0.5-0.2,0.9-0.3,1.4C11.4,6,11.2,6,10.9,5.9C11,5.4,11.2,5,11.3,4.5C11,4.5,10.7,4.4,10.4,4.3z M10.6,7
		c0.6,0,1.2,0.2,1.6,0.6C12.7,8,12.6,8.8,12,8.9c-0.6,0.1-1.2,0-1.8-0.2C10.4,8.2,10.6,7.6,10.6,7z M10,9.6c0.7,0.2,1.4,0.4,2,0.8
		c0.4,0.3,0.4,1.1-0.2,1.3c-0.8,0.2-1.6,0.1-2.3-0.1C9.7,11,9.9,10.3,10,9.6z"/>
	<path style="fill:#FCDD4F;" d="M12.2,0.5c0.2,0,0.3,0,0.5-0.2c2.1,0.6,4,1.9,5.3,3.7c2.8,3.5,2.7,8.9-0.2,12.3
		c-0.9,1.1-2,2.1-3.3,2.7c-1.7,0.6-3.6,0.7-5.4,0.4c-0.6-0.1-0.9-0.7-1.4-1c-2.2-0.8-4.1-2.6-5.1-4.7c-1-2.4-1-5.2,0.1-7.5
		c0.8-1.7,2.2-3.1,3.8-4c-1.1,0.8-2.2,1.8-2.9,3c-1.1,1.8-1.5,4-1.3,6c0.5,3.7,3.4,6.9,7,7.6c2,0.5,4.1,0.1,5.9-0.9
		c1.6-1,3-2.5,3.8-4.2c0.8-1.8,0.9-3.8,0.5-5.7c-0.6-2.9-2.9-5.3-5.6-6.4C12.9,1.2,12,1.1,11.1,1C11.4,0.7,11.8,0.6,12.2,0.5z"/>
	<path style="fill:#FFFFFF;" d="M10.4,4.3c0.3,0.1,0.6,0.2,0.8,0.2C11.2,5,11,5.4,10.9,5.9C11.2,6,11.4,6,11.6,6.1
		c0.1-0.5,0.2-0.9,0.3-1.4c0.3,0.1,0.6,0.2,0.9,0.2c-0.1,0.5-0.2,0.9-0.3,1.4c0.6,0.2,1.2,0.5,1.5,1.1c0.5,0.8,0.1,2.1-0.8,2.3
		c1.1,0.6,1.1,2.2,0.2,2.9c-0.7,0.6-1.7,0.5-2.6,0.4c0,0.5-0.2,1-0.2,1.4c-0.3-0.1-0.6-0.1-1-0.2c0.1-0.5,0.3-0.9,0.3-1.4
		c-0.3-0.1-0.5-0.1-0.7-0.2c-0.1,0.5-0.2,0.9-0.3,1.4C8.5,14,8.3,13.9,8,13.9c0.1-0.5,0.2-0.9,0.3-1.4c-0.6-0.2-1.2-0.4-1.7-0.5
		c0.2-0.3,0.3-0.6,0.4-1c0.3,0.1,0.5,0.1,0.8,0.2C8,11,8.1,10.8,8.1,10.6C8.4,9.4,8.7,8.2,9,7c0.1-0.6-0.6-0.7-1-0.8
		c0.1-0.3,0.2-0.6,0.3-0.9c0.6,0.2,1.2,0.3,1.8,0.5C10.2,5.3,10.3,4.8,10.4,4.3z M10.6,7c-0.1,0.6-0.3,1.1-0.4,1.7
		C10.8,8.9,11.4,9,12,8.9c0.5-0.2,0.6-1,0.2-1.3C11.8,7.2,11.2,7.1,10.6,7z M10,9.6c-0.1,0.7-0.3,1.3-0.5,2c0.7,0.2,1.5,0.3,2.3,0.1
		c0.5-0.2,0.6-0.9,0.2-1.3C11.4,10,10.7,9.8,10,9.6z"/>
</g>
</svg>
