<svg xmlns="http://www.w3.org/2000/svg" width="35" height="26" viewBox="0 0 35 26">
  <defs>
    <style>
      .cls-1 {
        fill: #909fab;
        fill-rule: evenodd;
      }
    </style>
  </defs>
  <path class="cls-1" d="M2036.05,2115.04a0.671,0.671,0,0,0-.12-0.75l-10.07-11.06a0.714,0.714,0,0,0-.78-0.18,0.693,0.693,0,0,0-.45.65v5.2h-16.92a0.7,0.7,0,0,0-.71.7v5.16a0.7,0.7,0,0,0,.71.69h27.7A0.694,0.694,0,0,0,2036.05,2115.04Zm-27.63-.98v-3.76h16.91a0.7,0.7,0,0,0,.71-0.7v-4.08l7.78,8.54h-25.4Zm32.87,2.5h-27.7a0.694,0.694,0,0,0-.64.41,0.671,0.671,0,0,0,.12.75l10.07,11.06a0.719,0.719,0,0,0,.53.23,0.742,0.742,0,0,0,.25-0.05,0.693,0.693,0,0,0,.45-0.65v-5.2h16.92a0.7,0.7,0,0,0,.71-0.7v-5.16A0.7,0.7,0,0,0,2041.29,2116.56Zm-0.71,5.15h-16.91a0.7,0.7,0,0,0-.71.7v4.08l-7.78-8.54h25.4v3.76Z" transform="translate(-2007 -2103)"/>
</svg>
