<?xml version="1.0" encoding="utf-8"?>
<!-- Generator: Adobe Illustrator 22.1.0, SVG Export Plug-In . SVG Version: 6.00 Build 0)  -->
<svg version="1.1" id="Слой_1" xmlns="http://www.w3.org/2000/svg" xmlns:xlink="http://www.w3.org/1999/xlink" x="0px" y="0px"
	 width="16.9px" height="20px" viewBox="0 0 16.9 20" style="enable-background:new 0 0 16.9 20;" xml:space="preserve">
<g>
	<polygon style="fill:#424242;" points="4.6,1.5 12.4,11.6 12.4,18.3 4.6,8.1 	"/>
	<path style="fill:#3F9649;" d="M4.6,1.5l7.4,9.6v0.4L4.6,1.9V1.5z M12,17.8L4.6,8.1V7.8l7.4,9.6L12,17.8L12,17.8z"/>
	
		<linearGradient id="SVGID_1_" gradientUnits="userSpaceOnUse" x1="9071.54" y1="1941.1503" x2="9118.1318" y2="1941.1503" gradientTransform="matrix(7.200000e-02 0 0 7.200000e-02 -641.248 -130.448)">
		<stop  offset="0" style="stop-color:#237C2D"/>
		<stop  offset="0.3294" style="stop-color:#419E4A"/>
		<stop  offset="1" style="stop-color:#297730"/>
	</linearGradient>
	<polygon style="fill:url(#SVGID_1_);" points="15.2,18.6 12,18.6 12,5.6 10.2,5.6 11.9,2.8 13.6,0 15.2,2.8 16.9,5.6 15.2,5.6 	"/>
	<path style="fill:#39A345;" d="M15.2,18.6H12v-1.4h3.2L15.2,18.6L15.2,18.6z M13.6,0l1.7,2.8l1.7,2.8l-1.7,0V10H12V5.6l-1.7,0
		l1.7-2.8L13.6,0z M12,16.9v-2.2h3.2v2.2H12z M12,14.3v-3.9h3.2v3.9L12,14.3L12,14.3z M12.3,18.3h2.5v-0.6h-2.5L12.3,18.3L12.3,18.3
		z M14.9,3l-1.4-2.3L12.2,3l0,0l-1.4,2.2l1.1,0h0.4v0.4v4.1h2.5V5.6V5.2h0.4l1.1,0L14.9,3L14.9,3z M12.3,15v1.5h2.5V15H12.3z
		 M12.3,10.8v3.1h2.5v-3.1L12.3,10.8L12.3,10.8z"/>
	
		<linearGradient id="SVGID_2_" gradientUnits="userSpaceOnUse" x1="8930.3994" y1="1960.2346" x2="8975.127" y2="1960.2346" gradientTransform="matrix(7.200000e-02 0 0 7.200000e-02 -641.248 -130.448)">
		<stop  offset="0" style="stop-color:#B2282A"/>
		<stop  offset="0.3294" style="stop-color:#D02B2E"/>
		<stop  offset="1" style="stop-color:#AD2628"/>
	</linearGradient>
	<polygon style="fill:url(#SVGID_2_);" points="1.7,1.4 5,1.4 5,14.4 6.7,14.4 5,17.2 3.3,20 1.7,17.2 0,14.4 1.7,14.4 	"/>
	<path style="fill:#DE4242;" d="M1.7,1.4H5v1.4H1.7V1.4z M3.3,20l-1.7-2.8L0,14.4l1.7,0V10H5v4.4l1.7,0L5,17.2L3.3,20z M5,3.1v2.2
		H1.7V3.1H5z M5,5.7v3.9H1.7V5.7H5z M4.6,1.7H2.1v0.6h2.5L4.6,1.7L4.6,1.7z M2,17l1.3,2.3L4.7,17v0l1.4-2.2l-1.1,0H4.6v-0.4v-4.1
		H2.1v4.1v0.4H1.7l-1.1,0L2,17L2,17z M4.6,5V3.5H2.1V5H4.6z M4.6,9.2V6.1H2.1v3.1H4.6z"/>
</g>
</svg>
