<?xml version="1.0" encoding="utf-8"?>
<!-- Generator: Adobe Illustrator 22.1.0, SVG Export Plug-In . SVG Version: 6.00 Build 0)  -->
<svg version="1.1" id="Слой_1" xmlns="http://www.w3.org/2000/svg" xmlns:xlink="http://www.w3.org/1999/xlink" x="0px" y="0px"
	 width="20px" height="20px" viewBox="0 0 20 20" style="enable-background:new 0 0 20 20;" xml:space="preserve">
<path style="fill:#1AA2A0;" d="M13.5,2.6c-0.6,0.3-0.7,1.1-0.7,1.1c-1,0.8-1.2,1.9-1.2,1.9s1.4-0.2,2.1-0.1c0.7,0.1,0.9,0.5,1,0.7
	c0.1,0.2,0.1,0.9,0.1,0.9C15,7,15,7.3,14.6,7.8c-0.4,0.5-1.9,1.8-1.9,1.8c0.8,0,0.7,0.7-0.5,1c-1.3,0.3-4.3-0.5-5-5.3
	C6.5,0.7,8.8,0,8.8,0C5.1,1,6.3,6.2,6.3,6.2c-0.7-0.6-0.8-1.4-1-2.9C5.1,2.1,5.4,1.2,5.6,0.8c0,0-0.1,0-0.1,0
	c-0.3,0.4-1,1.5-1.2,2.8C4.1,5.3,5.7,7.7,5.7,7.7S5.2,7.4,4.3,6.1c-1-1.3-0.9-3.7-0.9-3.7C2.4,4.1,2.5,5.8,2.7,7
	c0.2,1.1,2.4,3.5,2.4,3.5C3.3,9.6,2.5,8.4,2,7.7S1.2,5.1,1.2,5.1S0.9,6.4,0.9,7.7C1,8.9,1.3,9.3,2,10.1c0.7,0.9,2.5,2.1,2.5,2.1
	s-1.8-0.8-2.9-1C0.5,10.9,0,9.7,0,9.7c0.1,1.6,1.9,5.3,3.9,5.4c2,0,2.4,0.4,2.4,0.4s-1.1-0.2-1.7-0.1c-0.9,0.2-1.6,0.1-2.2,0
	c-0.3,0-0.8-0.2-1.2-0.3C3,18,6.3,20,9.9,20C15.5,20,20,15.5,20,9.9c0-1.6-0.4-3.1-1.1-4.5C16.4,0.9,14.1,2.3,13.5,2.6z"/>
</svg>
