<svg xmlns="http://www.w3.org/2000/svg" width="35" height="35" viewBox="0 0 35 35">
  <defs>
    <style>
      .cls-1 {
        fill: #909fab;
        fill-rule: evenodd;
      }
    </style>
  </defs>
  <path class="cls-1" d="M2036.44,2041.25h-26.16a2.3,2.3,0,0,0-2.29,2.29v26.16a2.29,2.29,0,0,0,2.29,2.29h26.16a2.29,2.29,0,0,0,2.29-2.29v-26.16A2.3,2.3,0,0,0,2036.44,2041.25Zm0.91,28.45a0.913,0.913,0,0,1-.91.91h-26.16a0.913,0.913,0,0,1-.91-0.91v-26.16a0.913,0.913,0,0,1,.91-0.91h26.16a0.913,0.913,0,0,1,.91.91v26.16Zm3.35-32.71h-26.16a2.3,2.3,0,0,0-2.29,2.29,0.69,0.69,0,1,0,1.38,0,0.913,0.913,0,0,1,.91-0.91h26.16a0.913,0.913,0,0,1,.91.91v26.16a0.913,0.913,0,0,1-.91.91,0.69,0.69,0,0,0,0,1.38,2.29,2.29,0,0,0,2.29-2.29v-26.16A2.29,2.29,0,0,0,2040.7,2036.99Zm-16.93,13.55v2.92h-8.6V2056h13.51Zm-0.82,12.17v-2.92h8.6v-2.55h-13.51Z" transform="translate(-2008 -2037)"/>
</svg>
