<?xml version="1.0" encoding="utf-8"?>
<!-- Generator: Adobe Illustrator 22.1.0, SVG Export Plug-In . SVG Version: 6.00 Build 0)  -->
<svg version="1.1" id="Слой_1" xmlns="http://www.w3.org/2000/svg" xmlns:xlink="http://www.w3.org/1999/xlink" x="0px" y="0px"
	 width="20px" height="11.1px" viewBox="0 0 20 11.1" style="enable-background:new 0 0 20 11.1;" xml:space="preserve">
<g id="_2228480634448">
	<circle style="fill:#00B1BE;" cx="14.5" cy="5.5" r="5.5"/>
	<circle style="fill:#EF453F;" cx="5.5" cy="5.5" r="5.5"/>
	<g transform="matrix(0.996052 0 0 1 -2252.18 233.142)">
		<g style="enable-background:new    ;">
			<path style="fill:#FFFFFF;" d="M2262.8-228.8h0.9c0.2,0,0.3,0,0.4,0c0.1,0,0.2,0,0.2,0.1c0.1,0,0.1,0.1,0.2,0.2
				c0,0.1,0.1,0.2,0.1,0.3c0,0.1,0,0.2-0.1,0.3c-0.1,0.1-0.1,0.2-0.2,0.2c0.1,0,0.3,0.1,0.3,0.2c0.1,0.1,0.1,0.2,0.1,0.4
				c0,0.1,0,0.2-0.1,0.3c0,0.1-0.1,0.2-0.2,0.2c-0.1,0.1-0.2,0.1-0.3,0.1c-0.1,0-0.3,0-0.6,0h-0.8V-228.8z M2263.3-228.4v0.5h0.3
				c0.2,0,0.3,0,0.3,0c0.1,0,0.1,0,0.2-0.1c0,0,0.1-0.1,0.1-0.2c0-0.1,0-0.1-0.1-0.2s-0.1-0.1-0.2-0.1c0,0-0.2,0-0.4,0
				C2263.6-228.4,2263.3-228.4,2263.3-228.4z M2263.3-227.4v0.6h0.4c0.2,0,0.3,0,0.3,0c0.1,0,0.1,0,0.2-0.1c0,0,0.1-0.1,0.1-0.2
				c0-0.1,0-0.1-0.1-0.2c0,0-0.1-0.1-0.1-0.1c-0.1,0-0.2,0-0.4,0C2263.7-227.4,2263.3-227.4,2263.3-227.4z"/>
			<path style="fill:#FFFFFF;" d="M2265.7-226.4v-2h-0.7v-0.4h1.9v0.4h-0.7v2L2265.7-226.4L2265.7-226.4z"/>
			<path style="fill:#FFFFFF;" d="M2268.7-227.3l0.5,0.1c-0.1,0.3-0.2,0.4-0.4,0.6c-0.2,0.1-0.4,0.2-0.6,0.2c-0.3,0-0.6-0.1-0.8-0.3
				s-0.3-0.5-0.3-0.9c0-0.4,0.1-0.7,0.3-0.9c0.2-0.2,0.5-0.3,0.8-0.3c0.3,0,0.5,0.1,0.7,0.3c0.1,0.1,0.2,0.2,0.2,0.4l-0.5,0.1
				c0-0.1-0.1-0.2-0.2-0.3s-0.2-0.1-0.3-0.1c-0.2,0-0.3,0.1-0.4,0.2c-0.1,0.1-0.2,0.3-0.2,0.6c0,0.3,0.1,0.5,0.2,0.6
				s0.2,0.2,0.4,0.2c0.1,0,0.2,0,0.3-0.1C2268.6-227,2268.7-227.1,2268.7-227.3z"/>
			<path style="fill:#FFFFFF;" d="M2269.5-227v-0.5h0.9v0.5H2269.5z"/>
			<path style="fill:#FFFFFF;" d="M2272.8-226.4h-0.5l-0.2-0.5h-0.9l-0.2,0.5h-0.5l0.9-2.4h0.5L2272.8-226.4z M2271.9-227.3
				l-0.3-0.9l-0.3,0.9H2271.9z"/>
			<path style="fill:#FFFFFF;" d="M2273.1-226.4v-2.4h0.5v2.4H2273.1z"/>
			<path style="fill:#FFFFFF;" d="M2274-228.1h0.4v0.3c0.1-0.1,0.1-0.2,0.2-0.2s0.2-0.1,0.3-0.1c0.2,0,0.4,0.1,0.5,0.2
				c0.1,0.2,0.2,0.4,0.2,0.6c0,0.3-0.1,0.5-0.2,0.7c-0.1,0.2-0.3,0.2-0.5,0.2c-0.1,0-0.2,0-0.3-0.1c-0.1,0-0.2-0.1-0.2-0.2v0.9h-0.5
				V-228.1z M2274.4-227.3c0,0.2,0,0.3,0.1,0.4c0.1,0.1,0.2,0.1,0.3,0.1c0.1,0,0.2,0,0.3-0.1s0.1-0.2,0.1-0.4c0-0.2,0-0.3-0.1-0.4
				c-0.1-0.1-0.2-0.1-0.3-0.1c-0.1,0-0.2,0-0.3,0.1C2274.4-227.6,2274.4-227.5,2274.4-227.3z"/>
			<path style="fill:#FFFFFF;" d="M2276.4-228.8v0.9c0.1-0.2,0.3-0.3,0.5-0.3c0.1,0,0.2,0,0.3,0.1c0.1,0,0.1,0.1,0.2,0.1
				s0.1,0.1,0.1,0.2c0,0.1,0,0.2,0,0.3v1h-0.5v-0.9c0-0.2,0-0.3,0-0.3s0-0.1-0.1-0.1c0,0-0.1,0-0.2,0c-0.1,0-0.1,0-0.2,0.1
				c-0.1,0-0.1,0.1-0.1,0.2c0,0.1,0,0.2,0,0.3v0.9h-0.5v-2.4H2276.4z"/>
			<path style="fill:#FFFFFF;" d="M2278.3-227.6l-0.4-0.1c0-0.2,0.1-0.3,0.2-0.4c0.1-0.1,0.3-0.1,0.5-0.1c0.2,0,0.4,0,0.4,0.1
				c0.1,0,0.2,0.1,0.2,0.2c0,0.1,0.1,0.2,0.1,0.4l0,0.5c0,0.2,0,0.3,0,0.3c0,0.1,0,0.1,0.1,0.2h-0.4c0,0,0-0.1,0-0.1c0,0,0,0,0-0.1
				c-0.1,0.1-0.2,0.1-0.2,0.2c-0.1,0-0.2,0.1-0.3,0.1c-0.2,0-0.3,0-0.4-0.1c-0.1-0.1-0.2-0.2-0.2-0.4c0-0.1,0-0.2,0.1-0.3
				c0-0.1,0.1-0.1,0.2-0.2c0.1,0,0.2-0.1,0.4-0.1c0.2,0,0.4-0.1,0.4-0.1v0c0-0.1,0-0.1-0.1-0.2c0,0-0.1-0.1-0.2-0.1
				c-0.1,0-0.1,0-0.2,0C2278.4-227.7,2278.4-227.7,2278.3-227.6z M2278.9-227.2c-0.1,0-0.1,0-0.3,0.1c-0.1,0-0.2,0.1-0.2,0.1
				c-0.1,0-0.1,0.1-0.1,0.2s0,0.1,0.1,0.2c0,0,0.1,0.1,0.2,0.1c0.1,0,0.2,0,0.2-0.1c0.1,0,0.1-0.1,0.1-0.1
				C2278.9-227,2278.9-227,2278.9-227.2L2278.9-227.2L2278.9-227.2z"/>
		</g>
	</g>
</g>
</svg>
