<?xml version="1.0" encoding="utf-8"?>
<!-- Generator: Adobe Illustrator 22.1.0, SVG Export Plug-In . SVG Version: 6.00 Build 0)  -->
<svg version="1.1" id="Слой_1" xmlns="http://www.w3.org/2000/svg" xmlns:xlink="http://www.w3.org/1999/xlink" x="0px" y="0px"
	 width="20px" height="20px" viewBox="0 0 20 20" style="enable-background:new 0 0 20 20;" xml:space="preserve">
<g>
	<path style="fill:#623317;" d="M7.8,3.4l1.2,0l0,2l0.9,0v-2l1.2,0l0,2c0.6,0.1,0.9,0,1.6,0.2c0.8,0.3,1.4,0.9,1.4,1.9
		c0,0.9-0.3,1.5-1.1,2c0.9,0.2,1.6,0.7,1.7,1.7c0.1,0.6,0.1,1.1-0.2,1.7c-0.3,0.6-0.8,1-1.4,1.3c-0.7,0.3-1.4,0.4-2.1,0.4l0,1.6
		c0,0.1,0,0.2,0,0.4l-1.2,0l0-2H9l0,2l-1.2,0v-1.9l-2.6,0l0.2-1.4l1.1,0c0.2,0,0.3-0.1,0.3-0.3V7.1c0-0.2-0.2-0.3-0.3-0.3l-1.2,0
		V5.5l2.5,0c0.1,0,0.2,0,0.1-0.1L7.8,3.4L7.8,3.4z M9,6.8v2.5l1.5,0c0.7,0,1.2-0.3,1.4-1c0-0.1,0-0.2,0-0.4
		c-0.1-0.7-0.8-1.1-1.5-1.1L9,6.8z M9,10.5v2.7l1.9,0c1,0,1.6-0.4,1.6-1.5c0-0.8-0.6-1.2-1.5-1.2L9,10.5z"/>
	<path style="fill:#623317;" d="M10,0C4.5,0,0,4.5,0,10s4.5,10,10,10s10-4.5,10-10S15.5,0,10,0z M10,18.5c-4.7,0-8.5-3.8-8.5-8.5
		S5.3,1.5,10,1.5s8.5,3.8,8.5,8.5S14.7,18.5,10,18.5z"/>
</g>
</svg>
