<?xml version="1.0" encoding="utf-8"?>
<!-- Generator: Adobe Illustrator 22.1.0, SVG Export Plug-In . SVG Version: 6.00 Build 0)  -->
<svg version="1.1" id="Слой_1" xmlns="http://www.w3.org/2000/svg" xmlns:xlink="http://www.w3.org/1999/xlink" x="0px" y="0px"
	 width="13.7px" height="20px" viewBox="0 0 13.7 20" style="enable-background:new 0 0 13.7 20;" xml:space="preserve">
<path d="M2.4,0.9l1.4-0.3l0.7,3l1.1-0.3l-0.7-3L6.3,0L7,3c0.8-0.1,1.1-0.3,1.9-0.1c1.1,0.2,2,0.9,2.3,2.4c0.3,1.3,0.2,2.3-0.6,3.2
	c1.2,0.1,2.1,0.7,2.6,2c0.3,0.8,0.5,1.7,0.3,2.5c-0.1,0.9-0.6,1.7-1.2,2.2c-0.7,0.6-1.5,0.9-2.4,1.1l0.5,2.3c0,0.2,0.1,0.3,0.1,0.5
	l-1.4,0.3l-0.7-2.9l-1,0.2l0.7,2.8L6.9,20l-0.7-2.8l-3.1,0.7l-0.2-2.2l1.3-0.3c0.2,0,0.3-0.3,0.2-0.5l-2-8.4c0-0.3-0.3-0.4-0.5-0.4
	L0.4,6.4L0,4.6l2.9-0.7c0.1,0,0.2-0.1,0.1-0.2L2.4,0.9z M5,5.5l0.8,3.6l1.8-0.4C8.4,8.5,9,7.9,8.9,6.9c0-0.2,0-0.4-0.1-0.5
	c-0.3-1-1.3-1.4-2.1-1.2L5,5.5z M6.2,10.9l0.9,3.9l2.3-0.5c1.1-0.3,1.7-1,1.4-2.6c-0.3-1.2-1.1-1.6-2.1-1.4L6.2,10.9z"/>
</svg>
