<?xml version="1.0" encoding="utf-8"?>
<!-- Generator: Adobe Illustrator 22.1.0, SVG Export Plug-In . SVG Version: 6.00 Build 0)  -->
<svg version="1.1" id="Слой_1" xmlns="http://www.w3.org/2000/svg" xmlns:xlink="http://www.w3.org/1999/xlink" x="0px" y="0px"
	 width="20px" height="20px" viewBox="0 0 20 20" style="enable-background:new 0 0 20 20;" xml:space="preserve">
<g id="_2228599763392">
	<path style="fill:#F42C27;" d="M15.5,0.7C14.6,0.2,14,0,14,0s-1.3,0.7-2,1.1c-0.8,0.5-2,1.4-2,1.4S8.8,1.6,8,1.1C7.3,0.7,6,0,6,0
		S5.4,0.2,4.5,0.7C3.6,1.3,3,1.9,3,1.9s2.3,1.8,3.5,2.9S10,8,10,8s2.3-2.1,3.5-3.2S17,1.9,17,1.9S16.4,1.3,15.5,0.7z"/>
	<path style="fill:#1AD346;" d="M4.5,19.3C5.4,19.8,6,20,6,20s1.3-0.7,2-1.1c0.8-0.5,2-1.4,2-1.4s1.2,0.9,2,1.4c0.7,0.4,2,1.1,2,1.1
		s0.6-0.2,1.5-0.7c0.9-0.5,1.5-1.1,1.5-1.1s-2.3-1.8-3.5-2.9S10,12,10,12s-2.3,2.1-3.5,3.2C5.3,16.3,3,18.1,3,18.1
		S3.6,18.7,4.5,19.3z"/>
	<path style="fill:#19A8F7;" d="M19.3,15.5C19.8,14.6,20,14,20,14s-0.7-1.3-1.1-2c-0.5-0.8-1.4-2-1.4-2s0.9-1.2,1.4-2
		C19.3,7.3,20,6,20,6s-0.2-0.6-0.7-1.5C18.7,3.6,18.1,3,18.1,3s-1.8,2.3-2.9,3.5S12,10,12,10s2.1,2.3,3.2,3.5
		c1.1,1.2,2.9,3.5,2.9,3.5S18.7,16.4,19.3,15.5z"/>
	<path style="fill:#7C7C7C;" d="M0.7,4.5C0.2,5.4,0,6,0,6s0.7,1.3,1.1,2c0.5,0.8,1.4,2,1.4,2s-0.9,1.2-1.4,2C0.7,12.7,0,14,0,14
		s0.2,0.6,0.7,1.5C1.3,16.4,1.9,17,1.9,17s1.8-2.3,2.9-3.5S8,10,8,10S5.9,7.7,4.8,6.5S1.9,3,1.9,3S1.3,3.6,0.7,4.5z"/>
</g>
</svg>
