<?xml version="1.0" encoding="utf-8"?>
<!-- Generator: Adobe Illustrator 22.1.0, SVG Export Plug-In . SVG Version: 6.00 Build 0)  -->
<svg version="1.1" id="Слой_1" xmlns="http://www.w3.org/2000/svg" xmlns:xlink="http://www.w3.org/1999/xlink" x="0px" y="0px"
	 width="20px" height="20px" viewBox="0 0 20 20" style="enable-background:new 0 0 20 20;" xml:space="preserve">
<g>
	<circle cx="10" cy="10" r="10"/>
	<g id="Screenshot_359.eps">
		<path style="fill:#FEFEFE;" d="M2.2,8.6c0.2,0,0.4,0,0.6,0c0,0.1,0.1,0.2,0.1,0.3C2.9,9,2.9,9,3,9.1C3,9.4,3.1,9.6,3.2,9.9
			c0,0,0,0.1,0,0.1c0.1,0.2,0.2,0.4,0.2,0.6c0-0.1,0.1-0.2,0.1-0.3c0,0,0-0.1,0-0.1c0,0,0-0.1,0-0.1c0.1-0.2,0.2-0.5,0.2-0.7
			c0,0,0-0.1,0-0.1C4,9.1,4.1,8.8,4.2,8.6c0.2,0,0.4,0,0.6,0C4.7,8.8,4.6,9,4.6,9.2C4.3,9.9,4,10.6,3.8,11.4c-0.2,0-0.4,0-0.6,0
			C3.1,11.2,3,11,2.9,10.8c-0.1-0.3-0.2-0.6-0.3-0.9C2.5,9.4,2.3,9,2.2,8.6z M5.1,8.6c0.2,0,0.4,0,0.5,0c0,0.2,0,0.3,0,0.5
			C5.5,9,5.3,9,5.1,9C5.1,8.9,5.1,8.7,5.1,8.6z M6.7,9.6c0.1-0.2,0.2-0.3,0.4-0.3c0.1,0,0.2,0,0.3,0.1c0,0.2-0.1,0.4-0.2,0.5
			c0,0-0.1-0.1-0.2-0.1c-0.1,0-0.2,0-0.3,0.1c-0.1,0.1-0.1,0.3-0.1,0.4c0,0.3,0,0.7,0,1c-0.2,0-0.4,0-0.5,0c0-0.7,0-1.4,0-2
			c0.2,0,0.4,0,0.5,0C6.7,9.4,6.7,9.5,6.7,9.6z M7.7,9.7c0.2-0.3,0.5-0.4,0.8-0.4c0.3,0,0.5,0.1,0.7,0.2c0.1,0.1,0.2,0.3,0.2,0.4
			C9.2,10,9.1,10,8.9,10c0-0.1-0.1-0.3-0.2-0.3c-0.2-0.1-0.4,0-0.4,0.2c-0.1,0.1-0.1,0.3-0.1,0.4c0,0.2,0,0.4,0.1,0.6
			c0.1,0.1,0.4,0.2,0.5,0c0.1-0.1,0.1-0.2,0.1-0.3c0.2,0,0.4,0,0.6,0.1c0,0,0,0.1,0,0.1c-0.1,0.3-0.3,0.5-0.5,0.6
			c-0.2,0.1-0.3,0-0.5,0c-0.2,0-0.3-0.1-0.4-0.1c-0.2-0.2-0.4-0.4-0.4-0.7C7.6,10.3,7.6,10,7.7,9.7z M12.8,9.6
			c0.1-0.1,0.2-0.3,0.4-0.3c0.1,0,0.3,0,0.4,0.1c-0.1,0.2-0.1,0.3-0.2,0.5c-0.1,0-0.1-0.1-0.2-0.1c-0.1,0-0.2,0-0.3,0.1
			c-0.1,0.1-0.1,0.3-0.1,0.5c0,0.3,0,0.6,0,1c-0.2,0-0.4,0-0.5,0c0-0.7,0-1.4,0-2c0.2,0,0.4,0,0.5,0C12.8,9.4,12.8,9.5,12.8,9.6z
			 M14.2,9.3c0.4-0.2,1,0,1.2,0.4c0.1,0.2,0.1,0.5,0.1,0.8c-0.5,0-0.9,0-1.4,0c0,0.1,0,0.3,0.1,0.4c0.1,0.1,0.4,0.2,0.5,0.1
			c0.1,0,0.1-0.1,0.1-0.2c0.1,0,0.2,0,0.3,0c0.1,0,0.2,0,0.2,0c-0.1,0.1-0.1,0.2-0.2,0.3c-0.2,0.2-0.5,0.3-0.7,0.3
			c-0.3,0-0.5-0.1-0.7-0.3c-0.1-0.1-0.2-0.3-0.3-0.5c0-0.2,0-0.4,0-0.6C13.8,9.7,14,9.5,14.2,9.3z M14.3,9.9
			c-0.1,0.1-0.1,0.2-0.1,0.3c0.3,0,0.5,0,0.8,0c0-0.1,0-0.3-0.2-0.4C14.7,9.6,14.4,9.7,14.3,9.9z M5.1,9.3c0.2,0,0.4,0,0.5,0
			c0,0.7,0,1.4,0,2c-0.2,0-0.4,0-0.5,0C5.1,10.7,5.1,10,5.1,9.3z M9.9,10.9c0-0.5,0-1,0-1.6c0.2,0,0.4,0,0.5,0c0,0.5,0,1,0,1.4
			c0,0,0,0.1,0,0.1c0.1,0.1,0.2,0.2,0.4,0.1c0.2,0,0.3-0.2,0.3-0.3c0-0.4,0-0.9,0-1.3c0.2,0,0.4,0,0.5,0c0,0.7,0,1.4,0,2
			c-0.2,0-0.4,0-0.5,0c0-0.1,0-0.2,0-0.3c-0.2,0.2-0.4,0.4-0.6,0.3c-0.2,0-0.3-0.1-0.5-0.2C10,11.2,9.9,11,9.9,10.9z M15.8,9.3
			c0.2,0,0.4,0,0.7,0c0.1,0.2,0.2,0.4,0.3,0.6c0.1-0.2,0.2-0.4,0.3-0.6c0.2,0,0.4,0,0.7,0c-0.1,0.1-0.1,0.2-0.2,0.3
			c-0.1,0.2-0.3,0.4-0.4,0.6c0,0,0,0.1,0,0.1c0.2,0.3,0.5,0.7,0.7,1c-0.2,0-0.4,0-0.7,0c-0.1-0.2-0.3-0.4-0.4-0.6c0,0,0,0,0,0
			c-0.1,0.2-0.2,0.4-0.4,0.6c-0.2,0-0.4,0-0.7,0c0.2-0.3,0.4-0.5,0.6-0.8c0.1-0.1,0.1-0.2,0.2-0.2c-0.2-0.3-0.3-0.5-0.5-0.8
			C15.9,9.5,15.9,9.4,15.8,9.3z"/>
	</g>
</g>
</svg>
