<?xml version="1.0" encoding="utf-8"?>
<!-- Generator: Adobe Illustrator 22.1.0, SVG Export Plug-In . SVG Version: 6.00 Build 0)  -->
<svg version="1.1" id="Слой_1" xmlns="http://www.w3.org/2000/svg" xmlns:xlink="http://www.w3.org/1999/xlink" x="0px" y="0px"
	 width="20px" height="4.8px" viewBox="0 0 20 4.8" style="enable-background:new 0 0 20 4.8;" xml:space="preserve">
<g>
	<path style="fill:#31A751;" d="M0,0h2.1C2.6,0,3,0.1,3.3,0.4c0.3,0.2,0.4,0.5,0.4,0.9c0,0.4-0.2,0.7-0.7,1c0.3,0.1,0.6,0.2,0.8,0.5
		C4,2.9,4.1,3.1,4.1,3.4c0,0.4-0.1,0.8-0.4,1C3.3,4.7,2.9,4.8,2.4,4.8H0V0z M1.2,0.9v1h0.6c0.2,0,0.3-0.1,0.5-0.2
		c0.1-0.1,0.2-0.2,0.2-0.4c0-0.2-0.1-0.3-0.2-0.4C2.2,0.9,2,0.9,1.8,0.9H1.2z M1.2,2.8v1.1h0.7c0.3,0,0.5,0,0.7-0.1
		c0.1-0.1,0.2-0.2,0.2-0.5c0-0.2-0.1-0.3-0.2-0.4C2.5,2.9,2.3,2.8,2.1,2.8L1.2,2.8L1.2,2.8z"/>
	<path style="fill:#F8BC11;" d="M5.1,0h2.2c0.5,0,0.9,0.1,1.1,0.4c0.3,0.3,0.4,0.6,0.4,1c0,0.5-0.3,0.9-0.8,1.2
		C8.2,2.7,8.5,3,8.7,3.5C8.9,4,9.1,4.4,9.3,4.8H8C7.9,4.7,7.8,4.4,7.6,3.9C7.4,3.5,7.2,3.2,7.1,3.1C6.9,2.9,6.8,2.9,6.6,2.9H6.3v2
		H5.1L5.1,0L5.1,0z M6.3,0.9V2h0.6c0.2,0,0.4-0.1,0.5-0.1s0.2-0.2,0.2-0.4c0-0.4-0.2-0.5-0.7-0.5L6.3,0.9L6.3,0.9z"/>
	<path style="fill:#4285EF;" d="M13.7,3.9v0.9h-3.6V0h3.5v0.9h-2.3v1h2.2v0.9h-2.2v1.2L13.7,3.9L13.7,3.9z"/>
	<path style="fill:#4285EF;" d="M19.8,0l-1.9,2.3L20,4.8h-1.6l-1.3-1.6l-1.3,1.6h-1.5l2.1-2.5L14.4,0H16l1.2,1.4L18.3,0H19.8z"/>
</g>
</svg>
