<?xml version="1.0" encoding="utf-8"?>
<!-- Generator: Adobe Illustrator 22.1.0, SVG Export Plug-In . SVG Version: 6.00 Build 0)  -->
<svg version="1.1" id="Слой_1" xmlns="http://www.w3.org/2000/svg" xmlns:xlink="http://www.w3.org/1999/xlink" x="0px" y="0px"
	 width="20px" height="6.9px" viewBox="0 0 20 6.9" style="enable-background:new 0 0 20 6.9;" xml:space="preserve">
<path style="fill:#1C9993;" d="M4.8,0L4.8,0c0.6,1.5,1.3,3,1.9,4.5c0,0,0,0,0-0.1c0.6-1.3,1.2-2.6,1.7-4c0.4,0,0.8,0,1.2,0
	C9.5,0.8,9.4,1,9.3,1.3C8.4,3.1,7.6,4.8,6.8,6.6c0,0.1-0.1,0.2-0.2,0.3c-0.6-1.5-1.2-3-1.8-4.5C4.2,3.9,3.6,5.4,3,6.9
	C2.9,6.8,2.8,6.7,2.8,6.6C2.2,5.3,1.7,4.1,1.1,2.9C0.7,2.1,0.3,1.3,0,0.5c0.4,0,0.8,0,1.2,0C1.7,1.8,2.3,3,2.9,4.3
	c0,0.1,0.1,0.1,0.1,0.2C3.6,3,4.2,1.5,4.8,0z M13.6,0.5c0.4,0,0.8,0,1.3,0c0.6,0.8,1.3,1.6,1.9,2.4c0.5-0.6,0.9-1.2,1.4-1.8
	c0.2-0.2,0.3-0.4,0.5-0.6c0.4,0,0.9,0,1.3,0c0,0.1-0.1,0.1-0.1,0.2c-0.8,1-1.6,2-2.4,3c0.2,0.3,0.5,0.6,0.7,0.9
	c0.5,0.6,0.9,1.2,1.4,1.8c0,0,0,0.1,0.1,0.1c-0.4,0-0.8,0-1.3,0C18.3,6.3,18.1,6.2,18,6c0,0,0,0-0.1-0.1c-0.4-0.5-0.8-1-1.1-1.5
	c-0.5,0.7-1,1.4-1.6,2c-0.4,0-0.9,0-1.3,0c0.7-0.9,1.4-1.8,2.1-2.7c0-0.1,0.1-0.1,0.1-0.2c-0.7-0.9-1.5-1.9-2.2-2.9
	C13.8,0.7,13.7,0.6,13.6,0.5z M11.1,1.6c0.6-0.1,1.2,0,1.8,0.2c0.6,0.3,1,0.8,1.3,1.4c0.1,0.4,0.2,0.7,0.2,1.1
	c-0.1,0.6-0.3,1.2-0.8,1.6c-0.4,0.4-0.9,0.6-1.4,0.7c-0.7,0.1-1.4,0-2-0.4C9.7,6,9.4,5.7,9.2,5.2C9,4.7,8.9,4.1,9,3.6
	C9.1,3,9.5,2.4,10,2C10.3,1.8,10.7,1.6,11.1,1.6z M11.2,2.3c-0.5,0.1-0.9,0.4-1.1,0.8C9.8,3.6,9.8,4.1,9.9,4.6
	c0.1,0.5,0.4,0.9,0.9,1.2C11.2,5.9,11.6,6,12,5.9c0.5-0.1,1-0.5,1.3-1c0.2-0.4,0.2-0.9,0.1-1.3c-0.1-0.5-0.5-0.9-0.9-1.2
	C12,2.3,11.6,2.3,11.2,2.3z"/>
</svg>
