<?xml version="1.0" encoding="utf-8"?>
<!-- Generator: Adobe Illustrator 22.1.0, SVG Export Plug-In . SVG Version: 6.00 Build 0)  -->
<svg version="1.1" id="Слой_1" xmlns="http://www.w3.org/2000/svg" xmlns:xlink="http://www.w3.org/1999/xlink" x="0px" y="0px"
	 width="20px" height="11.8px" viewBox="0 0 20 11.8" style="enable-background:new 0 0 20 11.8;" xml:space="preserve">
<g>
	<path style="fill:#124595;" d="M2,2v0.4h2.8c1.3,0,2.4,0.5,3.4,1.4s1.4,2,1.4,3.3s-0.5,2.4-1.4,3.4c-0.9,0.9-2.1,1.4-3.4,1.4
		c-1.3,0-2.4-0.5-3.4-1.4C0.5,9.5,0,8.4,0,7.1V0c0.5,0,1,0.2,1.4,0.6C1.8,1,2,1.4,2,2z M7.6,7.1c0-0.8-0.3-1.5-0.8-2
		c-0.5-0.6-1.2-0.8-2-0.8H2v2.8c0,0.8,0.3,1.5,0.8,2c0.5,0.6,1.2,0.8,2,0.8s1.4-0.3,2-0.8C7.3,8.5,7.6,7.9,7.6,7.1z"/>
	<path style="fill:#124595;" d="M20,11.8h-2v-1.1c0-0.8-0.3-1.4-0.8-2c-0.5-0.6-1.2-0.9-2-0.9c-0.8,0-1.4,0.3-2,0.8
		c-0.5,0.6-0.8,1.2-0.8,2v1.1h-2v-1.1c0-0.8,0.2-1.5,0.5-2.1C11.3,8,11.8,7.4,12.4,7c-0.6-0.5-1.1-1-1.4-1.7
		c-0.3-0.7-0.5-1.4-0.5-2.1V2.5h2v0.7c0,0.8,0.3,1.5,0.8,2c0.5,0.6,1.2,0.8,2,0.8c0.8,0,1.4-0.3,2-0.9s0.8-1.2,0.8-2V2.5h2v0.7
		c0,0.8-0.2,1.5-0.5,2.1c-0.3,0.7-0.8,1.2-1.4,1.7c0.6,0.5,1.1,1,1.4,1.7C19.8,9.3,20,10,20,10.8L20,11.8L20,11.8L20,11.8z"/>
</g>
</svg>
