<?xml version="1.0" standalone="no"?>
<!DOCTYPE svg PUBLIC "-//W3C//DTD SVG 20010904//EN"
 "http://www.w3.org/TR/2001/REC-SVG-20010904/DTD/svg10.dtd">
<svg version="1.0" xmlns="http://www.w3.org/2000/svg"
 width="242.000000pt" height="80.000000pt" viewBox="0 0 242.000000 80.000000"
 preserveAspectRatio="xMidYMid meet">
<metadata>
Created by potrace 1.15, written by Peter Selinger 2001-2017
</metadata>
<g transform="translate(0.000000,80.000000) scale(0.100000,-0.100000)"
fill="#000000" stroke="none">
<path d="M2216 788 c4 -7 14 -21 22 -30 13 -16 8 -25 -63 -103 -42 -47 -80
-85 -84 -85 -4 0 -34 46 -67 103 l-60 102 -103 3 c-90 2 -103 1 -97 -13 3 -9
49 -88 101 -176 l96 -160 -20 -27 c-11 -15 -76 -99 -145 -187 l-126 -160 -833
-5 -832 -5 -3 -22 -3 -23 919 0 919 0 108 140 109 139 54 -97 c30 -53 65 -116
78 -139 l25 -43 100 0 101 0 -20 33 c-43 72 -211 373 -214 384 -2 7 39 60 91
118 l94 106 28 -27 29 -28 0 107 0 107 -106 0 c-81 0 -104 -3 -98 -12z"/>
<path d="M363 686 c-58 -19 -104 -49 -152 -101 -136 -148 -111 -371 51 -460
48 -27 64 -30 165 -33 l112 -4 6 38 c4 22 9 51 11 66 l6 28 -97 0 c-106 0
-136 10 -178 60 -54 63 -43 160 24 230 47 48 88 60 206 60 l92 0 6 48 c3 26 8
55 10 65 3 15 -7 17 -108 16 -62 0 -131 -6 -154 -13z"/>
<path d="M717 693 c-2 -4 -8 -34 -11 -65 l-7 -58 118 0 c130 0 167 -12 161
-53 -4 -28 -44 -47 -126 -58 -124 -17 -182 -81 -202 -223 -6 -45 -13 -96 -17
-113 l-5 -33 221 0 c209 0 221 1 221 19 0 10 3 39 6 65 l7 46 -152 0 c-97 0
-151 4 -151 10 0 24 30 79 47 88 10 5 46 15 80 21 145 28 203 85 203 199 0 62
-27 111 -76 136 -33 18 -62 22 -175 24 -75 2 -139 0 -142 -5z"/>
<path d="M1415 691 c-99 -24 -199 -111 -233 -204 -47 -124 -20 -255 68 -330
60 -51 115 -67 232 -67 89 0 98 2 98 19 0 10 3 39 6 65 l7 46 -94 0 c-70 0
-103 5 -129 18 -93 46 -110 183 -32 266 47 50 96 66 205 66 108 0 102 -4 112
78 l6 52 -108 -1 c-59 -1 -121 -4 -138 -8z"/>
</g>
</svg>
