<?xml version="1.0" encoding="utf-8"?>
<!-- Generator: Adobe Illustrator 22.1.0, SVG Export Plug-In . SVG Version: 6.00 Build 0)  -->
<svg version="1.1" id="Слой_1" xmlns="http://www.w3.org/2000/svg" xmlns:xlink="http://www.w3.org/1999/xlink" x="0px" y="0px"
	 width="20px" height="20px" viewBox="0 0 20 20" style="enable-background:new 0 0 20 20;" xml:space="preserve">
<g>
	<circle style="fill:#EC8E2C;" cx="10" cy="10" r="10"/>
	<g id="_2228484136768">
		<path d="M9.7,2.5c1.5,0,2.8,0.4,4,1.2h0c0,0-0.1,0-0.1,0c0,0,0,0-0.1,0c0,0-0.1,0-0.1,0c0,0,0,0-0.1,0c0,0-0.1,0-0.1,0
			c0,0,0,0-0.1,0c0,0-0.1,0-0.1,0c0,0,0,0-0.1,0c0,0-0.1,0-0.1,0c0,0,0,0,0,0c0,0-0.1,0-0.1,0c0,0,0,0,0,0c0,0-0.1,0-0.1,0l0,0
			c0,0-0.1,0-0.1,0l0,0c0,0-0.1,0-0.1,0l0,0c-0.8-0.3-1.6-0.5-2.5-0.5c-2,0-3.8,0.8-5.1,2.1S2.5,7.9,2.5,9.9s0.8,3.8,2.1,5.1
			c0.5,0.5,1.2,1,1.8,1.3l0,0c0,0,0.1,0.1,0.1,0.1l0,0c0,0,0.1,0.1,0.1,0.1l0,0c0,0,0.1,0,0.1,0.1l0,0c0,0,0.1,0,0.1,0.1
			c0,0,0,0,0,0c0,0,0.1,0,0.1,0.1c0,0,0,0,0.1,0c0,0,0.1,0,0.1,0c0,0,0,0,0.1,0c0,0,0.1,0,0.1,0s0.1,0,0.1,0c0,0,0.1,0,0.1,0
			c0,0,0.1,0,0.1,0c0,0,0.1,0,0.1,0l0,0c-1.3-0.3-2.4-1-3.3-1.9c-1.3-1.3-2.2-3.2-2.2-5.2S3.1,6,4.5,4.7S7.6,2.5,9.7,2.5z"/>
		<circle cx="9.7" cy="9.8" r="7.3"/>
		<path style="fill:#EC8E2C;" d="M10.3,2.9c4,0,7.3,3.3,7.3,7.3s-3.3,7.3-7.3,7.3s-7.3-3.2-7.3-7.3S6.3,2.9,10.3,2.9z M9.3,5.4h0.9
			v1.5l0.7,0V5.4l0.9,0l0,1.5c0.5,0,0.7,0,1.2,0.2C13.6,7.3,14,7.7,14,8.5c0,0.7-0.2,1.1-0.8,1.5c0.7,0.2,1.2,0.6,1.3,1.3
			c0.1,0.4,0,0.9-0.1,1.3c-0.2,0.4-0.6,0.8-1,0.9c-0.5,0.2-1,0.3-1.6,0.3l0,1.2c0,0.1,0,0.2,0,0.3l-0.9,0v-1.5h-0.7l0,1.5H9.3l0-1.5
			H7.4l0.2-1.1l0.8,0c0.1,0,0.2-0.1,0.2-0.2V8.1c0-0.1-0.1-0.2-0.2-0.3l-0.9,0l0-0.9h1.8c0,0,0.1,0,0.1-0.1L9.3,5.4L9.3,5.4z
			 M10.2,7.9v1.8l1.1,0c0.5,0,0.9-0.2,1.1-0.7c0-0.1,0-0.2,0-0.3c0-0.5-0.6-0.9-1.1-0.8L10.2,7.9L10.2,7.9z M10.2,10.7v2h1.5
			c0.7,0,1.2-0.3,1.2-1.1c0-0.6-0.5-0.9-1.1-0.9L10.2,10.7z"/>
		<path d="M10.3,2.8c2,0,3.9,0.8,5.2,2.2s2.2,3.2,2.2,5.2c0,2-0.8,3.9-2.2,5.2s-3.2,2.2-5.2,2.2c-2,0-3.9-0.8-5.2-2.2
			C3.8,14,3,12.2,3,10.2S3.8,6.3,5.2,5C6.5,3.6,8.3,2.8,10.3,2.8z M15.4,5.1C14.1,3.8,12.3,3,10.3,3c-2,0-3.8,0.8-5.1,2.1
			C4,6.4,3.2,8.2,3.2,10.2c0,2,0.8,3.8,2.1,5.1c1.3,1.3,3.1,2.1,5.1,2.1s3.8-0.8,5.1-2.1c1.3-1.3,2.1-3.1,2.1-5.1
			C17.5,8.2,16.7,6.4,15.4,5.1z"/>
		<path d="M8.2,13.5l-0.9,0.3l-0.6-0.3l0.6-0.8l1.1-0.4l-0.1-1.9c0,0-0.1-1.8-0.1-1.9c0-0.1,0-1,0-1L7.3,7.9L6.6,7.6L7,6.8l1.4,0.1
			l0.7-0.4l0.4-0.6c0,0-0.1-0.6-0.1-0.6C9.4,5.3,9.7,5,9.7,5l0.6,0.3L11.2,5l0.6,0.3l-0.4,1.1l0.5,0.5l0.4-0.2l1.1,0.6l0.2,0.9
			l-0.3,0.7l-0.3,0.4V7.7H9.7V13h3l-0.3,0.1c0,0-0.7,0-0.7,0.1c0,0-0.4,1-0.4,1l-0.4,1.1L10,14.7l-0.7,0.6h0L8.6,15
			c0,0,0.4-1.3,0.4-1.2C9,13.8,8.2,13.4,8.2,13.5z M13.1,10.6L13.1,10.6l0.4,1.5l-0.4,0.7l0,0L13.1,10.6L13.1,10.6z"/>
		<path d="M10.3,4.2c1.6,0,3.1,0.7,4.2,1.7c1.1,1.1,1.7,2.5,1.7,4.2c0,1.6-0.7,3.1-1.7,4.2c-1.1,1.1-2.5,1.7-4.2,1.7
			s-3.1-0.7-4.2-1.7c-1.1-1.1-1.7-2.5-1.7-4.2C4.4,8.5,5.1,7,6.2,6C7.2,4.9,8.7,4.2,10.3,4.2z M14.4,6.1c-1-1-2.5-1.7-4.1-1.7
			c-1.6,0-3,0.6-4.1,1.7c-1,1-1.7,2.5-1.7,4.1c0,1.6,0.6,3,1.7,4.1s2.5,1.7,4.1,1.7c1.6,0,3-0.6,4.1-1.7c1-1,1.7-2.5,1.7-4.1
			C16.1,8.6,15.5,7.1,14.4,6.1z"/>
		<path d="M10.3,4.2c1.6,0,3.1,0.7,4.2,1.7c1.1,1.1,1.7,2.5,1.7,4.2c0,1.6-0.7,3.1-1.7,4.2c-1.1,1.1-2.5,1.7-4.2,1.7
			s-3.1-0.7-4.2-1.7c-1.1-1.1-1.7-2.5-1.7-4.2C4.4,8.5,5.1,7,6.2,6C7.2,4.9,8.7,4.2,10.3,4.2z M14.4,6.1c-1-1-2.5-1.7-4.1-1.7
			c-1.6,0-3,0.6-4.1,1.7c-1,1-1.7,2.5-1.7,4.1c0,1.6,0.6,3,1.7,4.1s2.5,1.7,4.1,1.7c1.6,0,3-0.6,4.1-1.7c1-1,1.7-2.5,1.7-4.1
			C16.1,8.6,15.5,7.1,14.4,6.1z"/>
		<path d="M8.7,5l0.9,0v1.5l0.7,0V5l0.9,0l0,1.5c0.5,0,0.7,0,1.2,0.2c0.6,0.2,1.1,0.7,1.1,1.4c0,0.7-0.2,1.1-0.8,1.5
			c0.7,0.2,1.2,0.6,1.3,1.3c0.1,0.4,0,0.9-0.1,1.3c-0.2,0.4-0.6,0.8-1,0.9c-0.5,0.2-1,0.3-1.6,0.3l0,1.2c0,0.1,0,0.2,0,0.3l-0.9,0
			v-1.5H9.6l0,1.5H8.7l0-1.5l-1.9,0l0.2-1.1l0.8,0c0.1,0,0.2-0.1,0.2-0.2V7.8c0-0.1-0.1-0.2-0.2-0.3l-0.9,0l0-0.9h1.8
			c0,0,0.1,0,0.1-0.1L8.7,5L8.7,5z M9.6,7.6v1.8l1.1,0c0.5,0,0.9-0.2,1.1-0.7c0-0.1,0-0.2,0-0.3c0-0.5-0.6-0.9-1.1-0.8L9.6,7.6
			L9.6,7.6z M9.6,10.3l0,2H11c0.7,0,1.2-0.3,1.2-1.1c0-0.6-0.5-0.9-1.1-0.9L9.6,10.3z"/>
		<path d="M8.7,5l0.9,0h0.1V5v1.4l0.5,0V5V5h0.1l0.9,0h0.1l0,0.1l0,1.5c0.1,0,0.2,0,0.2,0c0.3,0,0.5,0,0.9,0.2
			C12.7,6.8,13,7,13.2,7.3c0.2,0.2,0.3,0.5,0.3,0.9c0,0.4-0.1,0.6-0.2,0.9c-0.1,0.2-0.3,0.4-0.5,0.5c0.3,0.1,0.5,0.2,0.7,0.4
			c0.2,0.2,0.4,0.5,0.4,0.9v0c0,0.2,0,0.4,0,0.7c0,0.2-0.1,0.4-0.2,0.6l0,0c-0.1,0.2-0.2,0.4-0.4,0.6c-0.2,0.2-0.4,0.3-0.6,0.4l0,0
			c-0.3,0.1-0.5,0.2-0.8,0.2c-0.2,0-0.5,0.1-0.7,0.1v1.1c0,0,0,0.1,0,0.1c0,0,0,0.1,0,0.1l0,0.1l-0.1,0l-0.9,0h-0.1v-0.1v-1.4H9.7
			l0,1.4V15H9.6H8.7H8.6v-0.1l0-1.4H6.7H6.6l0-0.1l0.2-1.1l0-0.1h0.1l0.8,0l0,0c0,0,0,0,0,0l0,0c0,0,0.1,0,0.1,0c0,0,0-0.1,0-0.1
			c0,0,0,0,0,0v0V7.8v0c0,0,0,0,0,0c0,0,0-0.1,0-0.1c0,0-0.1,0-0.1-0.1c0,0,0,0,0,0l0,0l-0.9,0H6.6V7.5l0-0.9V6.5h0.1h1.8h0
			c0,0,0,0,0,0L8.7,5L8.7,5L8.7,5L8.7,5z M9.5,5.1H8.8v1.4c0,0,0,0,0,0c0,0,0,0.1-0.1,0.1l0,0c0,0,0,0-0.1,0l0,0c0,0,0,0-0.1,0H6.8
			l0,0.8l0.9,0l0,0c0,0,0,0,0,0c0.1,0,0.2,0,0.2,0.1C8,7.6,8,7.7,8,7.8c0,0,0,0,0,0v4.3c0,0,0,0,0,0c0,0.1,0,0.1-0.1,0.2
			c0,0-0.1,0.1-0.2,0.1l0,0c0,0,0,0,0,0l-0.7,0l-0.1,0.9l1.8,0h0.1v0.1l0,1.4h0.7v-1.4v-0.1h0.1l0.7,0h0.1v0.1v1.4l0.7,0
			c0,0,0,0,0-0.1c0,0,0-0.1,0-0.1l0,0l0-1.2v-0.1h0.1c0.3,0,0.5,0,0.8-0.1c0.3,0,0.5-0.1,0.7-0.2h0c0.2-0.1,0.4-0.2,0.6-0.4
			c0.2-0.1,0.3-0.3,0.4-0.5h0c0.1-0.2,0.1-0.4,0.1-0.6s0-0.4,0-0.6l0,0c-0.1-0.3-0.2-0.6-0.4-0.8c-0.2-0.2-0.5-0.4-0.8-0.4l-0.2,0
			l0.2-0.1C12.8,9.4,13,9.2,13.1,9c0.1-0.2,0.2-0.5,0.2-0.8c0-0.3-0.1-0.6-0.3-0.8c-0.2-0.2-0.4-0.4-0.8-0.5
			c-0.3-0.1-0.6-0.1-0.8-0.1c-0.1,0-0.2,0-0.3,0l-0.1,0V6.6l0-1.5l-0.7,0v1.4v0.1l-0.1,0l-0.7,0l-0.1,0V6.6L9.5,5.1L9.5,5.1z
			 M9.7,7.7v1.7l1.1,0c0.2,0,0.5-0.1,0.6-0.2c0.2-0.1,0.3-0.3,0.3-0.5h0c0,0,0-0.1,0-0.1c0,0,0-0.1,0-0.1c0-0.2-0.1-0.4-0.3-0.5
			c-0.2-0.2-0.5-0.2-0.7-0.2l0,0L9.7,7.7L9.7,7.7z M9.5,9.4V7.6V7.5h0.1h1.1c0.3,0,0.6,0.1,0.8,0.3c0.2,0.2,0.3,0.4,0.4,0.7
			c0,0,0,0.1,0,0.2c0,0.1,0,0.1,0,0.1l0,0c-0.1,0.3-0.2,0.4-0.4,0.6c-0.2,0.1-0.5,0.2-0.7,0.2L9.5,9.4L9.5,9.4L9.5,9.4L9.5,9.4z
			 M9.7,10.4v1.8l1.4,0c0.3,0,0.6-0.1,0.8-0.2c0.2-0.2,0.3-0.4,0.3-0.8c0-0.3-0.1-0.5-0.3-0.6c-0.2-0.2-0.4-0.2-0.8-0.2L9.7,10.4z
			 M9.5,12.3l0-2v-0.1h0.1l1.6,0h0c0.4,0,0.6,0.1,0.9,0.3c0.2,0.2,0.3,0.4,0.3,0.7c0,0.4-0.1,0.7-0.3,0.9c-0.2,0.2-0.5,0.3-0.9,0.3
			l0,0L9.5,12.3L9.5,12.3L9.5,12.3L9.5,12.3z"/>
		<path style="fill:#EC8E2C;" d="M9.3,5.4h0.9v1.5l0.7,0V5.4l0.9,0l0,1.5c0.5,0,0.7,0,1.2,0.2C13.6,7.3,14,7.7,14,8.5
			c0,0.7-0.2,1.1-0.8,1.5c0.7,0.2,1.2,0.6,1.3,1.3c0.1,0.4,0,0.9-0.1,1.3c-0.2,0.4-0.6,0.8-1,0.9c-0.5,0.2-1,0.3-1.6,0.3l0,1.2
			c0,0.1,0,0.2,0,0.3l-0.9,0v-1.5h-0.7l0,1.5H9.3l0-1.5H7.4l0.2-1.1l0.8,0c0.1,0,0.2-0.1,0.2-0.2V8.1c0-0.1-0.1-0.2-0.2-0.3l-0.9,0
			l0-0.9h1.8c0,0,0.1,0,0.1-0.1L9.3,5.4L9.3,5.4z M10.2,7.9v1.8l1.1,0c0.5,0,0.9-0.2,1.1-0.7c0-0.1,0-0.2,0-0.3
			c0-0.5-0.6-0.9-1.1-0.8L10.2,7.9L10.2,7.9z M10.2,10.7v2h1.5c0.7,0,1.2-0.3,1.2-1.1c0-0.6-0.5-0.9-1.1-0.9L10.2,10.7z"/>
		<path d="M9.3,5.3l0.9,0h0.1v0.1v1.4h0.5V5.4V5.3h0.1l0.9,0h0.1l0,0.1l0,1.5c0.1,0,0.2,0,0.2,0c0.3,0,0.5,0,0.9,0.2
			c0.3,0.1,0.6,0.3,0.8,0.6c0.2,0.2,0.3,0.5,0.3,0.9c0,0.4-0.1,0.6-0.2,0.9c-0.1,0.2-0.3,0.4-0.5,0.5c0.3,0.1,0.5,0.2,0.7,0.4
			c0.2,0.2,0.4,0.5,0.4,0.9v0c0,0.2,0,0.4,0,0.7c0,0.2-0.1,0.4-0.2,0.6l0,0c-0.1,0.2-0.2,0.4-0.4,0.6c-0.2,0.2-0.4,0.3-0.6,0.4l0,0
			c-0.3,0.1-0.5,0.2-0.8,0.2c-0.2,0-0.5,0.1-0.7,0.1V15c0,0,0,0.1,0,0.1c0,0,0,0.1,0,0.1l0,0.1h-0.1l-0.9,0h-0.1v-0.1v-1.4h-0.5
			l0,1.4v0.1h-0.1H9.3H9.2v-0.1l0-1.4H7.4H7.3l0-0.1l0.2-1.1l0-0.1h0.1l0.8,0l0,0c0,0,0,0,0,0l0,0c0,0,0.1,0,0.1,0c0,0,0-0.1,0-0.1
			c0,0,0,0,0,0v0V8.1v0c0,0,0,0,0,0c0,0,0-0.1,0-0.1c0,0-0.1,0-0.1-0.1c0,0,0,0,0,0l0,0l-0.9,0H7.3V7.8l0-0.9V6.8h0.1h1.8l0,0
			c0,0,0,0,0,0L9.3,5.3L9.3,5.3L9.3,5.3z M10.1,5.5H9.4v1.4c0,0,0,0,0,0c0,0,0,0.1-0.1,0.1l0,0c0,0,0,0-0.1,0l0,0c0,0,0,0-0.1,0
			L7.5,7l0,0.8l0.9,0l0,0c0,0,0,0,0,0c0.1,0,0.2,0,0.2,0.1C8.6,7.9,8.6,8,8.6,8.1c0,0,0,0,0,0v4.3c0,0,0,0,0,0c0,0.1,0,0.1-0.1,0.2
			c0,0-0.1,0.1-0.2,0.1l0,0c0,0,0,0,0,0l-0.7,0l-0.1,0.9l1.8,0h0.1v0.1l0,1.4h0.7v-1.4v-0.1h0.1h0.7H11v0.1v1.4l0.7,0c0,0,0,0,0-0.1
			c0,0,0-0.1,0-0.1l0,0l0-1.2v-0.1h0.1c0.3,0,0.5,0,0.8-0.1c0.3,0,0.5-0.1,0.7-0.2h0c0.2-0.1,0.4-0.2,0.6-0.4
			c0.2-0.1,0.3-0.3,0.4-0.5l0,0c0.1-0.2,0.1-0.4,0.1-0.6s0-0.4,0-0.6l0,0c-0.1-0.3-0.2-0.6-0.4-0.8c-0.2-0.2-0.5-0.4-0.8-0.4L13,10
			l0.2-0.1c0.3-0.2,0.5-0.4,0.6-0.6c0.1-0.2,0.2-0.5,0.2-0.8c0-0.3-0.1-0.6-0.3-0.8c-0.2-0.2-0.4-0.4-0.8-0.5C12.6,7,12.4,7,12.1,7
			c-0.1,0-0.2,0-0.3,0l-0.1,0V6.9l0-1.5H11v1.4V7l-0.1,0l-0.7,0h-0.1V6.9L10.1,5.5L10.1,5.5z M10.3,8v1.7l1.1,0
			c0.2,0,0.5-0.1,0.6-0.2c0.2-0.1,0.3-0.3,0.3-0.5h0c0,0,0-0.1,0-0.1c0,0,0-0.1,0-0.1c0-0.2-0.1-0.4-0.3-0.5C11.8,8.1,11.6,8,11.3,8
			h0L10.3,8z M10.1,9.8V7.9V7.8h0.1h1.1c0.3,0,0.6,0.1,0.8,0.3c0.2,0.2,0.3,0.4,0.4,0.7c0,0,0,0.1,0,0.2c0,0.1,0,0.1,0,0.1l0,0
			c-0.1,0.3-0.2,0.4-0.4,0.6c-0.2,0.1-0.5,0.2-0.7,0.2L10.1,9.8L10.1,9.8L10.1,9.8L10.1,9.8z M10.3,10.8v1.8h1.4
			c0.3,0,0.6-0.1,0.8-0.2c0.2-0.2,0.3-0.4,0.3-0.8c0-0.3-0.1-0.5-0.3-0.6c-0.2-0.2-0.4-0.2-0.8-0.2L10.3,10.8z M10.1,12.7l0-2v-0.1
			h0.1l1.6,0h0c0.4,0,0.6,0.1,0.9,0.3c0.2,0.2,0.3,0.4,0.3,0.7c0,0.4-0.1,0.7-0.3,0.9c-0.2,0.2-0.5,0.3-0.9,0.3l0,0L10.1,12.7
			L10.1,12.7L10.1,12.7L10.1,12.7z"/>
	</g>
</g>
</svg>
