<?xml version="1.0" encoding="utf-8"?>
<!-- Generator: Adobe Illustrator 22.1.0, SVG Export Plug-In . SVG Version: 6.00 Build 0)  -->
<svg version="1.1" id="Слой_1" xmlns="http://www.w3.org/2000/svg" xmlns:xlink="http://www.w3.org/1999/xlink" x="0px" y="0px"
	 width="20px" height="18.7px" viewBox="0 0 20 18.7" style="enable-background:new 0 0 20 18.7;" xml:space="preserve">
<g>
	<g>
		<polygon style="fill:#2B2829;" points="10,3 8,2.5 6.5,2.5 5.2,2.7 3.3,2.8 0,0 1,2.6 2.8,4.1 4.8,5.3 3.9,5.5 3.5,5.8 2.5,6.6 
			2.8,7.1 5,8.1 5.9,7.6 5.8,11.3 5.3,13.5 10,18.7 		"/>
		<polygon style="fill:#2A2C2B;" points="8.3,3.3 10,3 10,3.2 		"/>
		<polygon style="fill:#464646;" points="6.5,2.5 8,3.3 8.3,3.3 10,3 8,2.5 		"/>
		<polygon style="fill:#474548;" points="6.5,3.7 6.5,2.5 8,3.3 		"/>
		<polygon style="fill:#484A4D;" points="5.2,2.7 6.5,3.7 6.5,2.5 		"/>
		<polygon style="fill:#504E4F;" points="5.2,3.7 6.5,3.7 5.2,2.7 		"/>
		<polygon style="fill:#565454;" points="3.3,2.8 5.2,3.7 5.2,2.7 		"/>
		<polygon style="fill:#BBB9BA;" points="0,0 2,2.3 3.3,2.8 		"/>
		<polygon style="fill:#2E2829;" points="1,2.6 2.8,4.1 2,2.3 0,0 		"/>
		<polygon style="fill:#494B4B;" points="5.2,3.7 2.8,4.1 2,2.3 3.3,2.8 		"/>
		<polygon style="fill:#2B2C31;" points="4.8,5.3 5.2,3.7 2.8,4.1 		"/>
		<polygon style="fill:#2D2D30;" points="6.5,3.7 6.7,5.1 5.2,3.7 		"/>
		<polygon style="fill:#313131;" points="4.8,5.3 6.7,5.1 5.2,3.7 		"/>
		<path style="fill:#3D363A;" d="M3.4,5.9c0,0,0.4,0.4,0.4,0.4l-1,0.9L2.5,6.6L3.4,5.9z"/>
		<path style="fill:#262A2F;" d="M6.7,7.1v-2L6.5,3.7l1.9,2.1L7.1,6l0,1.4h0.1c0,0,0.6,2.4,0.6,2.4C7.7,9.8,6.7,7.1,6.7,7.1z"/>
		<polygon style="fill:#191C1F;" points="5.9,7.6 6.7,7.1 6.7,5.6 5,8.1 		"/>
		<polygon style="fill:#94969A;" points="2.8,7.1 4.6,6.4 5,8.1 		"/>
		<polygon style="fill:#262828;" points="6.7,5.4 4.6,6.4 5,8.1 6.7,5.6 		"/>
		<polygon style="fill:#121212;" points="3.8,6.2 6.7,5.3 6.7,5.4 4.6,6.4 2.8,7.1 		"/>
		<polygon style="fill:#292A2C;" points="3.4,5.9 3.9,5.5 4.8,5.3 6.7,5.1 6.7,5.3 3.8,6.2 		"/>
		<polygon style="fill:#201A1B;" points="7.1,6 7.1,7.4 7.2,7.4 7.9,7.4 		"/>
		<polygon style="fill:#262B31;" points="7.7,9.8 8.9,9.1 7.9,7.4 7.2,7.4 		"/>
		<polygon style="fill:#545252;" points="8,3.3 10,5.1 10,3.2 8.3,3.3 		"/>
		<path style="fill:#4F4E4F;" d="M7.8,5.2l0.2-2L6.5,3.7L7.8,5.2z"/>
		<polygon style="fill:#504F50;" points="8.4,5.9 10,5.1 7.8,5.2 		"/>
		<polygon style="fill:#64605F;" points="8,3.3 10,5.1 7.8,5.2 		"/>
		<polygon style="fill:#706F6F;" points="8.4,5.9 10,9.1 10,5.1 		"/>
		<polygon style="fill:#3A3C40;" points="8.9,9.1 10,9.1 8.4,5.9 7.1,6 		"/>
		<polygon style="fill:#37383D;" points="7.7,9.8 8.3,10.3 8.9,9.1 		"/>
		<polygon style="fill:#45464C;" points="6.4,7.3 7.6,11.3 7.7,9.8 6.7,7.1 		"/>
		<polygon style="fill:#404144;" points="8.3,10.3 7.6,11.3 7.7,9.8 		"/>
		<polygon style="fill:#232322;" points="6.5,7.5 6.5,10.1 7.4,13.3 10,16.2 10,13.4 8.4,12.8 7.6,11.3 		"/>
		<polygon style="fill:#49494B;" points="10,12.8 8.4,12.8 10,13.4 		"/>
		<polygon style="fill:#575B5A;" points="7.6,11.3 8.4,12.4 10,12.7 10,12.8 8.4,12.8 		"/>
		<polygon style="fill:#4C4A4F;" points="8.3,10.4 8.2,11.3 8.4,12.4 7.6,11.3 		"/>
		<polygon style="fill:#4A4C4D;" points="10,9.1 8.3,10.4 10,10.2 		"/>
		<path style="fill:#464649;" d="M8.2,11.3c0,0,1.8-1,1.8-1l-1.7,0.1L8.2,11.3z"/>
		<polygon style="fill:#939598;" points="10,11.6 8.2,11.3 10,10.2 		"/>
		<polygon style="fill:#211B1C;" points="8.4,12.4 8.9,11.9 8.2,11.3 		"/>
		<polygon style="fill:#39393C;" points="10,12.7 10,11.6 8.9,11.9 8.4,12.4 		"/>
		<polygon style="fill:#48484B;" points="8.2,11.3 10,11.6 8.9,11.9 		"/>
		<polygon style="fill:#3F3F44;" points="8.4,5.9 8.9,9.1 10,9.1 		"/>
	</g>
	<polygon style="fill:#444447;" points="8.9,9.1 10,9.1 8.3,10.4 	"/>
	<g>
		<polygon style="fill:#403F43;" points="10,3 12,2.5 13.5,2.5 14.8,2.7 16.8,2.8 20,0 19,2.6 17.2,4.1 15.2,5.3 16.1,5.5 16.5,5.8 
			17.5,6.6 17.2,7.1 15,8.1 14.1,7.6 14.2,11.3 14.7,13.5 10,18.7 		"/>
		<polygon style="fill:#2A2C2B;" points="11.7,3.3 10,3 10,3.2 		"/>
		<polygon style="fill:#464646;" points="13.5,2.5 12,3.3 11.7,3.3 10,3 12,2.5 		"/>
		<polygon style="fill:#474548;" points="13.5,3.7 13.5,2.5 12,3.3 		"/>
		<polygon style="fill:#484A4D;" points="14.8,2.7 13.5,3.7 13.5,2.5 		"/>
		<polygon style="fill:#504E4F;" points="14.8,3.7 13.5,3.7 14.8,2.7 		"/>
		<polygon style="fill:#565454;" points="16.8,2.8 14.8,3.7 14.8,2.7 		"/>
		<polygon style="fill:#BBB9BA;" points="20,0 18,2.3 16.8,2.8 		"/>
		<polygon style="fill:#2E2829;" points="19,2.6 17.2,4.1 18,2.3 20,0 		"/>
		<polygon style="fill:#494B4B;" points="14.8,3.7 17.2,4.1 18,2.3 16.8,2.8 		"/>
		<polygon style="fill:#2B2C31;" points="15.2,5.3 14.8,3.7 17.2,4.1 		"/>
		<polygon style="fill:#2D2D30;" points="13.5,3.7 13.3,5.1 14.8,3.7 		"/>
		<polygon style="fill:#313131;" points="15.2,5.3 13.3,5.1 14.8,3.7 		"/>
		<path style="fill:#3D363A;" d="M16.6,5.9c0,0-0.4,0.4-0.4,0.4l1,0.9l0.3-0.5L16.6,5.9z"/>
		<path style="fill:#262A2F;" d="M13.3,7.1v-2l0.2-1.3l-1.9,2.1L12.9,6l0,1.4h-0.1c0,0-0.6,2.4-0.6,2.4C12.3,9.8,13.3,7.1,13.3,7.1z
			"/>
		<polygon style="fill:#191C1F;" points="14.1,7.6 13.3,7.1 13.3,5.6 15,8.1 		"/>
		<polygon style="fill:#94969A;" points="17.2,7.1 15.4,6.4 15,8.1 		"/>
		<polygon style="fill:#262828;" points="13.3,5.4 15.4,6.4 15,8.1 13.3,5.6 		"/>
		<polygon style="fill:#121212;" points="16.2,6.2 13.3,5.3 13.3,5.4 15.4,6.4 17.2,7.1 		"/>
		<polygon style="fill:#292A2C;" points="16.6,5.9 16.1,5.5 15.2,5.3 13.3,5.1 13.3,5.3 16.2,6.2 		"/>
		<polygon style="fill:#201A1B;" points="12.9,6 12.9,7.4 12.8,7.4 12.1,7.4 		"/>
		<polygon style="fill:#303339;" points="12.3,9.8 11.1,9.1 12.1,7.4 12.8,7.4 		"/>
		<polygon style="fill:#545252;" points="12,3.3 10,5.1 10,3.2 11.7,3.3 		"/>
		<path style="fill:#504F51;" d="M12.2,5.2l-0.2-2l1.5,0.5L12.2,5.2z"/>
		<polygon style="fill:#514F51;" points="11.6,5.9 10,5.1 12.2,5.2 		"/>
		<polygon style="fill:#64605F;" points="12,3.3 10,5.1 12.2,5.2 		"/>
		<polygon style="fill:#6C696B;" points="11.6,5.9 10,9.1 10,5.1 		"/>
		<polygon style="fill:#3E4044;" points="11.1,9.1 10,9.1 11.6,5.9 12.9,6 		"/>
		<polygon style="fill:#3C3E41;" points="12.3,9.8 11.7,10.3 11.1,9.1 		"/>
		<polygon style="fill:#45464C;" points="13.6,7.3 12.4,11.3 12.3,9.8 13.3,7.1 		"/>
		<polygon style="fill:#404144;" points="11.7,10.3 12.4,11.3 12.3,9.8 		"/>
		<polygon style="fill:#2C2C2C;" points="13.5,7.5 13.5,10.1 12.6,13.3 10,16.2 10,13.4 11.6,12.8 12.4,11.3 		"/>
		<polygon style="fill:#49494B;" points="10,12.8 11.6,12.8 10,13.4 		"/>
		<polygon style="fill:#575B5A;" points="12.4,11.3 11.6,12.4 10,12.7 10,12.8 11.6,12.8 		"/>
		<polygon style="fill:#4C4A4F;" points="11.7,10.4 11.8,11.3 11.6,12.4 12.4,11.3 		"/>
		<polygon style="fill:#4D4D4F;" points="10,9.1 11.7,10.4 10,10.2 		"/>
		<path style="fill:#49494C;" d="M11.8,11.3c0,0-1.8-1-1.8-1l1.7,0.1L11.8,11.3z"/>
		<polygon style="fill:#878587;" points="10,11.6 11.8,11.3 10,10.2 		"/>
		<polygon style="fill:#3B393C;" points="11.6,12.4 11.1,11.9 11.8,11.3 		"/>
		<polygon style="fill:#3E3E40;" points="10,12.7 10,11.6 11.1,11.9 11.6,12.4 		"/>
		<polygon style="fill:#4C4B4E;" points="11.8,11.3 10,11.6 11.1,11.9 		"/>
		<polygon style="fill:#444248;" points="11.6,5.9 11.1,9.1 10,9.1 		"/>
		<polygon style="fill:#47474A;" points="11.7,10.3 11.1,9.1 10,9.1 		"/>
	</g>
</g>
</svg>
