<?xml version="1.0" encoding="utf-8"?>
<!-- Generator: Adobe Illustrator 22.1.0, SVG Export Plug-In . SVG Version: 6.00 Build 0)  -->
<svg version="1.1" id="Слой_1" xmlns="http://www.w3.org/2000/svg" xmlns:xlink="http://www.w3.org/1999/xlink" x="0px" y="0px"
	 width="9.6px" height="20px" viewBox="0 0 9.6 20" style="enable-background:new 0 0 9.6 20;" xml:space="preserve">
<path style="fill:#518DC9;" d="M3.7,0c0.7,0,1.4,0,2.1,0c0,0.2,0,0.4,0,0.6c0,6.4,0,12.9,0,19.4c-0.7,0-1.4,0-2.1,0
	c0-6.3,0-12.6,0-18.9C3.7,0.7,3.7,0.4,3.7,0z M0,4c0.7,0,1.4,0,2.1,0c0,0.2,0,0.4,0,0.7c0,3.8,0,7.6,0,11.4c-0.7,0-1.4,0-2.1,0
	C0,12,0,8,0,4L0,4L0,4z M7.4,4c0.7,0,1.4,0,2.1,0c0,4,0,8,0,12.1c0,0-0.1,0-0.2,0c-0.7,0-1.3,0-2,0c0-3.8,0-7.5,0-11.3
	C7.4,4.5,7.4,4.2,7.4,4z"/>
</svg>
