<?xml version="1.0" encoding="utf-8"?>
<!-- Generator: Adobe Illustrator 22.1.0, SVG Export Plug-In . SVG Version: 6.00 Build 0)  -->
<svg version="1.1" id="Слой_1" xmlns="http://www.w3.org/2000/svg" xmlns:xlink="http://www.w3.org/1999/xlink" x="0px" y="0px"
	 width="20px" height="20px" viewBox="0 0 20 20" style="enable-background:new 0 0 20 20;" xml:space="preserve">
<g id="_2228600592320">
	<path style="fill:#839FC2;" d="M10,0c0.4,0,0.7,0,1.1,0.1c0.6,0.1,1,0.5,1.6,0.7c0.5,0.2,1.1,0,1.6,0.2C17.6,2.5,20,6,20,10
		s-2.4,7.5-5.8,9.1c-0.5,0.2-1-0.2-1.5,0c-0.7,0.2-1.3,0.9-1.9,0.9c-0.3,0-0.5,0-0.8,0c-3.1,0-5.9-1.4-7.7-3.6c0-0.5,0.2-1.1,0-1.5
		c-0.3-0.5-1-0.6-1.5-1C0.3,12.7,0,11.4,0,10C0,4.5,4.5,0,10,0z"/>
	<path style="fill:#FFFFFF;" d="M14.2,0.9v12h1.3c1,0,1.7,0.8,1.7,1.7l0,0c0,1-0.8,1.7-1.7,1.7h-1.3v2.7c-1.1,0.5-2.2,0.8-3.5,0.9
		v-3.6H2.3c0,0,0,0,0,0c-0.6-0.8-1.1-1.6-1.5-2.5c0-0.1,0.1-0.1,0.1-0.2l0,0l0-0.1c0,0,0-0.1,0.1-0.1L11.1,0.1
		C12.2,0.2,13.3,0.5,14.2,0.9z M4.9,12.9h5.9V5L4.9,12.9z"/>
</g>
</svg>
