<?xml version="1.0" encoding="utf-8"?>
<!-- Generator: Adobe Illustrator 22.1.0, SVG Export Plug-In . SVG Version: 6.00 Build 0)  -->
<svg version="1.1" id="Слой_1" xmlns="http://www.w3.org/2000/svg" xmlns:xlink="http://www.w3.org/1999/xlink" x="0px" y="0px"
	 width="13px" height="20px" viewBox="0 0 13 20" style="enable-background:new 0 0 13 20;" xml:space="preserve">
<g>
	<path style="fill:#1C2143;" d="M6,0c0.3,0.1,0.9,0.9,1.1,1.1c1.7,2.6,2.1,5.3,0.3,7.9c-1,1.5-2.4,2.9-3.1,4.6
		C3.6,15.3,4,17,4.8,18.5c0.2,0.4,0.4,0.7,0.6,1.1c0,0.1,0.1,0.2,0,0.3C5.3,20,5.2,20,5,20c-3-0.6-5.2-3.9-5-6.9
		c0.1-1.3,0.5-2.5,1.3-3.6c0.9-1.3,2.2-2.3,3.1-3.6c0.8-1.2,1.3-2.6,1.5-4C6,1.3,6,0.6,6,0z"/>
	<path style="fill:#2EA7E0;" d="M10.4,8C10.4,8,10.4,8,10.4,8C10.4,8,10.4,8,10.4,8c0.1,0,0.2,0.1,0.3,0.2c2,1.8,2.9,4.5,2.1,7.1
		c-0.3,0.9-0.8,1.8-1.5,2.5c-0.6,0.6-1,0.9-1.7,1.3c-0.3,0.2-0.6,0.3-0.7,0.5c-0.1,0.1-0.2,0.3-0.3,0.4c-0.4-0.1-1.3-1.5-1.4-1.9
		c-0.7-1.5-0.4-3.1,0.3-4.5C8,12.2,9,11.1,9.7,9.7C10,9.2,10.3,8.6,10.4,8z"/>
</g>
</svg>
