<?xml version="1.0" encoding="utf-8"?>
<!-- Generator: Adobe Illustrator 22.1.0, SVG Export Plug-In . SVG Version: 6.00 Build 0)  -->
<svg version="1.1" id="Слой_1" xmlns="http://www.w3.org/2000/svg" xmlns:xlink="http://www.w3.org/1999/xlink" x="0px" y="0px"
	 width="20px" height="9.4px" viewBox="0 0 20 9.4" style="enable-background:new 0 0 20 9.4;" xml:space="preserve">
<g>
	<path style="fill:#233D4F;" d="M0,0.7h3.7c0.4,0,1.1,0.1,1.5,0.2c0.9,0.3,1.4,1,1.4,2.1c0,0.8-0.5,1.5-1.3,1.8v0
		C6.2,5,6.8,5.7,6.8,6.6c0,1.2-0.7,2.1-1.7,2.4C4.9,9.2,4.3,9.2,4,9.2H0V0.7z M3.8,4.3c0.2,0,0.6,0,0.8-0.1C5,4,5.4,3.6,5.4,3
		c0-0.5-0.2-0.8-0.7-1C4.5,1.9,4,1.8,3.7,1.8H1.2v2.5H3.8L3.8,4.3z M4,8.1c0.2,0,0.6,0,0.8-0.1c0.5-0.2,0.9-0.7,0.9-1.3
		c0-0.6-0.3-0.9-0.7-1.1C4.7,5.4,4.2,5.4,4,5.4H1.2v2.7L4,8.1L4,8.1z"/>
	<path style="fill:#233D4F;" d="M7.8,0.7C7.8,0.3,8.1,0,8.5,0c0.4,0,0.7,0.3,0.7,0.7c0,0.4-0.3,0.7-0.7,0.7C8.1,1.4,7.8,1.1,7.8,0.7
		z M7.9,2.5h1.2v6.7H7.9V2.5z"/>
	<path style="fill:#233D4F;" d="M10.6,8.1c-0.1-0.3-0.1-0.9-0.1-1.3V3.6H9.8v-1h0.8l0.2-1.9h0.9v1.9h1.9v1h-1.9v3.2c0,0.3,0,0.7,0,1
		c0.1,0.4,0.3,0.5,0.8,0.5c0.2,0,0.9-0.1,1.1-0.1v1c-0.2,0-1,0.1-1.3,0.1C11.4,9.3,10.8,8.9,10.6,8.1z"/>
	<path style="fill:#233D4F;" d="M13.8,5.9L13.8,5.9c0-1.8,1.3-3.5,3.1-3.5c2,0,3.1,1.6,3.1,3.5v0.3h-5.1c0.1,1.2,0.8,2.1,2,2.1
		c0.7,0,1.5-0.3,2.3-0.9l0.6,0.9c-0.8,0.7-1.7,1.1-2.9,1.1C14.9,9.4,13.8,7.8,13.8,5.9z M18.8,5.2c-0.1-1-0.7-1.8-1.9-1.8
		c-1.1,0-1.8,0.9-2,1.8H18.8z"/>
</g>
</svg>
