<?xml version="1.0" encoding="utf-8"?>
<svg version="1.1" xmlns="http://www.w3.org/2000/svg" x="0px" y="0px"
	 viewBox="0 0 1000 332.3" style="enable-background:new 0 0 1000 332.3;" xml:space="preserve">
<style type="text/css">
	.st1{fill:#fff;stroke:#fff;stroke-width:4;stroke-miterlimit:10;}
</style>
<g>
	<path fill="#fff" d="M321.9,239l-209.2,91.7c-7.6,3.3-16.4-0.1-19.8-7.7L1.3,113.7c-3.3-7.6,0.1-16.4,7.7-19.8L218.2,2.3
		c7.6-3.3,16.4,0.1,19.8,7.7l91.7,209.2C332.9,226.8,329.5,235.6,321.9,239zM167,213.3c-24.4,0-44.2-19.8-44.2-44.2v-14.8c0-24.4,19.8-44.2,44.2-44.2l65.2,0c7.5,0,13.6-6.1,13.6-13.6
		V84.7c0-7.5-6.1-13.6-13.6-13.6h-71.9c-41.5,0-75.2,33.7-75.2,75.2V177c0,41.5,33.7,75.2,75.2,75.2h71.9c7.5,0,13.6-6.1,13.6-13.6
		v-11.8c0-7.5-6.1-13.6-13.6-13.6L167,213.3z"/>
	<g>
		<path class="st1" d="M415,238.3c-48.4,0-70.9-38.7-70.9-76.3c0-45.2,26.1-76.3,70.9-76.3s70.9,31.2,70.9,76.3
			C485.8,199.7,463.4,238.3,415,238.3z M415,102.7c-32.6,0-51.4,24.7-51.4,59.3c0,35.4,16.8,59.3,51.4,59.3
			c34.6,0,51.4-23.9,51.4-59.3C466.4,127.4,447.6,102.7,415,102.7z"/>
		<path class="st1" d="M521.3,89.3h19.4v145.4h-19.4V89.3z"/>
		<path class="st1" d="M583.3,88.8h22.5l73.9,117.7h0.4V89.3h19.4v145.4H677l-73.9-118.3h-0.4v118.3h-19.4V89.3z"/>
		<path class="st1" d="M853.8,89.3v94.2c0,29.8-18.6,54.9-58.5,54.9c-38.9,0-55.7-25.1-55.7-52.2V89.3H759V181
			c0,31.6,19.2,40.3,36.9,40.3c18.2,0,38.5-8.3,38.5-39.9V89.3H853.8z"/>
		<path class="st1" d="M881.8,88.8H1000v17h-49.4v128.4h-19.4V106.3h-49.4V89.3z"/>
	</g>
</g>
</svg>
