<?xml version="1.0" encoding="utf-8"?>
<!-- Generator: Adobe Illustrator 22.1.0, SVG Export Plug-In . SVG Version: 6.00 Build 0)  -->
<svg version="1.1" id="Layer_1" xmlns="http://www.w3.org/2000/svg" xmlns:xlink="http://www.w3.org/1999/xlink" x="0px" y="0px"
	 width="20px" height="5.1px" viewBox="0 0 20 5.1" style="enable-background:new 0 0 20 5.1;" xml:space="preserve">
<g id="Page-1">
	<g id="Artboard" transform="translate(-34.000000, -33.000000)">
		<g id="Group" transform="translate(34.000000, 32.000000)">
			<path id="Fill-1" style="fill:#3A20D8;" d="M2.9,4.8H1.3V2.3h1.6l0,0c0.7,0,1.3,0.6,1.3,1.3C4.1,4.3,3.6,4.8,2.9,4.8 M2.9,1
				L2.9,1H0v5.1h2.9c1.4,0,2.6-1.1,2.5-2.6C5.4,2.1,4.3,1,2.9,1"/>
			<path id="Fill-4" style="fill:#3A20D8;" d="M11.1,3H8.8l0,0H8.6C8.4,3,8.3,2.9,8.3,2.7c0-0.2,0.1-0.4,0.3-0.4h2.5L12.4,1h-4
				C7.5,1,6.8,1.7,6.8,2.6c0,0,0,0,0,0.1c0,0.8,0.7,1.4,1.5,1.4h2.4l0,0h0.1c0.2,0,0.3,0.1,0.4,0.3c0,0.2-0.1,0.4-0.3,0.4H8L6.9,6.1
				h4c0.9,0,1.7-0.7,1.7-1.6c0,0,0,0,0,0C12.6,3.6,11.9,3,11.1,3"/>
			<polygon id="Fill-6" style="fill:#3A20D8;" points="20,6.1 17.6,3.5 19.9,1 18.2,1 16.9,2.4 15.7,1 14,1 16.2,3.5 13.9,6.1 
				15.7,6.1 16.9,4.7 18.2,6.1 			"/>
		</g>
	</g>
</g>
</svg>
