<svg xmlns="http://www.w3.org/2000/svg" width="25" height="18" viewBox="0 0 25 18">
  <defs>
    <style>
      .cls-1 {
        fill-rule: evenodd;
      }
    </style>
  </defs>
  <path class="cls-1" d="M1702.83,150.217h-19.88l5.46,5.7a1.243,1.243,0,0,1,0,1.719,1.128,1.128,0,0,1-.82.356,1.111,1.111,0,0,1-.82-0.356l-7.45-7.779a1.262,1.262,0,0,1,0-1.718l7.45-7.779a1.122,1.122,0,0,1,1.64,0,1.242,1.242,0,0,1,0,1.718l-5.46,5.705h19.88A1.216,1.216,0,0,1,1702.83,150.217Z" transform="translate(-1679 -140)"/>
</svg>
