<svg xmlns="http://www.w3.org/2000/svg" width="24.969" height="24.97" viewBox="0 0 24.969 24.97">
  <defs>
    <style>
      .cls-1 {
        fill: #737779;
        fill-rule: evenodd;
      }
    </style>
  </defs>
  <path class="cls-1" d="M43.322,1348.97h0a12.435,12.435,0,0,0-3.2-2.33,7.647,7.647,0,1,0-11.267,0,12.223,12.223,0,0,0-3.2,2.33A12.383,12.383,0,0,0,22,1357.8v1.01h3.816v-1.01a8.672,8.672,0,1,1,17.344,0v1.01H46.98v-1.01A12.384,12.384,0,0,0,43.322,1348.97Zm-8.831-3.66a3.83,3.83,0,1,1,3.83-3.83A3.836,3.836,0,0,1,34.491,1345.31Z" transform="translate(-22 -1333.84)"/>
</svg>
