<svg class="sprite-icon mode" version="1.1" id="Layer_1" xmlns="http://www.w3.org/2000/svg" xmlns:xlink="http://www.w3.org/1999/xlink" x="0px" y="0px" viewBox="0 0 21.8 23.7" style="enable-background:new 0 0 21.8 23.7;" xml:space="preserve">
    <style type="text/css">
        .st0{fill:#FFFFFF;}
        .st1{fill:#3AB44A;}
        .st2{fill:#EB2429;}
        .st3{fill:#F4EB32;}
        .st4{fill:#26A8E0;}
    </style>
    <g>
        <g>
            <rect id="XMLID_9_" x="2.6" y="22.3" class="st0" width="16.7" height="1.4"/>
        </g>
        <g>
            <rect x="1.7" y="16.1" class="st1" width="18.2" height="2.9"/>
            <rect x="1.7" y="11.3" class="st2" width="15" height="2.9"/>
            <rect x="1.7" y="6.6" class="st3" width="17" height="2.9"/>
            <polygon class="st4" points="1.7,1.8 1.7,4.7 20.1,4.7 20.1,1.7 		"/>
            <path class="st0" d="M21,0H8.8h-8C0.4,0,0,0.4,0,0.9v5.2v13.8c0,0.5,0.4,0.9,0.9,0.9H21c0.5,0,0.9-0.4,0.9-0.9V0.9
                C21.8,0.4,21.4,0,21,0z M1.7,6.5h17v2.9h-17V6.5z M1.7,11.3h15v2.9H1.7L1.7,11.3 M1.7,16.1h18.2V19H1.7L1.7,16.1 M20.1,4.7
                L20.1,4.7H8.8H1.7V1.8h7.1l11.3,0"/>
        </g>
    </g>
</svg>