<?xml version="1.0" encoding="utf-8"?>
<!-- Generator: Adobe Illustrator 22.1.0, SVG Export Plug-In . SVG Version: 6.00 Build 0)  -->
<svg version="1.1" id="Layer_1" xmlns="http://www.w3.org/2000/svg" xmlns:xlink="http://www.w3.org/1999/xlink" x="0px" y="0px"
	 width="33px" height="29px" viewBox="0 0 33 29" style="enable-background:new 0 0 33 29;" xml:space="preserve">
<g>
	<path d="M31.1,9.2l-0.3-0.1V3.4c0-1.9-1.5-3.4-3.4-3.4H3.4C1.5,0,0,1.5,0,3.4v22.2C0,27.5,1.5,29,3.4,29h23.9
		c1.9,0,3.4-1.5,3.4-3.4v-5.7l0.3-0.1c1.2-0.4,1.9-1.5,1.9-2.8v-5C33,10.8,32.2,9.7,31.1,9.2z M29.7,25.6c0,1.3-1.1,2.4-2.4,2.4H3.4
		C2.1,28,1,26.9,1,25.6V3.4C1,2.1,2.1,1,3.4,1h23.9c1.3,0,2.4,1.1,2.4,2.4v5.6h-5.3c-3,0-5.4,2.4-5.4,5.4c0,3,2.4,5.4,5.4,5.4h5.3
		V25.6z M31.9,17c0,1-0.8,1.9-1.9,1.9h-5.7c-2.4,0-4.4-2-4.4-4.4c0-2.4,2-4.4,4.4-4.4h5.7c1,0,1.9,0.9,1.9,1.9V17z"/>
	<path d="M24.5,11.9c-1.4,0-2.6,1.2-2.6,2.6s1.1,2.6,2.6,2.6c1.4,0,2.6-1.2,2.6-2.6S25.9,11.9,24.5,11.9z M24.5,16
		c-0.8,0-1.5-0.7-1.5-1.5c0-0.8,0.7-1.5,1.5-1.5c0.8,0,1.5,0.7,1.5,1.5C26,15.3,25.4,16,24.5,16z"/>
</g>
</svg>
