<svg id="Layer_3" data-name="Layer 3" fill="white" xmlns="http://www.w3.org/2000/svg" viewBox="0 0 17.49 21" width="17.49" height="21"><title>Withdraw</title><path d="M17.11,5.67H11.94a0.48,0.48,0,0,0,0,1h5.17a0.14,0.14,0,0,1,.16.13V20.45a0.38,0.38,0,0,1-.26.08H2a0.23,0.23,0,0,1-.22-0.16l0-13.6a0.19,0.19,0,0,1,.2-0.13H7.1a0.48,0.48,0,0,0,0-1H1.93A1.14,1.14,0,0,0,.76,6.77l0,13.6A1.19,1.19,0,0,0,2,21.5H17a1.13,1.13,0,0,0,1.23-1V6.77A1.1,1.1,0,0,0,17.11,5.67Z" transform="translate(-0.76 -0.5)"/><path d="M6.38,4.55A0.48,0.48,0,0,0,6.72,4.4L9,2.11V12a0.48,0.48,0,0,0,1,0V2.11L12.28,4.4A0.48,0.48,0,0,0,13,3.72L9.89,0.64A0.47,0.47,0,0,0,9.6.51H9.4a0.47,0.47,0,0,0-.28.13L6,3.72A0.48,0.48,0,0,0,6.38,4.55Z" transform="translate(-0.76 -0.5)"/></svg>