<svg xmlns="http://www.w3.org/2000/svg" xmlns:xlink="http://www.w3.org/1999/xlink" viewBox="0 0 15.52 15.52">
    <defs>
        <style>.cls-1{fill:none;}.cls-3{fill:#61a8de;}.cls-4{fill:#fff;}</style>
        <clipPath id="clip-path">
            <path class="cls-1"
                  d="M14.85,8.18a7.51,7.51,0,0,1-.13,1.34,6.63,6.63,0,0,1-.4,1.29A6.44,6.44,0,0,1,13.69,12a6.68,6.68,0,0,1-.86,1.05,7,7,0,0,1-1,.85,7.2,7.2,0,0,1-1.19.64,7.37,7.37,0,0,1-1.29.39A6.86,6.86,0,0,1,8,15.06a6.69,6.69,0,0,1-1.34-.13,6.88,6.88,0,0,1-1.29-.39,6.48,6.48,0,0,1-1.19-.64,6.62,6.62,0,0,1-1-.85A7.29,7.29,0,0,1,2.23,12a6.44,6.44,0,0,1-.63-1.19,6,6,0,0,1-.39-1.29,6.53,6.53,0,0,1,0-2.69A6,6,0,0,1,1.6,5.54a6.44,6.44,0,0,1,.63-1.19,7.29,7.29,0,0,1,.86-1,7.22,7.22,0,0,1,1-.85,6.48,6.48,0,0,1,1.19-.64,6.88,6.88,0,0,1,1.29-.39A6.69,6.69,0,0,1,8,1.29a6.86,6.86,0,0,1,1.35.13,7.37,7.37,0,0,1,1.29.39,7.2,7.2,0,0,1,1.19.64,7.71,7.71,0,0,1,1,.85,6.68,6.68,0,0,1,.86,1,6.44,6.44,0,0,1,.63,1.19,6.63,6.63,0,0,1,.4,1.29A7.53,7.53,0,0,1,14.85,8.18Z"/>
        </clipPath>
    </defs>
    <title>icon-tg</title>
    <g id="Layer_2" data-name="Layer 2">
        <g id="Layer_1-2" data-name="Layer 1">
            <g class="cls-2">
                <rect class="cls-3" width="15.52" height="15.52"/>
                <path class="cls-4"
                      d="M11.68,4,2.56,7.51a.33.33,0,0,0,0,.62l2.32.69.86,2.74a.4.4,0,0,0,.66.16l1.2-1.22L10,12.22a.49.49,0,0,0,.77-.29l1.56-7.44A.48.48,0,0,0,11.68,4ZM10.53,5.6,6.3,9.35a.21.21,0,0,0-.07.14l-.17,1.45A0,0,0,0,1,6,11L5.31,8.79a.23.23,0,0,1,.09-.26l5-3.1a.11.11,0,0,1,.13.17Z"/>
            </g>
        </g>
    </g>
</svg>