<svg xmlns="http://www.w3.org/2000/svg" xmlns:xlink="http://www.w3.org/1999/xlink" viewBox="0 0 15.52 15.52">
    <defs>
        <style>.cls-1{fill:none;}.cls-3{fill:#50abf1;}.cls-4{fill:#fff;}</style>
        <clipPath id="clip-path">
            <path class="cls-1"
                  d="M14.63,8.18a7.51,7.51,0,0,1-.13,1.34,6.63,6.63,0,0,1-.4,1.29A6.44,6.44,0,0,1,13.47,12a6.68,6.68,0,0,1-.86,1.05,7,7,0,0,1-1,.85,7.2,7.2,0,0,1-1.19.64,7.37,7.37,0,0,1-1.29.39,6.86,6.86,0,0,1-1.35.13,6.69,6.69,0,0,1-1.34-.13,6.88,6.88,0,0,1-1.29-.39,6.48,6.48,0,0,1-1.19-.64,6.62,6.62,0,0,1-1-.85A7.29,7.29,0,0,1,2,12a6.44,6.44,0,0,1-.63-1.19A6,6,0,0,1,1,9.52,6.53,6.53,0,0,1,1,6.83a6,6,0,0,1,.39-1.29A6.44,6.44,0,0,1,2,4.35a7.29,7.29,0,0,1,.86-1,7.22,7.22,0,0,1,1-.85,6.48,6.48,0,0,1,1.19-.64A6.88,6.88,0,0,1,6.4,1.42a6.69,6.69,0,0,1,1.34-.13,6.86,6.86,0,0,1,1.35.13,7.37,7.37,0,0,1,1.29.39,7.2,7.2,0,0,1,1.19.64,7.71,7.71,0,0,1,1,.85,6.68,6.68,0,0,1,.86,1,6.44,6.44,0,0,1,.63,1.19,6.63,6.63,0,0,1,.4,1.29A7.53,7.53,0,0,1,14.63,8.18Z"/>
        </clipPath>
    </defs>
    <title>icon-tw</title>
    <g id="Layer_2" data-name="Layer 2">
        <g id="Layer_1-2" data-name="Layer 1">
            <g class="cls-2">
                <rect class="cls-3" width="15.52" height="15.52"/>
                <path class="cls-4"
                      d="M2.75,11.05a5.86,5.86,0,0,0,9-5V5.85a4.65,4.65,0,0,0,1-1,4.46,4.46,0,0,1-1.17.3h0A2.12,2.12,0,0,0,12.5,4a8,8,0,0,1-1,.42l-.3.09a2.06,2.06,0,0,0-3.56,1.4,2.34,2.34,0,0,0,.05.47A6.23,6.23,0,0,1,3.46,4.21a2,2,0,0,0,.59,2.72,2.09,2.09,0,0,1-.89-.27A2,2,0,0,0,4.79,8.71a1.94,1.94,0,0,1-.91,0,2,2,0,0,0,1.89,1.43,4,4,0,0,1-3,.87Z"/>
            </g>
        </g>
    </g>
</svg>