<svg xmlns="http://www.w3.org/2000/svg" viewBox="0 0 37.72 37.72">
    <defs>
        <style>.cls-1{fill:#ffda2d;}.cls-2{fill:#8bf2cf;}.cls-3{fill:#57d9ad;}.cls-4{fill:#e63950;}</style>
    </defs>
    <title>Asset 1</title>
    <g id="Layer_2" data-name="Layer 2">
        <g id="Simple_LoggedIn">
            <path class="cls-1"
                  d="M9,17.83H0L.16,16.5A18.8,18.8,0,0,1,16.5.16L17.83,0V9l-.95.19a9.89,9.89,0,0,0-7.7,7.7Z"/>
            <path class="cls-2"
                  d="M25.12,26.59l-.8.52a10.1,10.1,0,0,1-5.46,1.62,9.9,9.9,0,0,1-9.68-7.9L9,19.89H0l.16,1.32a18.87,18.87,0,0,0,18.7,16.51,18.66,18.66,0,0,0,11.55-4l1.05-.82Z"/>
            <path class="cls-3"
                  d="M31.46,32.94l-1.05.82a18.66,18.66,0,0,1-11.55,4v-9a10.1,10.1,0,0,0,5.46-1.62l.8-.52Z"/>
            <path class="cls-4"
                  d="M32.94,31.46l-6.35-6.34.52-.8a10.07,10.07,0,0,0,1.62-5.46,9.9,9.9,0,0,0-7.89-9.68L19.89,9V0l1.32.16a18.87,18.87,0,0,1,16.51,18.7,18.66,18.66,0,0,1-4,11.55Z"/>
        </g>
    </g>
</svg>