<?xml version="1.0" standalone="no"?>
<!DOCTYPE svg PUBLIC "-//W3C//DTD SVG 1.1//EN" "http://www.w3.org/Graphics/SVG/1.1/DTD/svg11.dtd" >
<svg xmlns="http://www.w3.org/2000/svg" xmlns:xlink="http://www.w3.org/1999/xlink" version="1.1">
<metadata>
Created by FontForge 20170731 at Tue May  1 12:54:33 2007
 By Aleksey,,,
Copyright (c) 1989, 1990 Adobe Systems Incorporated. All Rights Reserved.Avant Garde Gothic is a registered trademark of International Typeface Corporation.
</metadata>
<defs>
<font id="AvantGardeLT-CondDemi" horiz-adv-x="500" >
  <font-face 
    font-family="ITC Avant Garde Gothic LT Conde"
    font-weight="700"
    font-stretch="condensed"
    units-per-em="1000"
    panose-1="0 0 0 0 0 0 0 0 0 0"
    ascent="800"
    descent="-200"
    x-height="572"
    cap-height="724"
    bbox="-167 -227 1000 971"
    underline-thickness="50"
    underline-position="-200"
    unicode-range="U+0020-FB02"
  />
<missing-glyph 
 />
    <glyph glyph-name=".notdef" 
 />
    <glyph glyph-name=".null" horiz-adv-x="0" 
 />
    <glyph glyph-name="nonmarkingreturn" horiz-adv-x="333" 
 />
    <glyph glyph-name="space" unicode=" " horiz-adv-x="278" 
 />
    <glyph glyph-name="exclam" unicode="!" horiz-adv-x="278" 
d="M77 194v530h124v-530h-124zM77 124h124v-124h-124v124z" />
    <glyph glyph-name="quotedbl" unicode="&#x22;" horiz-adv-x="333" 
d="M30 468v256h98v-256h-98zM205 468v256h98v-256h-98z" />
    <glyph glyph-name="numbersign" unicode="#" horiz-adv-x="556" 
d="M504 301l-4 -94h-92l-29 -207h-97l28 207h-99l-29 -207h-98l28 207h-90l4 94h100l16 123h-90l4 94h100l29 206h97l-28 -206h99l29 206h98l-28 -206h82l-4 -94h-91l-17 -123h82zM341 424h-99l-18 -123h99z" />
    <glyph glyph-name="dollar" unicode="$" horiz-adv-x="556" 
d="M46 211h120q3 -44 33 -74.5t75 -30.5t74.5 23.5t29.5 67.5t-33 72.5t-80 46t-93.5 39t-79.5 68t-33 117.5q0 74 46 124.5t120 59.5v64h96v-64q71 -10 114.5 -72t43.5 -135h-118q-5 43 -30.5 72t-67.5 29q-35 0 -59.5 -23t-24.5 -58q0 -28 17.5 -48.5t45.5 -34t62 -26.5
t68.5 -31t62.5 -41.5t45.5 -63t17.5 -91.5q0 -79 -49 -136.5t-128 -64.5v-74h-96v74q-87 4 -133 65.5t-46 145.5z" />
    <glyph glyph-name="percent" unicode="%" horiz-adv-x="889" 
d="M219 736q80 0 124.5 -55.5t44.5 -131.5t-44.5 -131.5t-124.5 -55.5t-124.5 55.5t-44.5 131.5t44.5 131.5t124.5 55.5zM670 362q80 0 124.5 -55.5t44.5 -131.5t-44.5 -131.5t-124.5 -55.5t-124.5 55.5t-44.5 131.5t44.5 131.5t124.5 55.5zM217 -12l371 748h82l-372 -748
h-81zM219 656q-81 0 -81 -107t81 -107t81 107t-81 107zM670 282q-81 0 -81 -107t81 -107t81 107t-81 107z" />
    <glyph glyph-name="ampersand" unicode="&#x26;" horiz-adv-x="611" 
d="M306 385l89 -123l95 186l100 -51l-121 -231l119 -166h-144l-37 55q-67 -67 -181 -67q-90 0 -142.5 60t-52.5 148q0 75 27.5 123.5t88.5 93.5q-45 71 -45 147q0 79 42 127.5t118 48.5q71 0 115 -45.5t44 -117.5q0 -66 -29 -108.5t-86 -79.5zM332 158l-117 161
q-68 -46 -68 -123q0 -36 24.5 -67t63.5 -31q59 0 97 60zM305 572q0 22 -11.5 38t-31.5 16q-21 0 -32.5 -18.5t-11.5 -48.5q0 -43 27 -85q60 46 60 98z" />
    <glyph glyph-name="quotesingle" unicode="'" horiz-adv-x="222" 
d="M62 468v256h98v-256h-98z" />
    <glyph glyph-name="parenleft" unicode="(" horiz-adv-x="389" 
d="M352 742v-123q-81 -53 -129.5 -149.5t-48.5 -208.5t48.5 -208.5t129.5 -149.5v-123q-132 61 -210 192t-78 289t78 289t210 192z" />
    <glyph glyph-name="parenright" unicode=")" horiz-adv-x="389" 
d="M37 -220v123q81 53 129.5 149.5t48.5 208.5t-48.5 208.5t-129.5 149.5v123q132 -61 210 -192t78 -289t-78 -289t-210 -192z" />
    <glyph glyph-name="asterisk" unicode="*" horiz-adv-x="444" 
d="M271 352h-100l21 134l-107 -85l-50 87l131 50l-131 50l50 87l107 -89l-21 138h100l-21 -138l108 89l51 -87l-131 -50l131 -50l-51 -87l-108 85z" />
    <glyph glyph-name="plus" unicode="+" horiz-adv-x="600" 
d="M245 308v198h110v-198h198v-110h-198v-198h-110v198h-198v110h198z" />
    <glyph glyph-name="comma" unicode="," horiz-adv-x="278" 
d="M103 130h112l-90 -224h-104z" />
    <glyph glyph-name="hyphen" unicode="-" horiz-adv-x="333" 
d="M289 236h-245v100h245v-100z" />
    <glyph glyph-name="period" unicode="." horiz-adv-x="278" 
d="M197 0h-116v130h116v-130z" />
    <glyph glyph-name="slash" unicode="/" horiz-adv-x="278" 
d="M71 -12h-111l247 748h111z" />
    <glyph glyph-name="zero" unicode="0" horiz-adv-x="556" 
d="M520 362q0 -77 -14 -142.5t-42 -118.5t-76 -83t-110 -30t-110 30t-76 83t-42 118.5t-14 142.5t14 142.5t42 118.5t76 83t110 30t110 -30t76 -83t42 -118.5t14 -142.5zM396 362q0 125 -31.5 191.5t-86.5 66.5t-86.5 -66.5t-31.5 -191.5t31.5 -191.5t86.5 -66.5t86.5 66.5
t31.5 191.5z" />
    <glyph glyph-name="one" unicode="1" horiz-adv-x="556" 
d="M231 614h-113v110h237v-724h-124v614z" />
    <glyph glyph-name="two" unicode="2" horiz-adv-x="556" 
d="M493 0h-454v116l271 266q24 24 40 58.5t16 65.5q0 53 -25 83.5t-76 30.5q-88 0 -97 -120h-124q2 105 65 170.5t168 65.5q102 0 160.5 -62t58.5 -162q0 -72 -26.5 -120t-86.5 -104l-188 -178h298v-110z" />
    <glyph glyph-name="three" unicode="3" horiz-adv-x="556" 
d="M30 224h124q9 -120 118 -120q51 0 77.5 32t26.5 80q0 64 -34 88t-96 24h-35v116h35q54 0 79.5 20.5t25.5 68.5q0 40 -22 63.5t-62 23.5q-82 0 -94 -90h-124q1 91 63 148.5t154 57.5q88 0 151.5 -53t63.5 -143q0 -60 -20.5 -94.5t-71.5 -52.5v-2q58 -15 87.5 -63.5
t29.5 -112.5q0 -106 -69 -166.5t-176 -60.5q-104 0 -166.5 65.5t-64.5 170.5z" />
    <glyph glyph-name="four" unicode="4" horiz-adv-x="556" 
d="M33 156v122l261 446h131v-458h84v-110h-84v-156h-124v156h-268zM300 524l-143 -258h145v258h-2z" />
    <glyph glyph-name="five" unicode="5" horiz-adv-x="556" 
d="M35 214h130q0 -46 28 -78t76 -32q54 0 84.5 40t30.5 115q0 61 -26 101t-83 40q-68 0 -99 -68h-129l29 392h396v-116h-283l-14 -172l2 -2q30 82 122 82q72 0 122 -40.5t71.5 -99.5t21.5 -129q0 -109 -68 -184t-175 -75q-104 0 -169.5 61.5t-66.5 164.5z" />
    <glyph glyph-name="six" unicode="6" horiz-adv-x="556" 
d="M503 543h-118q-8 35 -32.5 56t-59.5 21q-120 0 -127 -216l2 -2q42 84 143 84q97 0 150.5 -73.5t53.5 -166.5q0 -116 -61.5 -187t-168.5 -71q-121 0 -182 90.5t-61 258.5q0 399 261 399q82 0 139.5 -55.5t60.5 -137.5zM287 370q-49 0 -76.5 -37.5t-27.5 -95.5t27.5 -95.5
t76.5 -37.5t76.5 37.5t27.5 95.5t-27.5 95.5t-76.5 37.5z" />
    <glyph glyph-name="seven" unicode="7" horiz-adv-x="556" 
d="M361 614h-315v110h440v-113l-214 -611h-132z" />
    <glyph glyph-name="eight" unicode="8" horiz-adv-x="556" 
d="M517 194q0 -87 -64 -146.5t-175 -59.5t-175 59.5t-64 146.5q0 76 26 121t87 66q-87 48 -87 159q0 79 54.5 137.5t159.5 58.5q104 0 158 -58.5t54 -137.5q0 -111 -87 -159q113 -39 113 -187zM278 320q-46 0 -80.5 -30.5t-34.5 -77.5t34.5 -77.5t80.5 -30.5t80.5 30.5
t34.5 77.5t-34.5 77.5t-80.5 30.5zM278 436q44 0 66.5 25.5t22.5 66.5t-22.5 66.5t-66.5 25.5t-66.5 -25.5t-22.5 -66.5t22.5 -66.5t66.5 -25.5z" />
    <glyph glyph-name="nine" unicode="9" horiz-adv-x="556" 
d="M44 179h124q8 -75 96 -75q58 0 90.5 58.5t37.5 159.5h-2q-48 -88 -141 -88q-102 0 -158 71.5t-56 175.5q0 111 61 183t170 72q125 0 187.5 -97.5t62.5 -272.5q0 -192 -68.5 -285t-205.5 -93q-85 0 -138.5 51.5t-59.5 139.5zM269 620q-49 0 -76.5 -38.5t-27.5 -96.5
t27.5 -96.5t76.5 -38.5q50 0 77.5 38.5t27.5 96.5t-27.5 96.5t-77.5 38.5z" />
    <glyph glyph-name="colon" unicode=":" horiz-adv-x="278" 
d="M197 0h-116v130h116v-130zM197 354h-116v130h116v-130z" />
    <glyph glyph-name="semicolon" unicode=";" horiz-adv-x="278" 
d="M103 130h112l-90 -224h-104zM197 354h-116v130h116v-130z" />
    <glyph glyph-name="less" unicode="&#x3c;" horiz-adv-x="600" 
d="M553 100v-108l-506 216v90l506 216v-108l-361 -153z" />
    <glyph glyph-name="equal" unicode="=" horiz-adv-x="600" 
d="M553 418v-110h-506v110h506zM553 198v-110h-506v110h506z" />
    <glyph glyph-name="greater" unicode="&#x3e;" horiz-adv-x="600" 
d="M47 100l362 153l-362 153v108l506 -216v-90l-506 -216v108z" />
    <glyph glyph-name="question" unicode="?" 
d="M290 172h-124v124q0 40 24.5 73t54 52.5t54.5 49.5t25 66q0 38 -23 60.5t-61 22.5q-47 0 -66.5 -27t-19.5 -90h-124q0 118 51.5 175.5t170.5 57.5q82 0 139 -56.5t57 -138.5q0 -51 -16.5 -89.5t-39.5 -60.5t-46 -40t-39.5 -37t-16.5 -42v-100zM290 0h-124v126h124v-126z
" />
    <glyph glyph-name="at" unicode="@" horiz-adv-x="800" 
d="M519 495l12 50h91l-51 -246q-6 -30 -6 -37q0 -22 14 -22q39 0 70 44t31 120q0 118 -74 183t-192 65q-125 0 -201 -82t-76 -209q0 -135 81 -212t212 -77q113 0 199 71h93q-111 -155 -300 -155q-162 0 -275.5 106.5t-113.5 266.5q0 159 112.5 267t271.5 108
q140 0 244.5 -85t104.5 -220q0 -63 -20.5 -114.5t-51 -83t-67 -53t-66 -30t-50.5 -8.5q-23 0 -38.5 13.5t-16.5 38.5l-2 1q-47 -53 -100 -53q-68 0 -116 53t-48 139q0 87 58.5 155t149.5 68q79 0 121 -62zM381 250q47 0 77.5 36t30.5 84q0 37 -21.5 60t-56.5 23
q-45 0 -77 -37t-32 -82q0 -37 21.5 -60.5t57.5 -23.5z" />
    <glyph glyph-name="A" unicode="A" horiz-adv-x="556" 
d="M0 0l222 724h109l225 -724h-127l-60 192h-182l-59 -192h-128zM339 302l-63 234h-2l-62 -234h127z" />
    <glyph glyph-name="B" unicode="B" horiz-adv-x="556" 
d="M66 0v724h208q94 -2 151.5 -54t57.5 -146q0 -46 -27.5 -87.5t-70.5 -46.5v-2q65 -13 96.5 -60t31.5 -117q0 -94 -56 -152.5t-141 -58.5h-250zM190 324v-214h67q74 0 103 24.5t29 82.5q0 107 -138 107h-61zM190 614v-180h68q54 0 77.5 22.5t23.5 67.5q0 43 -27 66.5
t-74 23.5h-68z" />
    <glyph glyph-name="C" unicode="C" horiz-adv-x="611" 
d="M558 446h-124q-4 94 -34 137t-90 43q-64 0 -106.5 -64.5t-42.5 -199.5q0 -138 38 -201t103 -63q59 0 89 37t43 134h124q-6 -127 -69.5 -204t-182.5 -77q-269 0 -269 374q0 175 76.5 274.5t192.5 99.5q83 0 142 -41.5t85 -105.5t25 -143z" />
    <glyph glyph-name="D" unicode="D" horiz-adv-x="611" 
d="M66 0v724h243q126 0 195 -102t69 -260q0 -170 -80.5 -266t-217.5 -96h-209zM190 614v-504h93q77 0 121.5 63t44.5 189q0 129 -45 190.5t-121 61.5h-93z" />
    <glyph glyph-name="E" unicode="E" 
d="M444 0h-378v724h372v-110h-248v-182h252v-110h-252v-212h254v-110z" />
    <glyph glyph-name="F" unicode="F" horiz-adv-x="444" 
d="M182 0h-124v724h356v-110h-232v-184h232v-110h-232v-320z" />
    <glyph glyph-name="G" unicode="G" horiz-adv-x="611" 
d="M558 481h-124q-25 145 -126 145q-147 0 -147 -264t155 -264q125 0 125 175h-179v110h303v-95q0 -140 -63 -220t-188 -80q-131 0 -204 93.5t-73 280.5q0 173 73 273.5t204 100.5q109 0 174 -72t70 -183z" />
    <glyph glyph-name="H" unicode="H" horiz-adv-x="611" 
d="M66 0v724h124v-290h231v290h124v-724h-124v324h-231v-324h-124z" />
    <glyph glyph-name="I" unicode="I" horiz-adv-x="278" 
d="M201 0h-124v724h124v-724z" />
    <glyph glyph-name="J" unicode="J" 
d="M10 232h124q0 -65 22 -96.5t72 -31.5q38 0 60 24.5t22 64.5v531h124v-546q0 -85 -55 -137.5t-156 -52.5q-213 0 -213 244z" />
    <glyph glyph-name="K" unicode="K" horiz-adv-x="556" 
d="M190 0h-124v724h124v-311h2l196 311h148l-196 -282l217 -442h-136l-166 344h-2l-63 -100v-244z" />
    <glyph glyph-name="L" unicode="L" horiz-adv-x="444" 
d="M420 0h-354v724h124v-614h230v-110z" />
    <glyph glyph-name="M" unicode="M" horiz-adv-x="722" 
d="M66 0v724h174l119 -526h2l121 526h174v-724h-116v582h-2l-138 -582h-78l-138 582h-2v-582h-116z" />
    <glyph glyph-name="N" unicode="N" horiz-adv-x="611" 
d="M179 0h-110v724h132l229 -469h2v469h110v-724h-108l-253 508h-2v-508z" />
    <glyph glyph-name="O" unicode="O" horiz-adv-x="611" 
d="M305 736q120 0 194 -101t74 -273t-74 -273t-194 -101t-194 101t-74 273t74 273t194 101zM449 362q0 132 -41 198t-103 66t-103 -66t-41 -198t41 -198t103 -66t103 66t41 198z" />
    <glyph glyph-name="P" unicode="P" horiz-adv-x="556" 
d="M196 0h-124v724h190q129 0 194 -62.5t65 -166.5q0 -101 -59.5 -163t-163.5 -62h-102v-270zM196 614v-234h90q57 0 84 32.5t27 85.5q0 52 -27 84t-84 32h-90z" />
    <glyph glyph-name="Q" unicode="Q" horiz-adv-x="611" 
d="M569 108v-110q-29 -8 -69 -8q-44 0 -74 31q-53 -33 -121 -33q-120 0 -194 101t-74 273t74 273t194 101t194 -101t74 -273q0 -160 -65 -259q9 -2 18 -2q28 0 43 7zM305 626q-62 0 -103 -66t-41 -198q0 -58 9 -103q32 15 74 15q48 0 83.5 -24.5t84.5 -77.5q37 68 37 190
q0 132 -41 198t-103 66zM305 98q26 0 47 12q-35 36 -64 52t-66 16q-8 0 -25 -3q38 -77 108 -77z" />
    <glyph glyph-name="R" unicode="R" horiz-adv-x="556" 
d="M191 0h-125v724h218q111 0 168 -67t57 -162q0 -85 -42 -140t-124 -66l201 -289h-146l-205 318h-2v-318zM190 614v-228h72q61 0 92 24t31 82q0 68 -34 95t-97 27h-64z" />
    <glyph glyph-name="S" unicode="S" 
d="M27 225h116q13 -127 106 -127q43 0 71.5 29t28.5 73q0 34 -17 57t-44 36t-60 23.5t-66 26t-60 37t-44 62.5t-17 98q0 88 58.5 142t147.5 54q96 0 148 -58t58 -156h-115q-6 45 -30 74.5t-66 29.5q-40 0 -62.5 -26t-22.5 -67q0 -35 23 -57.5t57 -32.5t74 -26t74 -35.5
t57 -64t23 -109.5q0 -100 -59.5 -160t-159.5 -60q-103 0 -160.5 66t-58.5 171z" />
    <glyph glyph-name="T" unicode="T" horiz-adv-x="444" 
d="M160 608h-146v116h416v-116h-146v-608h-124v608z" />
    <glyph glyph-name="U" unicode="U" horiz-adv-x="611" 
d="M64 724h124v-498q0 -64 27 -93t90 -29t90 29t27 93v498h124v-530q0 -87 -61.5 -146.5t-179.5 -59.5t-179.5 59.5t-61.5 146.5v530z" />
    <glyph glyph-name="V" unicode="V" horiz-adv-x="556" 
d="M279 196l143 528h125l-211 -724h-115l-212 724h129l139 -528h2z" />
    <glyph glyph-name="W" unicode="W" horiz-adv-x="833" 
d="M358 724h113l121 -530h2l107 530h129l-181 -724h-114l-117 524h-2l-119 -524h-114l-181 724h128l110 -530h2z" />
    <glyph glyph-name="X" unicode="X" 
d="M485 724l-167 -336l188 -388h-132l-123 278l-126 -278h-131l189 388l-162 336h131l99 -229l102 229h132z" />
    <glyph glyph-name="Y" unicode="Y" 
d="M187 0v292l-187 432h132l118 -302l118 302h132l-189 -432v-292h-124z" />
    <glyph glyph-name="Z" unicode="Z" horiz-adv-x="444" 
d="M419 0h-398v112l253 496h-230v116h368v-114l-248 -494h255v-116z" />
    <glyph glyph-name="bracketleft" unicode="[" horiz-adv-x="389" 
d="M335 -208h-255v932h252v-84h-142v-764h145v-84z" />
    <glyph glyph-name="backslash" unicode="\" horiz-adv-x="278" 
d="M318 -12h-111l-247 748h111z" />
    <glyph glyph-name="bracketright" unicode="]" horiz-adv-x="389" 
d="M309 -208h-255v84h145v764h-142v84h252v-932z" />
    <glyph glyph-name="asciicircum" unicode="^" horiz-adv-x="600" 
d="M168 326h-116l191 398h114l191 -398h-116l-132 280z" />
    <glyph glyph-name="underscore" unicode="_" 
d="M500 -125h-500v50h500v-50z" />
    <glyph glyph-name="grave" unicode="`" horiz-adv-x="222" 
d="M-38 776h134l90 -144h-82z" />
    <glyph glyph-name="a" unicode="a" 
d="M432 0h-102v70h-2q-34 -80 -109 -80q-80 0 -134.5 71t-54.5 217q0 157 54 230.5t135 73.5q70 0 109 -74h2v64h102v-572zM316 223v126q0 123 -72 123q-90 0 -90 -186t90 -186q72 0 72 123z" />
    <glyph glyph-name="b" unicode="b" 
d="M162 0h-102v724h116v-206h2q33 64 103 64q81 0 135 -73.5t54 -230.5q0 -146 -54.5 -217t-134.5 -71q-93 0 -117 80h-2v-70zM176 349v-126q0 -58 21 -90.5t59 -32.5q90 0 90 186t-90 186q-38 0 -59 -32.5t-21 -90.5z" />
    <glyph glyph-name="c" unicode="c" horiz-adv-x="444" 
d="M420 368h-110q-6 61 -24.5 84.5t-52.5 23.5q-41 0 -60 -40t-19 -146q0 -108 20 -151t59 -43q71 0 77 111h110q0 -92 -51.5 -154.5t-139.5 -62.5q-96 0 -147.5 85.5t-51.5 210.5q0 139 50 217.5t149 78.5q89 0 140 -62t51 -152z" />
    <glyph glyph-name="d" unicode="d" 
d="M440 0h-102v70h-2q-24 -80 -117 -80q-80 0 -134.5 71t-54.5 217q0 157 54 230.5t135 73.5q83 0 103 -64h2v206h116v-724zM324 223v126q0 58 -21 90.5t-59 32.5q-90 0 -90 -186t90 -186q38 0 59 32.5t21 90.5z" />
    <glyph glyph-name="e" unicode="e" 
d="M336 194h117q-12 -92 -65.5 -148t-137.5 -56q-107 0 -163.5 86t-56.5 210t56.5 210t163.5 86q98 0 152 -72.5t54 -193.5v-68h-302q9 -152 95 -152q39 0 57.5 26t29.5 72zM155 346h185q-3 72 -25.5 101t-70.5 29q-77 0 -89 -130z" />
    <glyph glyph-name="f" unicode="f" horiz-adv-x="278" 
d="M74 462h-58v110h58v42q0 57 38 89.5t113 32.5q27 0 46 -4v-106h-20q-61 0 -61 -44v-10h76v-110h-76v-462h-116v462z" />
    <glyph glyph-name="g" unicode="g" 
d="M42 -28h117q21 -60 87 -60q82 0 82 100v50h-2q-25 -72 -107 -72q-81 0 -135 73.5t-54 230.5q0 146 54.5 217t134.5 71q93 0 117 -80h2v70h102v-566q0 -59 -17.5 -101t-47 -63t-60.5 -30.5t-67 -9.5q-85 0 -141 46t-65 124zM324 223v126q0 58 -21 90.5t-59 32.5
q-90 0 -90 -186t90 -186q38 0 59 32.5t21 90.5z" />
    <glyph glyph-name="h" unicode="h" 
d="M176 0h-116v724h116v-200h2q8 26 37 42t67 16q70 0 114 -44t44 -117v-421h-116v398q0 78 -65 78q-38 0 -60.5 -25t-22.5 -70v-381z" />
    <glyph glyph-name="i" unicode="i" horiz-adv-x="222" 
d="M169 0h-116v572h116v-572zM169 626h-116v110h116v-110z" />
    <glyph glyph-name="j" unicode="j" horiz-adv-x="222" 
d="M-32 -186v108q22 -2 34 -2q32 0 41.5 15.5t9.5 60.5v576h116v-605q0 -79 -30.5 -116t-110.5 -37h-60zM169 626h-116v110h116v-110z" />
    <glyph glyph-name="k" unicode="k" horiz-adv-x="444" 
d="M176 0h-116v724h116v-377h2l131 225h132l-145 -216l157 -356h-124l-106 266h-2l-45 -74v-192z" />
    <glyph glyph-name="l" unicode="l" horiz-adv-x="222" 
d="M169 0h-116v724h116v-724z" />
    <glyph glyph-name="m" unicode="m" horiz-adv-x="778" 
d="M60 0v572h107v-60h2q27 70 114 70q94 0 127 -70q29 39 59 54.5t71 15.5q77 0 127.5 -47t50.5 -118v-417h-116v397q0 39 -20 59t-52 20q-38 0 -60.5 -25t-22.5 -70v-381h-116v398q0 38 -20 58t-52 20q-38 0 -60.5 -25t-22.5 -70v-381h-116z" />
    <glyph glyph-name="n" unicode="n" 
d="M176 0h-116v572h106v-60h2q31 70 114 70q70 0 114 -44t44 -117v-421h-116v398q0 78 -65 78q-38 0 -60.5 -25t-22.5 -70v-381z" />
    <glyph glyph-name="o" unicode="o" 
d="M470 286q0 -124 -56.5 -210t-163.5 -86t-163.5 86t-56.5 210t56.5 210t163.5 86t163.5 -86t56.5 -210zM346 286q0 103 -24 146.5t-72 43.5t-72 -43.5t-24 -146.5t24 -146.5t72 -43.5t72 43.5t24 146.5z" />
    <glyph glyph-name="p" unicode="p" 
d="M60 572h102v-70h2q24 80 117 80q80 0 134.5 -71t54.5 -217q0 -157 -54 -230.5t-135 -73.5q-70 0 -103 64h-2v-240h-116v758zM176 349v-126q0 -58 21 -90.5t59 -32.5q90 0 90 186t-90 186q-38 0 -59 -32.5t-21 -90.5z" />
    <glyph glyph-name="q" unicode="q" 
d="M338 572h102v-758h-116v240h-2q-33 -64 -103 -64q-81 0 -135 73.5t-54 230.5q0 146 54.5 217t134.5 71t117 -80h2v70zM324 223v126q0 58 -21 90.5t-59 32.5q-90 0 -90 -186t90 -186q38 0 59 32.5t21 90.5z" />
    <glyph glyph-name="r" unicode="r" horiz-adv-x="278" 
d="M166 0h-116v572h106v-82h2q13 27 21 40.5t21.5 29.5t30.5 22.5t41 7.5v-128q-106 0 -106 -126v-336z" />
    <glyph glyph-name="s" unicode="s" horiz-adv-x="444" 
d="M28 172h116q1 -35 20 -55.5t55 -20.5q80 0 80 66q0 32 -27 48.5t-66 26t-77.5 24t-65.5 53.5t-27 104q0 75 50 119.5t125 44.5q79 0 132 -46.5t56 -124.5h-114q-7 35 -25 50t-54 15q-25 0 -39.5 -15t-14.5 -41q0 -30 27 -46t66 -25t77.5 -24t65.5 -54t27 -102
q0 -85 -55.5 -132t-140.5 -47q-82 0 -135.5 50.5t-55.5 131.5z" />
    <glyph glyph-name="t" unicode="t" horiz-adv-x="278" 
d="M12 572h63v121h116v-121h80v-110h-80v-462h-116v462h-63v110z" />
    <glyph glyph-name="u" unicode="u" 
d="M324 572h116v-572h-106v68h-2q-29 -78 -114 -78q-70 0 -114 44t-44 117v421h116v-398q0 -78 65 -78q38 0 60.5 25t22.5 70v381z" />
    <glyph glyph-name="v" unicode="v" horiz-adv-x="444" 
d="M315 572h123l-159 -572h-113l-160 572h125l92 -410h2z" />
    <glyph glyph-name="w" unicode="w" horiz-adv-x="667" 
d="M286 572h94l82 -392h2l80 392h117l-135 -572h-112l-80 354h-2l-80 -354h-112l-135 572h117l80 -392h2z" />
    <glyph glyph-name="x" unicode="x" horiz-adv-x="444" 
d="M147 572l75 -176l81 176h135l-148 -275l158 -297h-136l-90 192l-92 -192h-134l158 297l-143 275h136z" />
    <glyph glyph-name="y" unicode="y" horiz-adv-x="444" 
d="M85 -198l74 225l-153 545h123l89 -380h2l95 380h123l-225 -770h-128z" />
    <glyph glyph-name="z" unicode="z" horiz-adv-x="444" 
d="M281 466h-237v106h368v-108l-257 -358h259v-106h-392v108z" />
    <glyph glyph-name="braceleft" unicode="{" horiz-adv-x="389" 
d="M329 736v-84h-99q-25 0 -32.5 -11.5t-7.5 -42.5v-264q0 -63 -65 -77v-3q65 -14 65 -77v-265q0 -31 7.5 -42.5t32.5 -11.5h99v-84h-135q-114 0 -114 106v256q0 39 -21 55.5t-47 16.5v94q26 0 47 16.5t21 55.5v256q0 106 114 106h135z" />
    <glyph glyph-name="bar" unicode="|" horiz-adv-x="222" 
d="M56 -12v748h110v-748h-110z" />
    <glyph glyph-name="braceright" unicode="}" horiz-adv-x="389" 
d="M60 -226v84h99q25 0 32.5 11.5t7.5 42.5v264q0 63 65 77v3q-65 14 -65 77v265q0 31 -7.5 42.5t-32.5 11.5h-99v84h135q114 0 114 -106v-256q0 -39 21 -55.5t47 -16.5v-94q-26 0 -47 -16.5t-21 -55.5v-256q0 -106 -114 -106h-135z" />
    <glyph glyph-name="asciitilde" unicode="~" horiz-adv-x="600" 
d="M515 349l39 -102q-22 -27 -36 -42t-41.5 -29.5t-59.5 -14.5q-45 0 -113 33q-68 35 -126 35q-57 0 -92 -72l-40 102q49 86 137 86q44 0 123 -32q7 -3 23.5 -10t25 -10t21.5 -7.5t23 -6.5t19 -2q20 0 39.5 12.5t29.5 24t28 35.5z" />
    <glyph glyph-name="nbspace" unicode="&#xa0;" horiz-adv-x="278" 
 />
    <glyph glyph-name="exclamdown" unicode="&#xa1;" horiz-adv-x="278" 
d="M201 378v-530h-124v530h124zM201 448h-124v124h124v-124z" />
    <glyph glyph-name="cent" unicode="&#xa2;" horiz-adv-x="556" 
d="M472 442h-116q0 44 -22 72t-56 28q-47 0 -67.5 -41t-20.5 -139t20.5 -139t67.5 -41q75 0 78 100h116q0 -77 -36 -139.5t-104 -70.5v-92h-104v92q-166 28 -166 290t166 290v84h104v-84q68 -8 104 -70.5t36 -139.5z" />
    <glyph glyph-name="sterling" unicode="&#xa3;" horiz-adv-x="556" 
d="M495 530h-121q-28 90 -114 90q-48 0 -78 -33t-30 -85q0 -44 26 -81h185v-106h-114q50 -57 50 -109q0 -32 -17 -90h40q41 0 69 25t28 64q0 22 -7 52h118q5 -11 5 -43q0 -102 -56.5 -158t-161.5 -56h-282v116h120q20 48 20 78q0 50 -62 121h-104v104h44q-25 53 -25 95
q0 91 65.5 156.5t157.5 65.5q97 0 165.5 -55.5t78.5 -150.5z" />
    <glyph glyph-name="currency" unicode="&#xa4;" horiz-adv-x="556" 
d="M42 488h43q11 90 56 152q69 96 197 96q117 0 192 -76l-51 -106q-52 66 -133 66q-72 0 -107 -53q-21 -33 -29 -79h241l-32 -80h-218q-1 -15 -1 -46q0 -19 1 -28h188l-32 -80h-150q3 -52 25 -91q33 -59 88 -59q36 0 63 25t31 69h126q-12 -91 -72.5 -150.5t-151.5 -59.5
q-103 0 -170 84q-58 74 -63 182h-73l32 80h35q-1 9 -1 28q0 31 1 46h-67z" />
    <glyph glyph-name="yen" unicode="&#xa5;" horiz-adv-x="556" 
d="M519 486v-106h-145l-35 -67v-3h180v-106h-180v-204h-124v204h-180v106h180v3l-34 67h-146v106h91l-122 238h132l142 -281l142 281h132l-124 -238h91z" />
    <glyph glyph-name="brokenbar" unicode="&#xa6;" horiz-adv-x="222" 
d="M56 -12v284h110v-284h-110zM56 452v284h110v-284h-110z" />
    <glyph glyph-name="section" unicode="&#xa7;" horiz-adv-x="444" 
d="M374 653l-68 -50q-2 2 -15.5 16.5t-19.5 19.5t-18 11t-24 6q-23 0 -37 -13t-14 -35q0 -20 24.5 -49t60 -61t71 -67t60 -79t24.5 -86q0 -40 -30 -67.5t-77 -36.5q54 -53 54 -125q0 -26 -17.5 -52t-41.5 -41q-34 -22 -91 -22q-86 0 -154 82l70 54q37 -56 82 -56
q22 0 40 11.5t18 31.5q0 25 -38.5 69t-84.5 86.5t-84.5 96.5t-38.5 95q0 45 28.5 75.5t73.5 42.5q-43 58 -43 106q0 61 43 90.5t106 29.5q22 0 40.5 -5t34.5 -16.5t24.5 -19t23.5 -23.5t18 -19zM324 269q0 30 -67.5 102.5t-103.5 72.5q-17 0 -25.5 -14t-8.5 -32
q0 -31 68.5 -100.5t88.5 -69.5q26 0 37 13t11 28z" />
    <glyph glyph-name="dieresis" unicode="&#xa8;" horiz-adv-x="222" 
d="M142 752h112v-106h-112v106zM80 646h-112v106h112v-106z" />
    <glyph glyph-name="copyright" unicode="&#xa9;" horiz-adv-x="800" 
d="M400 736q102 0 189.5 -43.5t142.5 -130.5t55 -200t-55 -200t-142.5 -130.5t-189.5 -43.5t-189.5 43.5t-142.5 130.5t-55 200t55 200t142.5 130.5t189.5 43.5zM400 648q-113 0 -192 -80.5t-79 -205.5t79 -205.5t192 -80.5t192 80.5t79 205.5t-79 205.5t-192 80.5zM504 304
h91q-11 -74 -61.5 -116t-117.5 -42q-94 0 -152 62t-58 156q0 96 56 157t151 61q70 0 118.5 -40t59.5 -114h-87q-6 33 -31 49.5t-60 16.5q-49 0 -75 -34t-26 -94q0 -57 28.5 -94.5t75.5 -37.5q37 0 61 18t27 52z" />
    <glyph glyph-name="ordfeminine" unicode="&#xaa;" horiz-adv-x="300" 
d="M269 386h-66v42h-2q-21 -48 -71 -48q-52 0 -87 42.5t-35 130.5q0 94 35 138.5t87 44.5q45 0 71 -45h2v38h66v-343zM189 521v75q0 66 -42 66q-24 0 -39.5 -26t-15.5 -77q0 -53 15.5 -79t39.5 -26q42 0 42 67z" />
    <glyph glyph-name="guillemotleft" unicode="&#xab;" horiz-adv-x="444" 
d="M254 469l-124 -183l124 -183h-105l-125 183l125 183h105zM420 469l-124 -183l124 -183h-105l-125 183l125 183h105z" />
    <glyph glyph-name="logicalnot" unicode="&#xac;" horiz-adv-x="600" 
d="M443 88v220h-396v110h506v-330h-110z" />
    <glyph glyph-name="registered" unicode="&#xae;" horiz-adv-x="800" 
d="M400 736q102 0 189.5 -43.5t142.5 -130.5t55 -200t-55 -200t-142.5 -130.5t-189.5 -43.5t-189.5 43.5t-142.5 130.5t-55 200t55 200t142.5 130.5t189.5 43.5zM400 648q-113 0 -192 -80.5t-79 -205.5t79 -205.5t192 -80.5t192 80.5t79 205.5t-79 205.5t-192 80.5zM336 329
v-172h-88v411h154q169 0 169 -125q0 -101 -102 -108l94 -178h-96l-89 172h-42zM336 399h78q33 0 49 11t16 43q0 45 -65 45h-78v-99z" />
    <glyph glyph-name="macron" unicode="&#xaf;" horiz-adv-x="222" 
d="M274 670h-326v64h326v-64z" />
    <glyph glyph-name="degree" unicode="&#xb0;" horiz-adv-x="400" 
d="M200 450q-60 0 -101.5 41.5t-41.5 101.5t41.5 101.5t101.5 41.5t101.5 -41.5t41.5 -101.5t-41.5 -101.5t-101.5 -41.5zM200 506q31 0 57 26t26 61t-26 61t-57 26t-57 -26t-26 -61t26 -61t57 -26z" />
    <glyph glyph-name="plusminus" unicode="&#xb1;" horiz-adv-x="600" 
d="M245 379v127h110v-127h198v-110h-198v-126h-110v126h-198v110h198zM47 0v110h506v-110h-506z" />
    <glyph glyph-name="twosuperior" unicode="&#xb2;" horiz-adv-x="333" 
d="M313 294h-295v82l165 147q36 34 36 75q0 22 -12.5 38t-33.5 16q-57 0 -63 -58h-88q1 66 40.5 104t110.5 38q66 0 104 -37.5t38 -97.5q0 -82 -61 -134l-103 -89h162v-84z" />
    <glyph glyph-name="threesuperior" unicode="&#xb3;" horiz-adv-x="333" 
d="M8 436h88q7 -66 69 -66q26 0 41.5 15t14.5 37q-1 59 -73 59h-23v84h23q26 0 41.5 12.5t15.5 34.5q0 15 -14 27.5t-37 12.5q-22 0 -36 -13t-18 -33h-88q1 59 42 94.5t108 35.5q56 0 97.5 -30t41.5 -81q0 -72 -48 -95v-1q30 -9 47 -39t17 -67q0 -64 -44.5 -100.5
t-114.5 -36.5q-68 0 -108.5 41t-41.5 109z" />
    <glyph glyph-name="acute" unicode="&#xb4;" horiz-adv-x="222" 
d="M260 776l-142 -144h-82l90 144h134z" />
    <glyph glyph-name="mu" unicode="&#xb5;" 
d="M324 572h116v-572h-106v68h-2q-29 -78 -114 -78q-19 0 -42 5v-181h-116v758h116v-398q0 -78 65 -78q38 0 60.5 25t22.5 70v381z" />
    <glyph glyph-name="paragraph" unicode="&#xb6;" horiz-adv-x="620" 
d="M231 -90v461q-106 0 -164.5 46t-58.5 127q0 100 64.5 140t179.5 40h302v-814h-110v730h-103v-730h-110z" />
    <glyph glyph-name="periodcentered" unicode="&#xb7;" horiz-adv-x="278" 
d="M139 319q27 0 46.5 -19.5t19.5 -46.5t-19.5 -46.5t-46.5 -19.5t-46.5 19.5t-19.5 46.5t19.5 46.5t46.5 19.5z" />
    <glyph glyph-name="cedilla" unicode="&#xb8;" horiz-adv-x="222" 
d="M-1 -201l17 40q38 -16 65 -16q61 0 61 41q0 35 -48 35q-22 0 -37 -6l-22 18l66 89h48l-44 -61q18 4 27 4q36 0 63 -20.5t27 -55.5q0 -48 -37.5 -71t-89.5 -23q-19 0 -50 8t-46 18z" />
    <glyph glyph-name="onesuperior" unicode="&#xb9;" horiz-adv-x="333" 
d="M131 644h-66v84h162v-434h-96v350z" />
    <glyph glyph-name="ordmasculine" unicode="&#xba;" horiz-adv-x="300" 
d="M293 559q0 -75 -37 -127t-106 -52q-70 0 -106.5 51.5t-36.5 127.5q0 74 36.5 125.5t106.5 51.5q69 0 106 -51.5t37 -125.5zM205 559q0 103 -55 103t-55 -103q0 -105 55 -105t55 105z" />
    <glyph glyph-name="guillemotright" unicode="&#xbb;" horiz-adv-x="444" 
d="M314 286l-124 183h105l125 -183l-125 -183h-105zM148 286l-124 183h105l125 -183l-125 -183h-105z" />
    <glyph glyph-name="onequarter" unicode="&#xbc;" horiz-adv-x="834" 
d="M482 88v95l166 251h97v-262h51v-84h-51v-88h-96v88h-167zM655 736l-369 -748h-92l369 748h92zM151 644h-66v84h162v-434h-96v350zM647 290l-76 -118h78v118h-2z" />
    <glyph glyph-name="onehalf" unicode="&#xbd;" horiz-adv-x="834" 
d="M794 0h-295v82l165 147q36 34 36 75q0 22 -12.5 38t-33.5 16q-57 0 -63 -58h-88q1 66 40.5 104t110.5 38q66 0 104 -37.5t38 -97.5q0 -82 -61 -134l-103 -89h162v-84zM631 736l-369 -748h-92l369 748h92zM151 644h-66v84h162v-434h-96v350z" />
    <glyph glyph-name="threequarters" unicode="&#xbe;" horiz-adv-x="834" 
d="M482 88v95l166 251h97v-262h51v-84h-51v-88h-96v88h-167zM28 436h88q7 -66 69 -66q26 0 41.5 15t14.5 37q-1 59 -73 59h-23v84h23q26 0 41.5 12.5t15.5 34.5q0 15 -14 27.5t-37 12.5q-22 0 -36 -13t-18 -33h-88q1 59 42 94.5t108 35.5q56 0 97.5 -30t41.5 -81
q0 -72 -48 -95v-1q30 -9 47 -39t17 -67q0 -64 -44.5 -100.5t-114.5 -36.5q-68 0 -108.5 41t-41.5 109zM671 736l-369 -748h-92l369 748h92zM647 290l-76 -118h78v118h-2z" />
    <glyph glyph-name="questiondown" unicode="&#xbf;" 
d="M210 400h124v-124q0 -40 -24.5 -73t-54 -52.5t-54.5 -49.5t-25 -66q0 -38 23 -60.5t61 -22.5q47 0 66.5 27t19.5 90h124q0 -118 -51.5 -175.5t-170.5 -57.5q-82 0 -139 56.5t-57 138.5q0 51 16.5 89.5t39.5 60.5t46 40t39.5 37t16.5 42v100zM208 572h124v-126h-124v126z
" />
    <glyph glyph-name="Agrave" unicode="&#xc0;" horiz-adv-x="556" 
d="M0 0l222 724h109l225 -724h-127l-60 192h-182l-59 -192h-128zM129 909h134l90 -144h-82zM339 302l-63 234h-2l-62 -234h127z" />
    <glyph glyph-name="Aacute" unicode="&#xc1;" horiz-adv-x="556" 
d="M0 0l222 724h109l225 -724h-127l-60 192h-182l-59 -192h-128zM427 909l-142 -144h-82l90 144h134zM339 302l-63 234h-2l-62 -234h127z" />
    <glyph glyph-name="Acircumflex" unicode="&#xc2;" horiz-adv-x="556" 
d="M0 0l222 724h109l225 -724h-127l-60 192h-182l-59 -192h-128zM278 854l-71 -89h-92l107 144h111l108 -144h-93zM339 302l-63 234h-2l-62 -234h127z" />
    <glyph glyph-name="Atilde" unicode="&#xc3;" horiz-adv-x="556" 
d="M0 0l222 724h109l225 -724h-127l-60 192h-182l-59 -192h-128zM397 895h58q-21 -116 -112 -116q-23 0 -73 18t-71 18q-18 0 -28 -12.5t-12 -29.5h-58q3 43 32.5 79.5t71.5 36.5q28 0 79 -19q49 -19 67 -19q35 0 46 44zM339 302l-63 234h-2l-62 -234h127z" />
    <glyph glyph-name="Adieresis" unicode="&#xc4;" horiz-adv-x="556" 
d="M0 0l222 724h109l225 -724h-127l-60 192h-182l-59 -192h-128zM339 302l-63 234h-2l-62 -234h127zM309 885h112v-106h-112v106zM247 779h-112v106h112v-106z" />
    <glyph glyph-name="Aring" unicode="&#xc5;" horiz-adv-x="556" 
d="M0 0l222 724h109l225 -724h-127l-60 192h-182l-59 -192h-128zM278 971q42 0 72.5 -30t30.5 -73t-30.5 -73t-72.5 -30t-72.5 30t-30.5 73t30.5 73t72.5 30zM339 302l-63 234h-2l-62 -234h127zM278 927q-24 0 -41.5 -17t-17.5 -42t17.5 -42t41.5 -17t41.5 17t17.5 42
t-17.5 42t-41.5 17z" />
    <glyph glyph-name="AE" unicode="&#xc6;" horiz-adv-x="833" 
d="M403 0v192h-182l-90 -192h-139l349 724h430v-110h-244v-182h248v-110h-248v-212h250v-110h-374zM261 302h142v306h-2z" />
    <glyph glyph-name="Ccedilla" unicode="&#xc7;" horiz-adv-x="611" 
d="M200 -201l17 40q38 -16 65 -16q61 0 61 41q0 35 -48 35q-22 0 -37 -6l-22 18l57 77q-256 10 -256 374q0 175 76.5 274.5t192.5 99.5q83 0 142 -41.5t85 -105.5t25 -143h-124q-4 94 -34 137t-90 43q-64 0 -106.5 -64.5t-42.5 -199.5q0 -138 38 -201t103 -63q59 0 89 37
t43 134h124q-5 -117 -59.5 -192t-155.5 -87l-37 -51q18 4 27 4q36 0 63 -20.5t27 -55.5q0 -48 -37.5 -71t-89.5 -23q-19 0 -50 8t-46 18z" />
    <glyph glyph-name="Egrave" unicode="&#xc8;" 
d="M444 0h-378v724h372v-110h-248v-182h252v-110h-252v-212h254v-110zM101 909h134l90 -144h-82z" />
    <glyph glyph-name="Eacute" unicode="&#xc9;" 
d="M444 0h-378v724h372v-110h-248v-182h252v-110h-252v-212h254v-110zM399 909l-142 -144h-82l90 144h134z" />
    <glyph glyph-name="Ecircumflex" unicode="&#xca;" 
d="M444 0h-378v724h372v-110h-248v-182h252v-110h-252v-212h254v-110zM250 854l-71 -89h-92l107 144h111l108 -144h-93z" />
    <glyph glyph-name="Edieresis" unicode="&#xcb;" 
d="M444 0h-378v724h372v-110h-248v-182h252v-110h-252v-212h254v-110zM219 779h-112v106h112v-106zM281 885h112v-106h-112v106z" />
    <glyph glyph-name="Igrave" unicode="&#xcc;" horiz-adv-x="278" 
d="M201 0h-124v724h124v-724zM-10 909h134l90 -144h-82z" />
    <glyph glyph-name="Iacute" unicode="&#xcd;" horiz-adv-x="278" 
d="M201 0h-124v724h124v-724zM288 909l-142 -144h-82l90 144h134z" />
    <glyph glyph-name="Icircumflex" unicode="&#xce;" horiz-adv-x="278" 
d="M201 0h-124v724h124v-724zM139 854l-71 -89h-92l107 144h111l108 -144h-93z" />
    <glyph glyph-name="Idieresis" unicode="&#xcf;" horiz-adv-x="278" 
d="M201 0h-124v724h124v-724zM108 779h-112v106h112v-106zM170 885h112v-106h-112v106z" />
    <glyph glyph-name="Eth" unicode="&#xd0;" horiz-adv-x="611" 
d="M2 434h64v290h243q126 0 195 -102t69 -260q0 -170 -80.5 -266t-217.5 -96h-209v324h-64v110zM190 434h160v-110h-160v-214h93q77 0 121.5 63t44.5 189q0 129 -45 190.5t-121 61.5h-93v-180z" />
    <glyph glyph-name="Ntilde" unicode="&#xd1;" horiz-adv-x="611" 
d="M179 0h-110v724h132l229 -469h2v469h110v-724h-108l-253 508h-2v-508zM425 895h58q-21 -116 -112 -116q-23 0 -73 18t-71 18q-18 0 -28 -12.5t-12 -29.5h-58q3 43 32.5 79.5t71.5 36.5q28 0 79 -19q49 -19 67 -19q35 0 46 44z" />
    <glyph glyph-name="Ograve" unicode="&#xd2;" horiz-adv-x="611" 
d="M305 736q120 0 194 -101t74 -273t-74 -273t-194 -101t-194 101t-74 273t74 273t194 101zM449 362q0 132 -41 198t-103 66t-103 -66t-41 -198t41 -198t103 -66t103 66t41 198zM157 909h134l90 -144h-82z" />
    <glyph glyph-name="Oacute" unicode="&#xd3;" horiz-adv-x="611" 
d="M305 736q120 0 194 -101t74 -273t-74 -273t-194 -101t-194 101t-74 273t74 273t194 101zM449 362q0 132 -41 198t-103 66t-103 -66t-41 -198t41 -198t103 -66t103 66t41 198zM455 909l-142 -144h-82l90 144h134z" />
    <glyph glyph-name="Ocircumflex" unicode="&#xd4;" horiz-adv-x="611" 
d="M305 736q120 0 194 -101t74 -273t-74 -273t-194 -101t-194 101t-74 273t74 273t194 101zM449 362q0 132 -41 198t-103 66t-103 -66t-41 -198t41 -198t103 -66t103 66t41 198zM306 854l-71 -89h-92l107 144h111l108 -144h-93z" />
    <glyph glyph-name="Otilde" unicode="&#xd5;" horiz-adv-x="611" 
d="M305 736q120 0 194 -101t74 -273t-74 -273t-194 -101t-194 101t-74 273t74 273t194 101zM449 362q0 132 -41 198t-103 66t-103 -66t-41 -198t41 -198t103 -66t103 66t41 198zM425 895h58q-21 -116 -112 -116q-23 0 -73 18t-71 18q-18 0 -28 -12.5t-12 -29.5h-58
q3 43 32.5 79.5t71.5 36.5q28 0 79 -19q49 -19 67 -19q35 0 46 44z" />
    <glyph glyph-name="Odieresis" unicode="&#xd6;" horiz-adv-x="611" 
d="M305 736q120 0 194 -101t74 -273t-74 -273t-194 -101t-194 101t-74 273t74 273t194 101zM449 362q0 132 -41 198t-103 66t-103 -66t-41 -198t41 -198t103 -66t103 66t41 198zM337 885h112v-106h-112v106zM275 779h-112v106h112v-106z" />
    <glyph glyph-name="multiply" unicode="&#xd7;" horiz-adv-x="600" 
d="M300 331l175 175l78 -78l-175 -175l175 -175l-78 -78l-175 175l-175 -175l-78 78l175 175l-175 175l78 78z" />
    <glyph glyph-name="Oslash" unicode="&#xd8;" horiz-adv-x="611" 
d="M506 766h101l-94 -152q60 -99 60 -252q0 -172 -74 -273t-194 -101q-85 0 -149 53l-52 -83h-100l94 151q-61 100 -61 253q0 172 74 273t194 101q85 0 149 -53zM175 234l217 349q-36 43 -87 43q-62 0 -103 -66t-41 -198q0 -74 14 -128zM435 490l-217 -349q36 -43 87 -43
q62 0 103 66t41 198q0 74 -14 128z" />
    <glyph glyph-name="Ugrave" unicode="&#xd9;" horiz-adv-x="611" 
d="M64 724h124v-498q0 -64 27 -93t90 -29t90 29t27 93v498h124v-530q0 -87 -61.5 -146.5t-179.5 -59.5t-179.5 59.5t-61.5 146.5v530zM157 909h134l90 -144h-82z" />
    <glyph glyph-name="Uacute" unicode="&#xda;" horiz-adv-x="611" 
d="M64 724h124v-498q0 -64 27 -93t90 -29t90 29t27 93v498h124v-530q0 -87 -61.5 -146.5t-179.5 -59.5t-179.5 59.5t-61.5 146.5v530zM455 909l-142 -144h-82l90 144h134z" />
    <glyph glyph-name="Ucircumflex" unicode="&#xdb;" horiz-adv-x="611" 
d="M64 724h124v-498q0 -64 27 -93t90 -29t90 29t27 93v498h124v-530q0 -87 -61.5 -146.5t-179.5 -59.5t-179.5 59.5t-61.5 146.5v530zM306 854l-71 -89h-92l107 144h111l108 -144h-93z" />
    <glyph glyph-name="Udieresis" unicode="&#xdc;" horiz-adv-x="611" 
d="M64 724h124v-498q0 -64 27 -93t90 -29t90 29t27 93v498h124v-530q0 -87 -61.5 -146.5t-179.5 -59.5t-179.5 59.5t-61.5 146.5v530zM275 779h-112v106h112v-106zM337 885h112v-106h-112v106z" />
    <glyph glyph-name="Yacute" unicode="&#xdd;" 
d="M187 0v292l-187 432h132l118 -302l118 302h132l-189 -432v-292h-124zM405 909l-142 -144h-82l90 144h134z" />
    <glyph glyph-name="Thorn" unicode="&#xde;" horiz-adv-x="556" 
d="M196 600h66q129 0 194 -62.5t65 -166.5q0 -101 -59.5 -163t-163.5 -62h-102v-146h-124v724h124v-124zM196 490v-234h90q57 0 84 32.5t27 85.5q0 52 -27 84t-84 32h-90z" />
    <glyph glyph-name="germandbls" unicode="&#xdf;" horiz-adv-x="556" 
d="M168 0h-108v531q0 101 57.5 153t166.5 52q80 0 139.5 -56t59.5 -137q0 -63 -27 -106.5t-85 -46.5v-2q73 -5 111.5 -57.5t38.5 -129.5q0 -96 -64 -153.5t-160 -57.5q-44 0 -81.5 25t-45.5 66h-2v-81zM176 207h29q6 -101 100 -101q40 0 66 30.5t26 70.5q0 114 -156 106v106
q118 0 118 110q0 44 -22.5 72.5t-64.5 28.5q-51 0 -73.5 -25.5t-22.5 -93.5v-304z" />
    <glyph glyph-name="agrave" unicode="&#xe0;" 
d="M432 0h-102v70h-2q-34 -80 -109 -80q-80 0 -134.5 71t-54.5 217q0 157 54 230.5t135 73.5q70 0 109 -74h2v64h102v-572zM316 223v126q0 123 -72 123q-90 0 -90 -186t90 -186q72 0 72 123zM93 776h134l90 -144h-82z" />
    <glyph glyph-name="aacute" unicode="&#xe1;" 
d="M432 0h-102v70h-2q-34 -80 -109 -80q-80 0 -134.5 71t-54.5 217q0 157 54 230.5t135 73.5q70 0 109 -74h2v64h102v-572zM316 223v126q0 123 -72 123q-90 0 -90 -186t90 -186q72 0 72 123zM391 776l-142 -144h-82l90 144h134z" />
    <glyph glyph-name="acircumflex" unicode="&#xe2;" 
d="M432 0h-102v70h-2q-34 -80 -109 -80q-80 0 -134.5 71t-54.5 217q0 157 54 230.5t135 73.5q70 0 109 -74h2v64h102v-572zM316 223v126q0 123 -72 123q-90 0 -90 -186t90 -186q72 0 72 123zM242 721l-71 -89h-92l107 144h111l108 -144h-93z" />
    <glyph glyph-name="atilde" unicode="&#xe3;" 
d="M432 0h-102v70h-2q-34 -80 -109 -80q-80 0 -134.5 71t-54.5 217q0 157 54 230.5t135 73.5q70 0 109 -74h2v64h102v-572zM316 223v126q0 123 -72 123q-90 0 -90 -186t90 -186q72 0 72 123zM361 762h58q-21 -116 -112 -116q-23 0 -73 18t-71 18q-18 0 -28 -12.5t-12 -29.5
h-58q3 43 32.5 79.5t71.5 36.5q28 0 79 -19q49 -19 67 -19q35 0 46 44z" />
    <glyph glyph-name="adieresis" unicode="&#xe4;" 
d="M432 0h-102v70h-2q-34 -80 -109 -80q-80 0 -134.5 71t-54.5 217q0 157 54 230.5t135 73.5q70 0 109 -74h2v64h102v-572zM316 223v126q0 123 -72 123q-90 0 -90 -186t90 -186q72 0 72 123zM273 752h112v-106h-112v106zM211 646h-112v106h112v-106z" />
    <glyph glyph-name="aring" unicode="&#xe5;" 
d="M432 0h-102v70h-2q-34 -80 -109 -80q-80 0 -134.5 71t-54.5 217q0 157 54 230.5t135 73.5q70 0 109 -74h2v64h102v-572zM316 223v126q0 123 -72 123q-90 0 -90 -186t90 -186q72 0 72 123zM242 838q42 0 72.5 -30t30.5 -73t-30.5 -73t-72.5 -30t-72.5 30t-30.5 73t30.5 73
t72.5 30zM242 794q-24 0 -41.5 -17t-17.5 -42t17.5 -42t41.5 -17t41.5 17t17.5 42t-17.5 42t-41.5 17z" />
    <glyph glyph-name="ae" unicode="&#xe6;" horiz-adv-x="778" 
d="M744 248h-302q3 -77 25 -114.5t70 -37.5q39 0 57.5 26t29.5 72h117q-12 -89 -60.5 -146.5t-114.5 -57.5q-103 0 -130 62h-2v-52h-100v50h-2q-9 -24 -37 -42t-76 -18q-80 0 -134.5 71t-54.5 217q0 157 54 230.5t135 73.5q83 0 113 -72h2v62h100v-62h2q21 40 49 56t77 16
q82 0 132 -73.5t50 -192.5v-68zM326 223v126q0 58 -22 90.5t-60 32.5q-90 0 -90 -186t90 -186q38 0 60 32.5t22 90.5zM442 346h186q-3 71 -24.5 100.5t-62.5 29.5q-44 0 -67 -29t-32 -101z" />
    <glyph glyph-name="ccedilla" unicode="&#xe7;" horiz-adv-x="444" 
d="M110 -201l17 40q38 -16 65 -16q61 0 61 41q0 35 -48 35q-22 0 -37 -6l-22 18l60 81q-85 10 -130.5 93.5t-45.5 200.5q0 139 50 217.5t149 78.5q89 0 140 -62t51 -152h-110q-6 61 -24.5 84.5t-52.5 23.5q-41 0 -60 -40t-19 -146q0 -108 20 -151t59 -43q71 0 77 111h110
q0 -85 -45 -145.5t-122 -69.5l-37 -53q18 4 27 4q36 0 63 -20.5t27 -55.5q0 -48 -37.5 -71t-89.5 -23q-19 0 -50 8t-46 18z" />
    <glyph glyph-name="egrave" unicode="&#xe8;" 
d="M336 194h117q-12 -92 -65.5 -148t-137.5 -56q-107 0 -163.5 86t-56.5 210t56.5 210t163.5 86q98 0 152 -72.5t54 -193.5v-68h-302q9 -152 95 -152q39 0 57.5 26t29.5 72zM155 346h185q-3 72 -25.5 101t-70.5 29q-77 0 -89 -130zM101 776h134l90 -144h-82z" />
    <glyph glyph-name="eacute" unicode="&#xe9;" 
d="M336 194h117q-12 -92 -65.5 -148t-137.5 -56q-107 0 -163.5 86t-56.5 210t56.5 210t163.5 86q98 0 152 -72.5t54 -193.5v-68h-302q9 -152 95 -152q39 0 57.5 26t29.5 72zM155 346h185q-3 72 -25.5 101t-70.5 29q-77 0 -89 -130zM399 776l-142 -144h-82l90 144h134z" />
    <glyph glyph-name="ecircumflex" unicode="&#xea;" 
d="M336 194h117q-12 -92 -65.5 -148t-137.5 -56q-107 0 -163.5 86t-56.5 210t56.5 210t163.5 86q98 0 152 -72.5t54 -193.5v-68h-302q9 -152 95 -152q39 0 57.5 26t29.5 72zM250 721l-71 -89h-92l107 144h111l108 -144h-93zM155 346h185q-3 72 -25.5 101t-70.5 29
q-77 0 -89 -130z" />
    <glyph glyph-name="edieresis" unicode="&#xeb;" 
d="M336 194h117q-12 -92 -65.5 -148t-137.5 -56q-107 0 -163.5 86t-56.5 210t56.5 210t163.5 86q98 0 152 -72.5t54 -193.5v-68h-302q9 -152 95 -152q39 0 57.5 26t29.5 72zM155 346h185q-3 72 -25.5 101t-70.5 29q-77 0 -89 -130zM281 752h112v-106h-112v106zM219 646h-112
v106h112v-106z" />
    <glyph glyph-name="igrave" unicode="&#xec;" horiz-adv-x="222" 
d="M169 0h-116v572h116v-572zM-38 776h134l90 -144h-82z" />
    <glyph glyph-name="iacute" unicode="&#xed;" horiz-adv-x="222" 
d="M169 0h-116v572h116v-572zM260 776l-142 -144h-82l90 144h134z" />
    <glyph glyph-name="icircumflex" unicode="&#xee;" horiz-adv-x="222" 
d="M169 0h-116v572h116v-572zM111 721l-71 -89h-92l107 144h111l108 -144h-93z" />
    <glyph glyph-name="idieresis" unicode="&#xef;" horiz-adv-x="222" 
d="M169 0h-116v572h116v-572zM80 646h-112v106h112v-106zM142 752h112v-106h-112v106z" />
    <glyph glyph-name="eth" unicode="&#xf0;" 
d="M120 666l52 70q54 -24 102 -63l86 61l46 -60l-75 -53q139 -152 139 -375q0 -104 -58.5 -180t-161.5 -76q-102 0 -161 73.5t-59 169.5q0 95 59 168.5t161 73.5q30 0 58 -9q-25 52 -62 95l-82 -59l-46 60l74 53q-38 31 -72 51zM154 233q0 -65 25 -101t71 -36t71 36t25 101
q0 62 -25 99t-71 37t-71 -37t-25 -99z" />
    <glyph glyph-name="ntilde" unicode="&#xf1;" 
d="M176 0h-116v572h106v-60h2q31 70 114 70q70 0 114 -44t44 -117v-421h-116v398q0 78 -65 78q-38 0 -60.5 -25t-22.5 -70v-381zM369 762h58q-21 -116 -112 -116q-23 0 -73 18t-71 18q-18 0 -28 -12.5t-12 -29.5h-58q3 43 32.5 79.5t71.5 36.5q28 0 79 -19q49 -19 67 -19
q35 0 46 44z" />
    <glyph glyph-name="ograve" unicode="&#xf2;" 
d="M470 286q0 -124 -56.5 -210t-163.5 -86t-163.5 86t-56.5 210t56.5 210t163.5 86t163.5 -86t56.5 -210zM346 286q0 103 -24 146.5t-72 43.5t-72 -43.5t-24 -146.5t24 -146.5t72 -43.5t72 43.5t24 146.5zM101 776h134l90 -144h-82z" />
    <glyph glyph-name="oacute" unicode="&#xf3;" 
d="M470 286q0 -124 -56.5 -210t-163.5 -86t-163.5 86t-56.5 210t56.5 210t163.5 86t163.5 -86t56.5 -210zM346 286q0 103 -24 146.5t-72 43.5t-72 -43.5t-24 -146.5t24 -146.5t72 -43.5t72 43.5t24 146.5zM399 776l-142 -144h-82l90 144h134z" />
    <glyph glyph-name="ocircumflex" unicode="&#xf4;" 
d="M470 286q0 -124 -56.5 -210t-163.5 -86t-163.5 86t-56.5 210t56.5 210t163.5 86t163.5 -86t56.5 -210zM346 286q0 103 -24 146.5t-72 43.5t-72 -43.5t-24 -146.5t24 -146.5t72 -43.5t72 43.5t24 146.5zM250 721l-71 -89h-92l107 144h111l108 -144h-93z" />
    <glyph glyph-name="otilde" unicode="&#xf5;" 
d="M470 286q0 -124 -56.5 -210t-163.5 -86t-163.5 86t-56.5 210t56.5 210t163.5 86t163.5 -86t56.5 -210zM346 286q0 103 -24 146.5t-72 43.5t-72 -43.5t-24 -146.5t24 -146.5t72 -43.5t72 43.5t24 146.5zM369 762h58q-21 -116 -112 -116q-23 0 -73 18t-71 18
q-18 0 -28 -12.5t-12 -29.5h-58q3 43 32.5 79.5t71.5 36.5q28 0 79 -19q49 -19 67 -19q35 0 46 44z" />
    <glyph glyph-name="odieresis" unicode="&#xf6;" 
d="M470 286q0 -124 -56.5 -210t-163.5 -86t-163.5 86t-56.5 210t56.5 210t163.5 86t163.5 -86t56.5 -210zM346 286q0 103 -24 146.5t-72 43.5t-72 -43.5t-24 -146.5t24 -146.5t72 -43.5t72 43.5t24 146.5zM281 752h112v-106h-112v106zM219 646h-112v106h112v-106z" />
    <glyph glyph-name="divide" unicode="&#xf7;" horiz-adv-x="600" 
d="M553 198h-506v110h506v-110zM301 133q35 0 61.5 -26.5t26.5 -61.5t-26.5 -61.5t-61.5 -26.5t-61.5 26.5t-26.5 61.5t26.5 61.5t61.5 26.5zM301 549q35 0 61.5 -26.5t26.5 -61.5t-26.5 -61.5t-61.5 -26.5t-61.5 26.5t-26.5 61.5t26.5 61.5t61.5 26.5z" />
    <glyph glyph-name="oslash" unicode="&#xf8;" 
d="M399 642h90l-78 -143q59 -80 59 -213q0 -124 -56.5 -210t-163.5 -86q-56 0 -102 27l-47 -87h-90l78 143q-59 82 -59 213q0 124 56.5 210t163.5 86q58 0 102 -27zM161 203l139 257q-19 16 -50 16q-48 0 -72 -43.5t-24 -146.5q0 -45 5 -83h2zM339 369l-139 -257
q20 -16 50 -16q48 0 72 43.5t24 146.5q0 46 -5 83h-2z" />
    <glyph glyph-name="ugrave" unicode="&#xf9;" 
d="M324 572h116v-572h-106v68h-2q-29 -78 -114 -78q-70 0 -114 44t-44 117v421h116v-398q0 -78 65 -78q38 0 60.5 25t22.5 70v381zM101 776h134l90 -144h-82z" />
    <glyph glyph-name="uacute" unicode="&#xfa;" 
d="M324 572h116v-572h-106v68h-2q-29 -78 -114 -78q-70 0 -114 44t-44 117v421h116v-398q0 -78 65 -78q38 0 60.5 25t22.5 70v381zM399 776l-142 -144h-82l90 144h134z" />
    <glyph glyph-name="ucircumflex" unicode="&#xfb;" 
d="M324 572h116v-572h-106v68h-2q-29 -78 -114 -78q-70 0 -114 44t-44 117v421h116v-398q0 -78 65 -78q38 0 60.5 25t22.5 70v381zM250 721l-71 -89h-92l107 144h111l108 -144h-93z" />
    <glyph glyph-name="udieresis" unicode="&#xfc;" 
d="M324 572h116v-572h-106v68h-2q-29 -78 -114 -78q-70 0 -114 44t-44 117v421h116v-398q0 -78 65 -78q38 0 60.5 25t22.5 70v381zM219 646h-112v106h112v-106zM281 752h112v-106h-112v106z" />
    <glyph glyph-name="yacute" unicode="&#xfd;" horiz-adv-x="444" 
d="M85 -198l74 225l-153 545h123l89 -380h2l95 380h123l-225 -770h-128zM371 776l-142 -144h-82l90 144h134z" />
    <glyph glyph-name="thorn" unicode="&#xfe;" 
d="M60 724h116v-207h2q23 65 103 65t134.5 -71t54.5 -217q0 -157 -54 -230.5t-135 -73.5q-70 0 -103 64h-2v-240h-116v910zM176 349v-126q0 -58 21 -90.5t59 -32.5q90 0 90 186t-90 186q-38 0 -59 -32.5t-21 -90.5z" />
    <glyph glyph-name="ydieresis" unicode="&#xff;" horiz-adv-x="444" 
d="M85 -198l74 225l-153 545h123l89 -380h2l95 380h123l-225 -770h-128zM191 646h-112v106h112v-106zM253 752h112v-106h-112v106z" />
    <glyph glyph-name="dotlessi" unicode="&#x131;" horiz-adv-x="222" 
d="M169 0h-116v572h116v-572z" />
    <glyph glyph-name="Lslash" unicode="&#x141;" horiz-adv-x="444" 
d="M190 334v-224h230v-110h-354v284l-76 -30v100l76 30v340h124v-290l162 64v-100z" />
    <glyph glyph-name="lslash" unicode="&#x142;" horiz-adv-x="222" 
d="M169 371v-371h-116v310l-56 -30v92l56 30v322h116v-261l56 29v-92z" />
    <glyph glyph-name="OE" unicode="&#x152;" horiz-adv-x="889" 
d="M580 614v-182h251v-110h-251v-212h253v-110h-363v104h-2q-28 -116 -163 -116q-120 0 -194 101t-74 273t74 273t194 101q70 0 107.5 -27.5t55.5 -88.5h2v104h357v-110h-247zM450 295v140q0 84 -35 134.5t-106 50.5q-148 0 -148 -258t148 -258q71 0 106 53t35 138z" />
    <glyph glyph-name="oe" unicode="&#x153;" horiz-adv-x="778" 
d="M744 248h-288q13 -152 87 -152q35 0 52.5 26t28.5 72h117q-12 -92 -66.5 -148t-142.5 -56q-100 0 -145 82q-44 -82 -137 -82q-107 0 -163.5 86t-56.5 210t56.5 210t163.5 86q101 0 144 -76q47 76 138 76q102 0 157 -72t55 -194v-68zM154 286q0 -190 84 -190q48 0 71 43.5
t23 146.5t-23 146.5t-71 43.5q-84 0 -84 -190zM456 346h172q-5 130 -81 130q-40 0 -62 -30.5t-29 -99.5z" />
    <glyph glyph-name="Scaron" unicode="&#x160;" 
d="M27 225h116q13 -127 106 -127q43 0 71.5 29t28.5 73q0 34 -17 57t-44 36t-60 23.5t-66 26t-60 37t-44 62.5t-17 98q0 88 58.5 142t147.5 54q96 0 148 -58t58 -156h-115q-6 45 -30 74.5t-66 29.5q-40 0 -62.5 -26t-22.5 -67q0 -35 23 -57.5t57 -32.5t74 -26t74 -35.5
t57 -64t23 -109.5q0 -100 -59.5 -160t-159.5 -60q-103 0 -160.5 66t-58.5 171zM185 909l71 -89l70 89h93l-108 -144h-111l-107 144h92z" />
    <glyph glyph-name="scaron" unicode="&#x161;" horiz-adv-x="444" 
d="M28 172h116q1 -35 20 -55.5t55 -20.5q80 0 80 66q0 32 -27 48.5t-66 26t-77.5 24t-65.5 53.5t-27 104q0 75 50 119.5t125 44.5q79 0 132 -46.5t56 -124.5h-114q-7 35 -25 50t-54 15q-25 0 -39.5 -15t-14.5 -41q0 -30 27 -46t66 -25t77.5 -24t65.5 -54t27 -102
q0 -85 -55.5 -132t-140.5 -47q-82 0 -135.5 50.5t-55.5 131.5zM151 776l71 -89l70 89h93l-108 -144h-111l-107 144h92z" />
    <glyph glyph-name="Ydieresis" unicode="&#x178;" 
d="M187 0v292l-187 432h132l118 -302l118 302h132l-189 -432v-292h-124zM225 779h-112v106h112v-106zM287 885h112v-106h-112v106z" />
    <glyph glyph-name="Zcaron" unicode="&#x17d;" horiz-adv-x="444" 
d="M419 0h-398v112l253 496h-230v116h368v-114l-248 -494h255v-116zM157 909l71 -89l70 89h93l-108 -144h-111l-107 144h92z" />
    <glyph glyph-name="zcaron" unicode="&#x17e;" horiz-adv-x="444" 
d="M281 466h-237v106h368v-108l-257 -358h259v-106h-392v108zM151 776l71 -89l70 89h93l-108 -144h-111l-107 144h92z" />
    <glyph glyph-name="florin" unicode="&#x192;" horiz-adv-x="556" 
d="M215 342h-127l9 106h124q5 153 54.5 220.5t140.5 67.5q46 0 130 -24l-31 -107q-48 21 -61 21q-55 0 -79 -38.5t-26 -139.5h139l-9 -106h-136q-2 -101 -6.5 -170t-13.5 -134.5t-24 -105.5t-38.5 -71.5t-56.5 -45t-78 -13.5q-68 0 -116 18l32 112q28 -14 63 -14
q22 0 35.5 4t25.5 21t18.5 42.5t13 76.5t10 114.5t7.5 165.5z" />
    <glyph glyph-name="circumflex" unicode="&#x2c6;" horiz-adv-x="222" 
d="M111 721l-71 -89h-92l107 144h111l108 -144h-93z" />
    <glyph glyph-name="caron" unicode="&#x2c7;" horiz-adv-x="222" 
d="M40 776l71 -89l70 89h93l-108 -144h-111l-107 144h92z" />
    <glyph glyph-name="breve" unicode="&#x2d8;" horiz-adv-x="222" 
d="M-50 779h56q6 -33 32.5 -54t60.5 -21q49 0 76.5 15.5t39.5 59.5h57q-4 -66 -48 -103.5t-111 -37.5q-152 0 -163 141z" />
    <glyph glyph-name="dotaccent" unicode="&#x2d9;" horiz-adv-x="222" 
d="M167 646h-112v106h112v-106z" />
    <glyph glyph-name="ring" unicode="&#x2da;" horiz-adv-x="222" 
d="M111 838q42 0 72.5 -30t30.5 -73t-30.5 -73t-72.5 -30t-72.5 30t-30.5 73t30.5 73t72.5 30zM111 794q-24 0 -41.5 -17t-17.5 -42t17.5 -42t41.5 -17t41.5 17t17.5 42t-17.5 42t-41.5 17z" />
    <glyph glyph-name="ogonek" unicode="&#x2db;" horiz-adv-x="222" 
d="M223 21v-12q-140 -53 -140 -125q0 -23 14.5 -36t36.5 -13q32 0 96 42l20 -36q-90 -60 -151 -60q-45 0 -74.5 24.5t-29.5 67.5q0 110 228 148z" />
    <glyph glyph-name="tilde" unicode="&#x2dc;" horiz-adv-x="222" 
d="M230 762h58q-21 -116 -112 -116q-23 0 -73 18t-71 18q-18 0 -28 -12.5t-12 -29.5h-58q3 43 32.5 79.5t71.5 36.5q28 0 79 -19q49 -19 67 -19q35 0 46 44z" />
    <glyph glyph-name="hungarumlaut" unicode="&#x2dd;" horiz-adv-x="222" 
d="M340 776l-142 -144h-82l90 144h134zM156 776l-130 -144h-74l74 144h130z" />
    <glyph glyph-name="endash" unicode="&#x2013;" 
d="M500 244h-500v84h500v-84z" />
    <glyph glyph-name="emdash" unicode="&#x2014;" horiz-adv-x="1000" 
d="M1000 244h-1000v84h1000v-84z" />
    <glyph glyph-name="quoteleft" unicode="&#x2018;" horiz-adv-x="222" 
d="M22 736h123l67 -228h-92z" />
    <glyph glyph-name="quoteright" unicode="&#x2019;" horiz-adv-x="222" 
d="M77 736h123l-98 -228h-92z" />
    <glyph glyph-name="quotesinglbase" unicode="&#x201a;" horiz-adv-x="222" 
d="M77 130h123l-98 -228h-92z" />
    <glyph glyph-name="quotedblleft" unicode="&#x201c;" horiz-adv-x="389" 
d="M16 736h123l67 -228h-92zM183 736h123l67 -228h-92z" />
    <glyph glyph-name="quotedblright" unicode="&#x201d;" horiz-adv-x="389" 
d="M250 736h123l-98 -228h-92zM83 736h123l-98 -228h-92z" />
    <glyph glyph-name="quotedblbase" unicode="&#x201e;" horiz-adv-x="389" 
d="M250 130h123l-98 -228h-92zM83 130h123l-98 -228h-92z" />
    <glyph glyph-name="dagger" unicode="&#x2020;" horiz-adv-x="444" 
d="M164 724h116l-40 -204l168 39v-113l-168 38l40 -163l-40 -411h-36l-40 411l40 163l-168 -38v113l168 -39z" />
    <glyph glyph-name="daggerdbl" unicode="&#x2021;" horiz-adv-x="444" 
d="M408 559v-113l-168 38l40 -167l-40 -167l168 38v-113l-168 39l40 -204h-116l40 204l-168 -39v113l168 -38l-40 167l40 167l-168 -38v113l168 -39l-40 204h116l-40 -204z" />
    <glyph glyph-name="bullet" unicode="&#x2022;" 
d="M69 362q-1 75 52 128t129 53t129 -53t52 -128q1 -75 -52 -128t-129 -53t-129 53t-52 128z" />
    <glyph glyph-name="ellipsis" unicode="&#x2026;" horiz-adv-x="1000" 
d="M225 0h-116v130h116v-130zM891 0h-116v130h116v-130zM558 0h-116v130h116v-130z" />
    <glyph glyph-name="perthousand" unicode="&#x2030;" horiz-adv-x="1000" 
d="M159 736q69 0 112 -50t43 -129t-43 -129t-112 -50t-112 50t-43 129t43 129t112 50zM841 346q69 0 112 -50t43 -129t-43 -129t-112 -50t-112 50t-43 129t43 129t112 50zM490 346q69 0 112 -50t43 -129t-43 -129t-112 -50t-112 50t-43 129t43 129t112 50zM518 736
l-316 -748h-72l316 748h72zM490 270q-36 0 -56.5 -27.5t-20.5 -75.5t20.5 -75.5t56.5 -27.5t56.5 27.5t20.5 75.5t-20.5 75.5t-56.5 27.5zM841 270q-36 0 -56.5 -27.5t-20.5 -75.5t20.5 -75.5t56.5 -27.5t56.5 27.5t20.5 75.5t-20.5 75.5t-56.5 27.5zM159 660
q-36 0 -56.5 -27.5t-20.5 -75.5t20.5 -75.5t56.5 -27.5t56.5 27.5t20.5 75.5t-20.5 75.5t-56.5 27.5z" />
    <glyph glyph-name="guilsinglleft" unicode="&#x2039;" horiz-adv-x="278" 
d="M254 469l-124 -183l124 -183h-105l-125 183l125 183h105z" />
    <glyph glyph-name="guilsinglright" unicode="&#x203a;" horiz-adv-x="278" 
d="M148 286l-124 183h105l125 -183l-125 -183h-105z" />
    <glyph glyph-name="fraction" unicode="&#x2044;" horiz-adv-x="167" 
d="M334 736l-409 -748h-92l409 748h92z" />
    <glyph glyph-name="Euro" unicode="&#x20ac;" horiz-adv-x="556" 
d="M42 488h43q11 90 56 152q69 96 197 96q117 0 192 -76l-51 -106q-52 66 -133 66q-72 0 -107 -53q-21 -33 -29 -79h241l-32 -80h-218q-1 -15 -1 -46q0 -19 1 -28h188l-32 -80h-150q3 -52 25 -91q33 -59 88 -59q36 0 63 25t31 69h126q-12 -91 -72.5 -150.5t-151.5 -59.5
q-103 0 -170 84q-58 74 -63 182h-73l32 80h35q-1 9 -1 28q0 31 1 46h-67z" />
    <glyph glyph-name="trademark" unicode="&#x2122;" horiz-adv-x="1000" 
d="M572 724l97 -258l96 258h158v-426h-110v290h-2l-101 -290h-83l-101 290h-2v-290h-110v426h158zM369 724v-110h-119v-316h-116v316h-118v110h353z" />
    <glyph glyph-name="minus" unicode="&#x2212;" horiz-adv-x="600" 
d="M553 198h-506v110h506v-110z" />
    <glyph glyph-name="fi" unicode="&#xfb01;" 
d="M74 462h-58v110h58v42q0 57 38 89.5t113 32.5q27 0 46 -4v-106h-20q-61 0 -61 -44v-10h76v-110h-76v-462h-116v462zM447 0h-116v572h116v-572zM447 626h-116v110h116v-110z" />
    <glyph glyph-name="fl" unicode="&#xfb02;" 
d="M74 462h-58v110h58v42q0 57 38 89.5t113 32.5q27 0 46 -4v-106h-20q-61 0 -61 -44v-10h76v-110h-76v-462h-116v462zM447 0h-116v724h116v-724z" />
    <glyph glyph-name="oldcurrency" horiz-adv-x="556" 
d="M474 624l64 -64l-53 -52q41 -62 41 -146t-41 -145l53 -53l-64 -64l-53 54q-63 -40 -143 -40q-82 0 -142 40l-54 -54l-64 64l53 53q-41 63 -41 145q0 85 41 145l-53 53l64 64l55 -53q61 39 141 39t142 -39zM414 362q0 65 -38 103t-98 38t-98 -38t-38 -103t38 -103t98 -38
t98 38t38 103z" />
    <glyph glyph-name="hyphenminus" horiz-adv-x="333" 
d="M289 236h-245v100h245v-100z" />
    </font>
</defs>
</svg>
