<svg xmlns="http://www.w3.org/2000/svg" viewBox="0 0 102.46 20.65"><defs><style>.cls-1{fill:#181818;}.cls-2{fill:#39b54a;}.cls-3{fill:#ed1c29;}.cls-4{fill:#ede937;}.cls-5{fill:#27aae1;}</style></defs><title>Ресурс 3</title><g id="Слой_2" data-name="Слой 2"><g id="Layer_1" data-name="Layer 1"><path class="cls-1" d="M22.57,10a3.34,3.34,0,0,0,1.5-1.5,5.56,5.56,0,0,0,.6-2.7c0-2.44-.67-4.08-2-4.95A8.32,8.32,0,0,0,18.35,0H0V5H17.52a1.89,1.89,0,0,1,1.18.31,1.31,1.31,0,0,1,.4,1.07,1.25,1.25,0,0,1-.42,1,1.82,1.82,0,0,1-1.16.33H0V20.56H19.1c2.26,0,3.87-.43,4.85-1.29s1.47-2.33,1.47-4.4Q25.42,11.27,22.57,10Zm-5.31,5.61H6.32V12.38H17.26a2.2,2.2,0,0,1,1.36.36,1.57,1.57,0,0,1,.48,1.33C19.1,15.11,18.48,15.62,17.26,15.62Z"/><path class="cls-1" d="M41,5.21c2.7,0,4.43.2,5.2.59.62.32.92,1.06.92,2.22h6.21q0-5.34-1.74-6.57Q49.58,0,41,0T30.45,1.65q-1.74,1.52-1.74,8.67c0,4.79.61,7.71,1.81,8.76s4.7,1.57,10.46,1.57,9.32-.47,10.65-1.43q1.68-1.2,1.68-6.57H47.13c0,1.22-.34,2-1,2.32s-2.39.49-5.13.49q-4.51,0-5.3-.7c-.53-.47-.79-1.94-.79-4.41s.26-4,.79-4.44S38,5.21,41,5.21Z"/><polygon class="cls-1" points="75.78 0 56.61 0 56.61 5.31 63.2 5.31 63.2 20.54 69.51 20.54 69.51 5.31 75.78 5.31 75.78 0"/><rect class="cls-1" x="86.13" y="19.36" width="14.48" height="1.18"/><rect class="cls-2" x="85.05" y="13.98" width="15.75" height="2.52"/><rect class="cls-3" x="85.05" y="9.83" width="12.96" height="2.52"/><rect class="cls-4" x="85.05" y="5.68" width="14.7" height="2.52"/><polygon class="cls-5" points="85.04 1.53 85.04 4.04 100.98 4.04 100.97 1.49 85.04 1.53"/><path class="cls-1" d="M101.71,0H84.29a.76.76,0,0,0-.75.75V17.26a.75.75,0,0,0,.75.75h17.42a.75.75,0,0,0,.75-.75V.75A.76.76,0,0,0,101.71,0ZM85,5.67h14.7V8.19H85Zm0,4.15H98v2.52H85.05V9.83M85,14h15.74V16.5H85.05V14M101,4H85V1.53H91.2l9.77,0"/></g></g></svg>