<?xml version="1.0" encoding="iso-8859-1"?>
<!-- Generator: Adobe Illustrator 16.0.0, SVG Export Plug-In . SVG Version: 6.00 Build 0)  -->
<!DOCTYPE svg PUBLIC "-//W3C//DTD SVG 1.1//EN" "http://www.w3.org/Graphics/SVG/1.1/DTD/svg11.dtd">
<svg version="1.1" id="Capa_1" xmlns="http://www.w3.org/2000/svg" xmlns:xlink="http://www.w3.org/1999/xlink" x="0px" y="0px"
	 width="426.722px" height="426.722px" viewBox="0 0 426.722 426.722" style="enable-background:new 0 0 426.722 426.722;"
	 xml:space="preserve" fill="#fff">
<g>
	<g>
		<path d="M368.758,287.617c-21.18,1.309-49.047,22.476-75.924,34.649c-32.945,14.916-84.221,2.924-84.227,2.924
			c7.911-3.712,40.055-11.369,46.529-14.208c34.411-15.146,31.491-46.688,15.103-46.423c-21.651,0.345-34.363,5.659-77.563,11.55
			c-32.747,4.452-71.476,2.824-90.053,9.918c-26.224,10.016-68.456,77.409-68.456,77.409l65.301,63.285
			c0,0,40.427-39.816,60.096-39.816c44.823,0,46.642-0.6,88.255-2.864c17.697-0.947,21.391-1.675,31.527-5.087
			c53.943-18.242,111.875-66.819,112.938-72.662C394.748,292.757,379.947,286.941,368.758,287.617z"/>
		<path d="M239.811,63.419c9.084-5.406,17.193-12.917,24.35-20.545c6.033-6.422,14.008-14.662,13.145-24.183
			c-0.604-6.702-6.232-10.025-12.385-10.787c-1.979-0.248-3.969-0.312-5.967-0.283c-1.342,0.019-4.057-0.339-5.108,0.683
			c-2.205,2.143-4.397,4.282-6.586,6.439c-0.47-1.463-0.929-2.929-1.394-4.413c-0.274-0.874-1.047-1.211-1.91-1.087
			c-6.075,0.96-12.025,2.155-18.139,1.028c-7.507-1.385-14.895-3.486-22.312-5.223c-0.853-0.206-1.65,0.256-1.917,1.085
			c-0.601,1.906-1.207,3.81-1.805,5.713c-2.621-2.594-5.255-5.158-7.9-7.73c-0.627-0.601-1.492-1.91-2.438-2.068
			c-1.759-0.32-3.525-0.623-5.3-0.902c-2.766-0.431-5.544-0.753-8.336-0.97c-6.132-0.477-17.21-0.58-17.552,7.905
			c-0.322,13.584,11.665,24.348,20.26,33.364c5.32,5.584,11.703,12.042,15.28,19.344c-37.986,12.278-70.376,58.399-70.376,108.015
			c0,57.964,27.508,73.853,89.944,73.853c62.429,0,89.933-15.889,89.933-73.853C303.297,122.215,274.742,78.721,239.811,63.419z
			 M239.783,177.332c-2.287,3.413-5.44,6.149-9.062,8.06c-1.91,0.986-3.917,1.771-5.97,2.378c-0.291,0.098-2.97,0.826-2.97,0.826
			v7.489c0,3.484-0.666,7.175-3.787,9.245c-3.411,2.241-8.458,1.572-10.99-1.688c-1.855-2.38-1.961-5.511-1.961-8.401
			c0-2.192,0-6.651,0-6.651s-1.709-0.519-2.075-0.612c-1.199-0.326-2.388-0.713-3.564-1.113c-0.697-0.246-1.379-0.504-2.069-0.775
			c-0.494,0.331-1.013,0.634-1.547,0.899c-0.94,0.466-1.954,0.799-2.991,0.911c-4.103,0.388-7.709-2.053-8.775-6.011
			c-0.668-2.516-0.479-5.211-0.479-7.803c0-2.581-0.196-5.305,0.479-7.841c1.134-4.183,4.997-6.56,9.256-5.954
			c2.002,0.277,3.811,1.262,5.039,2.868c0.648,0.839,1.116,1.811,1.452,2.801c0.312,0.938,0.54,1.897,1.157,2.681
			c1.217,1.532,3.426,2.325,5.212,2.896c2.373,0.767,4.868,1.144,7.36,1.144c3.994,0,8.934-0.856,11.828-3.886
			c1.975-2.083,1.24-5.711-1.486-6.654c-2.598-0.881-4.812-1.328-7.344-1.791c-2.332-0.442-4.666-0.861-6.989-1.299
			c-6.391-1.172-13.042-2.759-17.736-7.583c-6.001-6.15-7.173-15.882-2.713-23.269c2.193-3.631,5.48-6.573,9.261-8.482
			c1.962-0.999,4.053-1.71,6.184-2.212c0.62-0.154,0.54-0.097,0.54-0.654c0-0.47,0-0.956,0-1.444c0-2.287-0.133-4.641,0.072-6.919
			c0.345-4.042,2.537-7.679,6.807-8.375c4.174-0.662,8.068,1.586,9.291,5.665c0.762,2.526,0.568,5.257,0.568,7.879
			c0,1.102,0,2.201,0,3.303c0,0.101,0,0.224,0,0.328c0,0.048,1.084,0.23,1.207,0.253c0.604,0.119,1.207,0.273,1.8,0.438
			c0.487,0.128,1.294,0.584,1.694,0.261c3.438-2.789,8.961-2.683,11.879,0.784c2.176,2.611,2.121,6.77,2.121,9.979
			c0,2.965,0.239,6.099-0.99,8.868c-1.742,3.902-6.379,5.55-10.303,4.101c-1.918-0.689-3.509-2.124-4.412-3.952
			c-0.271-0.535-0.479-1.094-0.639-1.666c-0.072-0.26-0.139-0.524-0.195-0.788c-0.197-0.127-0.401-0.249-0.613-0.355
			c-0.844-0.476-1.743-0.848-2.67-1.153c-2.168-0.686-4.447-0.903-6.708-0.87c-2.086,0.028-4.213,0.204-6.206,0.815
			c-2.503,0.771-6.816,3.8-3.409,6.253c2.032,1.48,4.964,1.889,7.35,2.361c2.124,0.405,4.243,0.83,6.368,1.236
			c6.312,1.244,13.182,2.531,18.23,6.815c-3.438-2.91,4.596,3.847,0,0C244.05,157.175,245.365,168.973,239.783,177.332z"/>
	</g>
</g>
<g>
</g>
<g>
</g>
<g>
</g>
<g>
</g>
<g>
</g>
<g>
</g>
<g>
</g>
<g>
</g>
<g>
</g>
<g>
</g>
<g>
</g>
<g>
</g>
<g>
</g>
<g>
</g>
<g>
</g>
</svg>
