<svg xmlns="http://www.w3.org/2000/svg" viewBox="0 0 120 120" width="120" height="120">
	<defs>
		<clipPath clipPathUnits="userSpaceOnUse" id="cp1">
			<path d="M-140 -122L260 -122L260 278L-140 278L-140 -122Z" />
		</clipPath>
		<linearGradient id="grd1" gradientUnits="userSpaceOnUse"  x1="60" y1="4.632" x2="60" y2="119">
			<stop offset="0" stop-color="#f4f4f4"  />
			<stop offset="1" stop-color="#dedede"  />
		</linearGradient>
		<clipPath clipPathUnits="userSpaceOnUse" id="cp2">
			<path d="M41.84 -1L78.16 -1C90.21 -1 96.23 -1 102.72 1.05C109.8 3.63 115.37 9.2 117.95 16.28C120 22.77 120 28.79 120 40.84L120 77.16C120 89.21 120 95.23 117.95 101.72C115.37 108.8 109.8 114.37 102.72 116.95C96.23 119 90.21 119 78.16 119L41.84 119C29.79 119 23.77 119 17.28 116.95C10.2 114.37 4.63 108.8 2.05 101.72C0 95.23 0 89.21 0 77.16L0 40.84C0 28.79 0 22.77 2.05 16.28C4.63 9.2 10.2 3.63 17.28 1.05C23.77 -1 29.79 -1 41.84 -1L41.84 -1Z" />
		</clipPath>
		<linearGradient id="grd2" gradientUnits="userSpaceOnUse"  x1="59.834" y1="7.038" x2="59.834" y2="110.225">
			<stop offset="0" stop-color="#51514f"  />
			<stop offset="0.498" stop-color="#515151"  />
			<stop offset="1" stop-color="#565656"  />
		</linearGradient>
		<clipPath clipPathUnits="userSpaceOnUse" id="cp3">
			<path d="M59.83 110.23C87.91 110.23 110.67 87.13 110.67 58.63C110.67 30.14 87.91 7.04 59.83 7.04C31.76 7.04 9 30.14 9 58.63C9 87.13 31.76 110.23 59.83 110.23Z" />
		</clipPath>
		<clipPath clipPathUnits="userSpaceOnUse" id="cp4">
			<path d="M83.5 19.81L81.64 24.85C81.52 25.18 81.65 25.62 81.92 25.83L84.11 27.53C84.38 27.74 84.83 27.75 85.12 27.55L89.43 24.42C89.71 24.22 90.14 24.25 90.38 24.5L92.19 26.34C92.44 26.59 92.47 27.02 92.27 27.31L89.19 31.68C88.99 31.96 89 32.42 89.21 32.7L90.89 34.92C91.09 35.19 91.53 35.33 91.86 35.2L96.81 33.32C97.14 33.19 97.54 33.34 97.72 33.65L98.99 35.89C99.17 36.2 99.09 36.63 98.82 36.85L94.73 40.27C94.46 40.49 94.35 40.94 94.49 41.26L95.54 43.84C95.67 44.16 96.06 44.4 96.4 44.37L101.68 43.85C102.02 43.82 102.38 44.06 102.47 44.41L103.13 46.91C103.22 47.26 103.04 47.64 102.72 47.79L97.89 50.02C97.58 50.16 97.36 50.57 97.4 50.91L97.76 53.68C97.81 54.02 98.12 54.36 98.47 54.42L103.69 55.3C104.04 55.36 104.31 55.69 104.31 56.05L104.31 58.64C104.31 59 104.04 59.32 103.69 59.38L98.47 60.26C98.13 60.32 97.82 60.65 97.77 61L97.41 63.77C97.37 64.11 97.59 64.52 97.9 64.67L102.72 66.89C103.04 67.04 103.22 67.43 103.13 67.77L102.47 70.28C102.38 70.63 102.03 70.87 101.68 70.83L96.41 70.31C96.06 70.28 95.67 70.52 95.54 70.84L94.48 73.42C94.36 73.74 94.46 74.19 94.73 74.41L98.82 77.83C99.09 78.06 99.17 78.49 98.99 78.79L97.72 81.04C97.54 81.35 97.14 81.49 96.81 81.37L91.85 79.48C91.52 79.35 91.09 79.48 90.88 79.76L89.21 81.98C89 82.25 88.99 82.72 89.19 83L92.27 87.38C92.47 87.66 92.43 88.1 92.19 88.35L90.38 90.18C90.13 90.43 89.71 90.47 89.43 90.26L85.12 87.14C84.84 86.93 84.39 86.94 84.11 87.15L81.92 88.86C81.66 89.07 81.53 89.51 81.65 89.84L83.5 94.87C83.63 95.2 83.48 95.61 83.18 95.79L80.97 97.09C80.66 97.27 80.24 97.18 80.02 96.91L76.66 92.76C76.44 92.49 76 92.38 75.68 92.51L73.13 93.58C72.82 93.71 72.58 94.1 72.62 94.46L73.13 99.81C73.16 100.16 72.92 100.52 72.58 100.61L70.11 101.28C69.77 101.38 69.39 101.19 69.24 100.87L67.05 95.97C66.91 95.65 66.51 95.43 66.17 95.47L63.44 95.84C63.1 95.88 62.77 96.2 62.72 96.55L61.84 101.86C61.79 102.2 61.46 102.49 61.11 102.49L58.56 102.49C58.2 102.49 57.88 102.2 57.82 101.86L56.95 96.56C56.9 96.21 56.57 95.89 56.23 95.84L53.5 95.48C53.16 95.44 52.76 95.66 52.62 95.98L50.42 100.87C50.28 101.19 49.89 101.37 49.56 101.28L47.09 100.61C46.75 100.52 46.51 100.16 46.54 99.81L47.05 94.46C47.09 94.11 46.85 93.72 46.54 93.58L43.99 92.51C43.68 92.38 43.23 92.49 43.01 92.76L39.64 96.91C39.42 97.18 39 97.26 38.7 97.09L36.49 95.79C36.18 95.61 36.04 95.2 36.16 94.87L38.02 89.83C38.15 89.5 38.02 89.06 37.75 88.85L35.56 87.15C35.29 86.94 34.83 86.93 34.55 87.14L30.24 90.26C29.96 90.47 29.53 90.43 29.28 90.18L27.48 88.35C27.23 88.09 27.2 87.66 27.4 87.38L30.48 83C30.68 82.72 30.67 82.26 30.46 81.98L28.78 79.76C28.58 79.49 28.14 79.36 27.81 79.48L22.85 81.37C22.53 81.49 22.13 81.34 21.95 81.04L20.68 78.79C20.5 78.48 20.58 78.06 20.85 77.83L24.94 74.41C25.21 74.19 25.32 73.75 25.18 73.42L24.13 70.84C24 70.52 23.61 70.28 23.27 70.31L17.99 70.83C17.64 70.87 17.29 70.62 17.2 70.28L16.54 67.77C16.45 67.43 16.63 67.04 16.95 66.89L21.77 64.66C22.09 64.52 22.31 64.12 22.27 63.77L21.9 61C21.86 60.66 21.54 60.32 21.2 60.27L15.97 59.38C15.63 59.32 15.35 58.99 15.35 58.64L15.35 56.05C15.35 55.69 15.63 55.36 15.97 55.3L21.2 54.42C21.54 54.36 21.85 54.03 21.9 53.68L22.26 50.91C22.3 50.57 22.08 50.16 21.77 50.02L16.95 47.79C16.63 47.64 16.45 47.25 16.54 46.91L17.2 44.41C17.29 44.06 17.64 43.82 17.99 43.85L23.26 44.37C23.61 44.4 23.99 44.17 24.13 43.84L25.18 41.26C25.31 40.95 25.21 40.49 24.94 40.27L20.85 36.85C20.58 36.63 20.5 36.2 20.68 35.89L21.95 33.65C22.13 33.33 22.53 33.19 22.86 33.32L27.82 35.21C28.14 35.33 28.58 35.2 28.79 34.92L30.46 32.7C30.67 32.43 30.68 31.97 30.48 31.68L27.4 27.31C27.2 27.02 27.23 26.59 27.48 26.34L29.28 24.5C29.54 24.25 29.96 24.22 30.24 24.42L34.55 27.54C34.83 27.75 35.28 27.74 35.56 27.53L37.74 25.83C38.01 25.62 38.14 25.17 38.02 24.84L36.16 19.81C36.04 19.48 36.19 19.07 36.49 18.89L38.7 17.6C39.01 17.42 39.42 17.5 39.64 17.77L43.01 21.92C43.23 22.2 43.67 22.31 43.99 22.17L46.54 21.11C46.85 20.97 47.09 20.58 47.05 20.23L46.54 14.87C46.51 14.52 46.75 14.16 47.09 14.07L49.56 13.4C49.9 13.31 50.28 13.49 50.42 13.82L52.62 18.71C52.76 19.03 53.16 19.26 53.5 19.21L56.23 18.84C56.56 18.8 56.9 18.48 56.95 18.13L57.82 12.83C57.88 12.48 58.21 12.2 58.56 12.2L61.11 12.2C61.47 12.2 61.79 12.48 61.84 12.83L62.71 18.13C62.77 18.47 63.1 18.79 63.44 18.84L66.17 19.2C66.51 19.25 66.91 19.03 67.05 18.71L69.25 13.81C69.39 13.49 69.78 13.31 70.11 13.4L72.58 14.07C72.92 14.16 73.16 14.52 73.13 14.87L72.62 20.22C72.58 20.57 72.81 20.97 73.13 21.1L75.68 22.17C75.99 22.3 76.43 22.2 76.65 21.92L80.02 17.77C80.24 17.5 80.67 17.42 80.97 17.6L83.18 18.89C83.49 19.07 83.63 19.48 83.5 19.81ZM75.04 30.55C67.88 26.35 59.73 25.44 52.3 27.35C50.87 27.72 51.71 27.52 51.71 27.52C49.73 28.2 48.94 30.24 49.89 32.09C49.91 32.13 49.94 32.18 49.97 32.24C52.95 37.75 58.91 48.8 58.91 48.8C60.26 51.3 63.63 53.27 66.44 53.21C66.44 53.21 79.66 52.94 86.27 52.8C88.3 52.75 89.62 51.01 89.18 49.07C89.18 49.07 89.51 50.27 89.18 49.07C87.12 41.53 82.25 34.77 75.04 30.55ZM49.89 32.09C49.4 31.18 49.92 32.15 49.92 32.15C49.91 32.13 49.9 32.11 49.89 32.09ZM74.55 84.42C81.78 80.34 86.75 73.73 88.96 66.28C89.39 64.84 89.13 65.68 89.13 65.68C89.57 63.58 88.22 61.82 86.13 61.74C86.13 61.74 87.33 61.78 86.04 61.73C79.84 61.48 67.44 60.98 67.44 60.98C64.64 60.87 61.23 62.78 59.84 65.26C59.84 65.26 53.26 76.9 49.98 82.72C48.97 84.51 49.75 86.56 51.62 87.18C51.62 87.18 50.44 86.84 51.62 87.18C59.06 89.26 67.27 88.51 74.55 84.42ZM38.47 79.49C39.93 80.82 42.07 80.49 43.09 78.71C46.42 72.91 53.07 61.31 53.07 61.31C54.48 58.84 54.41 54.9 52.91 52.49C52.91 52.49 46.28 41.84 42.97 36.52C42.28 35.4 42.92 36.44 42.92 36.44C41.81 34.64 39.63 34.34 38.06 35.77C38.06 35.77 38.65 35.13 37.63 36.22C32.38 41.89 29.22 49.56 29.36 57.96C29.51 66.4 32.97 74 38.47 79.49Z" />
		</clipPath>
		<linearGradient id="grd3" gradientUnits="userSpaceOnUse"  x1="89.064" y1="39.929" x2="49.668" y2="39.929">
			<stop offset="0.339" stop-color="#908c83"  />
			<stop offset="0.562" stop-color="#bdbfba"  />
			<stop offset="0.677" stop-color="#acb3ac"  />
			<stop offset="0.854" stop-color="#cfd6cf"  />
			<stop offset="0.953" stop-color="#c2c7c1"  />
			<stop offset="0.125" stop-color="#7e736d"  />
		</linearGradient>
		<linearGradient id="grd4" gradientUnits="userSpaceOnUse"  x1="89.064" y1="74.754" x2="49.667" y2="74.754">
			<stop offset="0.339" stop-color="#908c83"  />
			<stop offset="0.562" stop-color="#bdbfba"  />
			<stop offset="0.677" stop-color="#acb3ac"  />
			<stop offset="0.854" stop-color="#cfd6cf"  />
			<stop offset="0.953" stop-color="#c2c7c1"  />
			<stop offset="0.125" stop-color="#7e736d"  />
		</linearGradient>
		<linearGradient id="grd5" gradientUnits="userSpaceOnUse"  x1="53.48" y1="57.986" x2="29.334" y2="57.986">
			<stop offset="0.339" stop-color="#908c83"  />
			<stop offset="0.562" stop-color="#bdbfba"  />
			<stop offset="0.677" stop-color="#acb3ac"  />
			<stop offset="0.854" stop-color="#cfd6cf"  />
			<stop offset="0.953" stop-color="#c2c7c1"  />
			<stop offset="0.125" stop-color="#7e736d"  />
		</linearGradient>
	</defs>
	<style>
		tspan { white-space:pre }
		.shp0 { fill: url(#grd1) }
		.shp1 { fill: #020518 }
		.shp2 { fill: #ffffff }
		.shp3 { fill: #ffffff;stroke: #565656;paint-order:stroke fill markers;stroke-width: 2 }
		.shp4 { fill: url(#grd3) }
		.shp5 { fill: url(#grd4) }
		.shp6 { fill: url(#grd5) }
		.shp7 { fill: #515151 }
		.shp8 { fill: #d8d8d8 }
		.shp9 { fill: #555555 } 
		.shp10 { fill: #d1d1d1 }
		.shp11 { fill: #535353 }
	</style>
	<g id="Clip-Path: New Settings for iOS" clip-path="url(#cp1)">
		<g id="New Settings for iOS">
			<g id="-e-Settings Icon">
				<g id="Icon">
					<path id="Icon Shape" class="shp0" d="M41.84 -1L78.16 -1C90.21 -1 96.23 -1 102.72 1.05C109.8 3.63 115.37 9.2 117.95 16.28C120 22.77 120 28.79 120 40.84L120 77.16C120 89.21 120 95.23 117.95 101.72C115.37 108.8 109.8 114.37 102.72 116.95C96.23 119 90.21 119 78.16 119L41.84 119C29.79 119 23.77 119 17.28 116.95C10.2 114.37 4.63 108.8 2.05 101.72C0 95.23 0 89.21 0 77.16L0 40.84C0 28.79 0 22.77 2.05 16.28C4.63 9.2 10.2 3.63 17.28 1.05C23.77 -1 29.79 -1 41.84 -1L41.84 -1Z" />
					<g id="Clip-Path: Mask by Icon Shape" clip-path="url(#cp2)">
						<g id="Mask by Icon Shape">
							<g id="settings">
								<path id="Mask" class="shp1" d="M59.83 110.23C87.91 110.23 110.67 87.13 110.67 58.63C110.67 30.14 87.91 7.04 59.83 7.04C31.76 7.04 9 30.14 9 58.63C9 87.13 31.76 110.23 59.83 110.23Z" />
								<g id="Clip-Path: Mask by Mask" clip-path="url(#cp3)">
									<g id="Mask by Mask">
										<g id="Big">
											<path id="Rectangle 168" fill-rule="evenodd" class="shp2" d="M83.5 19.81L81.64 24.85C81.52 25.18 81.65 25.62 81.92 25.83L84.11 27.53C84.38 27.74 84.83 27.75 85.12 27.55L89.43 24.42C89.71 24.22 90.14 24.25 90.38 24.5L92.19 26.34C92.44 26.59 92.47 27.02 92.27 27.31L89.19 31.68C88.99 31.96 89 32.42 89.21 32.7L90.89 34.92C91.09 35.19 91.53 35.33 91.86 35.2L96.81 33.32C97.14 33.19 97.54 33.34 97.72 33.65L98.99 35.89C99.17 36.2 99.09 36.63 98.82 36.85L94.73 40.27C94.46 40.49 94.35 40.94 94.49 41.26L95.54 43.84C95.67 44.16 96.06 44.4 96.4 44.37L101.68 43.85C102.02 43.82 102.38 44.06 102.47 44.41L103.13 46.91C103.22 47.26 103.04 47.64 102.72 47.79L97.89 50.02C97.58 50.16 97.36 50.57 97.4 50.91L97.76 53.68C97.81 54.02 98.12 54.36 98.47 54.42L103.69 55.3C104.04 55.36 104.31 55.69 104.31 56.05L104.31 58.64C104.31 59 104.04 59.32 103.69 59.38L98.47 60.26C98.13 60.32 97.82 60.65 97.77 61L97.41 63.77C97.37 64.11 97.59 64.52 97.9 64.67L102.72 66.89C103.04 67.04 103.22 67.43 103.13 67.77L102.47 70.28C102.38 70.63 102.03 70.87 101.68 70.83L96.41 70.31C96.06 70.28 95.67 70.52 95.54 70.84L94.48 73.42C94.36 73.74 94.46 74.19 94.73 74.41L98.82 77.83C99.09 78.06 99.17 78.49 98.99 78.79L97.72 81.04C97.54 81.35 97.14 81.49 96.81 81.37L91.85 79.48C91.52 79.35 91.09 79.48 90.88 79.76L89.21 81.98C89 82.25 88.99 82.72 89.19 83L92.27 87.38C92.47 87.66 92.43 88.1 92.19 88.35L90.38 90.18C90.13 90.43 89.71 90.47 89.43 90.26L85.12 87.14C84.84 86.93 84.39 86.94 84.11 87.15L81.92 88.86C81.66 89.07 81.53 89.51 81.65 89.84L83.5 94.87C83.63 95.2 83.48 95.61 83.18 95.79L80.97 97.09C80.66 97.27 80.24 97.18 80.02 96.91L76.66 92.76C76.44 92.49 76 92.38 75.68 92.51L73.13 93.58C72.82 93.71 72.58 94.1 72.62 94.46L73.13 99.81C73.16 100.16 72.92 100.52 72.58 100.61L70.11 101.28C69.77 101.38 69.39 101.19 69.24 100.87L67.05 95.97C66.91 95.65 66.51 95.43 66.17 95.47L63.44 95.84C63.1 95.88 62.77 96.2 62.72 96.55L61.84 101.86C61.79 102.2 61.46 102.49 61.11 102.49L58.56 102.49C58.2 102.49 57.88 102.2 57.82 101.86L56.95 96.56C56.9 96.21 56.57 95.89 56.23 95.84L53.5 95.48C53.16 95.44 52.76 95.66 52.62 95.98L50.42 100.87C50.28 101.19 49.89 101.37 49.56 101.28L47.09 100.61C46.75 100.52 46.51 100.16 46.54 99.81L47.05 94.46C47.09 94.11 46.85 93.72 46.54 93.58L43.99 92.51C43.68 92.38 43.23 92.49 43.01 92.76L39.64 96.91C39.42 97.18 39 97.26 38.7 97.09L36.49 95.79C36.18 95.61 36.04 95.2 36.16 94.87L38.02 89.83C38.15 89.5 38.02 89.06 37.75 88.85L35.56 87.15C35.29 86.94 34.83 86.93 34.55 87.14L30.24 90.26C29.96 90.47 29.53 90.43 29.28 90.18L27.48 88.35C27.23 88.09 27.2 87.66 27.4 87.38L30.48 83C30.68 82.72 30.67 82.26 30.46 81.98L28.78 79.76C28.58 79.49 28.14 79.36 27.81 79.48L22.85 81.37C22.53 81.49 22.13 81.34 21.95 81.04L20.68 78.79C20.5 78.48 20.58 78.06 20.85 77.83L24.94 74.41C25.21 74.19 25.32 73.75 25.18 73.42L24.13 70.84C24 70.52 23.61 70.28 23.27 70.31L17.99 70.83C17.64 70.87 17.29 70.62 17.2 70.28L16.54 67.77C16.45 67.43 16.63 67.04 16.95 66.89L21.77 64.66C22.09 64.52 22.31 64.12 22.27 63.77L21.9 61C21.86 60.66 21.54 60.32 21.2 60.27L15.97 59.38C15.63 59.32 15.35 58.99 15.35 58.64L15.35 56.05C15.35 55.69 15.63 55.36 15.97 55.3L21.2 54.42C21.54 54.36 21.85 54.03 21.9 53.68L22.26 50.91C22.3 50.57 22.08 50.16 21.77 50.02L16.95 47.79C16.63 47.64 16.45 47.25 16.54 46.91L17.2 44.41C17.29 44.06 17.64 43.82 17.99 43.85L23.26 44.37C23.61 44.4 23.99 44.17 24.13 43.84L25.18 41.26C25.31 40.95 25.21 40.49 24.94 40.27L20.85 36.85C20.58 36.63 20.5 36.2 20.68 35.89L21.95 33.65C22.13 33.33 22.53 33.19 22.86 33.32L27.82 35.21C28.14 35.33 28.58 35.2 28.79 34.92L30.46 32.7C30.67 32.43 30.68 31.97 30.48 31.68L27.4 27.31C27.2 27.02 27.23 26.59 27.48 26.34L29.28 24.5C29.54 24.25 29.96 24.22 30.24 24.42L34.55 27.54C34.83 27.75 35.28 27.74 35.56 27.53L37.74 25.83C38.01 25.62 38.14 25.17 38.02 24.84L36.16 19.81C36.04 19.48 36.19 19.07 36.49 18.89L38.7 17.6C39.01 17.42 39.42 17.5 39.64 17.77L43.01 21.92C43.23 22.2 43.67 22.31 43.99 22.17L46.54 21.11C46.85 20.97 47.09 20.58 47.05 20.23L46.54 14.87C46.51 14.52 46.75 14.16 47.09 14.07L49.56 13.4C49.9 13.31 50.28 13.49 50.42 13.82L52.62 18.71C52.76 19.03 53.16 19.26 53.5 19.21L56.23 18.84C56.56 18.8 56.9 18.48 56.95 18.13L57.82 12.83C57.88 12.48 58.21 12.2 58.56 12.2L61.11 12.2C61.47 12.2 61.79 12.48 61.84 12.83L62.71 18.13C62.77 18.47 63.1 18.79 63.44 18.84L66.17 19.2C66.51 19.25 66.91 19.03 67.05 18.71L69.25 13.81C69.39 13.49 69.78 13.31 70.11 13.4L72.58 14.07C72.92 14.16 73.16 14.52 73.13 14.87L72.62 20.22C72.58 20.57 72.81 20.97 73.13 21.1L75.68 22.17C75.99 22.3 76.43 22.2 76.65 21.92L80.02 17.77C80.24 17.5 80.67 17.42 80.97 17.6L83.18 18.89C83.49 19.07 83.63 19.48 83.5 19.81ZM75.04 30.55C67.88 26.35 59.73 25.44 52.3 27.35C50.87 27.72 51.71 27.52 51.71 27.52C49.73 28.2 48.94 30.24 49.89 32.09C49.91 32.13 49.94 32.18 49.97 32.24C52.95 37.75 58.91 48.8 58.91 48.8C60.26 51.3 63.63 53.27 66.44 53.21C66.44 53.21 79.66 52.94 86.27 52.8C88.3 52.75 89.62 51.01 89.18 49.07C89.18 49.07 89.51 50.27 89.18 49.07C87.12 41.53 82.25 34.77 75.04 30.55ZM49.89 32.09C49.4 31.18 49.92 32.15 49.92 32.15C49.91 32.13 49.9 32.11 49.89 32.09ZM74.55 84.42C81.78 80.34 86.75 73.73 88.96 66.28C89.39 64.84 89.13 65.68 89.13 65.68C89.57 63.58 88.22 61.82 86.13 61.74C86.13 61.74 87.33 61.78 86.04 61.73C79.84 61.48 67.44 60.98 67.44 60.98C64.64 60.87 61.23 62.78 59.84 65.26C59.84 65.26 53.26 76.9 49.98 82.72C48.97 84.51 49.75 86.56 51.62 87.18C51.62 87.18 50.44 86.84 51.62 87.18C59.06 89.26 67.27 88.51 74.55 84.42ZM38.47 79.49C39.93 80.82 42.07 80.49 43.09 78.71C46.42 72.91 53.07 61.31 53.07 61.31C54.48 58.84 54.41 54.9 52.91 52.49C52.91 52.49 46.28 41.84 42.97 36.52C42.28 35.4 42.92 36.44 42.92 36.44C41.81 34.64 39.63 34.34 38.06 35.77C38.06 35.77 38.65 35.13 37.63 36.22C32.38 41.89 29.22 49.56 29.36 57.96C29.51 66.4 32.97 74 38.47 79.49Z" />
											<g id="Clip-Path: Mask by Rectangle 168" clip-path="url(#cp4)">
												<g id="Mask by Rectangle 168">
													<path id="Rectangle 168" class="shp3" d="M59.83 92.17C78.78 92.17 94.15 76.58 94.15 57.34C94.15 38.11 78.78 22.52 59.83 22.52C40.88 22.52 25.52 38.11 25.52 57.34C25.52 76.58 40.88 92.17 59.83 92.17Z" />
													<path id="Path 8" class="shp4" d="M88.92 49.28C86.88 41.67 82.07 34.84 74.94 30.58C67.85 26.34 59.8 25.42 52.45 27.35C51.03 27.72 51.86 27.52 51.86 27.52C49.89 28.21 49.1 30.32 50.1 32.2C50.1 32.2 49.52 31.12 50.14 32.28C53.09 37.86 58.99 49.01 58.99 49.01C60.32 51.53 63.65 53.53 66.43 53.47C66.43 53.47 79.5 53.19 86.04 53.05C87.25 53.02 86.04 53.05 86.04 53.05C88.05 53.01 89.36 51.25 88.92 49.28C88.92 49.28 89.24 50.49 88.92 49.28L88.92 49.28L88.92 49.28Z" />
													<path id="Path 7" class="shp5" d="M51.74 87.18C59.12 89.25 67.28 88.5 74.5 84.44C81.69 80.41 86.62 73.85 88.82 66.46C89.24 65.04 88.98 65.87 88.98 65.87C89.42 63.79 88.08 62.05 86 61.96C86 61.96 87.2 62.01 85.91 61.96C79.76 61.71 67.45 61.22 67.45 61.22C64.66 61.1 61.28 63 59.9 65.45C59.9 65.45 53.37 76.99 50.11 82.76C49.5 83.84 50.11 82.76 50.11 82.76C49.1 84.54 49.89 86.57 51.74 87.18C51.74 87.18 50.57 86.85 51.74 87.18L51.74 87.18L51.74 87.18Z" />
													<path id="Path 6" class="shp6" d="M38.23 79.75C32.86 74.29 29.48 66.75 29.34 58.36C29.2 50.02 32.29 42.39 37.42 36.76C38.4 35.67 37.84 36.32 37.84 36.32C39.36 34.89 41.49 35.19 42.58 36.97C42.58 36.97 41.95 35.95 42.63 37.05C45.86 42.34 52.34 52.92 52.34 52.92C53.8 55.31 53.87 59.24 52.49 61.69C52.49 61.69 46 73.21 42.75 78.97C42.15 80.04 42.75 78.97 42.75 78.97C41.75 80.75 39.66 81.07 38.23 79.75C38.23 79.75 39.09 80.61 38.23 79.75L38.23 79.75L38.23 79.75Z" />
													<path id="Oval 96" class="shp7" d="M59.83 61.21C62.04 61.21 63.83 59.42 63.83 57.21C63.83 55 62.04 53.21 59.83 53.21C57.63 53.21 55.83 55 55.83 57.21C55.83 59.42 57.63 61.21 59.83 61.21Z" />
												</g>
											</g>
										</g>
										<g id="Small1">
											<path id="Rectangle 184" class="shp8" d="M-20.22 56.38C-20.21 56.03 -19.93 55.7 -19.56 55.65L-18.28 55.47C-17.93 55.42 -17.55 55.65 -17.45 55.99L-15.83 61.09C-15.73 61.42 -15.35 61.69 -15 61.68L-10.89 61.64C-10.53 61.64 -10.17 61.36 -10.06 61.01L-8.55 55.93C-8.45 55.59 -8.09 55.34 -7.72 55.38L-6.44 55.54C-6.09 55.58 -5.78 55.9 -5.77 56.27L-5.54 61.56C-5.52 61.92 -5.23 62.29 -4.89 62.37L-0.9 63.4C-0.56 63.49 -0.13 63.32 0.06 63L2.84 58.49C3.03 58.18 3.44 58.03 3.79 58.17L4.98 58.65C5.31 58.79 5.52 59.17 5.44 59.54L4.29 64.7C4.21 65.06 4.39 65.49 4.7 65.66L8.28 67.68C8.59 67.85 9.04 67.8 9.3 67.56L13.19 63.87C13.44 63.63 13.87 63.6 14.17 63.83L15.2 64.6C15.49 64.82 15.59 65.24 15.43 65.55L12.94 70.29C12.78 70.6 12.86 71.06 13.11 71.3L16.04 74.17C16.3 74.42 16.75 74.48 17.08 74.3L21.75 71.77C22.07 71.6 22.5 71.68 22.74 71.97L23.53 72.98C23.75 73.26 23.74 73.7 23.48 73.98L19.89 77.87C19.64 78.14 19.59 78.61 19.77 78.91L21.86 82.44C22.04 82.74 22.46 82.92 22.83 82.83L27.99 81.6C28.35 81.51 28.74 81.7 28.89 82.04L29.39 83.22C29.53 83.55 29.4 83.97 29.09 84.17L24.6 87.01C24.3 87.2 24.12 87.64 24.22 87.98L25.31 91.93C25.41 92.26 25.77 92.55 26.12 92.56L31.49 92.69C31.84 92.7 32.16 92.98 32.21 93.35L32.39 94.62C32.44 94.97 32.21 95.35 31.88 95.45L26.76 97.06C26.42 97.16 26.15 97.54 26.15 97.88L26.19 101.98C26.2 102.33 26.47 102.7 26.83 102.8L31.93 104.3C32.28 104.41 32.53 104.76 32.48 105.14L32.33 106.4C32.28 106.76 31.96 107.06 31.59 107.08L26.28 107.31C25.92 107.32 25.55 107.61 25.46 107.95L24.43 111.92C24.34 112.26 24.51 112.69 24.83 112.88L29.36 115.64C29.68 115.83 29.82 116.24 29.68 116.59L29.2 117.77C29.07 118.11 28.68 118.31 28.31 118.23L23.12 117.08C22.77 117.01 22.33 117.19 22.16 117.5L20.13 121.06C19.96 121.37 20.01 121.82 20.26 122.07L23.95 125.95C24.2 126.2 24.22 126.63 24 126.93L23.23 127.95C23.01 128.23 22.58 128.34 22.27 128.17L17.51 125.7C17.2 125.54 16.74 125.62 16.49 125.87L13.61 128.79C13.36 129.04 13.3 129.49 13.48 129.82L16.02 134.47C16.19 134.79 16.12 135.22 15.82 135.45L14.81 136.24C14.52 136.46 14.08 136.45 13.81 136.19L9.89 132.62C9.62 132.37 9.15 132.32 8.85 132.5L5.3 134.58C5 134.76 4.82 135.18 4.91 135.54L6.15 140.68C6.24 141.03 6.05 141.43 5.7 141.57L4.52 142.07C4.19 142.21 3.77 142.09 3.57 141.77L0.71 137.31C0.52 137 0.08 136.83 -0.26 136.93L-4.23 138.02C-4.57 138.11 -4.85 138.47 -4.86 138.82L-5 144.16C-5.01 144.51 -5.29 144.83 -5.66 144.88L-6.93 145.06C-7.29 145.11 -7.66 144.88 -7.77 144.55L-9.38 139.45C-9.49 139.12 -9.86 138.85 -10.21 138.85L-14.33 138.89C-14.68 138.9 -15.05 139.17 -15.16 139.53L-16.66 144.6C-16.76 144.95 -17.12 145.2 -17.5 145.15L-18.77 145C-19.13 144.95 -19.43 144.64 -19.45 144.26L-19.68 138.98C-19.69 138.62 -19.99 138.25 -20.33 138.16L-24.31 137.14C-24.66 137.05 -25.08 137.22 -25.28 137.54L-28.05 142.05C-28.24 142.36 -28.65 142.51 -29 142.37L-30.19 141.89C-30.53 141.75 -30.74 141.37 -30.65 141L-29.5 135.83C-29.42 135.48 -29.61 135.05 -29.91 134.88L-33.49 132.86C-33.8 132.68 -34.26 132.74 -34.51 132.98L-38.4 136.66C-38.66 136.9 -39.09 136.93 -39.39 136.71L-40.41 135.94C-40.7 135.72 -40.8 135.29 -40.64 134.98L-38.16 130.25C-38 129.94 -38.07 129.48 -38.32 129.24L-41.26 126.37C-41.51 126.12 -41.97 126.06 -42.3 126.24L-46.97 128.76C-47.29 128.94 -47.72 128.86 -47.95 128.57L-48.74 127.56C-48.96 127.28 -48.95 126.84 -48.7 126.56L-45.1 122.66C-44.86 122.4 -44.81 121.93 -44.98 121.63L-47.08 118.1C-47.26 117.8 -47.68 117.62 -48.04 117.7L-53.21 118.94C-53.56 119.03 -53.96 118.84 -54.1 118.5L-54.61 117.32C-54.75 116.99 -54.62 116.57 -54.3 116.37L-49.82 113.53C-49.51 113.33 -49.34 112.9 -49.43 112.56L-50.53 108.61C-50.62 108.27 -50.98 107.99 -51.34 107.98L-56.7 107.84C-57.05 107.84 -57.38 107.56 -57.43 107.18L-57.61 105.92C-57.66 105.56 -57.43 105.19 -57.09 105.08L-51.97 103.48C-51.64 103.38 -51.37 103 -51.37 102.65L-51.41 98.56C-51.41 98.2 -51.69 97.84 -52.05 97.73L-57.15 96.23C-57.5 96.13 -57.75 95.77 -57.7 95.4L-57.54 94.13C-57.5 93.78 -57.18 93.47 -56.8 93.46L-51.5 93.23C-51.13 93.22 -50.77 92.92 -50.68 92.59L-49.64 88.62C-49.56 88.28 -49.73 87.85 -50.05 87.66L-54.58 84.9C-54.89 84.71 -55.04 84.3 -54.9 83.95L-54.42 82.76C-54.28 82.43 -53.89 82.22 -53.53 82.3L-48.34 83.45C-47.98 83.53 -47.55 83.34 -47.38 83.04L-45.35 79.48C-45.17 79.17 -45.23 78.72 -45.47 78.46L-49.17 74.59C-49.41 74.34 -49.44 73.91 -49.21 73.61L-48.44 72.59C-48.22 72.3 -47.79 72.2 -47.48 72.36L-42.72 74.83C-42.41 75 -41.95 74.92 -41.71 74.67L-38.83 71.75C-38.58 71.5 -38.52 71.04 -38.69 70.72L-41.23 66.07C-41.41 65.75 -41.33 65.32 -41.04 65.09L-40.02 64.3C-39.74 64.08 -39.3 64.09 -39.02 64.34L-35.11 67.92C-34.84 68.17 -34.37 68.22 -34.07 68.04L-30.52 65.96C-30.22 65.78 -30.04 65.36 -30.12 65L-31.37 59.86C-31.45 59.5 -31.27 59.11 -30.92 58.96L-29.74 58.46C-29.41 58.32 -28.98 58.45 -28.78 58.76L-25.93 63.23C-25.73 63.53 -25.29 63.7 -24.96 63.61L-20.99 62.52C-20.65 62.43 -20.36 62.07 -20.36 61.72L-20.22 56.38L-20.22 56.38Z" />
											<path id="Oval 206" class="shp9" d="M-13.6 135.09C5.35 135.09 20.71 119.5 20.71 100.27C20.71 81.03 5.35 65.44 -13.6 65.44C-32.56 65.44 -47.92 81.03 -47.92 100.27C-47.92 119.5 -32.56 135.09 -13.6 135.09Z" />
										</g>
										<g id="Small2">
											<path id="Rectangle 184" class="shp10" d="M126.4 55.89C126.42 55.54 126.71 55.22 127.08 55.18L128.35 55.02C128.71 54.98 129.08 55.21 129.18 55.55L130.71 60.67C130.81 61.01 131.18 61.28 131.53 61.29L135.64 61.32C136 61.32 136.37 61.05 136.48 60.69L138.08 55.65C138.18 55.3 138.55 55.06 138.92 55.11L140.19 55.29C140.55 55.34 140.85 55.66 140.86 56.04L140.99 61.32C141 61.69 141.29 62.06 141.63 62.15L145.59 63.25C145.94 63.34 146.36 63.18 146.57 62.86L149.42 58.4C149.61 58.1 150.03 57.95 150.37 58.1L151.56 58.6C151.89 58.74 152.09 59.13 152 59.49L150.76 64.64C150.67 64.99 150.85 65.43 151.16 65.6L154.7 67.68C155 67.86 155.46 67.82 155.72 67.58L159.68 63.97C159.94 63.73 160.36 63.71 160.66 63.94L161.67 64.73C161.96 64.95 162.05 65.38 161.88 65.68L159.32 70.38C159.15 70.69 159.22 71.14 159.46 71.39L162.35 74.31C162.6 74.56 163.05 74.63 163.38 74.46L168.1 72.01C168.42 71.84 168.85 71.93 169.08 72.23L169.85 73.25C170.07 73.54 170.05 73.97 169.79 74.24L166.13 78.08C165.88 78.34 165.82 78.81 165.99 79.11L168.02 82.68C168.19 82.98 168.61 83.17 168.98 83.09L174.16 81.94C174.52 81.86 174.91 82.06 175.05 82.4L175.54 83.59C175.67 83.92 175.54 84.34 175.22 84.53L170.68 87.29C170.37 87.48 170.19 87.92 170.28 88.26L171.31 92.22C171.39 92.56 171.75 92.85 172.1 92.87L177.46 93.1C177.82 93.11 178.13 93.4 178.18 93.77L178.34 95.04C178.38 95.4 178.14 95.77 177.81 95.86L172.66 97.38C172.32 97.48 172.05 97.85 172.04 98.2L172.01 102.29C172.01 102.64 172.28 103.02 172.64 103.13L177.71 104.71C178.05 104.82 178.3 105.19 178.24 105.56L178.07 106.82C178.02 107.18 177.69 107.47 177.32 107.48L172.01 107.62C171.64 107.63 171.27 107.91 171.17 108.25L170.07 112.2C169.98 112.54 170.14 112.97 170.46 113.17L174.94 116.01C175.25 116.2 175.39 116.61 175.24 116.96L174.74 118.13C174.6 118.46 174.21 118.67 173.84 118.58L168.67 117.34C168.32 117.26 167.88 117.44 167.71 117.74L165.62 121.26C165.44 121.57 165.48 122.02 165.72 122.28L169.35 126.22C169.59 126.47 169.61 126.9 169.38 127.2L168.59 128.2C168.37 128.49 167.93 128.58 167.63 128.41L162.91 125.86C162.6 125.69 162.14 125.76 161.89 126L158.96 128.88C158.71 129.12 158.64 129.58 158.81 129.91L161.27 134.6C161.44 134.92 161.35 135.35 161.05 135.58L160.03 136.34C159.74 136.56 159.3 136.54 159.02 136.28L155.17 132.64C154.91 132.39 154.44 132.33 154.14 132.5L150.55 134.52C150.25 134.7 150.06 135.11 150.14 135.48L151.29 140.64C151.37 140.99 151.18 141.38 150.83 141.52L149.64 142C149.3 142.14 148.88 142 148.69 141.69L145.91 137.17C145.72 136.86 145.29 136.69 144.95 136.77L140.96 137.79C140.62 137.88 140.33 138.24 140.32 138.59L140.09 143.92C140.07 144.27 139.78 144.59 139.41 144.64L138.13 144.79C137.78 144.84 137.4 144.6 137.31 144.26L135.78 139.14C135.68 138.8 135.31 138.53 134.96 138.53L130.85 138.5C130.49 138.49 130.12 138.76 130.01 139.12L128.41 144.16C128.3 144.51 127.94 144.75 127.57 144.7L126.3 144.52C125.94 144.47 125.64 144.15 125.63 143.78L125.5 138.49C125.49 138.13 125.2 137.76 124.86 137.66L120.9 136.57C120.55 136.47 120.12 136.63 119.92 136.95L117.07 141.41C116.88 141.72 116.46 141.86 116.12 141.71L114.93 141.21C114.6 141.07 114.4 140.68 114.49 140.32L115.73 135.17C115.82 134.82 115.64 134.39 115.33 134.21L111.79 132.13C111.49 131.95 111.03 132 110.77 132.23L106.81 135.85C106.55 136.08 106.13 136.1 105.83 135.87L104.82 135.09C104.53 134.87 104.44 134.44 104.61 134.13L107.17 129.44C107.34 129.13 107.27 128.67 107.03 128.42L104.14 125.5C103.89 125.25 103.44 125.18 103.11 125.35L98.39 127.8C98.07 127.97 97.64 127.88 97.41 127.59L96.64 126.56C96.42 126.28 96.44 125.84 96.7 125.57L100.36 121.73C100.61 121.47 100.67 121.01 100.5 120.7L98.47 117.14C98.3 116.83 97.88 116.64 97.51 116.72L92.32 117.87C91.97 117.95 91.58 117.76 91.44 117.41L90.95 116.23C90.82 115.89 90.95 115.47 91.27 115.28L95.81 112.52C96.12 112.33 96.3 111.9 96.21 111.56L95.18 107.59C95.1 107.25 94.74 106.96 94.39 106.95L89.02 106.72C88.67 106.7 88.35 106.41 88.31 106.04L88.15 104.77C88.11 104.42 88.35 104.05 88.68 103.95L93.83 102.43C94.17 102.33 94.44 101.97 94.45 101.62L94.48 97.52C94.48 97.17 94.21 96.8 93.85 96.69L88.78 95.1C88.44 94.99 88.19 94.63 88.24 94.26L88.42 92.99C88.47 92.63 88.8 92.34 89.17 92.33L94.48 92.19C94.85 92.19 95.22 91.9 95.32 91.56L96.42 87.61C96.51 87.27 96.35 86.85 96.03 86.65L91.55 83.81C91.24 83.61 91.1 83.2 91.25 82.86L91.75 81.68C91.89 81.35 92.28 81.15 92.65 81.23L97.82 82.47C98.17 82.56 98.61 82.38 98.78 82.08L100.87 78.55C101.05 78.25 101.01 77.79 100.77 77.53L97.14 73.6C96.9 73.34 96.88 72.91 97.11 72.62L97.9 71.61C98.12 71.33 98.56 71.23 98.86 71.4L103.58 73.95C103.89 74.12 104.35 74.05 104.6 73.81L107.53 70.93C107.78 70.69 107.85 70.24 107.68 69.9L105.22 65.21C105.05 64.89 105.14 64.46 105.44 64.24L106.46 63.47C106.75 63.25 107.19 63.27 107.46 63.53L111.32 67.17C111.58 67.42 112.05 67.48 112.35 67.31L115.94 65.29C116.24 65.12 116.43 64.7 116.35 64.33L115.2 59.17C115.12 58.82 115.31 58.43 115.66 58.29L116.85 57.81C117.19 57.68 117.61 57.81 117.8 58.13L120.58 62.64C120.77 62.95 121.2 63.13 121.54 63.04L125.53 62.02C125.87 61.93 126.16 61.58 126.17 61.23L126.4 55.89L126.4 55.89Z" />
											<path id="Oval 206" class="shp11" d="M132.27 134.73C151.22 134.73 166.59 119.14 166.59 99.91C166.59 80.67 151.22 65.08 132.27 65.08C113.32 65.08 97.96 80.67 97.96 99.91C97.96 119.14 113.32 134.73 132.27 134.73Z" />
										</g>
									</g>
								</g>
							</g>
						</g>
					</g>
				</g>
			</g>
		</g>
	</g>
</svg>