<svg xmlns="http://www.w3.org/2000/svg" xmlns:xlink="http://www.w3.org/1999/xlink" viewBox="0 0 198.56 96.69"><defs><style>.cls-1{fill:url(#linear-gradient);}.cls-2{fill:#747ba6;}.cls-3{fill:#000001;}.cls-4{fill:#0c7c00;}</style><linearGradient id="linear-gradient" x1="9.83" y1="11.5" x2="187.85" y2="75.42" gradientUnits="userSpaceOnUse"><stop offset="0" stop-color="#a78c30"/><stop offset="0.41" stop-color="#7a5421"/><stop offset="0.76" stop-color="#d3c548"/><stop offset="1" stop-color="#7a5421"/></linearGradient></defs><title>YubiKey</title><g id="Layer_2" data-name="Layer 2"><g id="Layer_1-2" data-name="Layer 1"><path class="cls-1" d="M.67,28.46a7.81,7.81,0,0,1,7.8-7.8h61.6c.17,0,.45,0,.47-.13v0a2.51,2.51,0,0,1,2.52-2.43h7.11A11.83,11.83,0,0,0,84,17.69c1.23-.43,2.17-1.24,3.36-4.17a8.85,8.85,0,0,1,2.22-3.28,10,10,0,0,1,3.42-2A123.71,123.71,0,0,1,113.81,3a139.74,139.74,0,0,1,22.6-1.81A162.5,162.5,0,0,1,183,8.2a14.43,14.43,0,0,1,5.47,3,10.89,10.89,0,0,1,3.17,4.72,103.44,103.44,0,0,1,0,64.89,10.89,10.89,0,0,1-3.17,4.72,14.64,14.64,0,0,1-5.47,3,162.39,162.39,0,0,1-46.63,7,140.88,140.88,0,0,1-22.6-1.8A123.26,123.26,0,0,1,93,88.45a9.86,9.86,0,0,1-3.42-2,8.69,8.69,0,0,1-2.22-3.28C86.21,80.25,85.22,79.41,84,79a12.34,12.34,0,0,0-3.86-.39H73.06a2.53,2.53,0,0,1-2.52-2.53,2,2,0,0,0-.47,0H8.47a7.81,7.81,0,0,1-7.8-7.8ZM184.89,48.34a8.78,8.78,0,1,0-8.78,8.78,8.79,8.79,0,0,0,8.78-8.78"/><path class="cls-2" d="M196.22,48.34a104,104,0,0,1-5.15,32.09,9.88,9.88,0,0,1-2.84,4.21,13.42,13.42,0,0,1-5,2.73,161.24,161.24,0,0,1-46.3,7,139,139,0,0,1-22.4-1.79,123,123,0,0,1-20.59-5.21,8.75,8.75,0,0,1-3-1.76A7.58,7.58,0,0,1,89,82.73c-1.23-3-2.37-4.25-4.07-4.83a13,13,0,0,0-4.24-.46h-7.1a1.36,1.36,0,0,1-1.36-1.36c0-.16-.14-1.22-1.64-1.22H9a6.63,6.63,0,0,1-6.64-6.63V28.46A6.63,6.63,0,0,1,9,21.83H70.56c1.5,0,1.64-1.06,1.64-1.22a1.37,1.37,0,0,1,1.36-1.36h7.1a13,13,0,0,0,4.24-.45C86.6,18.21,87.74,17,89,14a7.54,7.54,0,0,1,1.92-2.87,8.91,8.91,0,0,1,3-1.76A123,123,0,0,1,114.5,4.13a139,139,0,0,1,22.4-1.79,161.24,161.24,0,0,1,46.3,7,13.45,13.45,0,0,1,5,2.74,9.79,9.79,0,0,1,2.84,4.2,104,104,0,0,1,5.15,32.08m-29.55,0a9.94,9.94,0,1,0,9.94-9.94,9.94,9.94,0,0,0-9.94,9.94m31.89,0a105.77,105.77,0,0,0-5.27-32.81,12,12,0,0,0-3.51-5.22,15.41,15.41,0,0,0-5.91-3.22A163.38,163.38,0,0,0,136.9,0a141.88,141.88,0,0,0-22.78,1.82,125.37,125.37,0,0,0-21,5.31,11,11,0,0,0-3.82,2.25,9.8,9.8,0,0,0-2.52,3.7c-1.13,2.78-1.9,3.24-2.66,3.51a11.66,11.66,0,0,1-3.48.33h-7.1A3.67,3.67,0,0,0,70,19.49H9a9,9,0,0,0-9,9V68.23a9,9,0,0,0,9,9H70a3.66,3.66,0,0,0,3.52,2.57h7.1a11.23,11.23,0,0,1,3.48.34c.76.26,1.53.72,2.66,3.5a9.84,9.84,0,0,0,2.52,3.71,11.08,11.08,0,0,0,3.82,2.24,125.13,125.13,0,0,0,21,5.31,140.74,140.74,0,0,0,22.78,1.82,163.36,163.36,0,0,0,47-7.08,15.63,15.63,0,0,0,5.91-3.23,12,12,0,0,0,3.51-5.22,105.79,105.79,0,0,0,5.27-32.82m-29.55,0a7.6,7.6,0,1,1,7.6,7.61,7.62,7.62,0,0,1-7.6-7.61"/><path class="cls-3" d="M191.07,16.26a9.79,9.79,0,0,0-2.84-4.2,13.31,13.31,0,0,0-5-2.74,161.23,161.23,0,0,0-46.29-7A137.86,137.86,0,0,0,114.5,4.13,123,123,0,0,0,93.91,9.34a8.91,8.91,0,0,0-3,1.76A7.54,7.54,0,0,0,89,14c-1.23,3-2.37,4.24-4.07,4.82a13,13,0,0,1-4.24.46h-7.1a1.38,1.38,0,0,0-1.36,1.36c0,.16-.14,1.22-1.64,1.22H9a6.62,6.62,0,0,0-6.62,6.63V68.23A6.62,6.62,0,0,0,9,74.86h61.6c1.5,0,1.64,1.06,1.64,1.22a1.38,1.38,0,0,0,1.36,1.36h7.1a13,13,0,0,1,4.24.46c1.7.58,2.84,1.8,4.07,4.83a7.58,7.58,0,0,0,1.92,2.86,8.91,8.91,0,0,0,3,1.76,121.09,121.09,0,0,0,20.59,5.21,139,139,0,0,0,22.41,1.79,161.23,161.23,0,0,0,46.29-7,13.31,13.31,0,0,0,5-2.74,9.79,9.79,0,0,0,2.84-4.2,102.52,102.52,0,0,0,0-64.17M7.2,70V59.51H55.36V70Zm4-10.94V48.57H55.36V59.06Zm0-10.93V37.63H55.36v10.5Zm-4-10.94V26.69H55.36v10.5ZM132.86,69.33a21,21,0,1,1,21-21,21,21,0,0,1-21,21m43.75-11a9.95,9.95,0,1,1,9.94-9.95,9.95,9.95,0,0,1-9.94,9.95"/><path class="cls-4" d="M132.87,51.44a3.08,3.08,0,0,1-2.82-1.84,1.07,1.07,0,0,0,.06-.32,1.12,1.12,0,0,0-.55-.94,1.09,1.09,0,0,0,.55-.93,1.2,1.2,0,0,0-.06-.32,3.09,3.09,0,1,1,2.82,4.35m11.93-3.1A11.9,11.9,0,0,1,136,59.85a1.49,1.49,0,0,1-1.07.45,1.55,1.55,0,0,1-1.54-1.55,1.69,1.69,0,0,1,.1-.56,1.55,1.55,0,0,1-1.31-1.53,1.61,1.61,0,0,1,.13-.63,1.54,1.54,0,0,1-1.38-1.54,1.52,1.52,0,0,1,.43-1.07,5.25,5.25,0,0,1-3.31-3,1.49,1.49,0,0,1-.55-1.15,1.51,1.51,0,0,1,.33-.94,1.47,1.47,0,0,1-.33-.93,1.49,1.49,0,0,1,.55-1.15,5.25,5.25,0,0,1,3.31-3,1.52,1.52,0,0,1-.43-1.07,1.55,1.55,0,0,1,1.38-1.54,1.61,1.61,0,0,1-.13-.63,1.55,1.55,0,0,1,1.31-1.53,1.69,1.69,0,0,1-.1-.56,1.54,1.54,0,0,1,1.54-1.54,1.5,1.5,0,0,1,1.07.44,11.9,11.9,0,0,1,8.84,11.5M132.87,53.2a4.86,4.86,0,1,0-4.5-6.67,1.1,1.1,0,0,0-.47.88,1.09,1.09,0,0,0,.55.93,1.12,1.12,0,0,0-.55.94,1.1,1.1,0,0,0,.47.88,4.85,4.85,0,0,0,4.5,3m.15,2.2a7.06,7.06,0,0,0,0-14.11,1.08,1.08,0,0,0-1.69.91,1.11,1.11,0,0,0,1.1,1.11,1.06,1.06,0,0,0,.66-.24,5.27,5.27,0,0,1,0,10.54,1,1,0,0,0-.63-.23,1.11,1.11,0,0,0,0,2.21,1.09,1.09,0,0,0,.59-.19m.67,2.36a1.11,1.11,0,0,0,.81-.36,9.18,9.18,0,0,0,0-18.1,1.08,1.08,0,0,0-.81-.37,1.1,1.1,0,1,0,0,2.2,1,1,0,0,0,.47-.11,7.43,7.43,0,0,1,0,14.65,1.06,1.06,0,0,0-.47-.12,1.11,1.11,0,1,0,0,2.21m10.66-9.42a11.49,11.49,0,0,0-8.63-11.11,1.06,1.06,0,0,0-.83-.39,1.1,1.1,0,1,0,0,2.2,1.23,1.23,0,0,0,.39-.07,9.67,9.67,0,0,1,0,18.76,1,1,0,0,0-.39-.08,1.11,1.11,0,0,0,0,2.21,1.07,1.07,0,0,0,.83-.4,11.49,11.49,0,0,0,8.63-11.12"/></g></g></svg>